<?xml version="1.0" encoding="UTF-8"?>
<svg id="Layer_2" data-name="Layer 2" xmlns="http://www.w3.org/2000/svg" viewBox="0 0 501.43 417.22">
  <defs>
    <style>
      .cls-1 {
        opacity: .1;
      }

      .cls-1, .cls-2, .cls-3, .cls-4, .cls-5 {
        stroke-width: 0px;
      }

      .cls-1, .cls-3, .cls-4, .cls-5 {
        fill: #ed028c;
      }

      .cls-2 {
        fill: #262626;
      }

      .cls-4 {
        opacity: .3;
      }

      .cls-5 {
        opacity: .6;
      }
    </style>
  </defs>
  <g id="Layer_2-2" data-name="Layer 2">
    <g>
      <g>
        <path class="cls-2" d="M223.81,344.21c-33.93,0-61.53-27.6-61.53-61.53v-147.42c0-4.14,3.36-7.5,7.5-7.5s7.5,3.36,7.5,7.5v147.42c0,25.65,20.87,46.53,46.53,46.53s46.53-20.87,46.53-46.53c0-4.14,3.36-7.5,7.5-7.5s7.5,3.36,7.5,7.5c0,33.92-27.6,61.53-61.53,61.53Z"/>
        <path class="cls-2" d="M331.86,344.21c-33.92,0-61.53-27.6-61.53-61.53v-147.42c0-4.14,3.36-7.5,7.5-7.5s7.5,3.36,7.5,7.5v147.42c0,25.65,20.87,46.53,46.53,46.53s46.53-20.87,46.53-46.53c0-4.14,3.36-7.5,7.5-7.5s7.5,3.36,7.5,7.5c0,33.92-27.6,61.53-61.53,61.53Z"/>
        <path class="cls-2" d="M439.91,344.21c-33.92,0-61.53-27.6-61.53-61.53v-147.42c0-4.14,3.36-7.5,7.5-7.5s7.5,3.36,7.5,7.5v147.42c0,25.65,20.87,46.53,46.53,46.53s46.53-20.87,46.53-46.53V61.53c0-25.65-20.87-46.53-46.53-46.53s-46.53,20.87-46.53,46.53c0,4.14-3.36,7.5-7.5,7.5s-7.5-3.36-7.5-7.5c0-25.65-20.87-46.53-46.53-46.53s-46.53,20.87-46.53,46.53c0,4.14-3.36,7.5-7.5,7.5s-7.5-3.36-7.5-7.5c0-25.65-20.87-46.53-46.53-46.53s-46.53,20.87-46.53,46.53c0,4.14-3.36,7.5-7.5,7.5s-7.5-3.36-7.5-7.5c0-25.65-20.87-46.53-46.53-46.53s-46.53,20.87-46.53,46.53v94c0,4.14-3.36,7.5-7.5,7.5s-7.5-3.36-7.5-7.5V61.53C54.23,27.6,81.83,0,115.75,0c23.28,0,43.58,12.99,54.03,32.11C180.23,12.99,200.53,0,223.8,0s43.58,12.99,54.03,32.11C288.28,12.99,308.58,0,331.86,0s43.58,12.99,54.03,32.11C396.33,12.99,416.63,0,439.91,0c33.93,0,61.53,27.6,61.53,61.53v221.16c0,33.92-27.6,61.53-61.53,61.53Z"/>
        <path class="cls-2" d="M115.75,344.21c-33.93,0-61.53-27.6-61.53-61.53v-59.48c0-4.14,3.36-7.5,7.5-7.5s7.5,3.36,7.5,7.5v59.48c0,25.65,20.87,46.53,46.53,46.53s46.53-20.87,46.53-46.53c0-4.14,3.36-7.5,7.5-7.5s7.5,3.36,7.5,7.5c0,33.92-27.6,61.53-61.53,61.53Z"/>
        <path class="cls-2" d="M311.56,417.22H121.48c-35.06,0-67.3-20.52-82.15-52.28-.03-.07-.06-.14-.09-.21L6.95,289.78c-8.45-18.16-9.23-39.31-2.12-58.04,3.6-9.48,6.84-19.84,10.51-33.6.01-.05.02-.09.04-.14L54.52,61.71c1.14-3.98,5.3-6.28,9.28-5.14,3.98,1.14,6.28,5.3,5.14,9.28L29.81,202.08c-3.8,14.23-7.18,25.03-10.96,34.99-5.69,15-5.06,31.93,1.74,46.47.03.07.06.14.09.21l32.29,74.95c12.41,26.45,39.29,43.53,68.51,43.53h182.26c-1.99-22.96-13.05-44.15-31.04-58.99-3.2-2.64-3.65-7.36-1.01-10.56,2.64-3.19,7.36-3.65,10.56-1.01,23.39,19.31,36.81,47.76,36.81,78.06,0,4.14-3.36,7.5-7.5,7.5Z"/>
      </g>
      <path class="cls-3" d="M140.35,216.24c-4.13,0-7.47,3.33-7.5,7.45h-27.78v-54.46h.47c4.14,0,7.5-3.36,7.5-7.5s-3.36-7.5-7.5-7.5h-14.91c-4.14,0-7.5,3.36-7.5,7.5s3.06,7.18,6.94,7.47v54.51c-3.88.29-6.94,3.52-6.94,7.47s3.36,7.5,7.5,7.5h42.22c.03,4.12,3.37,7.45,7.5,7.45s7.5-3.36,7.5-7.5v-14.91c0-4.14-3.36-7.5-7.5-7.5Z"/>
      <path class="cls-5" d="M224.29,238.69h-.98c-13.72,0-24.88-11.16-24.88-24.88v-34.7c0-13.72,11.16-24.88,24.88-24.88h.98c13.72,0,24.88,11.16,24.88,24.88v34.7c0,13.72-11.16,24.88-24.88,24.88ZM223.31,169.24c-5.45,0-9.88,4.43-9.88,9.88v34.7c0,5.45,4.43,9.88,9.88,9.88h.98c5.45,0,9.88-4.43,9.88-9.88v-34.7c0-5.45-4.43-9.88-9.88-9.88h-.98Z"/>
      <path class="cls-4" d="M363.45,159.46h-6.31c-3.08,0-5.85,1.88-6.98,4.75l-18.18,46.18-17.48-46.09c-1.11-2.91-3.9-4.84-7.01-4.84h-7.82c-4.14,0-7.5,3.36-7.5,7.5s3.36,7.5,7.5,7.5h2.65l18.84,49.66c-2.92,1.03-5.02,3.8-5.02,7.07,0,4.14,3.36,7.5,7.5,7.5h17.65c4.14,0,7.5-3.36,7.5-7.5,0-3.62-2.57-6.64-5.98-7.35l19.44-49.38h1.2c4.14,0,7.5-3.36,7.5-7.5s-3.36-7.5-7.5-7.5Z"/>
      <path class="cls-1" d="M464.83,223.69h-32.96v-17.11h21.31c4.14,0,7.5-3.36,7.5-7.5s-3.36-7.5-7.5-7.5h-21.31v-17.12h32.96c4.14,0,7.5-3.36,7.5-7.5s-3.36-7.5-7.5-7.5h-47.46c-4.14,0-7.5,3.36-7.5,7.5s3.09,7.21,7,7.47v49.28c-3.91.26-7,3.5-7,7.47s3.36,7.5,7.5,7.5h47.46c4.14,0,7.5-3.36,7.5-7.5s-3.36-7.5-7.5-7.5Z"/>
      <path class="cls-2" d="M169.78,116.31c-.49,0-.98-.05-1.47-.15-.48-.1-.95-.24-1.4-.43-.45-.19-.89-.42-1.3-.69-.41-.27-.79-.59-1.14-.93-.34-.35-.66-.73-.93-1.14-.27-.41-.5-.84-.69-1.3-.18-.45-.33-.92-.42-1.4-.1-.48-.15-.98-.15-1.46s.05-.99.15-1.47c.09-.48.24-.95.42-1.4.19-.45.42-.89.69-1.3.27-.41.59-.79.93-1.14.35-.34.73-.66,1.14-.93.41-.27.85-.5,1.3-.69.45-.19.92-.33,1.4-.43.97-.19,1.97-.19,2.93,0,.48.1.95.24,1.41.43.45.19.89.42,1.29.69.41.27.8.59,1.14.93.35.35.66.73.93,1.14.27.41.51.85.69,1.3.19.45.34.92.43,1.4.1.48.15.98.15,1.47,0,1.97-.8,3.9-2.2,5.3-1.4,1.39-3.33,2.2-5.3,2.2Z"/>
      <path class="cls-2" d="M277.83,116.31c-1.98,0-3.91-.81-5.3-2.2-.35-.35-.66-.73-.94-1.14-.27-.41-.5-.84-.69-1.3-.18-.45-.33-.92-.42-1.4-.1-.48-.15-.98-.15-1.46,0-1.98.8-3.91,2.2-5.31,1.73-1.74,4.33-2.54,6.76-2.05.48.1.95.24,1.41.43.45.19.89.42,1.29.69.41.27.8.59,1.14.93,1.4,1.4,2.2,3.33,2.2,5.31,0,.48-.05.98-.15,1.46-.09.48-.24.95-.42,1.4-.19.46-.42.89-.69,1.3-.28.41-.59.79-.94,1.14s-.73.66-1.14.93c-.4.27-.84.5-1.29.69-.46.19-.93.33-1.41.43-.48.1-.97.15-1.46.15Z"/>
      <path class="cls-2" d="M385.88,116.3c-1.98,0-3.91-.8-5.3-2.19-.35-.35-.66-.73-.94-1.14-.27-.41-.5-.84-.68-1.3-.19-.45-.34-.92-.43-1.4-.1-.48-.15-.98-.15-1.46s.05-.99.15-1.47c.09-.48.24-.95.43-1.4.18-.46.41-.89.68-1.3.28-.41.59-.79.94-1.14,1.74-1.74,4.33-2.54,6.77-2.05.48.1.95.24,1.4.43.45.19.89.42,1.3.69.41.27.79.59,1.13.93,1.4,1.4,2.2,3.33,2.2,5.31,0,.48-.05.98-.15,1.46-.09.48-.24.95-.42,1.4-.19.46-.42.89-.69,1.3-.28.41-.59.79-.94,1.14-.34.34-.72.66-1.13.93-.41.27-.85.5-1.3.69-.45.19-.92.33-1.4.43-.49.1-.98.14-1.47.14Z"/>
    </g>
  </g>
</svg>