<?xml version="1.0" encoding="UTF-8"?>
<svg id="Layer_2" data-name="Layer 2" xmlns="http://www.w3.org/2000/svg" viewBox="0 0 485.62 468.51">
  <defs>
    <style>
      .cls-1 {
        fill: #fafafa;
      }

      .cls-1, .cls-2 {
        stroke-width: 0px;
      }

      .cls-2 {
        fill: #ed028c;
      }
    </style>
  </defs>
  <g id="Layer_2_copy" data-name="Layer 2 copy">
    <g>
      <path class="cls-2" d="M97.5,117.26c-26.77,0-48.55-21.78-48.55-48.55s21.78-48.55,48.55-48.55,48.55,21.78,48.55,48.55-21.78,48.55-48.55,48.55ZM97.5,35.16c-18.5,0-33.55,15.05-33.55,33.55s15.05,33.55,33.55,33.55,33.55-15.05,33.55-33.55-15.05-33.55-33.55-33.55Z"/>
      <path class="cls-2" d="M417.87,413.21c-10.32,0-20.28-5.65-25.27-15.31l-10.38-20.06c-1.9-3.68-.46-8.2,3.22-10.11,3.68-1.91,8.21-.46,10.11,3.21l10.38,20.06c3.2,6.18,10.71,8.88,17.11,6.14,3.36-1.44,5.92-4.11,7.22-7.52,1.3-3.41,1.16-7.11-.38-10.41l-55.16-119.09c-3.62-7.82-11.53-12.87-20.14-12.87h-21.29c-4.14,0-7.5-3.36-7.5-7.5s3.36-7.5,7.5-7.5h21.29c14.44,0,27.69,8.46,33.76,21.57l55.15,119.07c3.27,6.99,3.56,14.85.8,22.09-2.76,7.24-8.21,12.91-15.33,15.96-3.59,1.54-7.35,2.27-11.07,2.27Z"/>
      <path class="cls-1" d="M315.67,97.1c-26.77,0-48.55-21.78-48.55-48.55S288.9,0,315.67,0s48.55,21.78,48.55,48.55-21.78,48.55-48.55,48.55ZM315.67,15c-18.5,0-33.55,15.05-33.55,33.55s15.05,33.55,33.55,33.55,33.55-15.05,33.55-33.55-15.05-33.55-33.55-33.55Z"/>
      <path class="cls-1" d="M412.68,427.79c-2.71,0-5.32-1.48-6.66-4.04l-44.4-85.22c-1.91-3.67-.49-8.2,3.19-10.12,3.67-1.91,8.2-.49,10.12,3.19l41.09,78.88,58.95-27.25c3.76-1.74,8.22-.1,9.96,3.66,1.74,3.76.1,8.22-3.66,9.95l-65.44,30.25c-1.02.47-2.09.69-3.14.69Z"/>
      <path class="cls-2" d="M179.12,235.02c-1.57,0-3.1-.49-4.37-1.41l-40.57-29.1c-3.37-2.41-4.14-7.1-1.72-10.47,2.42-3.36,7.1-4.14,10.47-1.72l38.53,27.64,90.32-2.18c5.18-.12,9.23-4.28,9.23-9.46s-4.24-9.46-9.46-9.46h-71.45c-1.74,0-3.43-.61-4.77-1.72l-59.72-49.29c-5.32-4.39-11.74-7.27-18.56-8.32l-10.46-1.61c-4.09-.63-6.9-4.46-6.27-8.55.63-4.09,4.46-6.9,8.55-6.27l10.46,1.61c9.49,1.46,18.42,5.46,25.82,11.57l57.64,47.58h68.75c13.49,0,24.46,10.97,24.46,24.46s-10.48,24.13-23.87,24.45l-92.83,2.25c-.06,0-.12,0-.18,0Z"/>
      <path class="cls-1" d="M310.83,235.02h-146.88c-4.14,0-7.5-3.36-7.5-7.5s3.36-7.5,7.5-7.5h146.88c4.14,0,7.5,3.36,7.5,7.5s-3.36,7.5-7.5,7.5Z"/>
      <path class="cls-1" d="M184.35,274.15c-4.14,0-7.5-3.36-7.5-7.5v-39.13c0-4.14,3.36-7.5,7.5-7.5s7.5,3.36,7.5,7.5v39.13c0,4.14-3.36,7.5-7.5,7.5Z"/>
      <path class="cls-1" d="M288.5,274.15c-4.14,0-7.5-3.36-7.5-7.5v-39.13c0-4.14,3.36-7.5,7.5-7.5s7.5,3.36,7.5,7.5v39.13c0,4.14-3.36,7.5-7.5,7.5Z"/>
      <path class="cls-1" d="M184.35,468.51H31.91c-4.14,0-7.5-3.36-7.5-7.5s3.36-7.5,7.5-7.5h144.94v-117.75c0-4.14,3.36-7.5,7.5-7.5s7.5,3.36,7.5,7.5v125.25c0,4.14-3.36,7.5-7.5,7.5Z"/>
      <path class="cls-1" d="M478.12,468.51h-198.31c-4.14,0-7.5-3.36-7.5-7.5v-30.19c0-2.9,1.68-5.55,4.3-6.78l35.35-16.66v-71.62c0-4.14,3.36-7.5,7.5-7.5s7.5,3.36,7.5,7.5v76.37c0,2.9-1.68,5.55-4.3,6.78l-35.35,16.66v17.93h190.81c4.14,0,7.5,3.36,7.5,7.5s-3.36,7.5-7.5,7.5Z"/>
      <path class="cls-1" d="M49.63,163.64c-3.09,0-5.99-1.93-7.07-5.01l-9.74-27.66c-1.37-3.91.68-8.19,4.58-9.56,3.91-1.38,8.19.68,9.56,4.58l9.74,27.66c1.37,3.91-.68,8.19-4.58,9.56-.82.29-1.66.43-2.49.43Z"/>
      <path class="cls-1" d="M375.95,213.17h-74.7c-13.29,0-24.1-10.81-24.1-24.1s10.81-24.1,24.1-24.1h47.97v-17.33c0-4.14,3.36-7.5,7.5-7.5s7.5,3.36,7.5,7.5v24.83c0,4.14-3.36,7.5-7.5,7.5h-55.47c-5.02,0-9.1,4.08-9.1,9.1s4.08,9.1,9.1,9.1h74.7c4.79,0,9.21-1.95,12.45-5.48,3.19-3.49,4.74-7.99,4.37-12.69l-9.43-63c-.89-5.92-4.63-11.01-10.02-13.61l-14.57-7.03c-3.73-1.8-5.29-6.28-3.49-10.01,1.8-3.73,6.28-5.29,10.01-3.5l14.57,7.03c9.86,4.76,16.72,14.07,18.34,24.9l9.47,63.24c.02.15.04.29.05.44.79,8.89-2.21,17.76-8.23,24.35-6.02,6.58-14.59,10.36-23.52,10.36Z"/>
      <path class="cls-1" d="M289.09,185.26c-1.05,0-2.12-.22-3.14-.69-3.76-1.74-5.4-6.19-3.67-9.95l15.72-34.06c1.74-3.76,6.19-5.4,9.95-3.67,3.76,1.74,5.4,6.19,3.66,9.95l-15.72,34.06c-1.27,2.74-3.98,4.36-6.81,4.36Z"/>
      <path class="cls-1" d="M230.3,168.24c-1.02,0-2.06-.21-3.06-.65-3.78-1.69-5.48-6.13-3.79-9.91l25.91-57.96c3.84-8.6,10.71-15.4,19.34-19.17l17.39-7.59c3.8-1.66,8.22.08,9.87,3.87,1.66,3.8-.08,8.22-3.87,9.87l-17.39,7.59c-5.2,2.27-9.33,6.37-11.65,11.54l-25.91,57.96c-1.25,2.79-3.98,4.44-6.85,4.44Z"/>
      <path class="cls-1" d="M279.81,468.51h-95.46c-4.14,0-7.5-3.36-7.5-7.5s3.36-7.5,7.5-7.5h95.46c4.14,0,7.5,3.36,7.5,7.5s-3.36,7.5-7.5,7.5Z"/>
      <path class="cls-1" d="M353.26,343.26h-199.7c-8.85,0-16.52-5.13-20.2-12.58-17.67,4.46-36.78-3.62-45.51-20.5l-59.92-115.83c-7.97-15.41-1.92-34.44,13.49-42.42l9.71-5.02c15.41-7.98,34.44-1.92,42.42,13.49l51.08,98.73h208.63c12.41,0,22.51,10.1,22.51,22.51v39.09c0,12.41-10.1,22.51-22.51,22.51ZM138.55,313.25c1.35,0,2.71.37,3.9,1.09,2.24,1.36,3.6,3.79,3.6,6.41,0,4.14,3.37,7.51,7.51,7.51h199.7c4.14,0,7.51-3.37,7.51-7.51v-39.09c0-4.14-3.37-7.51-7.51-7.51h-213.2c-2.8,0-5.37-1.56-6.66-4.05l-53.17-102.79c-4.17-8.07-14.13-11.24-22.2-7.06l-9.71,5.02c-8.07,4.17-11.24,14.13-7.06,22.2l59.92,115.83c6.38,12.33,21.6,17.17,33.93,10.79,1.08-.56,2.27-.84,3.45-.84Z"/>
      <path class="cls-1" d="M26.26,137.26c-9.47,0-17.6-7.21-18.54-16.83L.09,42.22c-.48-4.96.99-9.81,4.15-13.65,3.16-3.85,7.63-6.23,12.59-6.72l23.36-2.28c10.23-.99,19.37,6.51,20.37,16.75l7.63,78.2c1,10.23-6.51,19.37-16.75,20.37l-23.36,2.28c-.61.06-1.22.09-1.82.09ZM42.01,34.48c-.12,0-.24,0-.36.02l-23.36,2.28c-1.31.13-2.1.88-2.46,1.31-.36.44-.94,1.36-.81,2.67l7.63,78.2c.2,2,1.98,3.47,3.98,3.27l23.36-2.28h0c1.31-.13,2.1-.88,2.46-1.31.36-.44.94-1.36.81-2.67l-7.63-78.2c-.18-1.88-1.77-3.29-3.63-3.29Z"/>
    </g>
  </g>
</svg>