<?xml version="1.0" encoding="utf-8"?>
<!-- Generator: Adobe Illustrator 27.8.0, SVG Export Plug-In . SVG Version: 6.00 Build 0)  -->
<svg version="1.1" id="Layer_2_00000131329072033333644590000010908335179082272657_"
	 xmlns="http://www.w3.org/2000/svg" xmlns:xlink="http://www.w3.org/1999/xlink" x="0px" y="0px" viewBox="0 0 724.6 237.7"
	 style="enable-background:new 0 0 724.6 237.7;" xml:space="preserve">
<style type="text/css">
	.st0{fill:#FF78C9;}
	.st1{fill:#F7DC2D;}
	.st2{fill:#242424;}
</style>
<path class="st0" d="M444.7,39.9c-0.4-3.5-2.6-7-5.7-8.3c-4.4-2.2-10,0.9-12.7,4.8c-2.6,4.4-3.1,9.6-3.5,14.4
	c-0.9-6.1-1.7-12.2-5.2-17c-4.4-6.1-14.4-8.7-18.8-0.4c-0.4,0.9-0.9,1.7-0.9,3.1c-0.9,4.4,0.4,8.7,2.2,12.7
	c4.4,9.2,11.8,16.6,20.5,21c3.5,1.7,7.9,1.3,10.5-1.7c3.1-3.1,6.1-6.1,9.2-10C443.3,53.4,446,46.4,444.7,39.9z"/>
<path class="st1" d="M694.9,174.8c-0.4,0-0.9-0.4-0.9-0.9l-1.3-3.5c-0.4-0.4-0.9-0.4-1.3,0l-1.3,3.5c0,0.4-0.4,0.9-0.9,0.9l-1.7,0.9
	c-0.4,0.4-0.4,0.9,0,1.3l1.7,0.9c0.4,0,0.9,0.4,0.9,0.9l1.3,3.5c0.4,0.4,0.9,0.4,1.3,0l1.3-3.5c0-0.4,0.4-0.9,0.9-0.9l1.7-0.9
	c0.4-0.4,0.4-0.9,0-1.3L694.9,174.8z M717.6,184.9c-1.3-0.4-2.2-1.7-3.1-3.1l-4.4-10.5c-0.9-1.7-3.1-1.7-3.9,0l-4.4,10.5
	c-0.4,1.3-1.7,2.6-3.1,3.1l-5.7,2.6c-1.7,0.9-1.7,3.1,0,3.9l5.7,2.6c1.3,0.4,2.2,1.7,3.1,3.1l4.4,10.5c0.9,1.7,3.1,1.7,3.9,0
	l4.4-10.5c0.4-1.3,1.7-2.6,3.1-3.1l5.7-2.6c1.7-0.9,1.7-3.1,0-3.9L717.6,184.9z M691.4,195.3l1.3,1.3l2.2,1.3c0.9,0.4,0.9,1.3,0,1.7
	l-2.2,0.9l-1.3,1.3l-1.7,4.4c-0.4,0.9-1.3,0.9-1.7,0l-1.7-4.4l-1.3-1.3l-2.2-0.9c-0.9-0.4-0.9-1.3,0-1.7l2.2-1.3l1.3-1.3l1.7-4.4
	c0.4-0.9,1.3-0.9,1.7,0L691.4,195.3z"/>
<path class="st0" d="M432.3,194.5c1.7,0,3.5,0.4,4.8,0.4c-0.9,12.2-1.7,24.9-2.2,37.1c0,3.1,2.6,5.7,5.7,5.7s5.2-2.2,5.7-5.7
	c0.4-12.2,1.3-24.9,2.2-37.1c3.1,0,5.7-0.4,8.7-0.4c3.1-0.4,5.7-2.2,5.7-5.7c0-2.6-2.6-5.7-5.7-5.7c-8.3,0.4-16.6,0.9-24.9,0.4
	c-3.1-0.4-5.7,2.6-5.7,5.7C427,192.3,429.2,194.5,432.3,194.5z"/>
<path class="st0" d="M490.1,192.3c-1.7-3.1-3.1-7-6.6-8.3c-2.2-0.9-4.8-0.9-7,0.4c-1.7,0.9-2.6,3.1-3.5,5.2
	c-2.6,6.1-3.5,12.2-4.8,18.8c-1.3,7-3.1,14.4-3.9,21.8c-0.4,3.1,0.9,6.1,3.9,7c2.6,0.4,6.6-0.9,7-3.9c0-1.3,0.4-2.6,0.9-3.9
	c4.8-1.3,9.2-2.6,14-3.9c0.4,0,0.9-0.4,1.7-0.9c0.4,2.2,1.3,4.4,1.7,6.6c0.9,2.6,3.9,4.8,7,3.9c3.1-0.9,4.8-3.9,3.9-7
	C500.6,215.5,495.7,203.7,490.1,192.3z M486.6,214.2c-3.1,0.9-5.7,1.7-8.7,2.6c0-0.4,0-0.9,0.4-1.3c0.9-5.2,1.7-10.5,3.1-15.7
	c2.2,4.8,4.4,9.6,6.1,14C487.5,214.2,487,214.2,486.6,214.2z"/>
<path class="st0" d="M510.9,194.5c1.7,0,3.5,0.4,4.8,0.4c-0.9,12.2-1.7,24.9-2.2,37.1c0,3.1,2.6,5.7,5.7,5.7s5.2-2.2,5.7-5.7
	c0.4-12.2,1.3-24.9,2.2-37.1c3.1,0,5.7-0.4,8.7-0.4c3.1-0.4,5.7-2.2,5.7-5.7c0-2.6-2.6-5.7-5.7-5.7c-8.3,0.4-16.6,0.9-24.9,0.4
	c-3.1-0.4-5.7,2.6-5.7,5.2C505.7,192.3,507.8,194.5,510.9,194.5z"/>
<path class="st0" d="M549.1,194.5c1.7,0,3.5,0.4,4.8,0.4c-0.9,12.2-1.7,24.9-2.2,37.1c0,3.1,2.6,5.7,5.7,5.7s5.2-2.2,5.7-5.7
	c0.4-12.2,1.3-24.9,2.2-37.1c3.1,0,5.7-0.4,8.7-0.4c3.1-0.4,5.7-2.2,5.7-5.7c0-2.6-2.6-5.7-5.7-5.7c-8.3,0.4-16.6,0.9-24.9,0.4
	c-3.1-0.4-5.7,2.6-5.7,5.7S546.1,194.5,549.1,194.5z"/>
<path class="st0" d="M583,206.7c-3.1,9.2,0,20.5,8.7,25.3c8.7,5.2,19.7,2.6,27.1-3.9c6.6-6.1,9.2-16.2,6.6-24.9
	c-1.7-5.2-5.7-10-10.5-12.7C600.9,181.8,586.9,194.1,583,206.7z M610.9,219.8c-4.4,4.8-12.2,5.2-15.7,0c-2.2-2.6-2.6-6.1-1.3-9.6
	c1.3-3.9,3.5-7.4,6.6-9.6c7.4-5.7,15.3,3.1,14,11.4C614,215,613.1,217.7,610.9,219.8L610.9,219.8z"/>
<path class="st0" d="M629.7,206.7c-3.1,9.2,0,20.5,8.7,25.3c8.7,5.2,19.7,2.6,27.1-3.9c6.1-6.1,8.7-16.2,6.1-24.9
	c-1.7-5.2-5.2-10-10-12.7C647.6,181.8,633.7,194.1,629.7,206.7L629.7,206.7z M657.7,219.8c-4.4,4.8-12.2,5.2-15.7,0
	c-2.2-2.6-2.6-6.1-1.3-10c1.3-3.9,3.5-7,7-9.2c7.4-5.7,15.3,3.1,14,11.4C660.7,215,659.4,217.7,657.7,219.8z"/>
<path class="st2" d="M90.7,11.8C68,1.8,43.1-0.4,18.2,1.4C0.8,2.2-1,21,0.3,34.5c4.8,49.3,11.4,115.7,15.7,165.1
	c3.9,17,8.3,21,28.8,17c41.9-12.2,75.1-45.9,88.2-86.5C147.5,86.9,135.7,31.9,90.7,11.8z M49.3,177.3c-4.4-47.2-9.2-94.3-14-141.5
	c16.2-0.9,31.9,2.6,44.5,10.5C130,79.1,94.7,161.2,49.3,177.3z M251,59.4c-43.7-27.1-86.9,12.2-99.6,51.1
	c-10.5,28.8-0.4,63.8,26.6,79.5c27.5,15.7,61.6,8.7,83.8-12.7c20.1-19.7,28.8-50.7,20.5-77.7C277.2,83,265.9,68.6,251,59.4z
	 M193.2,98.4l4.4-0.9c1.3-0.4,2.2-0.9,2.6-1.7l4.4-6.1c0.9-1.3,2.2-0.9,2.6,0.4l1.3,7.4c0.4,1.3,0.9,2.2,1.7,2.6l3.5,2.6
	c1.3,0.9,0.9,2.2-0.4,2.6l-4.4,0.9c-1.3,0.4-2.2,0.9-2.6,1.7l-4.4,6.1c-0.9,1.3-2.2,0.9-2.6-0.4l-1.3-7.4c-0.4-1.3-0.9-2.2-1.7-2.6
	l-3.5-2.6C191.4,100.1,191.8,98.8,193.2,98.4z M199.7,150.8l-5.2,1.3c-1.3,0.4-2.6,0.9-3.1,2.2l-6.1,8.3c-0.9,1.3-3.1,0.9-3.5-0.9
	l-1.7-10c-0.4-1.3-0.9-2.6-2.2-3.5l-4.4-3.5c-1.3-0.9-0.9-3.1,0.9-3.5l5.2-1.3c1.3-0.4,2.6-0.9,3.1-2.2l6.1-8.3
	c0.9-1.3,3.1-0.9,3.5,0.9l1.7,10c0.4,1.3,0.9,2.6,2.2,3.5l4.4,3.5C201.9,148.2,201.4,150.4,199.7,150.8z M261.3,147.3l-12.7,2.6
	c-3.1,0.4-5.7,2.2-7.4,4.8l-14,19.2c-2.6,3.1-7.4,2.2-8.3-1.7l-4.4-23.1c-0.9-3.1-2.2-5.7-4.8-7.4l-10-7.9c-3.1-2.6-2.2-7.4,1.7-8.3
	l12.7-2.6c3.1-0.4,5.7-2.2,7.4-4.8l14-19.2c2.6-3.1,7.4-2.2,8.3,1.7l4.4,23.1c0.9,3.1,2.2,5.7,4.8,7.4l10,7.9
	C266.1,141.6,265.2,146.4,261.3,147.3z M359.1,37.6c-13.1-5.2-27.9-7.4-40.6-6.6c-3.1-2.6-6.6-3.9-10.9-3.9
	c-8.7,0.4-17.9,7.9-17.5,17.5c3.1,46.7,5.2,94.3,6.1,141.5c0.4,9.2,7.9,17.9,17.5,17.5c9.2-0.4,17.5-7.4,17.5-17.5
	c-0.4-3.9-0.4-8.3-0.4-12.2c13.1,5.2,26.6,8.7,39.7,12.7c9.2,2.2,19.7-3.1,21.4-12.2c1.7-8.7-2.6-18.8-12.2-21.4
	c-5.2-1.3-10-2.6-14.8-3.9c17.9-13.5,31.4-33.2,31.9-55C397.6,69,382.3,46.8,359.1,37.6z M352.2,114.9c-6.1,6.6-14.4,11.4-22.7,14
	c-0.9-21.4-1.7-42.4-2.6-63.3h0.4c9.2,1.3,17.9,3.1,24.5,6.6C367.9,81.7,362.2,103.5,352.2,114.9z M676.5,129.3
	c-1.2,19.2-6.1,39.4-19.9,53.1c-4.2-1-8.5-0.7-12.7,0.8c-5.9,2.1-11.4,6.7-15.5,12.7c-2.5-4.4-6-8-10-10.2
	c-6.9-4.1-14.3-4.9-21.5-2.2c-4.5,1.7-8.6,4.7-12,8.6c0.3-1,0.4-2.1,0.4-3.3c0-5.9-5.4-11.4-11.7-11.4h0c-1.7,0.1-3.5,0.2-5.2,0.3
	c-17-21.6-18.8-53.4-17.7-82c0.4-12.2,1.3-24.5,2.6-36.7c0.9-10,7-17,17.5-17.5c8.7-0.4,18.3,8.3,17.5,17.5
	c-1.7,17-6.1,60.3-0.9,78.2c3.1,12.7,11.4,27.9,27.1,27.9c17.9,0,24.9-16.6,26.6-34.9c2.2-22.7-1.3-45.9-7.4-69.4
	c-2.2-9.2,3.1-18.3,12.2-21.4c9.2-3.1,19.2,3.5,21.4,12.2c3.9,14,6.6,28.4,7.9,42.8C676,106.2,677.3,118,676.5,129.3z M497.1,93.1
	c12.7,9.2,37.1,24.5,43.7,42.4c3.9,9.6,2.6,20.1-1.7,29.7c-2.3,4.9-5.2,9-8.6,12.5c-6.4,0.3-12.6,0.5-18.9,0.2
	c-2.8-0.3-5.6,0.6-7.9,2.5c-2.5,2.2-4.1,5.5-4.1,8.9c0,0.9,0.1,1.8,0.3,2.6c-1.2,0.2-2.4,0.3-3.5,0.4c-0.4-0.9-0.8-1.7-1.2-2.6
	l-0.1-0.3c-0.3-0.5-0.6-1.1-0.9-1.7c-1.6-3.1-3.8-7.3-8.5-9.1c-4-1.6-8.5-1.3-12.1,0.8c-3.1,1.9-4.6,4.3-5.7,6.5
	c-1.4-4.8-6-8.6-11.4-8.6c-2.5,0.1-5,0.3-7.5,0.3v0c-1-3.1-1.1-6.4-0.4-9.6c2.2-9.6,12.7-14.4,21.4-12.2c9.2,2.6,25.8,6.6,33.2-1.7
	c6.1-7.9-3.1-15.3-8.7-19.7c-14.8-10.9-36.2-24-41.9-41.1c-14.4-42.8,39.3-71.6,75.1-70.3c9.6,0,17,7.9,17.5,17.5
	c0,9.6-8.7,16.6-17.5,17.5C500.6,60.3,468.3,76,497.1,93.1z M442.3,91.3c-0.9,28.8-1.7,57.6-2.6,86c0,0.2-0.1,0.4-0.1,0.6
	c-2.4,0-4.7,0-7.1-0.1c-2.8-0.3-5.6,0.6-7.9,2.5c-2.5,2.2-4.1,5.5-4,8.9v0.8c0.3,1.7,0.9,3.3,1.7,4.7c-0.2,0-0.4,0.1-0.6,0.1
	c-9.2,0.4-17.9-8.3-17.5-17.5c1.3-28.4,2.2-57.2,3.1-86c0.4-10,7.9-17,17.5-17.5C434,73.4,442.7,82.1,442.3,91.3z"/>
</svg>
