<?xml version="1.0" encoding="utf-8"?>
<!-- Generator: Adobe Illustrator 27.8.0, SVG Export Plug-In . SVG Version: 6.00 Build 0)  -->
<svg version="1.1" id="Layer_2_00000008858843962148104540000015329883266322297532_"
	 xmlns="http://www.w3.org/2000/svg" xmlns:xlink="http://www.w3.org/1999/xlink" x="0px" y="0px" viewBox="0 0 692.2 768.6"
	 style="enable-background:new 0 0 692.2 768.6;" xml:space="preserve">
<style type="text/css">
	.st0{fill:#FFFFFF;}
	.st1{enable-background:new    ;}
	.st2{fill:#EC008C;}
</style>
<g id="Layer_1-2">
	<g>
		<g>
			<g>
				<path class="st0" d="M291,251.5c25.7-5.8,50.9-5.7,76-0.1c3.8-4.2,5.9-8.9,6.9-14c3.1-16.5,6.1-32.9,9-49.4
					c2.1-12.2,3.7-24.5,6-36.6c0.8-4,2.7-7.9,4.6-11.6c2.3-4.8,6.6-6.8,11.8-6.9c6.2-0.2,11.7,1.8,16.6,5.8
					c11.9,9.6,22,20.9,30.4,33.6c20,30.7,31.9,64.2,35,100.8c1.1,12.7,3.5,25.4,2.2,38.2c-1,9.3-1,19-3.9,27.8
					c-2.3,7-0.5,12.2,1.8,18.1c8.3,21.2,9.2,42.6,1.6,64.4c-5,14.5-6.9,29.4-4.9,44.8c2.6,19.8-4.6,37.1-16.2,52.4
					c-6.1,8.1-13.8,15-21.2,21.9c-7.6,7-15.8,13.5-23.8,20c-7,5.7-12.4,12.4-14.9,21.2c-1.2,4.2-2.7,8.4-4.5,12.4
					c-6.3,14-15.7,25.4-30.4,30.4c-7.8,2.6-15,6.2-22.4,9.3c-14.4,6.1-28.7,6.1-42.9-0.2c-3.6-1.6-7.1-3.6-10.6-5.4
					c-1-0.5-2.1-1.2-3.2-1.4c-20.6-3.8-32.4-17.4-40-35.7c-1.3-3.1-2.6-6.3-3.5-9.6c-2.4-8.7-7.9-15-14.5-20.8
					c-12.4-10.7-24.8-21.3-36.9-32.3c-7.4-6.8-13.1-15-17.3-24.2c-5.9-13-9.5-26.2-7.1-40.6c2.3-14.4-0.3-28.4-4.9-41.8
					c-7.6-22-6.9-43.5,1.6-65c2.4-6,2.2-10.5,1.2-18c-2.8-16.8-5-33.5-2.8-50.6c2.2-16.8,3.1-33.8,7.6-50.3
					c8.6-32.1,22.6-61.4,45.3-86c4.6-5,9.8-9.4,15-13.8c2.2-1.9,5.1-3.2,7.9-4.1c10.5-3.4,17.9-0.5,21.7,9.8
					c2.8,7.4,4.3,15.4,5.7,23.2c3.1,18.7,5.5,37.5,8.8,56.2c1.4,8,4.3,15.7,6.7,23.5C288.5,248.1,289.8,249.5,291,251.5L291,251.5z
					 M283.4,253.4c-2.1-6.1-4.7-11.7-6-17.7c-2.9-13.3-5.2-26.6-7.5-40c-2.2-13-3.7-26.1-5.9-39.1c-0.7-4.3-2.2-8.5-4-12.5
					c-2.3-5.1-5.4-6.6-10.7-5.1c-3.4,0.9-6.7,2.6-9.4,4.8C225.4,155.5,214.2,170,205,186c-23.1,40.4-30.9,84.3-29.2,130.2
					c0.3,8.7,2,17.5,3.5,26.1c0.8,4.9,0.4,9.5-1.4,14c-0.8,2-1.5,4.1-2.2,6.2c-6.5,19-6.7,37.8-0.1,56.9c5.1,14.6,7.4,29.8,5.1,45.4
					c-1,6.9-1.1,13.9,0.9,20.8c4.4,15.5,11.5,29.4,23.7,40.2c11.3,10.1,22.9,19.9,34.3,29.9c3.9,3.5,7.7,7.2,12,11.3
					c0.1-1.4,0.1-2.2,0.2-2.9c0.7-10.2,4.2-19.4,10.1-27.8c3.4-4.8,7.9-8.4,13.5-10.5c9.4-3.6,22,1.1,24.1,11.9
					c0.3,1.6,0.5,4.8-1.5,4.8s-3.3-5-5-7.2c-5.2-7.1-11.1-8.4-18.7-4c-7.6,4.4-11.8,11.3-15.2,20.1c3.5-1.6,5.9-3.1,8.4-3.9
					c10.7-3.5,18.5,2.5,18.1,13.7c-0.2,5.2-4.7,7.8-9.2,5.3c-1.5-0.8-2.7-2.3-4.2-3.3c-3.5-2.5-7.1-2.2-9.6,0.9
					c-3.5,4.4-5.5,9.7-5,15c1,10.2,5,19.4,12.3,26.7c5.1,5.1,11.5,8,18.7,8.6c11.8,1,22-2.8,30.4-11.3c1.9-1.9,3.1-4.3,4.2-5.8
					c-7.1-7.2-13.4-13.6-20.5-20.8c-1.3,2.3-2.5,4.3-3.6,6.2c-4.9-2.9-6.3-6.2-6.1-10.3c0.4-8.2,8.1-13.9,16.6-11.9
					c3,0.7,6,2.2,8.7,3.8c7.2,4.1,14.4,4.1,21.6,0c2.4-1.4,4.9-2.7,7.6-3.5c6.3-2,12.6,0.3,15.8,5.4c3.7,5.8,2.1,12.6-3.9,15.7
					c-1.4-1.5-2.8-3.1-4.4-4.9c-6.7,6.8-13.2,13.3-20,20.2c1.7,4.8,5.9,7.9,10.2,10.8c15.7,10.8,38.3,8.7,48.5-9.4
					c2.8-5,4.6-10.6,6.3-16c2.1-6.4-0.5-12.2-3.7-17.6c-2.4-4.1-6.4-4.6-10.3-1.8c-1.5,1-2.6,2.5-4.2,3.3c-3.8,2.2-8.5,0.4-8.9-3.6
					c-1.1-9.7,3.8-18.7,16.1-15.8c1.9,0.5,3.7,1.3,5.6,2.1c1.1,0.5,2.2,1,4.5,2.1c-3.6-8.8-7.6-15.5-14.8-19.8
					c-7.8-4.6-13.9-3.4-19.2,4c-1.8,2.5-2.2,7.1-5.4,7.1s-0.1-7.5,0.7-8.8c1.6-2.7,3.7-5,6.3-6.7c5.3-3.4,11.9-3.3,17.5-0.7
					c8.9,4,14.5,11.3,17.8,20.1c2.4,6.4,3.9,13.1,5.6,19.3c5.4-4.8,11.2-9.9,17-15c9.7-8.6,19.5-17.1,29.1-25.8
					c12.4-11.3,19.6-25.6,23.3-41.7c1-4.4,0.9-9.1,0.8-13.6c-0.1-6.4-1.4-12.8-1.1-19.1c0.4-11.2,2.9-22.1,6.3-32.8
					c1.8-5.5,3.2-11.1,4-16.8c2.1-15-0.7-29.5-6.2-43.4c-2.2-5.6-2.7-11-1.6-16.9c3.2-17.9,5.6-35.9,2.9-54.2c-0.4-3-0.8-5.9-1-8.9
					c-2.4-30.9-10.6-60-25.5-87.3c-9.7-17.7-21.4-33.7-37.2-46.4c-2.6-2.1-5.7-3.8-8.8-4.8c-5.9-1.8-9.1-0.4-11.6,5.4
					c-2,4.5-3.5,9.4-4.3,14.2c-3,18.1-5.5,36.3-8.5,54.4c-2.2,13.4-3.6,27-10.5,39.1c-0.1,0.2,0.1,0.7,0.2,1.1c3,1.9,6.2,3.7,9,5.9
					c1,0.8,1.8,2.9,1.5,4c-0.7,2-2.6,1.2-4.1,0.5c-0.9-0.4-1.8-0.9-2.6-1.4c-5.6-3.7-11.9-5.5-18.4-6.6c-10.8-1.8-21.7-2.4-32.7-2.4
					c-10.3-0.1-20.3,1.1-30.3,2.6c-6.2,0.9-12,2.9-17.3,6.2c-1.5,0.9-3.2,1.8-4.9,2.2c-1.8,0.4-3.1-1.5-2.2-3.1
					c0.6-1.2,1.7-2.2,2.8-3C278.2,256.4,280.9,254.9,283.4,253.4L283.4,253.4z M299,572.1c6.7-1.9,10.2,1.4,13.5,5.5
					c2.9,3.5,5.9,7,9.3,10.1c6,5.3,8.6,5.3,14.5,0.2c3-2.6,5.8-5.5,8.2-8.6c3.7-4.6,7.2-9.2,14.3-7.5c-2.4-5.2-5-6.8-9.3-5.5
					c-2.5,0.7-4.7,2.1-7,3.3c-9,4.8-17.9,4.8-26.8,0c-1.9-1-3.8-2.2-5.9-2.9C304.9,564.7,302.2,566,299,572.1L299,572.1z
					 M308.3,626.9c10.7,7.3,32.9,7,41.1-0.2c-6.7-3.2-13.6-6.6-20.2-9.8C322.4,620.2,315.5,623.5,308.3,626.9z M371.1,618.2
					c-4.3,0-8.4,0-12.7-0.9c-4-0.8-7.8-2.3-11.3-4.3c-5.7-3.3-10.6-7.9-14.7-13c-1.2,4.2-1.5,8.7,2.3,12.6c7.8,5.9,17.3,8.5,27,7.8
					c1.7-0.1,3.3-0.3,5-0.6c1-0.2,2.1-0.2,3.1-0.6C370.4,619,370.8,618.7,371.1,618.2L371.1,618.2z M325.9,600
					c-5.4,5.6-11.2,11.6-17.7,14.5c-3.2,1.5-6.8,2.2-10.3,2.5c-3.5,0.3-7.1,0-10.6,0.5c0.3,0.8,0.5,1.3,1.3,1.7
					c0.7,0.3,1.5,0.6,2.4,0.7c9.8,1.1,19.4,1,28.3-4.4C326.3,611.1,329.1,608.9,325.9,600L325.9,600z M262.6,557.3
					c7.5-1.8,12.3,1.1,16.8,5.2c1.2-5.4,0-9.1-3.2-10.7C272.7,550.2,267.5,552,262.6,557.3L262.6,557.3z M394.9,556.6
					c-4-4.6-9.3-6.4-12.8-4.8c-3.2,1.5-4.4,5-3.5,10.1C385.1,558.5,390.6,556.8,394.9,556.6z"/>
				<path class="st0" d="M191.4,300.3c0.1-1.4,0.2-2.9,0.3-4.3c0.6-7.6,1.1-15.2,2.1-22.9c2.1-15.5,5.6-30.7,10.7-45.5
					c4.2-12.1,9.4-23.8,15.6-35c3-5.3,6.9-10.2,11.1-14.7c5.7-6,12.4-4.3,15.3,3.6c1.3,3.5,1.8,7.4,2.2,11.1
					c2.6,20,6.9,39.6,12.2,59.1c2.4,8.8,0.7,15.5-5.8,22.2c-9,9.2-17.1,19.5-25.5,29.3c-4.9,5.8-9.7,11.7-14.6,17.4
					c-2.2,2.6-4.7,5.3-7.7,7c-2.1,1.2-4.6,1.9-7,1.2c-3.7-1-5.9-4.9-7.1-8.5C191.2,313.9,191,307.1,191.4,300.3L191.4,300.3z
					 M236.7,180.4c-3.8,3.7-7.1,7.5-10,12.1c-2.9,4.7-5.7,9.5-8,14.5c-0.4,0.8-0.7,1.5-1,2.3c-9.4,21.9-16,44.7-18.6,68.5
					c-0.8,7.4-1.6,14.8-1.8,22.2c-0.2,7-0.4,14.4,2.4,20.9c1.3,3,3.1,3.3,5.7,1.3c1.6-1.2,3-2.7,4.3-4.2c4.9-5.7,9.8-11.6,14.7-17.3
					c9-10.4,17.9-20.9,27.2-31c4.1-4.5,5.6-9,4-14.7c-3-11-5.7-22.1-8-33.3c-2.3-11.1-4.6-22.4-5.9-33.6
					C240.8,181.4,238.7,178.7,236.7,180.4L236.7,180.4z"/>
				<path class="st0" d="M467.1,315.5c-0.4,2.9-1.4,5.9-2.8,8.4c-3.2,5.8-8.9,6.9-14.1,2.8c-2.6-2.1-5-4.6-7.2-7.1
					c-6-7.1-11.8-14.5-17.9-21.6c-7.5-8.8-15.2-17.4-23-25.9c-5.1-5.6-6.1-11.6-4.4-18.8c3.6-14.7,7-29.5,10.1-44.3
					c1.6-7.6,2.4-15.4,3.8-23c0.5-2.5,1.2-5.1,2.6-7.2c3.3-5.1,8.3-6,12.6-1.7c4.3,4.3,8.6,9.1,11.5,14.4
					c17.4,30.7,26.4,63.9,28.8,99C467.3,293.5,467.7,310.2,467.1,315.5L467.1,315.5z M421.7,180.3c-3.7,1.6-3.8,4.6-4.3,7.3
					c-1.3,7.5-2.2,15-3.8,22.4c-3.2,14.8-6.6,29.6-10.2,44.3c-1.3,5.5-0.9,10,3,14.4c10.2,11.4,20.2,23.1,30.2,34.7
					c5,5.7,9.8,11.5,15,17c4.2,4.5,7,3.9,8.6-2.2c1.1-4,1.9-8.3,1.6-12.4c-1.2-14.9-2.1-29.9-4.8-44.5
					c-4.4-23.4-11.2-46.1-23.4-66.9C430.6,188.9,426.7,184,421.7,180.3L421.7,180.3z"/>
				<g>
					<g>
						<path class="st0" d="M185.3,384.2c5.7,4.9,10.5,9,15.3,13.1c9.1,7.9,19.7,12.8,31,16.3c13.4,4.1,26.4,9.1,37.7,17.7
							c17.4,13.3,28.5,30.4,31.6,52.3c1.2,9,0.1,17.9-2.9,26.5c-0.7,1.9-2,3.5-3.1,5.3c-0.4-0.1-0.8-0.2-1.2-0.3
							c-0.3-1.2-0.6-2.4-0.8-3.7c-0.7-6.3-2.8-11.9-6.8-16.9c-3.8-4.8-8.6-7-14.4-7.3c-3.6-0.2-7.2-0.1-10.7,0.4
							c-9.6,1.3-19.1,0.9-28.3-2.7c-1.2-0.5-2.7-0.5-4.1-0.5c-21.5,0.6-36.7-13.7-35.6-34.3c0.5-10.5,0.3-20.7-2.9-30.7
							c-1.5-4.5-3.4-9-4.9-13.5c-1.9-5.4-2.2-10.9-1.3-16.5C184,388.1,184.6,386.7,185.3,384.2L185.3,384.2z M202.4,431.9
							c0.1,0.6,0,1.4,0.3,2c3.4,8.3,6.4,16.8,10.4,24.8c8.4,16.8,25.8,26.3,45.7,23.4c4.3-0.6,8.8-0.9,13.1-0.7
							c7.4,0.4,14.1,2.6,18.8,9c0.5,0.7,1.4,1.2,2.1,1.5c1.2-8.7-4.8-20.1-9.9-26.8c-11.1-14.6-25.9-23.3-43.9-26.8
							c-11.9-2.3-23.8-4.6-35.7-6.8C203,431.4,202.8,431.6,202.4,431.9L202.4,431.9z M281.2,453.1c0,0,0.1,0,0.1-0.1
							c0.1-0.1,0.2-0.2,0.3-0.2c0,0,0.1-0.1,0.1-0.1c0,0,0-0.1,0-0.1c-0.7-1.8-2-2.9-3.3-4.2s-2.7-2.8-4.1-4.1
							c-2.7-2.8-5.5-5.5-8.5-7.9c-10.5-8.7-23.1-13.3-35.9-17.2c-7.9-2.4-15.6-5.5-22.6-9.7c-3.5-2.1-6.9-4.5-10-7.1
							s-5.5-5.8-9.1-7.4c0.7,0.2,1.5,5.5,1.8,6.5c0.7,2.4,1.3,4.9,2,7.3c2.7,10.2,9,16.7,19.5,18.8c6.8,1.4,13.7,2.6,20.6,3.5
							c7.1,1,14.1,2.5,20.8,5c6.7,2.4,13,5.6,18.8,9.8c1.6,1.1,3.1,2.3,4.7,3.6s3,2.7,4.7,3.8C281.1,453,281.1,453,281.2,453.1
							L281.2,453.1z M199.4,445.5c-3.4,16.9,5,29.9,22.2,33.1C209.6,469.7,205.1,457.3,199.4,445.5z"/>
						<path class="st0" d="M307.4,438c-0.1,0-3.5-8.8-3.9-9.6c-1.4-3.1-3-6.2-4.9-9.1c-3.7-5.9-8.5-11.2-14.1-15.2
							c-1.1,1.6-2.3,3.2-3.3,4.8c-3.8,5.8-8.8,7.1-14.9,3.9c-5.3-2.7-9.1-7.5-10.2-13.4c-0.4-2.1-0.5-4.3-0.3-6.5
							c0.1-1.1,0.3-2.2,0.5-3.2c0.1-0.6,0.9-2.2,0.6-2.8c-0.3-0.6-1.3-0.9-1.8-1.2c-0.8-0.5-1.6-1.1-2.2-1.8
							c-4.3-4.1-8.9-8-12.6-12.6c-5.7-7-7.6-15.2-5.3-24.2c0.6-2.2,0.9-4.4,1.2-6.6c0.2-1.1,0.4-2.1,0.5-3.2
							c0.1-1.2,0.1-2.4,0.6-3.5c0.4-1,1.1-1.8,1.9-2.4c0.3-0.2,0.6-0.5,0.9-0.6c0.6-0.2,1.2,0,1.7,0.4c0.8,0.6,1.6,1.6,2,2.5
							c0.9,1.6,1.3,3.4,2,5.1c0.7,1.5,1.4,2.9,2.3,4.2c1.6,2.6,3.7,4.9,6,7c4,3.6,8.9,6,14.1,7.6c7.7,2.4,13.9,6.8,19.1,12.8
							c13.6,15.8,21.7,39.4,22.5,55C309.8,429.3,307.9,437.8,307.4,438L307.4,438z M301.6,415.7c-2.4-17.7-10.1-32.5-22.2-45
							c-3.6-3.8-8.1-6.4-13.2-7.8c-8.8-2.4-15.8-7.5-21.6-14.4c-0.9-1-1.4-2.3-2.5-4.1c-3.5,8.9-2.4,15.6,1.7,22.1
							c4.9,7.6,11.5,13.2,19.6,17.1c1.4,0.7,3.1,1.1,4.3,2.1c1.1,0.9,1.6,2.4,2.4,3.6c-1.1,0.7-2.1,1.6-3.3,2
							c-1.2,0.3-2.6,0.1-3.9,0.1c-0.1,0-0.1,0-0.2,0c-0.1,0-0.1,0.1-0.1,0.2c-2.4,4.6-0.4,8.8,2.6,12.5c4.8,6,7.8,5.8,12.2-0.5
							c3.2-4.7,7.7-6,12.3-2.8c3,2.1,5.5,5.1,7.9,8C299.1,410.7,300.2,413.3,301.6,415.7L301.6,415.7z"/>
						<path class="st0" d="M213,493.8c2.1,1.5,3.4,2.5,4.8,3.4c5.6,3.5,11.4,5.5,18.1,3.5c4.8-1.4,9.6-2.5,14.5-3.2
							c7.6-1,14.3,3.2,16.7,9.8c2.1,5.8,0.2,10.6-5.6,12.4c-3.5,1-7.6,1.7-11,0.8c-11.6-3.1-22.5-8-31.4-16.4
							C216.2,501.4,214.1,498.5,213,493.8L213,493.8z M228.3,506.2c7.7,5.4,15.6,8.6,23.9,10.9c2.9,0.8,7.9,0.1,10-2.2
							c1.3-1.4,1.8-3.4,1.4-5.3s-1.4-3.6-2.8-4.9c-3.7-3.6-8.6-4-13.4-3c-3.4,0.7-6.7,1.5-10.1,2.3
							C236.1,504.4,229.4,506.9,228.3,506.2L228.3,506.2z"/>
						<path class="st0" d="M317,369.8c-0.1-1.7-0.1-3.4-0.2-5.1c-0.3-4-1.1-8.1-2-12c-0.1-0.3-0.2-0.7-0.2-1
							c-1-3.9-2.3-7.8-3.7-11.6c-0.3-0.9-0.6-1.7-1-2.6c-2.6-6.6-6.6-12.7-10.6-18.6c-2.9-4.2-4.8-4.4-9.7-2.5
							c-3.7,1.4-7.2,1.1-10.1-1.4c-5.9-4.9-10-11.1-10.7-18.8c-0.6-6.3-0.1-12.7,0.1-19.1c0-0.9,1.1-2.3,2-2.5
							c0.9-0.2,2.5,0.3,3,1.1c1.3,2,2.2,4.2,3.2,6.4c1.2,2.4,2.5,4.7,4.1,6.9c0.8,1,1.7,2.3,3,2.8c1.4,0.5,3.3-0.7,4.5-1.4
							c5.3-3.2,10-2,14.1,2c2.4,2.3,4.6,5,6.2,8c3.7,6.9,6.8,14.2,9,21.7c2.2,7.4,3.6,15,4.1,22.7c0.2,3.9,0.3,7.8,0.1,11.7
							c-0.2,3.9-0.5,8-1.3,11.8c-0.5,2.7-1.3,5.4-2.4,7.9C317.5,374.2,317.2,372,317,369.8L317,369.8z M300.2,298.3
							c-3.4-4.4-5.1-4.5-10.2-2.1c-5.6,2.7-7.7,2.3-12.3-2c-0.8-0.8-1.7-1.5-2.7-2.4c-1,6.6,3.3,16.5,8.2,18.9
							c1.2,0.6,3.2,0.5,4.5,0c7.1-3,12.4-0.2,16.7,5.3c2.5,3.3,4.8,6.8,7.2,10.2C309.5,316.1,306.6,306.5,300.2,298.3L300.2,298.3z"
							/>
						<circle class="st0" cx="221.6" cy="379.1" r="4.8"/>
						<path class="st0" d="M329.2,437.3c-7,0-12.6,5.6-12.6,12.6s5.6,12.6,12.6,12.6s12.6-5.6,12.6-12.6S336.1,437.3,329.2,437.3z
							 M329.2,456.9c-3.9,0-7-3.1-7-7s3.1-7,7-7s7,3.1,7,7S333.1,456.9,329.2,456.9z"/>
					</g>
					<g>
						<path class="st0" d="M474.6,389.6c0.9,5.6,0.5,11.2-1.3,16.5c-1.6,4.5-3.4,8.9-4.9,13.5c-3.2,10-3.5,20.3-2.9,30.7
							c1,20.5-14.1,34.9-35.6,34.3c-1.4,0-2.8,0-4,0.5c-9.2,3.6-18.6,3.9-28.3,2.7c-3.5-0.5-7.2-0.6-10.7-0.4
							c-5.8,0.3-10.6,2.4-14.4,7.3c-4,5.1-6.1,10.6-6.8,16.9c-0.1,1.2-0.5,2.4-0.8,3.7c-0.4,0.1-0.8,0.2-1.2,0.3
							c-1-1.8-2.4-3.4-3.1-5.3c-3-8.6-4.2-17.5-2.9-26.5c3-21.9,14.2-39,31.6-52.3c11.3-8.7,24.3-13.6,37.7-17.7
							c11.3-3.5,22-8.4,31-16.3c4.8-4.1,9.6-8.2,15.3-13.1C473.8,386.6,474.4,388.1,474.6,389.6L474.6,389.6z M455.2,431.4
							c-11.9,2.3-23.8,4.5-35.7,6.8c-17.9,3.5-32.7,12.2-43.9,26.8c-5.1,6.6-11.1,18-9.9,26.8c0.7-0.3,1.6-0.9,2.1-1.5
							c4.7-6.3,11.4-8.6,18.8-9c4.4-0.2,8.8,0,13.1,0.7c19.9,3,37.3-6.6,45.7-23.4c4-8,7-16.5,10.4-24.8c0.3-0.6,0.2-1.4,0.3-2
							C455.5,431.6,455.3,431.4,455.2,431.4L455.2,431.4z M377.3,453c1.7-1.1,3.2-2.5,4.7-3.8c1.5-1.3,3.1-2.5,4.7-3.6
							c5.8-4.1,12.1-7.4,18.8-9.8c6.7-2.4,13.7-4,20.8-5c6.9-0.9,13.8-2.2,20.6-3.5c10.5-2.1,16.8-8.6,19.5-18.8
							c0.6-2.4,1.3-4.9,2-7.3c0.3-1,1.1-6.2,1.8-6.5c-3.7,1.6-6.1,4.8-9.1,7.4c-3.1,2.6-6.5,5-10,7.1c-7.1,4.2-14.8,7.3-22.6,9.7
							c-12.9,3.9-25.4,8.5-35.9,17.2c-3,2.5-5.7,5.2-8.5,7.9c-1.4,1.4-2.7,2.8-4.1,4.1s-2.6,2.5-3.3,4.2c0,0,0,0.1,0,0.1
							c0,0,0,0.1,0.1,0.1c0.1,0.1,0.2,0.2,0.3,0.2c0,0,0.1,0.1,0.1,0.1C377.2,453.1,377.3,453,377.3,453L377.3,453z M436.7,478.7
							c17.2-3.3,25.6-16.2,22.2-33.1C453.2,457.3,448.7,469.7,436.7,478.7z"/>
						<path class="st0" d="M348.9,425.3c0.8-15.6,8.9-39.2,22.5-55c5.2-6,11.4-10.4,19.1-12.8c5.1-1.6,10-4.1,14.1-7.6
							c2.3-2,4.3-4.4,6-7c0.9-1.4,1.6-2.8,2.3-4.2c0.8-1.7,1.2-3.5,2-5.1c0.5-0.9,1.2-1.9,2-2.5c0.5-0.3,1.1-0.5,1.7-0.4
							c0.3,0.1,0.6,0.3,0.9,0.6c0.8,0.7,1.5,1.5,1.9,2.4c0.5,1.1,0.5,2.3,0.6,3.5c0.1,1.1,0.3,2.1,0.5,3.2c0.3,2.2,0.7,4.5,1.2,6.6
							c2.3,9,0.4,17.2-5.3,24.2c-3.7,4.6-8.3,8.5-12.6,12.6c-0.7,0.7-1.5,1.2-2.2,1.8c-0.5,0.4-1.5,0.6-1.8,1.2
							c-0.3,0.6,0.4,2.1,0.6,2.8c0.2,1.1,0.4,2.1,0.5,3.2c0.2,2.2,0.1,4.4-0.3,6.5c-1.1,5.9-5,10.6-10.2,13.4
							c-6.1,3.2-11.1,1.9-14.9-3.9c-1.1-1.6-2.2-3.2-3.3-4.8c-5.7,4.1-10.4,9.4-14.1,15.2c-1.9,2.9-3.5,6-4.9,9.1
							c-0.4,0.8-3.8,9.6-3.9,9.6C350.4,437.9,348.5,429.4,348.9,425.3L348.9,425.3z M360.9,408.6c2.4-2.9,4.8-5.9,7.9-8
							c4.7-3.2,9.1-1.9,12.3,2.8c4.3,6.3,7.4,6.5,12.2,0.5c3-3.7,5-7.9,2.6-12.5c0-0.1-0.1-0.1-0.1-0.2c-0.1,0-0.1,0-0.2,0
							c-1.3,0.1-2.6,0.3-3.9-0.1c-1.2-0.3-2.2-1.3-3.3-2c0.8-1.2,1.3-2.7,2.4-3.6c1.2-1,2.8-1.4,4.3-2.1c8.1-3.9,14.7-9.5,19.6-17.1
							c4.1-6.4,5.2-13.2,1.7-22.1c-1.1,1.9-1.7,3.1-2.5,4.1c-5.8,6.9-12.8,12-21.5,14.4c-5.1,1.4-9.6,4-13.2,7.8
							c-12,12.5-19.8,27.3-22.2,45C358.1,413.3,359.2,410.7,360.9,408.6L360.9,408.6z"/>
						<path class="st0" d="M439.3,504c-8.9,8.4-19.8,13.4-31.4,16.4c-3.4,0.9-7.6,0.2-11-0.8c-5.8-1.8-7.7-6.6-5.6-12.4
							c2.3-6.5,9.1-10.8,16.7-9.8c4.9,0.6,9.8,1.8,14.5,3.2c6.7,2,12.5,0,18.1-3.5c1.4-0.9,2.7-1.9,4.8-3.4
							C444.3,498.5,442.1,501.4,439.3,504L439.3,504z M420.9,504.1c-3.4-0.8-6.7-1.6-10.1-2.3c-4.8-1-9.7-0.6-13.4,3
							c-1.4,1.3-2.4,3-2.8,4.9s0.1,3.9,1.4,5.3c2.2,2.2,7.1,3,10,2.2c8.2-2.3,16.1-5.5,23.9-10.9C429,507,422.2,504.4,420.9,504.1
							L420.9,504.1z"/>
						<path class="st0" d="M340,376.1c-1-2.5-1.9-5.2-2.4-7.9c-0.8-3.9-1.1-7.9-1.3-11.8c-0.2-3.9-0.2-7.8,0.1-11.7
							c0.5-7.7,1.9-15.3,4.1-22.7c2.3-7.5,5.3-14.8,9-21.7c1.6-2.9,3.8-5.6,6.2-8c4.1-4,8.9-5.2,14.1-2c1.1,0.7,3,1.9,4.5,1.4
							c1.2-0.4,2.2-1.8,3-2.8c1.6-2.1,2.9-4.5,4.1-6.9c1.1-2.1,1.9-4.4,3.2-6.4c0.5-0.8,2.2-1.3,3-1.1s2,1.6,2,2.5
							c0.2,6.4,0.7,12.8,0.1,19.1c-0.7,7.6-4.9,13.9-10.7,18.8c-3,2.5-6.4,2.8-10.1,1.4c-4.9-1.9-6.9-1.7-9.7,2.5
							c-4,5.9-8.1,12-10.6,18.6c-0.3,0.9-0.7,1.7-1,2.6c-1.4,3.8-2.7,7.7-3.7,11.6c-0.1,0.3-0.2,0.7-0.2,1c-1,3.9-1.8,8-2,12
							c-0.1,1.7-0.1,3.4-0.2,5.1C341.2,371.9,340.9,374.1,340,376.1L340,376.1z M346.7,326.1c2.4-3.4,4.6-6.9,7.2-10.2
							c4.3-5.5,9.6-8.3,16.7-5.3c1.3,0.5,3.3,0.6,4.5,0c4.9-2.4,9.2-12.3,8.2-18.9c-1,0.9-1.9,1.7-2.7,2.4c-4.6,4.3-6.7,4.6-12.3,2
							c-5.1-2.4-6.8-2.2-10.2,2.1C351.8,306.5,348.8,316.1,346.7,326.1L346.7,326.1z"/>
						<circle class="st0" cx="436.7" cy="379.1" r="4.8"/>
					</g>
				</g>
			</g>
			<g>
				<path class="st0" d="M85.4,80.8L58.6,97.8c-1.7,1.1-4,0.5-5.1-1.2c-1-1.7-0.5-3.9,1.1-5l59.8-38.1c1.7-1,3.9-0.5,5,1.1
					c1.1,1.8,0.6,4.1-1,5.1L91.6,76.9l50.8,79.8c1.1,1.6,0.5,3.9-1.1,5c-1.7,1.1-3.9,0.5-5-1.1L85.4,80.8L85.4,80.8z"/>
				<path class="st0" d="M162.3,35.4c-0.6-1.9,0.4-4,2.3-4.6l0.3-0.1l51.3-16.9c2-0.7,4,0.4,4.6,2.3c0.7,2-0.2,4.1-2.3,4.7l-48,15.8
					l13.1,39.7l42-13.8c1.9-0.6,4,0.4,4.6,2.4c0.6,1.9-0.4,4-2.3,4.6l-42,13.8l13,39.5l48-15.8c2-0.7,4,0.4,4.6,2.4
					c0.6,1.9-0.3,3.9-2.3,4.6L198,131l-0.4,0.1l-0.3,0.1c-1.8,0.4-3.7-0.5-4.3-2.4L162.3,35.4L162.3,35.4z"/>
				<path class="st0" d="M276.9,17.5l4,86.4c0.1,2-1.5,3.7-3.5,3.8c-2,0.1-3.7-1.5-3.8-3.4l-4.4-96.8c-0.5-1.5-0.1-3,1.2-4.1
					c1.6-1.1,4-0.9,5.2,0.7l68,85.7l-3.9-85.9c-0.1-2,1.5-3.7,3.5-3.8c2.1-0.1,3.8,1.5,3.9,3.5l4.4,97.2c0.1,2-1.5,3.7-3.6,3.8
					c-1.2,0.1-2.1-0.4-2.9-1.2c-0.2-0.1-0.5-0.3-0.6-0.6L276.9,17.5L276.9,17.5z"/>
				<path class="st0" d="M407.4,8.7c0.5-2.1,2.5-3.2,4.4-2.8c2,0.5,3.2,2.5,2.7,4.6l-15.1,59.2L477,23.6c1.8-0.9,4.1-0.4,5,1.3
					c1.1,1.7,0.5,4-1.3,5.1l-49.2,29.2l27.1,61.1c0.8,1.9,0,3.9-1.9,5c-0.9,0.4-1.6,0.4-2.5,0.1c-1-0.3-1.8-0.8-2.3-2L425.1,63
					l-28.2,16.8l-6.5,25.6c-0.5,1.9-2.5,3.1-4.5,2.6c-1.9-0.5-3.1-2.5-2.6-4.4L407.4,8.7L407.4,8.7z"/>
				<path class="st0" d="M567.6,63.2c24.2,14.6,30.8,46.5,15.7,72c-15.4,25.2-46.8,34.4-70.9,19.8c-24.4-14.7-31.2-46.8-16-72.2
					C511.6,57.5,543.2,48.5,567.6,63.2L567.6,63.2z M516.1,148.6c19.9,12,47.2,4.7,60.7-17.4c13.3-22.4,6.8-49.6-13.1-61.6
					c-20.5-12.4-47.6-5.4-61.1,16.9C489.3,108.7,495.5,136.2,516.1,148.6L516.1,148.6z"/>
			</g>
			<g>
				<path class="st0" d="M139.6,583.4l-21.3-23.6c-1.3-1.5-1.2-3.8,0.4-5.2c1.5-1.3,3.8-1.2,5.1,0.3l47.5,52.6
					c1.3,1.5,1.2,3.8-0.3,5.1c-1.6,1.4-3.9,1.3-5.2-0.2l-21.3-23.6l-70.2,63.4c-1.5,1.3-3.8,1.2-5.1-0.3c-1.3-1.5-1.2-3.8,0.3-5.1
					L139.6,583.4L139.6,583.4z"/>
				<path class="st0" d="M184.8,708.2l-41.2-24.9l-20.9,16.5c-1.3,1-2.9,1-4.2,0.3c-0.3-0.2-0.7-0.6-1.1-0.8
					c-1.2-1.6-0.9-4.1,0.7-5.2l82.1-64.8c1.2-0.8,3-0.8,4.3-0.1c1.4,0.9,2.2,2.4,1.9,3.8L187,735.6c-0.3,1.9-2.2,3.4-4.2,3.1
					c-0.5-0.3-0.9-0.3-1.2-0.6c-1.2-0.7-2-2.3-1.7-3.9L184.8,708.2L184.8,708.2z M149.8,678.3l36.5,22.1l11.2-59.5L149.8,678.3
					L149.8,678.3z"/>
				<path class="st0" d="M261.9,661.6l-30.8-8c-1.9-0.5-3.1-2.5-2.6-4.6c0.5-1.9,2.5-3.1,4.4-2.6l68.6,17.9c1.9,0.5,3.1,2.5,2.6,4.4
					c-0.5,2-2.6,3.2-4.5,2.7l-30.8-8L245,754.9c-0.5,1.9-2.5,3.1-4.4,2.6c-1.9-0.5-3.1-2.5-2.6-4.4L261.9,661.6L261.9,661.6z"/>
				<path class="st0" d="M347.9,671l-31.7,2.7c-2,0.2-3.8-1.3-3.9-3.5c-0.2-2,1.4-3.8,3.3-3.9l70.7-6c2-0.2,3.8,1.3,3.9,3.3
					c0.2,2.1-1.3,3.9-3.3,4.1l-31.7,2.7l8,94.3c0.2,2-1.4,3.8-3.3,3.9c-2,0.2-3.8-1.3-3.9-3.3L347.9,671L347.9,671z"/>
				<path class="st0" d="M437.1,638.9c25.4-12.3,55.8-0.4,68.9,26.1c12.8,26.7,3.3,57.9-22.1,70.2c-25.7,12.4-56.2,0.6-69.2-25.9
					C401.8,682.7,411.4,651.3,437.1,638.9L437.1,638.9z M480.6,728.6c20.9-10.1,29.7-37,18.5-60.3c-11.5-23.4-37.9-32.8-58.8-22.6
					c-21.6,10.5-30.5,36.9-19.2,60.4C432.5,729.3,459,739.1,480.6,728.6L480.6,728.6z"/>
				<path class="st0" d="M522.1,572.6c17.7-22,50.3-24.2,73.4-5.7c22.9,18.7,27.7,51,10,73c-17.9,22.2-50.6,24.5-73.7,6.1
					C508.8,627.2,504.1,594.8,522.1,572.6L522.1,572.6z M599.7,635.2c14.6-18.1,11-46.1-8.9-62.5c-20.4-16.3-48.2-13.5-62.8,4.6
					c-15.1,18.7-11.9,46.5,8.5,62.8C556.5,656.3,584.6,653.9,599.7,635.2z"/>
			</g>
		</g>
		<g>
			<g class="st1">
				<path class="st0" d="M5.6,404.4l5.4-30.5c0.3-1.6,1.8-2.8,3.4-2.8h0.1h0.1h16.8c1.6,0,2.6,1.3,2.4,2.8c-0.3,1.6-1.8,2.9-3.4,2.9
					h-14l-1.7,9.5h12.1c1.6,0,2.6,1.2,2.3,2.8c-0.3,1.6-1.8,2.8-3.4,2.8H13.6l-1.7,9.5h14c1.6,0,2.6,1.3,2.4,2.9
					c-0.3,1.6-1.8,2.8-3.4,2.8H8.1c0,0,0,0-0.1,0C6.4,407.3,5.4,406,5.6,404.4z"/>
			</g>
			<g class="st1">
				<path class="st0" d="M35.2,398.5c1.1-1.1,2.7-1.2,3.7-0.4c1.9,1.8,5.3,3.9,9,3.9c2.5,0,4.9-0.8,6.6-1.9c1.7-1.1,2.6-2.4,2.8-3.6
					c0.1-0.7,0.1-1.1-0.2-1.6c-0.3-0.5-0.6-1-1.3-1.5c-1.3-1-3.6-1.9-6.5-2.4h-0.1h-0.1c-2.3-0.5-4.3-1.1-6.1-2
					c-1.8-0.9-3.2-2.1-4-3.9c-0.5-1.2-0.7-2.6-0.4-4.1c0.6-3.1,2.7-5.7,5.4-7.3c2.6-1.7,5.8-2.7,9.2-2.7c4.9,0,8,2.4,10.2,4
					c1.1,0.8,1.1,2.4,0.1,3.6c-1,1.2-2.6,1.6-3.7,0.7c-2.3-1.7-4.5-3.2-7.6-3.2c-2.3-0.1-4.5,0.7-6,1.7c-1.5,1-2.3,2.1-2.5,3.2
					c-0.1,0.6-0.1,1,0.2,1.4c0.2,0.4,0.5,0.8,1.1,1.3c1.2,0.9,3.3,1.7,5.9,2.2h0.1c2.5,0.5,4.7,1.1,6.6,2.1c1.8,1,3.4,2.3,4.2,4.1
					c0.6,1.3,0.7,2.8,0.4,4.3c-0.6,3.2-2.8,6-5.6,7.8c-2.8,1.8-6.3,2.8-9.8,2.8c-5.5-0.1-9.6-2.7-12.1-5.1
					C34,401.2,34.1,399.6,35.2,398.5z"/>
			</g>
			<g class="st1">
				<path class="st0" d="M70.7,370.9h22c1.6,0,2.6,1.2,2.4,2.8s-1.8,2.8-3.4,2.8h-8.2l-4.9,27.6c-0.3,1.6-1.8,2.9-3.4,2.9
					c-1.6,0-2.6-1.3-2.3-2.9l4.9-27.6h-8.2c-1.6,0-2.6-1.2-2.3-2.8C67.6,372.2,69.1,370.9,70.7,370.9z"/>
			</g>
			<g class="st1">
				<path class="st0" d="M590.1,395.1c-0.3,1.5-1.8,2.7-3.4,2.7h-18.3c-0.1,0-0.1,0-0.1,0c0,0-0.1,0-0.1,0c-0.8,0-1.5-0.3-1.9-0.9
					c-0.9-1.1-0.5-2.9,0.9-3.9l17.8-13.2c1.7-1.3,2.7-3,3.1-4.7c0.3-1.5,0-3.1-0.9-4.3c-1.1-1.4-2.7-2.1-4.6-2.1
					c-1.6,0-3.3,0.5-4.8,1.6l-1.9,1.4c-1.4,1-3.2,0.9-4-0.2c-0.8-1.1-0.4-2.8,0.9-3.8l1.9-1.4c2.7-2,6-3.1,8.9-3.1
					c3.4,0,6.5,1.3,8.5,3.9c1.8,2.3,2.3,5.1,1.8,7.9c-0.6,3.2-2.6,6.5-5.7,8.8l-11.4,8.4h11C589.3,392.3,590.3,393.5,590.1,395.1z"
					/>
			</g>
			<g class="st1">
				<path class="st0" d="M622.8,368.6c1.7,3.2,2.1,7.3,1.3,11.8s-2.9,8.6-5.7,11.8c-2.7,3.2-6.6,5.5-10.6,5.5s-7-2.3-8.6-5.5
					c-1.7-3.2-2.1-7.3-1.3-11.8c0.8-4.5,2.9-8.6,5.7-11.8s6.6-5.5,10.6-5.5S621.2,365.5,622.8,368.6z M618.4,380.4
					c0.6-3.5,0.2-6.7-0.9-8.8c-1.1-2.1-2.6-3.1-4.3-3c-1.6,0-3.5,0.9-5.4,3c-1.9,2.1-3.5,5.3-4.1,8.8c-0.7,3.5-0.2,6.7,0.9,8.7
					c1.1,2.1,2.6,3.1,4.3,3.1c1.6,0,3.5-0.9,5.4-3.1C616.1,387.1,617.7,383.9,618.4,380.4z"/>
			</g>
			<g class="st1">
				<path class="st0" d="M656.9,395.1c-0.3,1.5-1.8,2.7-3.4,2.7h-18.3c-0.1,0-0.1,0-0.1,0c0,0-0.1,0-0.1,0c-0.8,0-1.5-0.3-1.9-0.9
					c-0.9-1.1-0.5-2.9,0.9-3.9l17.8-13.2c1.7-1.3,2.7-3,3.1-4.7c0.3-1.5,0-3.1-0.9-4.3c-1.1-1.4-2.7-2.1-4.6-2.1
					c-1.6,0-3.3,0.5-4.8,1.6l-1.9,1.4c-1.4,1-3.2,0.9-4-0.2c-0.8-1.1-0.4-2.8,0.9-3.8l1.9-1.4c2.7-2,6-3.1,8.9-3.1
					c3.4,0,6.5,1.3,8.5,3.9c1.8,2.3,2.3,5.1,1.8,7.9c-0.6,3.2-2.6,6.5-5.7,8.8l-11.4,8.4h11C656.1,392.3,657.2,393.5,656.9,395.1z"
					/>
				<path class="st0" d="M686.6,376.7c2.1,2.4,2.7,5.5,2.2,8.6c-0.6,3.1-2.4,6.3-5.4,8.7c-3,2.4-6.5,3.6-9.8,3.6
					c-3.3,0-6.4-1.2-8.4-3.6c-0.9-1.1-0.6-2.9,0.8-3.9s3.2-1.1,4.1,0c1.1,1.3,2.7,1.9,4.6,1.9c1.8,0,3.7-0.6,5.3-1.9
					c1.6-1.3,2.6-3,2.9-4.7c0.3-1.7-0.1-3.4-1.1-4.7c-1.1-1.3-2.8-1.9-4.6-2c-0.9,0-1.6-0.3-2-0.9c0,0,0,0-0.1,0
					c-0.9-1.1-0.6-2.8,0.7-3.9l6.2-5.1h-8.3c-1.7,0-2.7-1.2-2.4-2.8c0.3-1.5,1.8-2.8,3.5-2.8H690c1.6,0,2.7,1.2,2.4,2.8
					c-0.1,0.5-0.3,0.9-0.6,1.3c-0.2,0.2-0.4,0.5-0.7,0.7l-7.7,6.4C684.6,374.9,685.7,375.7,686.6,376.7z"/>
			</g>
		</g>
	</g>
	<g class="st1">
		<path class="st2" d="M324.9,180.8H312c2.3,7.3,7,12.3,14.7,14.2c-0.5,0.5-1.2,1.5-1.6,2.2c-7.4-2.1-12-6.8-14.6-13.8
			c-1.4,5.3-5.2,10.4-15,13.8c-0.2-0.6-0.9-1.6-1.4-2c10.4-3.7,13.6-9,14.5-14.3h-12.8v-2.4h13c0.1-0.7,0.1-1.5,0.1-2.2v-6.5h-14.2
			v-2.4h31.3v2.4h-14.6v6.5c0,0.7,0,1.4-0.1,2.2h13.7V180.8z"/>
		<path class="st2" d="M331.1,164.8c1.5,1.4,2.8,2.8,3.8,4.3c1.2-1.5,2.2-3.1,3.1-4.5l2.5,1.3c-0.1,0.2-0.4,0.3-0.7,0.2
			c-0.9,1.6-2.2,3.3-3.7,5c2,4,2.3,8.2,2.3,12.6c0,5.3-0.4,10.2-1.8,12.1c-0.7,0.9-1.8,1.3-4.6,1.3c-0.5,0-0.9,0-1.3,0
			c0-0.8-0.2-1.7-0.7-2.3c0.8,0,1.5,0.1,2.2,0.1c1.9,0,2.3-0.2,2.7-0.7c0.9-1.2,1.2-5.8,1.2-10.5c0-0.7,0-1.3,0-2
			c-1.7,2.5-3.8,5-5.8,6.5c-0.4-0.6-1-1.4-1.6-1.8c2.6-1.7,5.5-5.1,7.1-8.2c-0.2-1.8-0.7-3.5-1.4-5.3c-1.3,1.3-2.6,2.5-3.9,3.5
			c-0.4-0.5-1.1-1.1-1.6-1.5c1.5-1.2,3.1-2.6,4.5-4.1c-0.9-1.6-2.2-3.2-3.9-4.7L331.1,164.8z M343.7,167.8
			c5.2-0.8,10.7-2.1,13.9-3.4l2.3,1.8c-0.1,0.1-0.2,0.1-0.4,0.1c-0.1,0-0.2,0-0.3,0c-0.7,0.2-1.5,0.5-2.4,0.7
			c0.5,11.8,1.7,23,5.3,28.3c-0.6,0.4-1.4,1.2-1.8,1.8c-3.7-6-4.8-17.1-5.4-29.6c-3.2,0.8-7.1,1.5-10.7,2.1v9.2
			c0,5.4-0.6,12.9-4.5,18.3c-0.3-0.5-1.1-1.2-1.7-1.5c3.7-5,4-11.6,4-16.9v-11.6L343.7,167.8z M354.2,191.2
			c-0.6-1.7-1.2-3.4-1.8-4.9l1.7-0.5c1.3,3,2.7,7,3.2,9.6l-1.8,0.5c-0.2-0.8-0.4-1.8-0.7-2.9c-4.1,0.5-8.2,0.9-10.9,1.2
			c-0.1,0.3-0.3,0.5-0.5,0.5l-0.8-2.6c1.6-0.1,3.7-0.2,5.9-0.4v-22.1l2.7,0.2c0,0.2-0.2,0.4-0.7,0.5v21.3L354.2,191.2z"/>
	</g>
</g>
</svg>
