<?xml version="1.0" encoding="utf-8"?>
<!-- Generator: Adobe Illustrator 27.8.0, SVG Export Plug-In . SVG Version: 6.00 Build 0)  -->
<svg version="1.1" id="Layer_2_00000078755318611017836670000001238652911205267892_"
	 xmlns="http://www.w3.org/2000/svg" xmlns:xlink="http://www.w3.org/1999/xlink" x="0px" y="0px" viewBox="0 0 294.9 3034.7"
	 style="enable-background:new 0 0 294.9 3034.7;" xml:space="preserve">
<style type="text/css">
	.st0{enable-background:new    ;}
	.st1{fill:#F8F8F9;}
	.st2{fill:#EC008C;}
</style>
<g id="Layer_1-2">
	<g class="st0">
		<path class="st1" d="M223.1,75.7v-56c0-3.5,2.9-6.4,6.6-6.4c3.5,0,6.4,2.9,6.4,6.4v124.8c0,3.5-2.9,6.4-6.4,6.4
			c-3.7,0-6.6-2.9-6.6-6.4v-56H56.6c-3.5,0-6.4-2.9-6.4-6.4c0-3.5,2.9-6.4,6.4-6.4H223.1z"/>
		<path class="st1" d="M229.7,199.7c3.5,0,6.4,2.9,6.4,6.4v0.5v95.1c0,3.7-2.9,6.4-6.4,6.4c-3.7,0-6.6-2.7-6.6-6.4v-89h-73.6v77.8
			c0,3.5-2.9,6.4-6.6,6.4c-3.5,0-6.4-2.9-6.4-6.4v-77.8H63.2v89c0,3.7-2.9,6.4-6.6,6.4c-3.5,0-6.4-2.7-6.4-6.4v-94.8v-0.8v-0.5
			c0.3-3.2,2.9-5.8,6.4-5.8H229.7z"/>
		<path class="st1" d="M208.8,370.7H56.6c-3.5,0-6.4-2.9-6.4-6.4s2.9-6.4,6.4-6.4h170.5c2.7-0.8,5.3,0,7.2,2.4
			c1.9,2.9,1.3,7.2-1.6,9L76.5,482h151.4c3.5,0,6.4,2.9,6.4,6.4c0,3.7-2.9,6.6-6.4,6.6H56.6c-3.5,0-6.4-2.9-6.4-6.6
			c0-2.1,0.8-3.7,2.4-5c0.3-0.3,0.5-0.8,1.1-1.1L208.8,370.7z"/>
		<path class="st1" d="M228.9,561.9c3.7,0,6.6,2.9,6.6,6.4c0,3.7-2.9,6.6-6.6,6.6H121.4l112.3,112.3c2.4,2.7,2.4,6.9,0,9
			c-2.4,2.7-6.6,2.7-9.3,0l-71.2-71.2l-92.4,72.8c-2.9,2.1-6.6,1.6-9.3-1.1c-1.1-1.3-1.3-2.7-1.3-4.2c0-1.9,0.5-3.5,2.4-4.8l91.4-72
			L103.1,575H56.6c-3.5,0-6.4-2.9-6.4-6.6c0-3.5,2.9-6.4,6.4-6.4H228.9z"/>
		<path class="st1" d="M238.8,820.1c0,49.7-42.2,88.7-94.3,89c-52.1-0.3-94.3-39.3-94.3-89c0-50.2,42.2-89.5,94.3-89.8
			C196.5,730.6,238.8,769.9,238.8,820.1z M63.2,820.1c0,40.9,35.9,75.4,81.3,75.7c45.9-0.3,81-34.8,81-75.7
			c0-42.2-35.1-76.7-81-76.7C99.1,743.3,63.2,777.8,63.2,820.1z"/>
	</g>
	<g class="st0">
		<path class="st1" d="M223.1,1483.2v-56c0-3.5,2.9-6.4,6.6-6.4c3.5,0,6.4,2.9,6.4,6.4V1552c0,3.5-2.9,6.4-6.4,6.4
			c-3.7,0-6.6-2.9-6.6-6.4v-56H56.6c-3.5,0-6.4-2.9-6.4-6.4c0-3.5,2.9-6.4,6.4-6.4H223.1z"/>
		<path class="st1" d="M98.3,1683.7V1599l-43.8-16.5c-2.7-1.1-4.2-3.5-4.2-6.1c0-0.5,0.3-1.6,0.3-2.4c1.3-3.2,5.3-5,8.5-3.7
			l172.4,64.5c2.4,1.1,4,3.7,4,6.4c0,2.9-1.6,5.6-4,6.4L59,1712.1c-3.2,1.3-7.2-0.3-8.5-3.5c0-1.1-0.3-1.6-0.3-2.4
			c0-2.4,1.6-5,4.2-6.1L98.3,1683.7z M111.3,1603.8v75.2l99.9-37.4L111.3,1603.8z"/>
		<path class="st1" d="M223.1,1775.1v-56c0-3.5,2.9-6.4,6.6-6.4c3.5,0,6.4,2.9,6.4,6.4v124.8c0,3.5-2.9,6.4-6.4,6.4
			c-3.7,0-6.6-2.9-6.6-6.4v-56H56.6c-3.5,0-6.4-2.9-6.4-6.4c0-3.5,2.9-6.4,6.4-6.4H223.1z"/>
		<path class="st1" d="M223.1,1947.2v-56c0-3.5,2.9-6.4,6.6-6.4c3.5,0,6.4,2.9,6.4,6.4v124.8c0,3.5-2.9,6.4-6.4,6.4
			c-3.7,0-6.6-2.9-6.6-6.4v-56H56.6c-3.5,0-6.4-2.9-6.4-6.4c0-3.5,2.9-6.4,6.4-6.4H223.1z"/>
		<path class="st1" d="M238.8,2138.1c0,49.7-42.2,88.7-94.3,89c-52.1-0.3-94.3-39.3-94.3-89c0-50.2,42.2-89.5,94.3-89.8
			C196.5,2048.6,238.8,2087.9,238.8,2138.1z M63.2,2138.1c0,40.9,35.9,75.4,81.3,75.7c45.9-0.3,81-34.8,81-75.7
			c0-42.2-35.1-76.7-81-76.7C99.1,2061.4,63.2,2095.9,63.2,2138.1z"/>
	</g>
	<g class="st0">
		<path class="st2" d="M135.4,2928.8H81.1c9.7,30.5,29.2,51.5,61.8,59.4c-2.2,2.2-5.2,6.5-6.8,9.3c-31.1-8.8-50.3-28.5-61.5-57.9
			c-5.9,22.1-22,43.5-63.1,57.9c-1-2.5-4-6.6-6-8.6c43.6-15.3,56.9-37.9,60.7-60.2H12.7v-10.2h54.6c0.3-3.1,0.3-6.2,0.3-9.1v-27.3
			H8.1v-10.2h131.2v10.2H78v27.3c0,2.9,0,6-0.3,9.1h57.7V2928.8z"/>
		<path class="st2" d="M161.3,2861.7c6.5,5.8,11.6,11.8,15.8,18c5-6.3,9.4-12.8,12.8-18.9l10.3,5.3c-0.6,0.9-1.6,1.2-2.8,1
			c-4,6.8-9.3,14-15.5,20.9c8.3,16.7,9.6,34.4,9.6,52.8c0,22.1-1.5,42.6-7.4,50.9c-3.1,4-7.5,5.5-19.3,5.5c-1.9,0-3.7,0-5.6-0.1
			c0-3.2-1-6.9-2.8-9.6c3.4,0.1,6.5,0.3,9.1,0.3c8.1,0,9.7-0.7,11.4-2.8c3.8-5.2,5.2-24.2,5.2-44.2c0-2.8,0-5.6-0.1-8.4
			c-7.1,10.6-16.1,20.8-24.3,27.4c-1.6-2.4-4.3-5.9-6.6-7.7c10.8-7.2,23-21.4,29.8-34.5c-1-7.7-2.8-14.9-5.8-22.1
			c-5.3,5.3-10.9,10.3-16.5,14.7c-1.5-1.9-4.6-4.7-6.6-6.2c6.5-4.9,13-10.8,18.9-17.1c-4-6.8-9.3-13.4-16.4-19.9L161.3,2861.7z
			 M214.2,2874.3c21.7-3.5,45.1-8.8,58.4-14.2l9.7,7.5c-0.3,0.4-0.9,0.6-1.6,0.6c-0.4,0-0.9,0-1.3-0.1c-2.9,1-6.3,2.1-9.9,3.1
			c2.2,49.7,7.2,96.6,22.1,119c-2.4,1.6-5.8,4.9-7.5,7.4c-15.6-25.2-20.3-71.8-22.9-124.1c-13.6,3.4-29.8,6.3-45,8.7v38.8
			c0,22.7-2.4,54.3-19,76.8c-1.3-1.9-4.7-5.2-7.1-6.3c15.3-20.8,17-48.8,17-70.8v-48.5L214.2,2874.3z M258.5,2972.5
			c-2.4-7.1-5-14.3-7.7-20.5l7.1-1.9c5.5,12.7,11.2,29.3,13.4,40.3l-7.4,2.2c-0.7-3.5-1.8-7.7-3.1-12.1c-17.1,1.9-34.4,3.8-45.6,4.9
			c-0.3,1.2-1.2,1.9-2.1,2.1l-3.4-11.1c6.8-0.4,15.3-1,24.8-1.8v-92.9l11.5,0.7c-0.1,1-0.9,1.6-2.8,1.9v89.5L258.5,2972.5z"/>
	</g>
</g>
</svg>
