<?xml version="1.0" encoding="UTF-8"?>
<svg id="Layer_2" data-name="Layer 2" xmlns="http://www.w3.org/2000/svg" viewBox="0 0 329.82 505.64">
  <defs>
    <style>
      .cls-1 {
        fill: #fff;
        stroke-width: 0px;
      }
    </style>
  </defs>
  <g id="Layer_1-2" data-name="Layer 1">
    <g>
      <path class="cls-1" d="m126.72,118.94c25.71-5.81,50.87-5.69,75.97-.13,3.79-4.19,5.93-8.92,6.91-14.01,3.14-16.46,6.12-32.95,8.98-49.45,2.11-12.18,3.7-24.46,5.99-36.6.76-4.02,2.74-7.88,4.57-11.61,2.33-4.75,6.59-6.79,11.75-6.94,6.24-.18,11.72,1.84,16.59,5.76,11.92,9.61,22.05,20.85,30.38,33.65,19.97,30.68,31.89,64.17,35,100.75,1.08,12.71,3.55,25.36,2.25,38.18-.95,9.32-1.04,19.01-3.89,27.77-2.29,7.02-.49,12.18,1.83,18.09,8.32,21.23,9.19,42.59,1.59,64.36-5.05,14.46-6.9,29.39-4.87,44.82,2.61,19.79-4.62,37.07-16.17,52.42-6.06,8.06-13.76,14.97-21.22,21.86-7.62,7.03-15.79,13.47-23.83,20.03-6.97,5.69-12.37,12.36-14.92,21.18-1.22,4.21-2.74,8.36-4.53,12.36-6.26,13.99-15.68,25.39-30.44,30.38-7.75,2.62-14.96,6.15-22.4,9.31-14.35,6.08-28.67,6.08-42.93-.16-3.63-1.59-7.06-3.63-10.6-5.43-1.05-.53-2.12-1.19-3.25-1.4-20.63-3.75-32.38-17.43-39.97-35.73-1.3-3.13-2.56-6.3-3.47-9.56-2.4-8.66-7.86-15.04-14.52-20.75-12.42-10.65-24.81-21.34-36.92-32.33-7.45-6.76-13.1-14.98-17.31-24.19-5.92-12.95-9.48-26.22-7.14-40.63,2.33-14.37-.28-28.35-4.91-41.81-7.56-21.98-6.85-43.54,1.59-64.95,2.37-6,2.23-10.51,1.23-18.04-2.82-16.76-5.02-33.53-2.82-50.61,2.16-16.82,3.12-33.81,7.56-50.27,8.65-32.06,22.62-61.37,45.31-86.01,4.58-4.97,9.77-9.42,14.97-13.75,2.23-1.86,5.08-3.21,7.87-4.12,10.46-3.44,17.87-.47,21.68,9.75,2.76,7.41,4.34,15.35,5.66,23.18,3.13,18.69,5.48,37.51,8.76,56.17,1.41,7.98,4.28,15.72,6.67,23.51.5,1.63,1.81,3.02,3.01,4.96Zm-7.59,1.89c-2.09-6.05-4.68-11.72-5.96-17.68-2.85-13.26-5.24-26.62-7.46-40-2.16-12.99-3.7-26.08-5.87-39.06-.72-4.27-2.2-8.52-4.01-12.47-2.31-5.06-5.35-6.55-10.7-5.07-3.35.92-6.72,2.64-9.44,4.81-14.58,11.58-25.74,26.1-34.95,42.16-23.15,40.38-30.89,84.3-29.22,130.22.32,8.73,1.99,17.45,3.47,26.09.84,4.93.43,9.49-1.41,14.04-.82,2.03-1.5,4.13-2.21,6.2-6.48,18.96-6.69,37.8-.05,56.92,5.08,14.63,7.4,29.78,5.15,45.39-1,6.93-1.06,13.91.9,20.79,4.4,15.47,11.5,29.37,23.69,40.19,11.34,10.06,22.89,19.89,34.28,29.9,3.95,3.48,7.66,7.22,11.99,11.33.1-1.41.15-2.15.2-2.88.67-10.24,4.23-19.44,10.1-27.76,3.42-4.84,7.94-8.41,13.5-10.53,9.38-3.57,22.05,1.12,24.08,11.88.31,1.62.49,4.82-1.49,4.82s-3.33-4.98-4.97-7.23c-5.16-7.09-11.15-8.38-18.73-4.02-7.6,4.38-11.77,11.31-15.18,20.06,3.47-1.62,5.85-3.06,8.43-3.89,10.71-3.47,18.45,2.45,18.08,13.65-.17,5.16-4.68,7.85-9.21,5.35-1.54-.85-2.73-2.31-4.19-3.34-3.47-2.47-7.1-2.23-9.58.87-3.49,4.36-5.45,9.72-4.95,15.02.96,10.15,4.99,19.38,12.3,26.69,5.06,5.07,11.49,8.04,18.67,8.62,11.8.95,22.05-2.83,30.4-11.27,1.85-1.87,3.14-4.3,4.22-5.82-7.07-7.16-13.44-13.62-20.49-20.76-1.34,2.29-2.53,4.32-3.63,6.2-4.93-2.89-6.3-6.15-6.09-10.26.42-8.24,8.06-13.9,16.56-11.88,3.04.72,5.98,2.23,8.73,3.79,7.25,4.09,14.35,4.13,21.58,0,2.41-1.38,4.94-2.7,7.57-3.53,6.27-1.96,12.6.34,15.8,5.42,3.68,5.83,2.09,12.6-3.87,15.65-1.38-1.53-2.79-3.1-4.39-4.88-6.74,6.8-13.24,13.35-20,20.18,1.73,4.78,5.94,7.94,10.16,10.83,15.67,10.75,38.3,8.65,48.48-9.38,2.8-4.96,4.57-10.58,6.33-16.05,2.06-6.41-.52-12.24-3.67-17.6-2.42-4.12-6.35-4.59-10.27-1.83-1.46,1.03-2.65,2.48-4.19,3.35-3.83,2.16-8.46.37-8.9-3.64-1.06-9.7,3.78-18.72,16.12-15.8,1.92.45,3.74,1.33,5.58,2.08,1.14.46,2.22,1.05,4.46,2.13-3.57-8.81-7.57-15.5-14.8-19.76-7.84-4.62-13.87-3.38-19.2,3.99-1.79,2.48-2.17,7.12-5.36,7.12s-.12-7.45.66-8.79c1.56-2.68,3.68-5.05,6.3-6.71,5.31-3.37,11.85-3.26,17.48-.73,8.92,4.02,14.46,11.28,17.77,20.11,2.4,6.39,3.85,13.14,5.6,19.32,5.42-4.78,11.22-9.89,17-15,9.72-8.58,19.54-17.06,29.14-25.78,12.4-11.26,19.57-25.61,23.32-41.68,1.02-4.38.92-9.1.81-13.65-.15-6.37-1.35-12.75-1.11-19.09.43-11.21,2.86-22.11,6.3-32.82,1.76-5.48,3.2-11.15,3.99-16.84,2.1-15-.68-29.46-6.16-43.39-2.2-5.6-2.68-10.98-1.61-16.93,3.21-17.91,5.64-35.91,2.89-54.16-.44-2.96-.79-5.94-1.03-8.92-2.4-30.87-10.59-60.02-25.49-87.26-9.67-17.69-21.4-33.7-37.19-46.42-2.57-2.07-5.68-3.81-8.83-4.76-5.88-1.79-9.14-.35-11.62,5.35-1.97,4.52-3.48,9.39-4.29,14.25-3.03,18.1-5.52,36.29-8.53,54.39-2.22,13.35-3.61,26.97-10.48,39.1-.14.25.14.73.21,1.06,3.05,1.94,6.2,3.68,9,5.87.99.77,1.84,2.89,1.47,3.96-.68,1.96-2.59,1.23-4.08.54-.9-.42-1.8-.88-2.63-1.42-5.63-3.67-11.88-5.53-18.44-6.63-10.84-1.82-21.71-2.36-32.73-2.44-10.28-.08-20.27,1.12-30.32,2.63-6.18.93-11.99,2.91-17.33,6.25-1.5.94-3.17,1.76-4.87,2.17-1.76.42-3.11-1.46-2.22-3.06.65-1.16,1.69-2.23,2.8-2.99,2.61-1.78,5.36-3.35,7.82-4.87Zm15.58,318.74c6.66-1.89,10.16,1.4,13.49,5.47,2.89,3.54,5.91,7.05,9.31,10.07,5.95,5.27,8.63,5.26,14.53.18,3-2.58,5.77-5.52,8.25-8.61,3.68-4.6,7.17-9.2,14.29-7.53-2.38-5.22-4.99-6.84-9.28-5.55-2.45.74-4.74,2.06-7.01,3.29-8.96,4.82-17.88,4.85-26.82-.02-1.92-1.05-3.83-2.19-5.88-2.93-4.91-1.79-7.66-.47-10.87,5.63Zm9.38,54.86c10.74,7.26,32.93,7.01,41.07-.18-6.68-3.23-13.57-6.56-20.25-9.79-6.73,3.22-13.65,6.54-20.82,9.97Zm62.77-8.77c-4.3.02-8.44.02-12.67-.88-3.95-.85-7.76-2.3-11.28-4.29-5.74-3.26-10.6-7.88-14.69-13.01-1.17,4.15-1.45,8.74,2.29,12.62,7.81,5.88,17.3,8.49,27.03,7.8,1.67-.12,3.33-.32,4.98-.6,1.02-.17,2.1-.19,3.07-.58.52-.21,1-.55,1.27-1.05Zm-45.25-18.19c-5.35,5.6-11.25,11.56-17.74,14.54-3.25,1.49-6.77,2.17-10.32,2.49-3.52.31-7.12.05-10.62.52.34.79.53,1.31,1.3,1.66.73.33,1.55.59,2.35.68,9.81,1.06,19.4.98,28.29-4.4,7.2-4.36,10.03-6.6,6.73-15.48Zm-63.22-42.64c7.48-1.77,12.3,1.11,16.78,5.19,1.19-5.44-.02-9.11-3.22-10.65-3.49-1.68-8.67.07-13.56,5.47Zm132.31-.7c-4.01-4.59-9.27-6.44-12.79-4.81-3.18,1.47-4.43,5.03-3.55,10.14q9.81-5.17,16.34-5.33Z"/>
      <path class="cls-1" d="m27.11,167.81c.07-1.42.16-2.85.26-4.26.55-7.64,1.09-15.25,2.13-22.85,2.11-15.46,5.62-30.74,10.7-45.5,4.17-12.09,9.38-23.81,15.6-34.98,2.96-5.32,6.92-10.25,11.15-14.67,5.72-5.98,12.42-4.32,15.3,3.57,1.28,3.51,1.75,7.36,2.22,11.1,2.55,20.01,6.9,39.65,12.25,59.06,2.41,8.75.7,15.55-5.82,22.22-9.03,9.25-17.05,19.48-25.46,29.33-4.91,5.76-9.68,11.66-14.6,17.41-2.21,2.57-4.71,5.27-7.67,6.97-2.11,1.21-4.65,1.85-6.99,1.21-3.74-1.01-5.95-4.86-7.14-8.55-2.09-6.48-2.27-13.32-1.94-20.08Zm45.37-119.96c-3.82,3.74-7.15,7.51-9.97,12.06-2.92,4.7-5.72,9.5-8.04,14.52-.35.75-.68,1.5-1.01,2.26-9.36,21.93-15.96,44.73-18.56,68.48-.81,7.39-1.59,14.79-1.79,22.22-.2,7.04-.39,14.4,2.44,20.94,1.32,3.04,3.12,3.29,5.69,1.28,1.56-1.22,2.98-2.66,4.28-4.17,4.95-5.74,9.77-11.59,14.73-17.32,9-10.4,17.87-20.94,27.2-31.03,4.11-4.45,5.58-8.96,4.01-14.68-3.02-11.01-5.7-22.11-8.03-33.28-2.31-11.11-4.55-22.36-5.93-33.63-.97-6.62-3.01-9.32-5.01-7.65Z"/>
      <path class="cls-1" d="m302.81,183.03c-.36,2.89-1.42,5.86-2.83,8.42-3.22,5.82-8.91,6.92-14.09,2.8-2.63-2.09-5.03-4.57-7.2-7.14-6.05-7.15-11.81-14.54-17.92-21.64-7.53-8.76-15.17-17.44-23.01-25.92-5.14-5.56-6.08-11.65-4.35-18.8,3.56-14.71,6.95-29.47,10.08-44.28,1.6-7.59,2.39-15.35,3.78-23,.45-2.48,1.25-5.1,2.61-7.19,3.3-5.1,8.32-5.96,12.59-1.67,4.32,4.33,8.56,9.06,11.54,14.35,17.35,30.72,26.36,63.95,28.83,99.04.21,2.98.65,19.73-.02,25.04Zm-45.38-135.23c-3.66,1.65-3.82,4.59-4.28,7.28-1.29,7.46-2.2,15.01-3.79,22.41-3.18,14.81-6.58,29.57-10.17,44.29-1.33,5.45-.93,9.99,3,14.38,10.23,11.44,20.17,23.13,30.24,34.7,4.97,5.72,9.84,11.54,15.02,17.05,4.24,4.51,6.97,3.85,8.65-2.21,1.1-3.98,1.94-8.31,1.6-12.37-1.24-14.88-2.06-29.9-4.8-44.54-4.37-23.38-11.23-46.1-23.36-66.88-3.23-5.53-7.11-10.43-12.12-14.11Z"/>
      <g>
        <g>
          <path class="cls-1" d="m21.03,251.74c5.67,4.87,10.47,8.98,15.26,13.12,9.07,7.85,19.69,12.8,31.03,16.28,13.42,4.12,26.39,9.08,37.67,17.74,17.36,13.34,28.55,30.39,31.58,52.33,1.25,9.05.12,17.91-2.92,26.5-.67,1.89-2.03,3.54-3.08,5.31-.4-.1-.8-.19-1.2-.29-.26-1.23-.64-2.44-.77-3.68-.7-6.29-2.83-11.85-6.82-16.93-3.79-4.83-8.6-7-14.41-7.26-3.57-.16-7.2-.06-10.74.4-9.65,1.27-19.08.89-28.26-2.67-1.23-.48-2.7-.53-4.05-.49-21.51.63-36.68-13.73-35.64-34.28.53-10.46.31-20.71-2.94-30.72-1.47-4.54-3.35-8.95-4.92-13.46-1.86-5.38-2.21-10.93-1.33-16.54.23-1.5.84-2.95,1.55-5.35Zm17.07,47.6c.08.59.04,1.36.3,2.01,3.4,8.29,6.36,16.8,10.36,24.8,8.4,16.81,25.78,26.32,45.71,23.38,4.31-.64,8.75-.9,13.1-.69,7.4.35,14.08,2.64,18.76,8.96.5.67,1.35,1.22,2.09,1.54,1.18-8.72-4.84-20.11-9.92-26.76-11.14-14.59-25.92-23.32-43.85-26.83-11.9-2.33-23.82-4.57-35.73-6.84-.14-.03-.33.16-.82.43Zm78.82,21.2c.05,0,.1-.04.14-.07.1-.08.2-.16.3-.24.03-.03.07-.06.08-.1.01-.04,0-.09-.02-.13-.7-1.77-1.96-2.9-3.27-4.23s-2.71-2.77-4.07-4.15c-2.71-2.75-5.48-5.46-8.45-7.92-10.48-8.7-23.05-13.29-35.9-17.19-7.86-2.38-15.55-5.46-22.62-9.68-3.52-2.1-6.88-4.47-10-7.13s-5.48-5.75-9.15-7.4c.66.23,1.5,5.47,1.77,6.47.67,2.43,1.34,4.87,1.98,7.31,2.68,10.22,9.02,16.71,19.47,18.79,6.83,1.35,13.7,2.59,20.6,3.52,7.08.95,14.09,2.52,20.82,4.95,6.67,2.4,13.02,5.65,18.81,9.76,1.6,1.13,3.15,2.33,4.66,3.59s2.98,2.73,4.71,3.8c.04.02.08.05.14.05Zm-81.75-7.53c-3.36,16.89,5.01,29.85,22.2,33.13-12-9-16.5-21.38-22.2-33.13Z"/>
          <path class="cls-1" d="m143.16,305.43c-.08.01-3.51-8.81-3.88-9.62-1.44-3.14-3.05-6.2-4.9-9.12-3.73-5.89-8.46-11.17-14.12-15.25-1.12,1.59-2.26,3.17-3.34,4.8-3.83,5.77-8.83,7.08-14.94,3.91-5.27-2.74-9.09-7.53-10.24-13.39-.42-2.13-.5-4.32-.3-6.48.1-1.08.27-2.16.49-3.22.13-.62.85-2.17.56-2.76-.29-.58-1.28-.85-1.79-1.19-.78-.53-1.56-1.09-2.24-1.75-4.31-4.11-8.93-7.99-12.65-12.59-5.67-7.02-7.6-15.19-5.3-24.2.56-2.18.9-4.42,1.23-6.65.16-1.08.41-2.13.5-3.23.09-1.18.11-2.39.57-3.5.39-.95,1.09-1.75,1.86-2.43.27-.24.56-.47.9-.58.57-.18,1.2,0,1.68.35.83.59,1.55,1.58,2.02,2.47.86,1.62,1.26,3.44,2.03,5.11.67,1.46,1.44,2.87,2.3,4.22,1.65,2.59,3.66,4.94,5.96,6.96,4.05,3.56,8.94,6.05,14.07,7.65,7.73,2.42,13.93,6.8,19.09,12.8,13.59,15.82,21.73,39.36,22.5,54.99.37,4.09-1.57,12.6-2.06,12.69Zm-5.83-22.26c-2.42-17.69-10.15-32.47-22.18-45-3.64-3.8-8.11-6.44-13.23-7.83-8.78-2.39-15.75-7.5-21.55-14.35-.85-1-1.39-2.26-2.53-4.14-3.47,8.88-2.4,15.65,1.71,22.08,4.85,7.6,11.48,13.18,19.57,17.06,1.44.69,3.08,1.12,4.27,2.1,1.06.88,1.61,2.36,2.39,3.58-1.1.68-2.11,1.64-3.31,1.96-1.25.34-2.6.14-3.87.07-.07,0-.14,0-.2.03-.07.04-.11.11-.15.18-2.42,4.59-.41,8.76,2.56,12.48,4.77,5.97,7.84,5.77,12.17-.55,3.19-4.67,7.68-5.99,12.34-2.8,3.03,2.08,5.51,5.1,7.85,8,1.71,2.12,2.79,4.73,4.16,7.13Z"/>
          <path class="cls-1" d="m48.71,361.29c2.05,1.45,3.38,2.49,4.79,3.37,5.58,3.47,11.36,5.46,18.1,3.48,4.75-1.4,9.63-2.55,14.54-3.19,7.56-.99,14.35,3.22,16.66,9.76,2.06,5.8.19,10.62-5.62,12.38-3.48,1.05-7.64,1.73-11.04.84-11.63-3.06-22.46-7.98-31.39-16.41-2.77-2.61-4.94-5.5-6.05-10.22Zm15.35,12.41c7.72,5.42,15.61,8.57,23.85,10.9,2.93.83,7.88.09,10.04-2.15,1.32-1.37,1.78-3.43,1.44-5.31s-1.41-3.56-2.76-4.9c-3.67-3.65-8.57-4.04-13.4-3-3.37.73-6.73,1.51-10.09,2.3-1.32.31-8.04,2.89-9.08,2.15Z"/>
          <path class="cls-1" d="m152.78,237.28c-.12-1.69-.14-3.39-.24-5.06-.26-4.05-1.08-8.12-2.05-12.05-.08-.33-.17-.67-.25-1-1.01-3.93-2.28-7.8-3.69-11.61-.32-.86-.64-1.71-.97-2.57-2.56-6.59-6.65-12.68-10.65-18.59-2.88-4.25-4.8-4.43-9.74-2.53-3.72,1.43-7.18,1.09-10.13-1.37-5.86-4.89-9.99-11.11-10.74-18.75-.61-6.3-.1-12.71.13-19.06.03-.91,1.14-2.27,2.01-2.51.87-.25,2.53.32,3.03,1.08,1.31,1.97,2.17,4.25,3.23,6.39,1.18,2.38,2.48,4.74,4.09,6.86.75.99,1.73,2.32,2.95,2.76,1.4.51,3.31-.71,4.46-1.42,5.28-3.22,10.04-2.05,14.14,1.97,2.39,2.34,4.64,5.03,6.21,7.96,3.7,6.93,6.78,14.21,9.04,21.74,2.21,7.39,3.62,15.02,4.12,22.72.25,3.89.28,7.8.08,11.7-.2,3.93-.52,7.95-1.28,11.82-.54,2.7-1.33,5.36-2.38,7.91-.88-2.02-1.19-4.18-1.34-6.36Zm-16.8-71.45c-3.42-4.4-5.1-4.54-10.17-2.15-5.64,2.66-7.66,2.33-12.31-1.97-.83-.76-1.68-1.5-2.73-2.43-.98,6.57,3.34,16.48,8.24,18.89,1.22.6,3.19.55,4.48,0,7.15-2.96,12.42-.24,16.73,5.3,2.54,3.27,4.8,6.77,7.19,10.16-2.17-10.02-5.1-19.68-11.43-27.82Z"/>
          <circle class="cls-1" cx="57.39" cy="246.57" r="4.8"/>
          <path class="cls-1" d="m164.93,304.77c-6.96,0-12.6,5.64-12.6,12.6s5.64,12.6,12.6,12.6,12.6-5.64,12.6-12.6-5.64-12.6-12.6-12.6Zm0,19.63c-3.89,0-7.04-3.15-7.04-7.04s3.15-7.04,7.04-7.04,7.04,3.15,7.04,7.04-3.15,7.04-7.04,7.04Z"/>
        </g>
        <g>
          <path class="cls-1" d="m310.34,257.08c.87,5.61.53,11.16-1.33,16.54-1.56,4.51-3.44,8.92-4.92,13.46-3.25,10.01-3.46,20.26-2.94,30.72,1.04,20.55-14.13,34.91-35.64,34.28-1.35-.04-2.82.01-4.05.49-9.19,3.56-18.61,3.93-28.26,2.67-3.54-.46-7.17-.56-10.74-.4-5.81.26-10.62,2.43-14.41,7.26-3.99,5.08-6.12,10.65-6.82,16.93-.14,1.24-.51,2.45-.77,3.68-.4.1-.8.19-1.2.29-1.04-1.76-2.41-3.41-3.08-5.31-3.04-8.58-4.17-17.45-2.92-26.5,3.03-21.94,14.21-38.99,31.58-52.33,11.28-8.66,24.26-13.62,37.67-17.74,11.34-3.48,21.96-8.43,31.03-16.28,4.78-4.14,9.59-8.25,15.26-13.12.71,2.4,1.31,3.84,1.55,5.35Zm-19.44,41.82c-11.91,2.26-23.83,4.51-35.73,6.84-17.93,3.51-32.71,12.24-43.85,26.83-5.08,6.65-11.09,18.05-9.92,26.76.73-.33,1.59-.87,2.09-1.54,4.67-6.32,11.35-8.61,18.76-8.96,4.35-.21,8.79.05,13.1.69,19.94,2.95,37.32-6.57,45.71-23.38,4-8,6.96-16.51,10.36-24.8.27-.65.22-1.43.3-2.01-.5-.27-.68-.46-.82-.43Zm-77.86,21.59c1.73-1.07,3.16-2.5,4.71-3.8,1.51-1.26,3.06-2.45,4.66-3.59,5.78-4.1,12.14-7.35,18.81-9.76,6.73-2.43,13.74-4,20.82-4.95,6.9-.92,13.77-2.16,20.6-3.52,10.45-2.07,16.78-8.57,19.47-18.79.64-2.44,1.31-4.88,1.98-7.31.28-1,1.11-6.24,1.77-6.47-3.67,1.65-6.14,4.84-9.15,7.4-3.12,2.65-6.48,5.03-10,7.13-7.07,4.21-14.76,7.29-22.62,9.68-12.86,3.9-25.43,8.49-35.9,17.19-2.97,2.47-5.74,5.18-8.45,7.92-1.36,1.38-2.71,2.77-4.07,4.15s-2.57,2.45-3.27,4.23c-.02.04-.03.08-.02.13.01.04.05.07.08.1.1.08.2.16.3.24.04.03.09.07.14.07.05,0,.1-.03.14-.05Zm59.42,25.66c17.19-3.28,25.56-16.24,22.2-33.13-5.69,11.76-10.2,24.13-22.2,33.13Z"/>
          <path class="cls-1" d="m184.61,292.74c.76-15.63,8.9-39.17,22.5-54.99,5.16-6,11.35-10.39,19.09-12.8,5.13-1.6,10.02-4.09,14.07-7.65,2.3-2.03,4.31-4.38,5.96-6.96.86-1.35,1.63-2.76,2.3-4.22.77-1.67,1.17-3.48,2.03-5.11.47-.89,1.19-1.89,2.02-2.47.49-.34,1.12-.53,1.68-.35.34.11.63.34.9.58.77.68,1.46,1.48,1.86,2.43.46,1.11.47,2.32.57,3.5.08,1.09.34,2.15.5,3.23.32,2.23.67,4.46,1.23,6.65,2.3,9.01.37,17.17-5.3,24.2-3.72,4.6-8.34,8.48-12.65,12.59-.69.66-1.46,1.21-2.24,1.75-.51.35-1.5.61-1.79,1.19-.3.59.42,2.14.56,2.76.23,1.06.4,2.14.49,3.22.2,2.16.12,4.35-.3,6.48-1.15,5.86-4.98,10.65-10.24,13.39-6.11,3.17-11.11,1.86-14.94-3.91-1.08-1.62-2.22-3.2-3.34-4.8-5.66,4.09-10.4,9.37-14.12,15.25-1.85,2.92-3.46,5.98-4.9,9.12-.37.81-3.8,9.63-3.88,9.62-.49-.09-2.43-8.61-2.06-12.69Zm12.05-16.69c2.35-2.91,4.82-5.92,7.85-8,4.66-3.19,9.14-1.87,12.34,2.8,4.32,6.32,7.4,6.52,12.17.55,2.97-3.72,4.98-7.89,2.56-12.48-.04-.07-.08-.14-.15-.18-.06-.03-.13-.03-.2-.03-1.27.06-2.62.26-3.87-.07-1.19-.32-2.21-1.28-3.31-1.96.78-1.22,1.33-2.7,2.39-3.58,1.19-.99,2.83-1.41,4.27-2.1,8.1-3.88,14.72-9.46,19.57-17.06,4.11-6.43,5.18-13.2,1.71-22.08-1.14,1.89-1.68,3.14-2.53,4.14-5.8,6.85-12.77,11.96-21.55,14.35-5.12,1.4-9.59,4.04-13.23,7.83-12.02,12.53-19.76,27.3-22.18,45,1.36-2.39,2.45-5.01,4.16-7.13Z"/>
          <path class="cls-1" d="m275.07,371.51c-8.92,8.43-19.76,13.35-31.39,16.41-3.4.89-7.56.22-11.04-.84-5.8-1.76-7.67-6.58-5.62-12.38,2.32-6.53,9.1-10.75,16.66-9.76,4.9.64,9.78,1.8,14.54,3.19,6.73,1.98,12.52,0,18.1-3.48,1.42-.88,2.74-1.92,4.79-3.37-1.1,4.72-3.28,7.61-6.05,10.22Zm-18.39.04c-3.36-.79-6.72-1.58-10.09-2.3-4.83-1.04-9.74-.65-13.4,3-1.35,1.34-2.42,3.03-2.76,4.9s.12,3.94,1.44,5.31c2.17,2.24,7.12,2.98,10.04,2.15,8.24-2.34,16.14-5.48,23.85-10.9-1.05.74-7.76-1.84-9.08-2.15Z"/>
          <path class="cls-1" d="m175.7,243.64c-1.05-2.55-1.85-5.2-2.38-7.91-.77-3.87-1.08-7.88-1.28-11.82-.2-3.9-.18-7.81.08-11.7.5-7.7,1.91-15.33,4.12-22.72,2.26-7.53,5.34-14.81,9.04-21.74,1.56-2.93,3.82-5.63,6.21-7.96,4.1-4.01,8.86-5.19,14.14-1.97,1.15.7,3.05,1.92,4.46,1.42,1.22-.44,2.2-1.77,2.95-2.76,1.61-2.12,2.91-4.48,4.09-6.86,1.06-2.14,1.92-4.41,3.23-6.39.5-.75,2.16-1.33,3.03-1.08.87.25,1.97,1.61,2.01,2.51.23,6.35.74,12.77.13,19.06-.74,7.64-4.88,13.86-10.74,18.75-2.95,2.46-6.41,2.8-10.13,1.37-4.94-1.89-6.86-1.72-9.74,2.53-4,5.91-8.09,12-10.65,18.59-.33.85-.66,1.71-.97,2.57-1.41,3.81-2.67,7.68-3.69,11.61-.09.33-.17.66-.25,1-.97,3.93-1.79,8.01-2.05,12.05-.11,1.67-.13,3.37-.24,5.06-.15,2.18-.46,4.34-1.34,6.36Zm6.7-50c2.39-3.4,4.64-6.89,7.19-10.16,4.31-5.54,9.58-8.27,16.73-5.3,1.3.54,3.26.59,4.48,0,4.9-2.41,9.21-12.32,8.24-18.89-1.05.93-1.9,1.67-2.73,2.43-4.64,4.3-6.67,4.63-12.31,1.97-5.07-2.39-6.75-2.25-10.17,2.15-6.33,8.14-9.27,17.8-11.43,27.82Z"/>
          <circle class="cls-1" cx="272.44" cy="246.57" r="4.8"/>
        </g>
      </g>
    </g>
  </g>
</svg>