<svg width="1441" height="1460" viewBox="0 0 1441 1460" fill="none" xmlns="http://www.w3.org/2000/svg">
<g clip-path="url(#clip0_49_4176)">
<path d="M31.3916 1257.52C43.1955 1265.07 62.162 1251.67 56.6073 1237.87C54.0674 1227.87 42.4463 1225.13 35.2471 1219.47C37.257 1213.69 37.6224 1206.34 43.2686 1202.8C46.6306 1199.8 51.0891 1197.79 53.5375 1194.08C54.981 1191.21 55.4013 1187.92 55.0359 1184.83C51.9478 1178.41 44.4014 1174.27 37.4945 1176.29C34.6075 1177.52 32.2687 1179.71 29.674 1181.5C26.513 1178.98 26.8053 1174.14 24.9964 1170.72C34.2969 1164.25 45.2419 1160.16 56.5707 1159.61C60.6637 1160.08 65.3048 1162.84 65.9078 1167.27C64.1537 1171.32 61.2301 1174.78 59.4394 1178.89C58.7268 1181.59 60.7185 1183.93 62.5823 1185.67C69.0141 1186.09 75.2266 1183.64 81.4026 1182.27C96.4772 1178.49 109.249 1169.06 123.246 1162.73C125.932 1169.28 131.468 1176.04 130.244 1183.66C129.988 1187.26 128.746 1190.97 129.787 1194.61C131.194 1197.73 134.776 1199.31 138.028 1199.74C142.212 1199.67 146.232 1197.42 150.252 1196.88C155.624 1202.34 160.704 1209.89 169.054 1210.75C176.107 1210.75 183.891 1211.41 190.177 1207.55C200.282 1201.13 208.394 1192.12 215.009 1182.27C219.047 1173.22 211.592 1163.48 202.785 1161.27C195.604 1159.08 188.953 1166.48 181.845 1163.76C181.315 1158.46 182.137 1152.99 183.763 1148.06C188.094 1144.2 195.074 1141.66 195.732 1135.11C194.782 1130.22 190.506 1126.87 187.948 1122.89C189.081 1121.32 191.365 1118.14 192.516 1116.53C197.943 1109.09 207.408 1106.57 214.333 1101.03C225.461 1091.21 236.99 1081.84 248.063 1072.08C251.151 1068.91 254.696 1066.1 256.596 1062.24C256.14 1058.13 253.983 1053.89 256.14 1049.9C257.071 1046.78 257.967 1043.69 258.807 1040.66C257.145 1038.76 254.568 1038.28 252.394 1037.37C246.163 1035.32 241.759 1030.04 235.748 1027.59C229.225 1026.29 221.386 1025.81 216.672 1031.75C211.555 1037.7 211.062 1045.74 209.838 1053.1C209.162 1057.76 204.338 1059.74 200.592 1061.6C193.576 1064.56 184.531 1067.41 177.807 1062.26C177.953 1059.57 178.483 1056.96 178.446 1054.33C177.423 1052.52 176.473 1050.71 175.431 1048.99C184.348 1040.84 194.8 1034.17 206.366 1030.55C212.232 1028.54 218.773 1027.28 222.647 1021.79C237.831 1006.73 257.053 997.228 275.198 986.426C280.99 991.453 284.06 998.727 289.377 1004.3C293.726 1007.17 299.81 1007.24 304.762 1006.22C312.473 1002.78 319.526 995.638 319.727 986.792C320.33 978.293 313.441 971.768 310.536 964.42C310.883 961.094 313.734 959.156 316.018 957.2C324.843 950.127 333.888 943.364 343.517 937.534C352.489 932.398 361.753 927.591 369.847 921.139C369.409 920.152 368.532 918.196 368.093 917.209C354.608 920.06 345.436 931.465 333.011 936.693C324.35 940.092 315.561 943.584 306.352 945.338C305.803 944.479 304.707 942.743 304.159 941.884C307.484 936.4 313.167 933.037 318.247 929.51C327.511 923.113 336.793 916.825 346.751 911.634C363.891 902.843 378.088 889.482 392.341 876.797C401.111 869.833 410.668 863.838 420.827 859.141C431.443 856.746 444.343 859.25 452.511 850.349C459.089 845.487 463.584 838.103 465.576 830.299C466.599 824.139 459.948 819.789 457.134 815.457C452.657 809.974 446.371 803.632 438.405 805.405C427.405 806.136 418.89 814.068 409.005 817.961C403.943 818.601 398.827 818.912 393.693 818.93L392.944 817.815C419.858 799.976 447.102 782.685 474.565 765.797C480.138 770.001 484.25 776.8 491.942 777.22C497.058 775.612 501.846 771.938 504.386 767.277C505.994 759.985 504.769 752.18 508.095 745.381C510.744 742.73 514.234 741.177 517.395 739.24C530.46 732.331 541.368 722.004 554.598 715.424C559.988 716.557 565.049 718.86 570.458 720.103C573.765 719.39 576.908 718.001 580.179 717.142C584.052 721.236 586.537 726.792 591.635 729.644C599.364 734.524 611.132 735.383 618.039 728.73C624.562 722.936 631.633 717.708 637.279 710.982C642.213 704.768 641.153 694.477 634.21 689.963C629.824 685.869 623.447 687.678 618.075 687.532C619.098 684.37 621.145 681.775 624.142 679.764C619.336 682.085 614.622 685.393 609.067 685.357C608.446 684.918 607.221 684.078 606.618 683.657C612.941 679.472 619.537 675.761 625.731 671.466C619.482 672.782 614.037 676.273 608.519 679.362C598.761 684.699 589.041 690.164 579.521 695.958C575.062 698.06 569.928 697.091 565.232 698.261C558.709 703.086 556.589 711.713 548.933 715.387C535.211 723.795 521.196 731.855 507.017 739.459C501.718 737.594 497.04 734.195 491.412 733.171C485.602 730.594 480.358 736.333 476.813 739.916C471.989 744.979 476.959 754.245 472.647 759.253C457.225 767.826 441.182 775.32 426.436 785.153C431.498 787.255 436.048 782.283 440.78 781.004L441.255 782.393C427.679 791.44 414.03 800.415 399.96 808.713C400.088 806.794 403.706 803.979 401.203 802.846C400.38 803.412 398.754 804.545 397.932 805.13C397.438 803.357 402.116 800.561 399.12 800.323C393.784 802.882 388.741 805.861 383.278 808.311C374.342 812.99 364.11 815.804 356.984 823.39C347.501 832.474 335.66 838.341 324.752 845.506C315.122 851.903 304.78 857.112 294.164 861.681C285.814 864.149 276.732 860.822 268.4 863.729C260.744 869.194 255.08 877.291 246.126 881.074C233.299 887.453 220.874 894.837 207.737 900.613L206.494 899.79C221.148 889.463 236.936 880.836 251.791 870.875C258.698 865.099 262.279 856.509 269.241 850.824C276.714 843.294 285.028 836.751 294.091 831.322C306.406 824.322 317.315 815.037 330.27 809.261C356.984 796.704 379.312 776.964 404.071 761.209C407.488 758.486 411.691 760.551 415.437 761.118C420.754 762.452 426.473 760.862 430.913 757.828C434.622 752.948 436.559 747.026 440.451 742.365C445.312 739.605 450.939 738.545 455.763 735.73C467.969 727.926 479.316 718.933 491.979 711.896C503.856 705.389 514.271 696.598 525.326 688.939C539.395 681.519 554.726 677.041 569.215 670.589C577.456 667.134 584.363 661.029 589.461 653.81C591.325 649.478 591.855 644.634 594.321 640.577C603.403 624.237 621.748 616.596 636.749 606.8C649.028 598.154 660.869 588.888 674.171 581.851C684.422 575.691 696.353 573.187 706.421 566.753C719.906 557.907 732.697 548.055 746.529 539.794C753.162 536.047 760.343 533.506 767.103 530.07C782.324 522.832 795.498 511.975 810.829 504.975C820.531 500.314 829.576 494.465 839.059 489.475C853.586 482.365 868.276 475.511 882.456 467.725C881.889 467.341 880.756 466.519 880.208 466.135C874.781 468.017 869.738 470.832 864.293 472.843C859.561 474.104 854.499 473.208 849.858 474.853C841.069 480.245 833.376 487.629 823.564 491.34C804.287 498.76 787.952 513.163 767.396 517.385C762.48 518.427 757.547 519.835 752.467 519.889C751.828 519.213 750.549 517.842 749.891 517.148C749.982 511.957 751.079 506.784 754.02 502.526C759.338 494.812 765.824 487.465 774.613 483.7C782.233 481.433 790.309 481.25 797.855 478.728C806.078 473.665 813.149 467.049 821.372 462.077C830.252 458.897 839.973 459.007 848.707 455.497C856.125 449.722 862.301 442.557 870.542 437.932C875.128 434.953 880.628 433.528 885.196 430.603C886.859 428.136 888.102 425.431 889.801 423.036C893.474 417.407 900.381 417.407 905.588 414.245C915.565 406.404 924.463 396.936 935.829 391.105C940.104 389.186 945.001 387.285 949.716 388.692C952.073 390.886 953.553 393.847 955.672 396.296C960.295 397.118 964.955 395.839 969.577 395.62C970.144 400.025 965.192 401.706 963.803 405.508C962.086 407.263 960.697 410.498 963.273 412.271C968.408 413.13 973.488 411.43 978.311 409.931C997.698 403.296 1013.87 390.319 1032.1 381.327C1041.08 376.775 1049.41 371.055 1057.85 365.626C1069.87 357.876 1083.94 354.221 1096.31 347.129C1107.09 341.006 1116.39 332.653 1126.68 325.817C1136.4 322.125 1146.91 320.974 1156.47 316.806C1174.57 309.66 1190.89 298.803 1208.41 290.45C1217.26 286.539 1227.09 285.022 1235.35 279.739C1247.26 272.465 1259.7 266.123 1271.84 259.25C1272.49 259.415 1273.79 259.78 1274.45 259.963C1275.02 264.752 1274.1 269.888 1276.24 274.439C1279.18 280.306 1283.18 285.844 1286.2 291.821C1278.32 296.171 1269.37 297.944 1261.11 301.453C1254.4 304.195 1247.7 307.083 1241.23 310.373C1242.49 311.579 1243.79 312.822 1245.09 314.083C1231.4 320.407 1218.21 327.718 1205.54 335.925C1197.47 341.774 1187.93 344.753 1178.72 348.281C1166.57 352.905 1155.83 360.728 1143.33 364.584C1122 371.31 1102.67 382.734 1082.39 391.909C1073.77 395.821 1065.21 399.878 1056.86 404.375C1041.35 412.819 1024.78 419.07 1008.64 426.216C993.569 433.107 979.079 441.241 965.028 450.051C949.971 459.847 933.325 466.683 917.611 475.274C904.949 482.091 891.281 486.825 879.039 494.465C869.866 501.027 861.223 508.356 851.978 514.9C844.248 520.456 835.131 523.636 827.438 529.266C821.335 533.89 815.25 538.88 807.759 541.11C800.413 543.815 792.282 544.948 785.924 549.865C779.218 555.421 771.16 560.045 765.934 567.302C765.733 571.359 769.46 575.417 767.341 579.347C762.736 584.556 755.738 584.172 749.69 586.055C745.524 589.582 742.381 593.987 738.325 597.716C730.723 603.692 720.838 605.082 712.67 609.98C704.484 616.012 697.578 623.78 688.971 629.336C673.513 640.376 655.625 648.034 641.939 661.505C644.15 660.609 648.553 658.818 650.764 657.922C648.937 659.878 645.301 663.753 643.474 665.708C644.533 665.617 646.653 665.434 647.713 665.343C647.512 667.116 647.402 668.925 647.366 670.771C662.129 663.497 676.692 655.802 691.456 648.509C693.85 647.193 696.408 646.279 699.003 645.548C699.825 651.086 699.661 656.771 700.94 662.382C703.699 668.852 707.737 674.847 711.044 681.171C712.743 684.023 714.096 687.916 717.86 688.537C726.977 688.885 736.205 688.172 744.976 685.558C751.389 683.547 755.793 677.973 759.831 672.946C762.645 668.706 765.97 663.862 765.258 658.544C763.01 652.348 758.881 647.084 756.487 640.979C754.97 637.744 754.02 634.125 751.663 631.438C746.766 628.696 741.467 627.033 736.424 624.73C749.946 617.364 764.198 611.406 777.646 603.93C791.095 600.805 782.141 599.617 778.925 597.441C800.962 587.718 820.842 573.808 842.257 562.897C855.449 556.298 868.021 548.64 880.811 541.311C906.374 528.315 932.613 516.581 957.554 502.343C981.125 488.196 1007.57 479.496 1030.48 464.179C1057.19 448.863 1084.91 435.337 1112.37 421.464C1116.63 419.618 1121.16 415.78 1126.17 417.315C1126.81 424.937 1125.11 434.039 1132.36 439.376C1134.12 440.4 1137.59 442.484 1139.31 443.507C1149.28 448.881 1162.39 437.22 1159.94 426.619C1158.38 418.339 1152.68 411.759 1147.37 405.599C1155.97 398.562 1166.31 394.103 1176.27 389.442C1195.42 380.522 1214.99 372.498 1233.52 362.318C1250.35 353.216 1267.93 345.649 1285.6 338.392C1298.55 332.964 1310.45 325.287 1323.69 320.553C1337.32 315.783 1349.79 308.417 1361.95 300.832C1376.39 293.996 1392.54 291.273 1406.25 282.774C1417.5 276.139 1429.34 270.582 1441.05 264.825V218.893C1433.87 222.786 1427.39 227.758 1423.51 235.16C1421.56 237.628 1423 240.735 1423.09 243.586C1418.05 246.84 1412.09 248.21 1406.59 250.513C1400.07 252.615 1393.68 255.905 1386.68 256.052C1364 255.814 1344.14 268.663 1323.09 275.261C1322.41 275.298 1321.06 275.371 1320.39 275.408C1316.71 270.491 1315.69 264.277 1312.71 259.049C1309.55 253.584 1305.22 249.07 1300.96 244.537C1328.7 230.061 1358.74 220.301 1385.69 204.234C1396.07 196.887 1408.71 194.821 1420.86 192.518C1428.61 191.349 1434.44 185.774 1441.04 181.972V153.569C1424.26 161.355 1406.98 168.063 1390.29 176.105C1371.57 184.952 1351.23 190.179 1333.29 200.78C1316.95 210.65 1300.71 220.703 1284.24 230.317C1272.95 236.933 1260.58 241.192 1248.7 246.565C1242.27 248.978 1236.13 252.762 1229.21 253.621C1226.56 250.678 1221.26 244.829 1218.61 241.886C1214.59 238.615 1209.16 233.972 1203.7 236.421C1195.46 238.871 1187.98 246.62 1189.52 255.686C1191.82 260.31 1196.43 269.522 1198.73 274.146C1193.67 279.41 1185.92 280.854 1179.51 283.815C1170.72 288.878 1160.63 285.753 1151.2 287.288C1147.77 289.134 1146.54 293.32 1144.39 296.372C1139.44 305.767 1132.78 314.193 1125.13 321.54C1114.48 329.455 1100.68 329.345 1088.58 333.585C1075.48 340.714 1064.56 351.351 1050.78 357.383C1040.49 361.861 1030.04 366.065 1020.08 371.274C1014.97 373.394 1009.81 377.269 1003.93 376.721C1002.32 371.347 1000.59 365.973 999.58 360.49C1003.66 351.333 1013.89 348.116 1022.16 343.931C1031.43 339.8 1039.85 333.933 1047.18 326.987C1053.96 319.694 1062.69 314.65 1071.76 310.83C1079.58 307.796 1085.53 300.85 1088.31 293.064C1087.51 292.497 1085.88 291.346 1085.06 290.779C1078.15 291.876 1071.57 294.435 1064.72 295.86C1064.14 295.038 1062.95 293.375 1062.35 292.534C1064.19 291.035 1066.18 289.774 1068.3 288.769C1082.79 282.024 1096.55 273.141 1112.39 269.851C1115.04 269.029 1118.9 269.047 1120.49 271.807C1120.72 275.609 1122 279.721 1125.6 281.896C1129.06 281.275 1132.49 279.94 1135.25 277.747C1137.54 273.763 1133.75 269.486 1132.91 265.702C1144.77 253.237 1161.03 246.821 1176.31 239.73C1193.72 232.949 1210.02 223.353 1228.17 218.619C1238.73 216.06 1247.33 209.06 1256.96 204.472C1262.66 202.279 1268.78 201.511 1274.7 200.232C1286.05 198.002 1296.96 194.09 1308.07 191.056C1318.59 188.187 1329.03 184.933 1339.26 181.132C1356.33 174.552 1373.79 167.661 1387.22 154.702C1387.06 153.989 1386.71 152.582 1386.57 151.906C1374.93 152.088 1363.2 153.24 1351.89 156.036C1343.61 157.992 1335.44 163.11 1326.71 160.734C1326.58 160.039 1326.34 158.65 1326.21 157.955C1339.79 145.91 1357.73 140.665 1374.89 135.986C1388.38 132.019 1397.84 120.687 1410.72 115.606C1420.72 111.53 1430.95 108.021 1441.07 104.256V8.44432C1437.93 4.98985 1432.59 5.13607 1428.45 7.42077C1423.44 9.41304 1415.93 9.79687 1413.65 15.536C1413.24 25.4791 1424.72 29.6464 1431.04 35.2759C1421.39 40.6861 1411.23 45.5479 1400.58 48.582C1396.54 45.3103 1393.15 41.0516 1389.25 37.7799C1386.02 34.9835 1381.21 34.7641 1377.38 33.7771C1373.23 32.8084 1368.35 31.6569 1364.38 33.8868C1361.97 36.2263 1360.86 40.1378 1362.52 43.2632C1364.51 48.9841 1369.76 54.2481 1367.95 60.7184C1360.51 64.0632 1352.6 66.2565 1345.56 70.4969C1340.12 75.2126 1335.92 81.6097 1329.32 84.8997C1315.21 92.028 1300.07 96.8533 1286.16 104.42C1278.36 110.708 1271.05 117.982 1261.66 121.985C1250.8 126.554 1239.2 129.022 1228.51 133.957C1216.31 138.819 1205.27 146.148 1192.97 150.791C1181.17 155.342 1170.33 162.031 1158.6 166.765C1146.18 171.846 1135.67 180.547 1123.06 185.244C1112.1 189.356 1100.64 192.153 1090.16 197.453C1073.27 205.349 1055.6 211.637 1039.34 220.849C1031.48 224.998 1023.86 230.061 1015.17 232.345C1002.03 235.928 989.384 241.064 976.21 244.665C970.546 240.424 965.338 235.508 959.089 232.144C953.041 229.805 945.458 232.437 942.589 238.377C937.254 245.67 940.598 254.882 941.219 262.997C935.079 268.115 927.204 270.528 920.242 274.348C908.037 281.238 894.387 284.766 881.944 291.126C871.638 296.847 862.74 305.602 851.356 309.294C845.253 308.344 839.498 305.858 833.376 304.963C820.33 304.835 808.234 316.313 808.362 329.509C809.458 333.622 811.176 337.606 812.363 341.737C810.481 344.79 806.571 345.795 803.52 347.458C790.875 354.294 775.435 352.631 763.321 360.819C744.61 370.945 724.401 377.817 704.905 386.207C694.014 392.275 683.453 399.038 671.905 403.936C657.379 409.712 644.917 419.362 630.866 426.162C623.74 429.269 616.157 431.225 609.085 434.533C599.803 439.194 590.777 444.257 581.293 448.57C561.23 456.832 540.546 463.576 520.703 472.422C497.735 483.992 475.991 498.413 451.104 505.724C442.79 503.714 434.22 497.901 425.505 501.466C417.702 505.413 413.427 513.529 407.05 519.177C396.598 523.454 385.16 525.153 374.014 526.652C369.391 526.451 362.338 525.921 361.588 520.182C366.887 513.657 373.374 508.247 378.691 501.795C383.003 498.084 385.89 491.157 392.432 490.846C402.007 488.909 411.453 486.551 420.955 484.376C423.805 483.572 426.985 482.841 428.739 480.245C434.933 471.837 442.534 464.49 450.903 458.33C464.296 450.087 475.004 438.353 486.004 427.331C485.437 426.381 484.286 424.517 483.701 423.566C476.539 425.887 469.997 429.598 463.09 432.668C454.539 436.489 445.385 439.45 437.93 445.371C430.639 450.471 422.161 453.341 414.377 457.691C402.244 464.837 391.902 474.853 379.751 481.982C368.057 484.595 355.814 485.546 344.668 490.316C338.803 492.235 333.285 495.653 327.145 496.914C321.92 495.215 317.68 491.157 312.199 490.17C306.772 490.846 301.692 493.167 296.192 493.478C293.031 493.862 288.993 493.369 287.056 496.567C286.526 500.698 287.294 504.883 287.093 509.069C280.277 511.208 272.95 510.842 266.08 512.944C252.778 517.568 240.718 525.245 227.16 529.138C212.232 533.598 198.875 542.737 183.38 545.387C176.418 546.886 170.041 542.572 163.299 541.749C158.42 541.548 153.614 542.846 148.754 543.267C157.397 536.412 167.501 531.898 177.076 526.597C190.122 519.268 203.351 512.322 216.8 505.816C228.804 500.022 242.417 498.852 254.44 493.113C263.375 488.781 272.877 484.888 279.674 477.376C260.58 480.044 242.892 488.36 226.228 497.7C212.962 505.688 197.65 508.923 183.361 514.589C170.059 519.012 157.561 525.373 144.478 530.381C140.897 531.368 138.01 528.261 135.032 526.853C127.869 521.827 118.623 522.412 110.766 519.085C114.914 510.586 119.427 502.288 123.831 493.953C129.093 483.828 135.799 474.415 139.727 463.686C144.241 448.625 129.221 430.713 113.342 435.502C106.326 436.744 102.379 443.562 98.5602 448.99C94.5586 455.972 87.1218 459.774 80.489 463.923C64.8663 472.276 49.6456 481.378 33.8766 489.494C23.8635 494.154 15.7506 501.813 5.77401 506.638C3.91025 507.662 1.9734 508.576 0.0182724 509.471V1166.22C1.1146 1166.53 2.21094 1166.57 3.289 1167.14C3.47172 1167.78 3.80062 1169 3.98334 1169.62C2.9601 1171.96 1.4435 1174.19 0.0182724 1176.5V1260.44C6.34045 1254.83 12.6444 1249.2 19.332 1244.05C23.7356 1248.16 26.4216 1253.96 31.4099 1257.48L31.3916 1257.52ZM403.523 847.206C405.442 843.276 407.232 839.364 408.95 835.471C410.467 839.968 412.257 844.482 412.531 849.307C412.915 852.469 409.663 853.785 407.525 855.394C402.555 858.227 397.585 861.809 391.884 863.235C391.262 862.358 390.002 860.603 389.38 859.726C392.596 854.078 398.9 851.281 403.541 847.206H403.523ZM293.981 869.943C307.667 859.47 322.102 848.631 339.497 845.707C339.845 846.365 340.502 847.662 340.831 848.302C325.373 859.159 309.44 869.395 294.621 881.202C292.794 877.802 291.496 873.324 293.963 869.943H293.981ZM290.254 890.962C299.262 879.74 311.23 871.332 323.692 864.387L325.099 865.118C319.836 871.332 312.491 875.646 307.064 881.823C305.146 886.027 304.177 890.56 302.496 894.983C295.955 898.255 288.847 900.302 281.977 902.897C278.066 904.579 274.339 902.093 271.031 900.247C277.902 898.365 285.521 896.921 290.236 890.944L290.254 890.962ZM251.608 881.074L252.979 880.873L253.837 881.97L253.307 883.267L251.919 883.468L251.06 882.372L251.59 881.074H251.608ZM236.534 889.902L237.009 890.505L236.406 890.98L235.931 890.377L236.534 889.902ZM246.236 896.793C250.439 894.325 254.385 891.785 259.081 890.779C261.749 891.529 263.978 893.247 266.061 895.02C266.591 895.477 267.615 896.409 268.126 896.866C257.729 901.764 247.588 907.467 239.877 916.24C235.51 917.337 231.125 915.308 227.324 913.352C231.162 905.584 239 900.905 246.236 896.793ZM1346.9 279.155C1355.58 270.71 1368.55 271.387 1378.47 265.264C1390.66 258.3 1404 253.877 1417.26 249.526C1421.1 248.375 1424.98 246.986 1429.01 247.132C1431.59 251.72 1424.76 253.566 1421.69 255.997C1403.23 265.391 1383.88 272.977 1365.46 282.481C1355.01 286.849 1344.74 292.497 1333.74 295.275L1333.5 293.923C1337.12 288.33 1341.91 283.523 1346.88 279.155H1346.9ZM478.731 678.558C485.584 671.722 494.208 666.787 503.435 663.954C506.907 663.095 510.543 663.04 513.942 661.962C522.475 655.839 529.821 647.869 539.56 643.556L540.857 644.378C541.496 644.835 542.775 645.749 543.415 646.206C527.025 656.515 512.352 669.218 496.291 680.056C485.072 685.266 472.629 688.263 462.451 695.647C460.404 697.365 457.773 696.177 455.453 695.793C463.529 690.456 471.879 685.448 478.768 678.558H478.731ZM321.298 536.23C321.682 536.76 322.449 537.838 322.833 538.368C318.886 547.251 310.097 553.191 300.87 555.604C297.709 551.619 297.617 546.1 298.111 541.274C305.365 538.057 313.423 536.632 321.317 536.23H321.298Z" fill="#363436" fill-opacity="0.1"/>
<path d="M1432.94 300.704C1435.66 300.375 1438.33 299.772 1441 299.205V271.149C1435.43 273.507 1429.78 275.773 1424.61 278.953C1407.63 288.732 1388.96 295.221 1372.3 305.529C1376.3 308.709 1380.74 303.263 1385.21 303.628C1385.18 306.187 1384.92 308.819 1385.21 311.433C1386.44 312.548 1388.38 316.112 1390.24 314.284C1395.76 312.749 1396.93 307.631 1398.02 303.08C1395.19 302.075 1392.29 301.38 1389.44 300.503C1398.32 296.372 1407.01 291.857 1416.08 288.165C1415.91 290.651 1415.64 293.173 1415.6 295.732C1420.92 298.638 1426.8 300.777 1432.96 300.686L1432.94 300.704Z" fill="#363436" fill-opacity="0.1"/>
<path d="M1441 377.141C1438.99 378.548 1437 379.974 1435.01 381.4C1428.21 386.371 1421.1 391.617 1416.48 398.855C1424.66 397.923 1432.81 396.68 1441 395.62V377.141Z" fill="#363436" fill-opacity="0.1"/>
<path d="M1290.16 7.82283C1294.69 6.98206 1298.59 3.94797 1302.09 1.33427L1301.36 0C1296.92 1.15149 1292.76 3.03409 1289.43 6.48856L1290.16 7.82283Z" fill="#363436" fill-opacity="0.1"/>
<path d="M1223.49 35.4038C1224.13 38.2917 1229.94 36.208 1228.24 33.5943C1226.67 32.26 1223.69 33.2836 1223.49 35.4038Z" fill="#363436" fill-opacity="0.1"/>
<path d="M1206.33 41.801L1205 41.8741C1189.06 43.574 1174.15 50.4464 1159.88 57.3005C1150.34 64.5567 1137.48 62.1806 1127.19 67.6639C1111.44 75.9254 1097.06 87.221 1079.92 92.7225C1064.45 97.7306 1050.07 105.316 1035.65 112.718C1024.76 117.854 1012.59 119.463 1001.66 124.507C995.433 127.194 989.567 130.557 983.83 134.195C975.297 139.331 965.868 142.73 956.97 147.208C939.355 156.658 923.385 168.885 908.749 182.466C904.693 184.513 902.994 189.466 901.842 193.524C907.653 196.046 913.116 190.928 918.379 189.484C932.412 181.991 949.332 184.111 963.219 176.288C976.795 170.128 987.868 159.82 1000.75 152.509C1015.81 144.01 1030.42 134.414 1046.83 128.638C1054.58 125.293 1062.84 123.392 1070.68 120.34C1082.32 115.496 1092.95 108.606 1103.79 102.263C1105.83 101.112 1107.92 99.9239 1110.26 99.5949C1118.75 103.214 1125.79 110.434 1135.29 111.53C1147.57 114.034 1157.74 102.995 1161.31 92.3753C1163.77 86.2157 1161.76 78.9229 1164.08 73.0192C1172.49 68.9433 1182.21 67.5542 1189.68 61.6323C1196.52 56.3318 1204.43 50.7753 1206.37 41.8193L1206.33 41.801Z" fill="#363436" fill-opacity="0.1"/>
<path d="M1360.05 312C1352.18 314.248 1344.82 317.958 1337.8 322.125C1338.35 322.582 1339.44 323.478 1339.97 323.917C1347.32 321.376 1354.9 317.867 1360.04 312H1360.05Z" fill="#363436" fill-opacity="0.1"/>
<path d="M1171.17 131.8C1176.18 134.231 1182.1 137.996 1187.8 135.273C1192.57 132.677 1195.28 127.468 1197.23 122.625C1196.02 121.016 1193.63 117.799 1192.43 116.173C1189.39 112.846 1184.66 111.293 1180.24 112.097C1173.37 115.46 1167.89 124.197 1171.17 131.818V131.8Z" fill="#363436" fill-opacity="0.1"/>
<path d="M1240.13 313.06L1239.28 311.981L1237.89 312.182L1237.37 313.48L1238.22 314.558L1239.6 314.357L1240.13 313.06Z" fill="#363436" fill-opacity="0.1"/>
<path d="M1247.24 438.097L1247.46 439.504C1259.19 441.296 1271.51 435.904 1279.36 427.24C1279.2 425.284 1278.51 423.585 1277.24 422.177C1265.06 420.331 1253.66 428.355 1247.22 438.097H1247.24Z" fill="#363436" fill-opacity="0.1"/>
<path d="M1200.74 451.696C1199.28 456.21 1198.31 461.968 1203.86 464.855C1208.98 466.976 1215.28 466.281 1218.19 460.542C1221.68 457.069 1219.8 451.22 1216.09 448.753C1211.34 444.622 1204.39 447.291 1200.72 451.696H1200.74Z" fill="#363436" fill-opacity="0.1"/>
<path d="M863.27 212.989L861.954 212.624C857.66 211.29 853.22 212.843 849.145 214.269C841.599 217.339 833.778 220.355 827.584 225.93C825.337 229.531 813.131 235.453 823.893 240.278C826.835 242.069 830.252 240.625 833.249 239.803C841.508 237.317 848.14 231.34 854.718 226.076C857.934 222.567 864.604 218.893 863.27 213.008V212.989Z" fill="#363436" fill-opacity="0.1"/>
<path d="M832.079 255.978C837.086 255.083 841.873 253.072 846.094 250.221L845.418 249.015C840.411 249.892 835.606 251.884 831.403 254.772L832.079 255.978Z" fill="#363436" fill-opacity="0.1"/>
<path d="M721.514 298.236C727.197 299.497 732.569 296.317 737.758 294.471C751.773 287.836 767.03 283.87 780.533 276.139L779.985 274.877C769.131 276.23 759.539 281.914 749.58 286.063C740.426 290.596 730.486 293.32 721.532 298.218L721.514 298.236Z" fill="#363436" fill-opacity="0.1"/>
<path d="M995.56 611.57L996.803 612.338C1007.46 608.975 1018.88 605.045 1025.78 595.614L1024.89 594.517C1013.36 595.065 1003.97 603.217 995.414 610.071L995.56 611.57Z" fill="#363436" fill-opacity="0.1"/>
<path d="M883.945 465.026L883.34 465.5L883.813 466.105L884.418 465.632L883.945 465.026Z" fill="#363436" fill-opacity="0.1"/>
<path d="M719.924 298.785C707.262 300.868 695.184 306.132 684.239 312.749C684.604 313.334 685.335 314.485 685.719 315.07C698.107 312.548 710.459 307.211 719.924 298.785Z" fill="#363436" fill-opacity="0.1"/>
<path d="M803.575 715.424C793.634 722.716 782.799 728.602 772.293 735.036C759.941 742.657 746.182 747.428 732.825 752.911C724.419 756.219 718.645 763.64 710.532 767.515C702.529 772.03 695.294 777.568 688.478 783.745C687.071 785.427 683.946 787.035 684.769 789.722C703.516 785.683 718.865 773.126 736.241 765.651C751.956 758.65 764.034 745.819 779.108 737.795C793.251 730.302 807.631 723.246 822.413 717.142C831.074 713.523 838.657 707.802 846.807 703.287C857.167 696.835 868.788 692.778 879.039 686.161C888.431 680.111 896.964 672.818 906.356 666.86C919.183 658.726 932.448 650.83 943.01 639.772C928.958 643.026 917.063 651.653 904.053 657.484C891.646 664.155 877.741 667.518 865.718 674.975C855.87 681.007 846.624 688.153 836.19 693.308C824.094 698.773 814.428 707.948 803.611 715.46L803.575 715.424Z" fill="#363436" fill-opacity="0.1"/>
<path d="M886.293 632.571C889.253 626.448 882.803 621.001 879.075 617.474C873.74 612.082 864.494 609.066 857.77 613.617C849.986 622.573 848.542 638.091 856.509 647.431C868.021 651.634 883.826 645.146 886.293 632.553V632.571Z" fill="#363436" fill-opacity="0.1"/>
<path d="M634.666 666.366C637.151 666.366 637.736 665.361 636.42 663.369C633.935 663.278 633.351 664.283 634.666 666.366Z" fill="#363436" fill-opacity="0.1"/>
<path d="M624.471 744.394C624.142 741.926 624.617 738.344 622.168 736.991C616.376 731.819 607.313 738.819 608.391 745.856C609.615 749.585 613.471 751.504 617.253 750.809C619.062 749.201 622.662 745.984 624.471 744.394Z" fill="#363436" fill-opacity="0.1"/>
<path d="M608.135 841.338C612.758 843.934 618.002 846.895 623.539 846.292C628.362 845.816 632.419 842.106 634.575 838.012C638.558 829.75 642.67 821.58 645.867 813.026C644.259 811.29 641.062 807.799 639.454 806.063C635.178 802.791 629.148 803.028 624.58 805.496C622.205 807.342 621.273 810.413 619.793 812.953C616.595 819.826 611.095 825.144 607.148 831.633C604.938 834.539 606.052 838.67 608.117 841.32L608.135 841.338Z" fill="#363436" fill-opacity="0.1"/>
<path d="M304.25 427.368C300.779 430.219 300.267 435.483 296.759 438.316C291.46 438.261 285.868 438.81 282.854 444.366C279.09 450.306 285.814 457.873 292.227 457.526C296.412 456.557 298.933 452.628 302.624 450.708C308.215 450.964 314.3 454.364 319.562 451.056C328.406 446.961 331.403 432.851 321.408 427.88C316.657 423.822 309.348 424.005 304.25 427.368Z" fill="#363436" fill-opacity="0.1"/>
<path d="M593.499 862.961C594.723 864.971 596.203 866.854 597.83 868.645C599.84 867.311 601.703 865.812 603.384 864.149C602.946 863.18 602.105 861.261 601.667 860.292C598.433 859.287 594.705 859.013 593.499 862.961Z" fill="#363436" fill-opacity="0.1"/>
<path d="M515.294 860.475C508.497 853.785 495.853 859.652 495.158 868.736C494.994 873.342 495.779 878.423 498.867 882.061C505.336 887.763 517.085 886.228 520.94 878.186C524.832 872.063 520.483 864.203 515.294 860.493V860.475Z" fill="#363436" fill-opacity="0.1"/>
<path d="M423.074 789.704C425.578 789.704 426.144 788.699 424.828 786.706C422.362 786.615 421.759 787.62 423.074 789.704Z" fill="#363436" fill-opacity="0.1"/>
<path d="M412.422 794.602C413.957 796.832 418.853 792.994 417.008 791.002C414.925 790.563 412.55 792.427 412.422 794.602Z" fill="#363436" fill-opacity="0.1"/>
<path d="M500.969 899.004C496.236 897.213 488.708 897.176 487.301 903.665C484.926 909.587 492.527 916.496 497.972 913.169C504.313 911.616 506.816 902.312 500.969 899.004Z" fill="#363436" fill-opacity="0.1"/>
<path d="M405.296 799.245C407.196 800.268 409.973 797.234 407.945 795.79C406.063 794.676 403.304 797.728 405.296 799.245Z" fill="#363436" fill-opacity="0.1"/>
<path d="M559.659 1013.24C560.28 1014.04 561.523 1015.63 562.162 1016.42C564.008 1014.9 568.265 1013.18 564.775 1010.94C563.405 1008.38 561.194 1012.53 559.659 1013.24Z" fill="#363436" fill-opacity="0.1"/>
<path d="M446.792 924.41C450.464 919.932 446.846 913.261 443.046 910.318C438.222 905.365 430.182 909.221 427.113 914.321C423.202 919.329 427.588 926.165 431.918 929.199C436.87 933.147 443.868 928.632 446.792 924.392V924.41Z" fill="#363436" fill-opacity="0.1"/>
<path d="M406.684 923.77C401.86 920.298 394.04 920.444 390.294 925.397C387.608 931.136 391.226 937.223 392.213 942.871C389.198 947.824 384.337 953.801 386.969 960.07C390.13 963.396 394.953 965.06 399.521 964.347C402.938 961.934 408.237 957.84 406.702 952.905C405.953 950.693 404.437 946.307 403.688 944.113C405.716 940.568 408.603 937.698 410.631 934.335C411.307 930.478 409.973 926.019 406.684 923.77Z" fill="#363436" fill-opacity="0.1"/>
<path d="M437.665 963.325L437.048 963.812L437.523 964.415L438.14 963.928L437.665 963.325Z" fill="#363436" fill-opacity="0.1"/>
<path d="M512.279 1100.81C518.309 1100.88 521.342 1094.12 521.726 1089C522.585 1084.81 517.377 1081.21 515.367 1078.93C509.301 1072.48 496.766 1079.24 497.534 1087.7C497.333 1095.31 506.158 1099.02 512.279 1100.81Z" fill="#363436" fill-opacity="0.1"/>
<path d="M405.241 1160.61C408.548 1155.99 405.35 1149.74 401.678 1146.52C396.525 1144.91 389.472 1143.21 386.274 1149.55C381.724 1154 384.885 1161.14 388.942 1164.74C394.405 1166.77 402.262 1166.46 405.241 1160.61Z" fill="#363436" fill-opacity="0.1"/>
<path d="M277.609 1019.53C283.676 1017.83 284.644 1008.09 278.03 1005.71C276.184 1003.53 272.822 1005.6 270.538 1006.15C269.515 1008.19 266.719 1010.97 268.327 1013.33C268.857 1018.25 273.626 1020 277.609 1019.55V1019.53Z" fill="#363436" fill-opacity="0.1"/>
<path d="M309.246 1053.45L308.642 1053.93L309.116 1054.53L309.72 1054.06L309.246 1053.45Z" fill="#363436" fill-opacity="0.1"/>
<path d="M331.147 1133.93C335.203 1131.55 338.858 1128.26 340.923 1124.11C341.781 1120.79 341.032 1116.58 337.999 1114.64C334.546 1112.32 329.703 1110.04 325.848 1112.83C320.22 1114.42 318.996 1120.44 319.233 1125.28C322.157 1128.59 325.757 1134.75 331.165 1133.93H331.147Z" fill="#363436" fill-opacity="0.1"/>
<path d="M376.097 1228.93C377.065 1235.31 385.086 1238.04 390.696 1236.37C396.762 1235.09 398.023 1227.73 400.106 1223.01C399.448 1222.24 398.169 1220.71 397.53 1219.96C391.007 1222.65 379.44 1221.37 376.097 1228.95V1228.93Z" fill="#363436" fill-opacity="0.1"/>
<path d="M303.501 1141.69C301.181 1139.72 298.312 1143.14 296.375 1144.45C296.613 1146.68 297.161 1149.01 298.348 1151.05C301.966 1151.77 306.242 1151.25 307.612 1147.27C306.735 1145.06 305.456 1142.99 303.519 1141.69H303.501Z" fill="#363436" fill-opacity="0.1"/>
<path d="M288.646 1135.99C286.654 1135.21 284.388 1133.05 282.177 1134.37C280.295 1136.03 276.531 1139.39 274.649 1141.07C276.495 1144.44 278.888 1147.51 281.812 1150.32C285.412 1148.79 288.463 1146.54 290.985 1143.6C290.546 1141.07 291.186 1137.33 288.628 1136.01L288.646 1135.99Z" fill="#363436" fill-opacity="0.1"/>
<path d="M247.57 1117.99C252.668 1117.55 256.925 1113.64 259.465 1109.49C262.188 1105.05 258.296 1099.31 255.116 1096.51C250.804 1092.84 243.641 1093.09 239.585 1096.99C236.753 1100.33 235.748 1104.97 236.132 1109.31C238.945 1112.76 242.326 1118.19 247.588 1117.99H247.57Z" fill="#363436" fill-opacity="0.1"/>
<path d="M320.001 1200.8C322.541 1197.06 323.071 1190.48 318.557 1187.99C315.049 1186.64 310.244 1185.89 307.576 1189.27C304.36 1192.32 304.287 1198.17 308.142 1200.77C311.541 1203.05 317.023 1204.5 320.001 1200.82V1200.8Z" fill="#363436" fill-opacity="0.1"/>
<path d="M453.479 1424.05C471.075 1422.95 476.996 1397.2 463.639 1387.13C459.893 1383.58 454.649 1381.08 449.368 1381.9C443.722 1382.83 436.998 1383.98 433.49 1389.14C430.036 1394.24 426.528 1400.52 428.026 1406.96C430.164 1418.18 442.187 1426.61 453.461 1424.05H453.479Z" fill="#363436" fill-opacity="0.1"/>
<path d="M226.52 1103.9C225.022 1101.83 222.208 1103.71 220.271 1104.02C214.388 1105.43 215.776 1115.01 221.039 1116.73C222.884 1118.79 226.246 1116.78 228.494 1116.29C231.728 1112.38 232.715 1106.71 226.539 1103.88L226.52 1103.9Z" fill="#363436" fill-opacity="0.1"/>
<path d="M286.563 1187.88C287.44 1181.08 281.958 1175.87 277.536 1171.76C273.809 1168.62 269.022 1167.27 264.399 1166.15C259.246 1165.07 253.618 1163.45 248.611 1165.97C242.033 1168.18 238.69 1174.58 236.333 1180.63C237.612 1190.11 240.298 1200.84 249.288 1206.09C257.638 1211.48 268.163 1209.03 277.006 1206.53C284.06 1202.91 287.001 1195.3 286.563 1187.88Z" fill="#363436" fill-opacity="0.1"/>
<path d="M318.594 1353.62C323.436 1353.37 327.785 1350.9 332.481 1349.99C338.511 1352.69 341.708 1359.05 347.172 1362.64C354.152 1364.99 362.612 1363.15 367.509 1357.41C372.205 1353.06 374.05 1346.29 375.201 1340.35C375.311 1333.46 375.366 1325.53 370.469 1320.19C366.467 1316.63 361.662 1313.36 356.235 1312.77C353.494 1312.83 347.994 1312.92 345.235 1312.97C341.124 1312.81 337.232 1311.06 333.084 1310.98C327.036 1313.36 327.493 1319.92 325.702 1324.93C319.416 1326.7 311.87 1325.77 308.014 1332.59C307.521 1334.6 306.553 1338.67 306.077 1340.67C306.845 1346.92 312.491 1352.38 318.612 1353.61L318.594 1353.62Z" fill="#363436" fill-opacity="0.1"/>
<path d="M218.371 1142.19C216.379 1141.24 214.132 1141.35 212.031 1141.73C211.08 1144 210.258 1146.74 211.428 1149.17C212.962 1151.33 215.868 1151.64 218.261 1152.22C220.143 1149.24 222.61 1144.36 218.371 1142.19Z" fill="#363436" fill-opacity="0.1"/>
<path d="M270.922 1264.23C270.447 1263.31 269.497 1261.54 269.022 1260.63C266.829 1261.08 264.709 1262 262.973 1263.52C264.106 1264.9 265.331 1266.24 266.646 1267.54C268.199 1266.53 269.624 1265.43 270.94 1264.23H270.922Z" fill="#363436" fill-opacity="0.1"/>
<path d="M245.852 1260.59C238.397 1257.79 231.509 1268.51 235.163 1274.9C239.695 1279.93 243.477 1288.15 251.078 1289.14C255.573 1290.46 258.314 1283.93 261.329 1282.73C264.819 1278.63 263.12 1271.69 259.264 1268.45C255.226 1265.2 250.786 1262.25 245.852 1260.59Z" fill="#363436" fill-opacity="0.1"/>
<path d="M202.657 1262.25C207.188 1257.14 205.562 1248.62 200.081 1244.76C194.581 1239.88 185.408 1242.15 181.79 1248.42C178.465 1252.86 180.438 1258.96 183.27 1263.15C187.984 1269.24 198.272 1268.71 202.657 1262.25Z" fill="#363436" fill-opacity="0.1"/>
<path d="M203.077 1339.33C206.348 1337.48 207.682 1333.63 210.167 1331.01C212.999 1330.83 215.849 1331.14 218.682 1330.98C226.027 1329.88 226.52 1319.46 220.308 1316.65C218.663 1315.92 216.946 1315.64 215.155 1315.83C212.049 1318.04 210.349 1323.01 206.677 1324.85C202.803 1325.35 197.943 1323.28 195.037 1326.9C190.433 1332.02 196.554 1340.87 203.077 1339.33Z" fill="#363436" fill-opacity="0.1"/>
<path d="M193.119 1301.84C196.572 1298.39 196.042 1291.97 192.242 1289.1C188.77 1286.75 184.202 1286.18 180.237 1287.5C177.569 1289.51 175.413 1292.56 175.029 1296.01C175.742 1299.49 177.441 1302.56 180.146 1305.21C184.567 1306.85 190.689 1307.36 193.119 1301.84Z" fill="#363436" fill-opacity="0.1"/>
<path d="M108.537 1193.64C105.96 1194.55 104.663 1197.24 104.864 1199.93C104.572 1205.19 113.087 1206.89 115.407 1202.5C116.102 1200.18 117.527 1196.93 114.567 1195.65C112.849 1194.33 110.711 1193.53 108.537 1193.64Z" fill="#363436" fill-opacity="0.1"/>
<path d="M154.638 1280.64C160.649 1274.17 156.52 1262.95 150.618 1258.03C146.433 1254.85 140.55 1254.28 135.671 1256.09C129.495 1259.06 124.05 1266.28 125.932 1273.46C127.101 1279.4 130.902 1285.12 136.895 1287.02C143.4 1289.41 150.837 1286.27 154.638 1280.64Z" fill="#363436" fill-opacity="0.1"/>
<path d="M121.912 1312.19C122.479 1317.4 130.92 1320.4 132.784 1314.53C131.816 1312.35 130.427 1310.43 128.6 1308.99C126.37 1306.8 123.483 1310.58 121.912 1312.19Z" fill="#363436" fill-opacity="0.1"/>
<path d="M176.893 1448.28C175.285 1453.24 178.538 1456.75 182.32 1460C187.783 1459.01 193.831 1450.75 187.729 1446.9C184.476 1444.15 179.579 1445.27 176.893 1448.28Z" fill="#363436" fill-opacity="0.1"/>
</g>
<defs>
<clipPath id="clip0_49_4176">
<rect width="1441" height="1460" fill="white"/>
</clipPath>
</defs>
</svg>
