<svg width="38" height="36" viewBox="0 0 38 36" fill="none" xmlns="http://www.w3.org/2000/svg">
<path d="M18.9533 20.9501C19.8417 20.9501 20.5618 20.2387 20.5618 19.3611C20.5618 18.4835 19.8417 17.772 18.9533 17.772C18.0649 17.772 17.3448 18.4835 17.3448 19.3611C17.3448 20.2387 18.0649 20.9501 18.9533 20.9501Z" stroke="white" stroke-width="1.5" stroke-linecap="round" stroke-linejoin="round"/>
<path d="M20.2505 1.0205L19.1297 3.12214L18.0504 1C16.1928 1.8099 14.7918 4.68042 14.7607 8.10454C14.7192 12.1848 16.6079 15.5166 18.9948 15.5371C21.3816 15.5576 23.343 12.277 23.3845 8.19681C23.426 4.77269 22.0873 1.87141 20.2505 1.0205Z" stroke="white" stroke-width="1.5" stroke-linecap="round" stroke-linejoin="round"/>
<path d="M1.70568 12.4718L3.37648 14.1736L1 14.5325C1.20755 16.5316 3.54252 18.7255 6.83223 19.8224C10.7446 21.1244 14.5324 20.376 15.3004 18.1411C16.0579 15.9062 13.505 13.0459 9.59268 11.744C6.30297 10.647 3.10666 11.0058 1.71606 12.4718H1.70568Z" stroke="white" stroke-width="1.5" stroke-linecap="round" stroke-linejoin="round"/>
<path d="M6.9879 33.4369L9.14645 32.3912L8.7521 34.7389C10.7446 35.1592 13.5777 33.6522 15.6428 30.8944C18.1023 27.6241 18.5486 23.8309 16.6391 22.4264C14.7296 21.0219 11.1805 22.5392 8.72097 25.8095C6.64544 28.557 6.00203 31.6838 6.9879 33.4369Z" stroke="white" stroke-width="1.5" stroke-linecap="round" stroke-linejoin="round"/>
<path d="M36.3462 12.8409L34.6339 14.512L37 14.922C36.7509 16.9109 34.3745 19.0638 31.0536 20.089C27.1101 21.3089 23.343 20.4785 22.627 18.2334C21.9109 15.9882 24.5365 13.1792 28.48 11.9592C31.7904 10.9341 34.9867 11.3646 36.3462 12.8512V12.8409Z" stroke="white" stroke-width="1.5" stroke-linecap="round" stroke-linejoin="round"/>
<path d="M30.597 33.6932L28.4592 32.5962L28.8017 34.9439C26.8091 35.3232 24.0072 33.7547 21.9939 30.9559C19.6071 27.6343 19.2439 23.8309 21.1845 22.4674C23.1251 21.1039 26.6431 22.6929 29.03 26.0248C31.0432 28.8236 31.614 31.9504 30.597 33.6932Z" stroke="white" stroke-width="1.5" stroke-linecap="round" stroke-linejoin="round"/>
</svg>
