<svg width="55" height="51" viewBox="0 0 55 51" fill="none" xmlns="http://www.w3.org/2000/svg">
<g clip-path="url(#clip0_6_10)">
<path d="M39.6399 50.4836C39.6188 50.4836 39.5967 50.4836 39.5746 50.4814C39.1177 50.4459 38.7759 50.045 38.8113 49.5863L39.6554 38.6659C39.6554 38.657 39.6565 38.647 39.6576 38.6381C39.8523 36.8835 40.5359 35.531 41.6875 34.6193C42.2229 34.1951 42.3612 33.6432 42.5603 32.7015C42.5891 32.5638 42.619 32.4239 42.6511 32.2817L44.2053 20.3218C44.2651 19.8654 44.6821 19.5445 45.1357 19.6033C45.5903 19.6633 45.91 20.0808 45.8514 20.5372L44.2927 32.536C44.2894 32.5627 44.285 32.5882 44.2783 32.6149C44.2451 32.7614 44.2142 32.9058 44.1843 33.0479C43.9697 34.0618 43.7473 35.1101 42.7152 35.9263C41.9165 36.5582 41.4563 37.5021 41.3092 38.808L40.4662 49.7141C40.433 50.1505 40.0691 50.4825 39.6399 50.4825V50.4836Z" fill="white"/>
<path d="M15.3601 50.4836C14.9309 50.4836 14.568 50.1516 14.5338 49.7152L13.6908 38.8091C13.5426 37.5021 13.0824 36.5593 12.2837 35.9274C11.2515 35.1101 11.0292 34.0618 10.8146 33.049C10.7847 32.9069 10.7537 32.7625 10.7205 32.616C10.715 32.5904 10.7095 32.5638 10.7062 32.5371L9.14748 20.5383C9.08774 20.0819 9.40855 19.6644 9.86321 19.6044C10.3179 19.5456 10.7338 19.8665 10.7936 20.3229L12.3478 32.2828C12.3799 32.4249 12.4098 32.5649 12.4385 32.7026C12.6377 33.6431 12.777 34.1962 13.3114 34.6204C14.463 35.5321 15.1455 36.8846 15.3413 38.6392C15.3413 38.6481 15.3435 38.6581 15.3435 38.667L16.1876 49.5875C16.223 50.0461 15.8812 50.447 15.4243 50.4825C15.4022 50.4847 15.3811 50.4847 15.359 50.4847L15.3601 50.4836Z" fill="white"/>
<path d="M26.4126 11.5634C26.3307 11.5634 26.2466 11.5512 26.1648 11.5257L20.9267 9.87993C20.4898 9.74223 20.2464 9.27472 20.3825 8.83608C20.5196 8.39744 20.9854 8.15313 21.4223 8.28972L26.6604 9.93545C27.0973 10.0732 27.3407 10.5407 27.2046 10.9793C27.094 11.3358 26.7666 11.5634 26.4137 11.5634H26.4126Z" fill="white"/>
<path d="M29.5974 11.5634C29.2445 11.5634 28.9171 11.3358 28.8053 10.9793C28.6682 10.5407 28.9115 10.0732 29.3496 9.93548L34.5877 8.28974C35.0257 8.15204 35.4903 8.39635 35.6275 8.8361C35.7647 9.27474 35.5213 9.74225 35.0832 9.87995L29.8452 11.5257C29.7622 11.5512 29.6793 11.5634 29.5974 11.5634Z" fill="white"/>
<path d="M23.7443 17.7011C23.3483 17.7011 22.9976 17.4157 22.9279 17.0104C22.6027 15.1203 20.9842 14.5618 18.3713 13.8066C17.8967 13.6689 17.4056 13.5268 16.9221 13.3691C15.0736 12.7639 14.047 11.3158 14.1775 9.49686C14.3191 7.5202 15.8048 5.73121 17.5593 5.42583C18.0107 5.34698 18.4399 5.65126 18.5184 6.10433C18.597 6.55741 18.2939 6.98828 17.8425 7.06712C16.8392 7.24147 15.9177 8.40969 15.8314 9.61568C15.7794 10.3486 16.015 11.3203 17.4354 11.7856C17.8912 11.9344 18.368 12.0732 18.8293 12.2064C21.273 12.9127 24.043 13.7134 24.5618 16.7272C24.6404 17.1803 24.3372 17.6111 23.8859 17.69C23.8383 17.6978 23.7908 17.7022 23.7432 17.7022L23.7443 17.7011Z" fill="white"/>
<path d="M24.0087 22.2297C23.5772 22.2297 23.2133 21.8943 23.1823 21.4556C23.1226 20.5995 22.8482 19.9843 22.3449 19.5745C21.4168 18.8183 19.9842 18.9926 19.9698 18.9937C19.5162 19.0559 19.097 18.7383 19.035 18.2819C18.972 17.8266 19.2895 17.4057 19.7441 17.3435C19.8315 17.3313 21.8958 17.0626 23.3914 18.2808C24.2587 18.987 24.7454 20.0165 24.8383 21.3379C24.8704 21.7966 24.5264 22.1952 24.0695 22.2274C24.0496 22.2285 24.0297 22.2297 24.0098 22.2297H24.0087Z" fill="white"/>
<path d="M22.1037 28.8759C21.9101 28.8759 21.7143 28.8081 21.5572 28.6693C21.2121 28.3662 21.1778 27.8398 21.4798 27.4944C22.346 26.5028 22.6602 25.389 22.3438 24.4406C22.0794 23.6477 21.4179 23.0869 20.5307 22.9026C20.0815 22.8093 19.7939 22.3684 19.8868 21.9176C19.9797 21.4667 20.4189 21.178 20.8681 21.2713C22.3272 21.5745 23.4666 22.5617 23.918 23.9109C24.4268 25.4356 23.9943 27.1413 22.7288 28.5916C22.565 28.7793 22.3349 28.8759 22.1048 28.8759H22.1037Z" fill="white"/>
<path d="M17.4531 32.5404C17.077 32.5404 16.7363 32.2828 16.6467 31.8986C16.5416 31.4511 16.817 31.0024 17.2629 30.8969C18.4222 30.6215 19.0782 29.9797 19.2109 28.9902C19.3802 27.7254 18.6645 26.4672 18.233 26.2296C17.8315 26.0086 17.6832 25.5033 17.9034 25.0991C18.1235 24.6949 18.6269 24.5472 19.0295 24.7682C20.253 25.4389 21.0893 27.4744 20.8559 29.2123C20.7243 30.1929 20.1324 31.9263 17.6456 32.5171C17.5815 32.5327 17.5173 32.5393 17.4542 32.5393L17.4531 32.5404Z" fill="white"/>
<path d="M11.8633 33.7798C11.4219 33.7798 11.0546 33.43 11.0347 32.9824C11.0148 32.5227 11.3699 32.134 11.8279 32.1152C12.9928 32.0652 13.8313 31.7154 14.3203 31.0769C15.1743 29.9619 14.8081 28.2429 14.8048 28.2262C14.7063 27.7787 14.9862 27.3334 15.432 27.2324C15.8778 27.1313 16.3203 27.41 16.4221 27.8576C16.4453 27.9575 16.9686 30.3373 15.6444 32.0807C14.8435 33.1357 13.5835 33.7076 11.8987 33.7798C11.8865 33.7798 11.8744 33.7798 11.8622 33.7798H11.8633Z" fill="white"/>
<path d="M14.9906 26.4284C14.6665 26.4284 14.3424 26.3606 14.036 26.2252C13.4563 25.9686 13.0105 25.5011 12.7804 24.9092C12.5503 24.3162 12.5647 23.6688 12.8191 23.0869C13.0746 22.505 13.5404 22.0564 14.13 21.8265C14.7207 21.5956 15.3657 21.61 15.9453 21.8665C16.525 22.123 16.9708 22.5906 17.2009 23.1824C17.431 23.7754 17.4166 24.4228 17.1622 25.0047C16.9067 25.5866 16.4409 26.0353 15.8502 26.2651C15.5714 26.374 15.2805 26.4284 14.9895 26.4284H14.9906ZM14.9906 23.3301C14.9044 23.3301 14.8181 23.3457 14.7329 23.379C14.5559 23.4478 14.4154 23.5833 14.3391 23.7577C14.2627 23.9331 14.2583 24.1275 14.3269 24.3051C14.4696 24.6727 14.8833 24.8559 15.2495 24.7127C15.4276 24.6438 15.567 24.5084 15.6433 24.334C15.7197 24.1586 15.7241 23.9642 15.6555 23.7865C15.546 23.5034 15.2761 23.3301 14.9906 23.3301Z" fill="#EB008B"/>
<path d="M13.8711 23.5422C13.547 23.5422 13.2228 23.4745 12.9164 23.339C12.3368 23.0825 11.8898 22.615 11.6608 22.0231C11.1863 20.7993 11.7925 19.4168 13.0116 18.9404C13.6023 18.7094 14.2472 18.7238 14.8269 18.9792C15.4066 19.2358 15.8535 19.7033 16.0825 20.2952C16.3126 20.8882 16.2982 21.5356 16.0438 22.1175C15.7882 22.6993 15.3225 23.1469 14.7329 23.3779C14.4541 23.4867 14.162 23.5411 13.8722 23.5411L13.8711 23.5422ZM13.8722 20.4428C13.7848 20.4428 13.6974 20.4595 13.6134 20.4917C13.2472 20.635 13.0647 21.0503 13.2074 21.4179C13.2759 21.5966 13.4109 21.7366 13.5846 21.8132C13.7594 21.8898 13.953 21.8942 14.13 21.8254C14.307 21.7565 14.4475 21.6211 14.5238 21.4467C14.6001 21.2713 14.6045 21.0769 14.536 20.8993C14.4674 20.7216 14.3324 20.5805 14.1587 20.5039C14.0669 20.4628 13.9696 20.4428 13.8722 20.4428Z" fill="#EB008B"/>
<path d="M4.34751 18.4318C3.39725 18.4318 2.49898 17.8543 2.13392 16.9138C1.65935 15.69 2.26557 14.3074 3.48464 13.8311C4.07537 13.6001 4.72031 13.6145 5.29998 13.8699C5.87965 14.1264 6.32657 14.594 6.55556 15.1858C7.03014 16.4096 6.42392 17.7921 5.20484 18.2685C4.92275 18.3785 4.63292 18.4307 4.34751 18.4307V18.4318ZM4.34419 15.3335C4.2568 15.3335 4.1694 15.3502 4.08533 15.3824C3.71916 15.5256 3.53663 15.941 3.67934 16.3085C3.74793 16.4862 3.88289 16.6272 4.05657 16.7039C4.23135 16.7805 4.42494 16.7849 4.60194 16.7161C4.96811 16.5728 5.15064 16.1575 5.00793 15.7899C4.93935 15.6123 4.80438 15.4712 4.6307 15.3946C4.53889 15.3535 4.44154 15.3335 4.34419 15.3335Z" fill="#EB008B"/>
<path d="M7.56996 33.6687C7.24583 33.6687 6.9217 33.601 6.61527 33.4655C6.0356 33.209 5.58868 32.7415 5.35969 32.1496C4.88512 30.9258 5.49133 29.5433 6.71041 29.0669C7.30114 28.8359 7.94608 28.8503 8.52575 29.1058C9.10542 29.3623 9.55234 29.8298 9.78133 30.4217C10.0114 31.0147 9.99705 31.6621 9.74261 32.244C9.48707 32.8259 9.02134 33.2745 8.43061 33.5044C8.15184 33.6132 7.8609 33.6676 7.56996 33.6676V33.6687ZM7.57106 30.5705C7.48367 30.5705 7.39628 30.5871 7.3122 30.6193C7.13521 30.6882 6.99471 30.8237 6.91838 30.998C6.84205 31.1735 6.83763 31.3678 6.90621 31.5455C7.04892 31.9131 7.46265 32.0963 7.82882 31.953C8.00582 31.8842 8.14631 31.7487 8.22264 31.5744C8.29897 31.3989 8.30339 31.2046 8.23481 31.0269C8.16622 30.8492 8.03126 30.7082 7.85758 30.6316C7.76576 30.5905 7.66841 30.5705 7.57106 30.5705Z" fill="#EB008B"/>
<path d="M4.95372 31.8986C4.62959 31.8986 4.30546 31.8309 3.99903 31.6954C3.41936 31.4388 2.97244 30.9713 2.74345 30.3794C2.51335 29.7865 2.52774 29.139 2.78217 28.5571C3.03771 27.9753 3.50344 27.5277 4.09306 27.2968C4.6838 27.0658 5.32873 27.0802 5.9084 27.3356C6.48807 27.5921 6.93499 28.0597 7.16398 28.6515C7.39408 29.2445 7.3797 29.8919 7.12416 30.4738C6.86862 31.0557 6.40289 31.5033 5.81327 31.7342C5.53449 31.8431 5.24245 31.8975 4.95261 31.8975L4.95372 31.8986ZM4.95482 28.7992C4.86743 28.7992 4.78004 28.8159 4.69597 28.8481C4.3298 28.9913 4.14727 29.4067 4.28997 29.7742C4.35856 29.9519 4.49352 30.0929 4.6672 30.1696C4.84199 30.2462 5.03558 30.2506 5.21258 30.1818C5.57874 30.0385 5.76127 29.6232 5.61857 29.2556C5.54998 29.078 5.41502 28.9369 5.24134 28.8603C5.14952 28.8192 5.05217 28.7992 4.95482 28.7992Z" fill="#EB008B"/>
<path d="M7.68059 30.4605C7.35646 30.4605 7.03233 30.3928 6.7259 30.2573C6.14623 30.0008 5.69931 29.5333 5.47032 28.9414C5.24022 28.3484 5.2546 27.701 5.50904 27.1191C5.76458 26.5372 6.23031 26.0897 6.81993 25.8587C7.41066 25.6277 8.0556 25.6422 8.63527 25.8976C9.21494 26.1541 9.66186 26.6216 9.89085 27.2146C10.121 27.8076 10.1066 28.455 9.85213 29.0369C9.59659 29.6188 9.13087 30.0663 8.54124 30.2973C8.26247 30.4061 7.97042 30.4605 7.68059 30.4605ZM7.68169 27.3612C7.5943 27.3612 7.50691 27.3778 7.42283 27.41C7.24583 27.4789 7.10534 27.6144 7.02901 27.7887C6.95268 27.9642 6.94826 28.1585 7.01684 28.3362C7.08543 28.5139 7.22039 28.6549 7.39407 28.7315C7.56886 28.8081 7.76245 28.8126 7.93945 28.7437C8.11644 28.6749 8.25694 28.5394 8.33327 28.3651C8.4096 28.1896 8.41402 27.9953 8.34544 27.8176C8.27685 27.6399 8.14189 27.4989 7.96821 27.4223C7.87639 27.3812 7.77904 27.3612 7.68169 27.3612Z" fill="#EB008B"/>
<path d="M5.45594 15.4346C5.13182 15.4346 4.80769 15.3669 4.50126 15.2314C3.92159 14.9749 3.47467 14.5074 3.24568 13.9155C2.7711 12.6917 3.37732 11.3092 4.5964 10.8328C5.81547 10.3564 7.19274 10.9649 7.66732 12.1887C8.14189 13.4124 7.53567 14.795 6.3166 15.2714C6.03783 15.3802 5.74578 15.4346 5.45594 15.4346ZM5.45594 12.3364C5.36855 12.3364 5.28116 12.353 5.19708 12.3852C4.83092 12.5285 4.64839 12.9438 4.79109 13.3114C4.85968 13.4891 4.99464 13.6301 5.16832 13.7067C5.34311 13.7833 5.5367 13.7878 5.7137 13.7189C6.07986 13.5757 6.26239 13.1604 6.11969 12.7928C6.0511 12.6151 5.91614 12.4741 5.74246 12.3975C5.65064 12.3564 5.55329 12.3364 5.45594 12.3364Z" fill="#EB008B"/>
<path d="M17.0239 23.972C16.6997 23.972 16.3756 23.9043 16.0692 23.7688C15.4895 23.5123 15.0426 23.0448 14.8136 22.4529C14.339 21.2291 14.9453 19.8466 16.1643 19.3702C16.7551 19.1392 17.4 19.1536 17.9797 19.409C18.5593 19.6656 19.0063 20.1331 19.2352 20.725C19.4653 21.318 19.451 21.9654 19.1965 22.5473C18.941 23.1292 18.4753 23.5767 17.8856 23.8077C17.6069 23.9165 17.3148 23.9709 17.025 23.9709L17.0239 23.972ZM17.025 20.8738C16.9376 20.8738 16.8502 20.8904 16.7661 20.9226C16.4 21.0659 16.2174 21.4812 16.3601 21.8488C16.4287 22.0264 16.5637 22.1675 16.7374 22.2441C16.9121 22.3207 17.1057 22.3252 17.2827 22.2563C17.4597 22.1875 17.6002 22.052 17.6766 21.8776C17.7529 21.7022 17.7573 21.5079 17.6887 21.3302C17.6201 21.1525 17.4852 21.0115 17.3115 20.9348C17.2197 20.8938 17.1223 20.8738 17.025 20.8738Z" fill="#EB008B"/>
<path d="M16.1422 18.6294C16.0891 18.6294 16.0349 18.6239 15.9796 18.6139C15.5305 18.5239 15.2384 18.0864 15.3269 17.6344C15.3656 17.4368 15.4121 17.2424 15.4652 17.0559C15.5913 16.6139 16.0504 16.3574 16.4907 16.484C16.931 16.6106 17.1865 17.0714 17.0604 17.5134C17.0194 17.6555 16.984 17.8055 16.9542 17.9587C16.8756 18.3551 16.5294 18.6294 16.1411 18.6294H16.1422Z" fill="white"/>
<path d="M23.0208 16.0387C22.7741 16.0387 22.5296 15.9288 22.3659 15.7178C21.9367 15.1659 20.8946 14.5973 19.8127 14.6295C19.0052 14.6539 18.3713 14.9948 17.9266 15.6423C17.6666 16.0209 17.15 16.1164 16.7728 15.8566C16.3955 15.5956 16.3004 15.077 16.5593 14.6983C17.2982 13.6201 18.4366 13.0049 19.7629 12.9649C21.2652 12.9193 22.8361 13.6145 23.6746 14.6939C23.9567 15.057 23.8925 15.5801 23.5308 15.8632C23.3792 15.9821 23.1989 16.0398 23.0208 16.0398V16.0387Z" fill="white"/>
<path d="M13.3235 14.8527C13.1145 14.8527 12.9054 14.7738 12.7439 14.6161C12.4153 14.2952 12.4098 13.7677 12.7295 13.4379C15.0968 11.0004 18.8603 12.2075 19.0196 12.2608C19.4543 12.4052 19.6911 12.876 19.5484 13.3124C19.4045 13.7489 18.9355 13.9865 18.5007 13.8433C18.4731 13.8344 15.5581 12.9138 13.9176 14.6017C13.755 14.7694 13.5393 14.8527 13.3235 14.8527Z" fill="white"/>
<path d="M12.3279 18.6294C11.9418 18.6294 11.5967 18.3574 11.5159 17.9631C11.4971 17.8732 11.3433 17.0537 11.5867 16.0098C11.6907 15.5623 12.1376 15.2835 12.5834 15.3879C13.0292 15.4923 13.3069 15.941 13.2029 16.3885C13.0425 17.077 13.141 17.6244 13.1421 17.6289C13.2339 18.0797 12.9452 18.5195 12.496 18.6117C12.4396 18.6228 12.3843 18.6283 12.329 18.6283L12.3279 18.6294Z" fill="white"/>
<path d="M9.37317 18.6294C8.96828 18.6294 8.61429 18.3318 8.55344 17.9176C8.20166 15.5234 8.63309 13.5557 9.83668 12.0676C11.7394 9.71449 14.8612 9.50017 14.994 9.4924C15.452 9.46575 15.8447 9.81444 15.8723 10.2731C15.9 10.7317 15.5526 11.1259 15.0968 11.1548C15.0703 11.157 12.5514 11.3447 11.1177 13.1281C10.2261 14.2375 9.91633 15.7666 10.1962 17.6744C10.2637 18.1297 9.94952 18.5528 9.49707 18.6195C9.45613 18.6261 9.4152 18.6283 9.37538 18.6283L9.37317 18.6294Z" fill="white"/>
<path d="M8.95168 11.157C8.64747 11.157 8.35542 10.9893 8.2094 10.6973C8.00364 10.2864 8.16957 9.78559 8.57888 9.57904C8.71827 9.50908 12.0359 7.87667 15.4143 9.57904C15.8236 9.78559 15.9896 10.2864 15.7838 10.6973C15.5781 11.1082 15.0791 11.2747 14.6698 11.0682C12.027 9.73673 9.34993 11.0549 9.32338 11.0682C9.20391 11.1282 9.07669 11.157 8.95168 11.157Z" fill="white"/>
<path d="M1.72129 45.0112C1.6162 45.0112 1.51 44.9912 1.40602 44.9479C0.983432 44.7736 0.780991 44.2894 0.953564 43.8652C1.00998 43.7264 2.37508 40.456 6.10643 39.3977C8.90742 38.6026 9.14305 36.3083 9.14416 36.285C9.18509 35.8264 9.58887 35.4888 10.0446 35.5288C10.5015 35.5699 10.8378 35.9741 10.798 36.4327C10.7858 36.5737 10.4473 39.8974 6.55777 41.0001C3.62624 41.8319 2.53438 44.3882 2.48902 44.4959C2.35628 44.8157 2.04653 45.0101 1.72129 45.0101V45.0112Z" fill="white"/>
<path d="M5.84535 45.0134C5.42056 45.0134 5.05771 44.6869 5.0201 44.2538C4.98027 43.7952 5.31768 43.391 5.77345 43.351C6.81221 43.2588 7.82442 42.9845 8.69945 42.5559C9.11097 42.3538 9.60767 42.5259 9.80901 42.939C10.0103 43.3521 9.83888 43.8507 9.42736 44.0528C8.35652 44.577 7.17616 44.899 5.92058 45.0101C5.89624 45.0123 5.8708 45.0134 5.84646 45.0134H5.84535Z" fill="white"/>
<path d="M1.15931 48.7824C1.05864 48.7824 0.955764 48.7635 0.856202 48.7246C0.429194 48.5559 0.220115 48.0728 0.387157 47.6453C0.418132 47.5664 1.16263 45.6997 2.88173 44.4482C3.25232 44.1783 3.77114 44.2616 4.03996 44.6336C4.30877 45.0056 4.22581 45.5265 3.85522 45.7963C2.54654 46.7491 1.937 48.2394 1.93036 48.2538C1.80204 48.5814 1.48897 48.7824 1.15821 48.7824H1.15931Z" fill="white"/>
<path d="M2.54878 38.717C2.12841 38.717 1.76777 38.3971 1.72463 37.9685C1.67817 37.5121 2.00893 37.1045 2.4636 37.0557C2.64723 37.0357 6.81665 36.5115 8.26693 31.4766C8.39415 31.0346 8.85434 30.7803 9.29462 30.9081C9.73491 31.0358 9.98824 31.4977 9.86102 31.9397C8.08993 38.0895 2.85631 38.6914 2.63506 38.7136C2.6063 38.717 2.57865 38.7181 2.54988 38.7181L2.54878 38.717Z" fill="white"/>
<path d="M6.99806 25.0236C6.55999 25.0236 6.19382 24.6793 6.17059 24.2352C6.16506 24.1308 6.15842 24.0264 6.14957 23.9242C6.11196 23.4656 6.45158 23.0636 6.90845 23.0258C7.36533 22.9892 7.76579 23.329 7.8034 23.7876C7.81336 23.9065 7.8211 24.0264 7.82774 24.1463C7.85208 24.6061 7.50029 24.9981 7.04342 25.0225C7.02903 25.0225 7.01355 25.0236 6.99917 25.0236H6.99806Z" fill="white"/>
<path d="M6.59429 22.4762C6.21375 22.4762 5.87192 22.213 5.78563 21.8243C5.52899 20.6705 5.29225 20.0864 5.28893 20.0809C5.11525 19.6567 5.31548 19.1692 5.73806 18.9937C6.16065 18.8183 6.64407 19.017 6.82107 19.4401C6.83324 19.4679 7.11201 20.1453 7.40517 21.4612C7.50473 21.9098 7.22374 22.3551 6.77682 22.4562C6.71598 22.4695 6.65514 22.4762 6.5954 22.4762H6.59429Z" fill="white"/>
<path d="M31.176 17.7011C31.1296 17.7011 31.082 17.6966 31.0333 17.6888C30.582 17.61 30.2789 17.1791 30.3574 16.7261C30.8762 13.7122 33.6463 12.9116 36.09 12.2053C36.5513 12.072 37.028 11.9343 37.4838 11.7844C38.9042 11.3191 39.1399 10.3474 39.0879 9.61453C39.0016 8.40744 38.0812 7.24032 37.0767 7.06486C36.6254 6.98602 36.3234 6.55515 36.4008 6.10207C36.4793 5.649 36.9086 5.34473 37.3599 5.42357C39.1144 5.72895 40.6001 7.51794 40.7417 9.4946C40.8722 11.3147 39.8456 12.7616 37.9971 13.3668C37.5137 13.5245 37.0225 13.6667 36.5479 13.8044C33.935 14.5595 32.3166 15.1181 31.9913 17.0081C31.9216 17.4134 31.571 17.6988 31.1749 17.6988L31.176 17.7011Z" fill="white"/>
<path d="M30.9117 22.2296C30.8917 22.2296 30.8718 22.2296 30.8519 22.2274C30.395 22.1952 30.0499 21.7965 30.0831 21.3379C30.176 20.0153 30.6627 18.987 31.53 18.2807C33.0257 17.0625 35.0899 17.3313 35.1773 17.3435C35.6309 17.4068 35.9484 17.8265 35.8864 18.2818C35.8245 18.736 35.4074 19.0547 34.9538 18.9936C34.9218 18.9892 33.4925 18.8204 32.5688 19.5789C32.0699 19.9886 31.7977 20.6027 31.738 21.4545C31.707 21.8931 31.3431 22.2285 30.9117 22.2285V22.2296Z" fill="white"/>
<path d="M32.8166 28.8758C32.5854 28.8758 32.3564 28.7792 32.1927 28.5915C30.9271 27.1424 30.4946 25.4367 31.0035 23.9109C31.4537 22.5616 32.5942 21.5744 34.0534 21.2712C34.5025 21.178 34.9417 21.4678 35.0346 21.9175C35.1275 22.3684 34.8388 22.8093 34.3908 22.9025C33.5036 23.0869 32.8431 23.6477 32.5776 24.4406C32.2613 25.3889 32.5754 26.5016 33.4416 27.4933C33.7436 27.8397 33.7093 28.365 33.3642 28.6682C33.2071 28.807 33.0113 28.8747 32.8177 28.8747L32.8166 28.8758Z" fill="white"/>
<path d="M37.4672 32.5404C37.4042 32.5404 37.34 32.5327 37.2759 32.5182C34.789 31.9275 34.1972 30.194 34.0656 29.2134C33.8321 27.4755 34.6685 25.44 35.892 24.7693C36.2946 24.5483 36.798 24.6971 37.0181 25.1002C37.2383 25.5033 37.09 26.0097 36.6885 26.2307C36.257 26.4672 35.5413 27.7265 35.7105 28.9902C35.8433 29.9797 36.4993 30.6215 37.6586 30.8969C38.1044 31.0024 38.381 31.4511 38.2748 31.8986C38.1841 32.2817 37.8445 32.5404 37.4684 32.5404H37.4672Z" fill="white"/>
<path d="M43.057 33.7798C43.0449 33.7798 43.0327 33.7798 43.0205 33.7798C41.3357 33.7076 40.0757 33.1357 39.2748 32.0807C37.9517 30.3373 38.475 27.9586 38.4971 27.8575C38.5989 27.4089 39.0447 27.1291 39.4916 27.2312C39.9374 27.3334 40.2162 27.7787 40.1155 28.2262C40.1089 28.2573 39.7494 29.9652 40.6001 31.0768C41.089 31.7154 41.9276 32.0641 43.0924 32.1151C43.5504 32.1351 43.9055 32.5238 43.8856 32.9824C43.8668 33.4299 43.4995 33.7798 43.057 33.7798Z" fill="white"/>
<path d="M39.9297 26.4284C39.6388 26.4284 39.3478 26.374 39.069 26.2651C38.4783 26.0341 38.0126 25.5866 37.7581 25.0047C37.5026 24.4228 37.4893 23.7754 37.7194 23.1824C37.9495 22.5894 38.3953 22.1219 38.975 21.8665C39.5547 21.61 40.1996 21.5967 40.7904 21.8265C42.0094 22.3029 42.6156 23.6855 42.1411 24.9092C41.911 25.5022 41.4652 25.9697 40.8855 26.2251C40.5791 26.3606 40.256 26.4284 39.9308 26.4284H39.9297ZM39.9297 23.329C39.8323 23.329 39.735 23.349 39.6432 23.3901C39.4684 23.4667 39.3345 23.6077 39.266 23.7854C39.1974 23.9631 39.2007 24.1585 39.2781 24.3329C39.3545 24.5083 39.4949 24.6427 39.6719 24.7116C39.8489 24.7804 40.0436 24.7771 40.2173 24.6993C40.3921 24.6227 40.526 24.4817 40.5945 24.304C40.7372 23.9364 40.5547 23.52 40.1886 23.3779C40.1045 23.3446 40.0171 23.329 39.9297 23.329Z" fill="#EB008B"/>
<path d="M41.0459 23.5411C40.7605 23.5411 40.4695 23.4889 40.1885 23.379C39.5978 23.148 39.1321 22.7005 38.8777 22.1186C38.6221 21.5367 38.6088 20.8893 38.8389 20.2963C39.069 19.7033 39.5148 19.2358 40.0945 18.9804C40.6742 18.7238 41.3191 18.7105 41.9099 18.9415C42.5006 19.1725 42.9663 19.62 43.2208 20.2019C43.4763 20.7838 43.4896 21.4312 43.2595 22.0242C42.8944 22.9648 41.9961 23.5422 41.0459 23.5422V23.5411ZM41.0481 20.4429C40.9507 20.4429 40.8534 20.4629 40.7616 20.5039C40.5868 20.5806 40.4529 20.7216 40.3844 20.8993C40.2416 21.2668 40.4242 21.6833 40.7903 21.8254C40.9673 21.8943 41.162 21.8909 41.3357 21.8132C41.5105 21.7366 41.6444 21.5955 41.7129 21.4179C41.7815 21.2402 41.7782 21.0447 41.7008 20.8704C41.6244 20.6949 41.484 20.5606 41.307 20.4917C41.2229 20.4584 41.1355 20.4429 41.0481 20.4429Z" fill="#EB008B"/>
<path d="M50.5729 18.4317C50.2875 18.4317 49.9976 18.3795 49.7155 18.2696C49.1248 18.0386 48.6591 17.5911 48.4046 17.0092C48.1491 16.4273 48.1358 15.7799 48.3659 15.1869C48.596 14.5939 49.0418 14.1264 49.6215 13.871C50.2012 13.6145 50.8461 13.6011 51.4368 13.8321C52.0276 14.0631 52.4933 14.5106 52.7477 15.0925C53.0033 15.6744 53.0165 16.3218 52.7864 16.9148C52.4214 17.8554 51.5231 18.4328 50.5729 18.4328V18.4317ZM50.5762 15.3335C50.4788 15.3335 50.3815 15.3535 50.2897 15.3946C50.1149 15.4712 49.981 15.6122 49.9124 15.7899C49.7697 16.1575 49.9523 16.5739 50.3184 16.716C50.4954 16.7849 50.6901 16.7816 50.8638 16.7038C51.0386 16.6272 51.1724 16.4862 51.241 16.3085C51.3096 16.1308 51.3063 15.9354 51.2289 15.761C51.1525 15.5856 51.012 15.4512 50.835 15.3823C50.751 15.349 50.6636 15.3335 50.5762 15.3335Z" fill="#EB008B"/>
<path d="M47.3504 33.6687C47.0594 33.6687 46.7685 33.6143 46.4897 33.5055C45.899 33.2745 45.4332 32.8269 45.1788 32.2451C44.9233 31.6632 44.91 31.0157 45.1401 30.4228C45.6147 29.199 46.9919 28.5905 48.211 29.0669C48.8017 29.2978 49.2675 29.7454 49.5219 30.3273C49.7774 30.9091 49.7907 31.5566 49.5606 32.1496C49.3305 32.7426 48.8847 33.2101 48.305 33.4655C47.9986 33.601 47.6756 33.6687 47.3504 33.6687ZM47.3504 30.5704C47.0649 30.5704 46.795 30.7437 46.6855 31.0269C46.6169 31.2045 46.6202 31.4 46.6977 31.5743C46.774 31.7498 46.9145 31.8841 47.0915 31.953C47.2685 32.0218 47.4632 32.0185 47.6369 31.9408C47.8117 31.8642 47.9455 31.7231 48.0141 31.5455C48.0827 31.3678 48.0794 31.1723 48.0019 30.998C47.9256 30.8225 47.7851 30.6882 47.6081 30.6193C47.5229 30.586 47.4366 30.5704 47.3504 30.5704Z" fill="#EB008B"/>
<path d="M49.9666 31.8986C49.6757 31.8986 49.3847 31.8441 49.106 31.7353C48.5152 31.5043 48.0495 31.0568 47.7951 30.4749C47.5395 29.893 47.5263 29.2456 47.7564 28.6526C48.2309 27.4289 49.6093 26.8203 50.8273 27.2967C51.418 27.5277 51.8837 27.9752 52.1382 28.5571C52.3937 29.139 52.407 29.7864 52.1769 30.3794C51.9468 30.9724 51.501 31.4399 50.9213 31.6953C50.6149 31.8308 50.2919 31.8986 49.9666 31.8986ZM49.9655 28.7992C49.8682 28.7992 49.7708 28.8192 49.679 28.8603C49.5042 28.9369 49.3704 29.0779 49.3018 29.2556C49.2332 29.4333 49.2365 29.6287 49.3139 29.8031C49.3903 29.9785 49.5308 30.1129 49.7078 30.1817C49.8848 30.2517 50.0795 30.2473 50.2531 30.1695C50.4279 30.0929 50.5618 29.9519 50.6304 29.7742C50.7731 29.4066 50.5905 28.9902 50.2244 28.8481C50.1403 28.8159 50.0529 28.7992 49.9655 28.7992Z" fill="#EB008B"/>
<path d="M47.2398 30.4605C46.9488 30.4605 46.6579 30.4061 46.3791 30.2972C45.7884 30.0663 45.3226 29.6187 45.0682 29.0369C44.8127 28.455 44.7994 27.8076 45.0295 27.2146C45.2596 26.6216 45.7054 26.154 46.2851 25.8986C46.8647 25.6421 47.5097 25.6288 48.1004 25.8598C48.6911 26.0907 49.1569 26.5383 49.4113 27.1202C49.6668 27.7021 49.6801 28.3495 49.45 28.9425C49.2199 29.5355 48.7741 30.003 48.1944 30.2584C47.888 30.3939 47.565 30.4616 47.2398 30.4616V30.4605ZM47.2386 27.3611C47.1413 27.3611 47.0439 27.3811 46.9521 27.4222C46.7773 27.4988 46.6435 27.6399 46.5749 27.8175C46.5063 27.9952 46.5096 28.1907 46.5871 28.365C46.6634 28.5405 46.8039 28.6748 46.9809 28.7437C47.1579 28.8125 47.3526 28.8092 47.5263 28.7315C47.7011 28.6548 47.8349 28.5138 47.9035 28.3361C48.0462 27.9686 47.8637 27.5521 47.4975 27.4089C47.4134 27.3767 47.326 27.36 47.2386 27.36V27.3611Z" fill="#EB008B"/>
<path d="M49.4655 15.4346C49.1746 15.4346 48.8836 15.3801 48.6049 15.2713C48.0141 15.0403 47.5484 14.5928 47.294 14.0109C47.0384 13.429 47.0252 12.7816 47.2553 12.1886C47.4854 11.5956 47.9312 11.1281 48.5108 10.8727C49.0905 10.6162 49.7354 10.6028 50.3262 10.8338C50.9169 11.0648 51.3826 11.5123 51.6371 12.0942C51.8926 12.6761 51.9059 13.3235 51.6758 13.9165C51.4457 14.5095 50.9999 14.977 50.4202 15.2324C50.1138 15.3679 49.7908 15.4357 49.4655 15.4357V15.4346ZM49.4644 12.3363C49.3671 12.3363 49.2697 12.3563 49.1779 12.3974C49.0031 12.474 48.8693 12.615 48.8007 12.7927C48.7321 12.9704 48.7354 13.1658 48.8128 13.3402C48.8892 13.5156 49.0297 13.65 49.2067 13.7189C49.3837 13.7877 49.5784 13.7844 49.752 13.7066C49.9268 13.63 50.0607 13.489 50.1293 13.3113C50.1979 13.1336 50.1945 12.9382 50.1171 12.7638C50.0408 12.5884 49.9003 12.454 49.7233 12.3852C49.6392 12.353 49.5518 12.3363 49.4644 12.3363Z" fill="#EB008B"/>
<path d="M37.8931 23.9709C37.6077 23.9709 37.3168 23.9187 37.0358 23.8087C36.445 23.5778 35.9793 23.1302 35.7249 22.5483C35.4693 21.9664 35.4561 21.319 35.6862 20.726C36.1607 19.5023 37.538 18.8937 38.7571 19.3701C39.3478 19.6011 39.8135 20.0486 40.068 20.6305C40.3235 21.2124 40.3368 21.8598 40.1067 22.4528C39.7416 23.3934 38.8434 23.9709 37.8931 23.9709ZM37.8953 20.8737C37.798 20.8737 37.7006 20.8937 37.6088 20.9348C37.434 21.0114 37.3002 21.1525 37.2316 21.3301C37.0889 21.6977 37.2714 22.1141 37.6376 22.2563C38.0037 22.3995 38.4186 22.2163 38.5602 21.8487C38.7029 21.4812 38.5203 21.0647 38.1542 20.9226C38.0701 20.8904 37.9827 20.8737 37.8953 20.8737Z" fill="#EB008B"/>
<path d="M38.777 18.6294C38.3887 18.6294 38.0424 18.3552 37.9639 17.9576C37.934 17.8055 37.8986 17.6567 37.8577 17.5134C37.7316 17.0714 37.9871 16.6106 38.4274 16.484C38.8677 16.3574 39.3268 16.6139 39.4529 17.0559C39.506 17.2436 39.5525 17.4379 39.5912 17.6344C39.6797 18.0853 39.3876 18.5239 38.9385 18.6128C38.8843 18.6239 38.8301 18.6283 38.777 18.6283V18.6294Z" fill="white"/>
<path d="M31.8995 16.0387C31.7214 16.0387 31.5411 15.981 31.3896 15.8621C31.0278 15.579 30.9637 15.0559 31.2458 14.6928C32.0843 13.6134 33.6518 12.9205 35.1574 12.9638C36.4838 13.0038 37.6221 13.619 38.3611 14.6972C38.621 15.0759 38.5259 15.5945 38.1476 15.8555C37.7703 16.1164 37.2537 16.0209 36.9938 15.6411C36.5491 14.9937 35.9152 14.6528 35.1076 14.6284C34.0257 14.5962 32.9837 15.1647 32.5544 15.7167C32.3907 15.9276 32.1462 16.0376 31.8995 16.0376V16.0387Z" fill="white"/>
<path d="M41.5968 14.8527C41.3811 14.8527 41.1654 14.7683 41.0028 14.6017C40.3258 13.9044 39.3611 13.5623 38.131 13.5845C37.1785 13.6012 36.4274 13.8411 36.4207 13.8433C35.986 13.9876 35.5169 13.75 35.3731 13.3125C35.2304 12.876 35.4661 12.4052 35.9019 12.2608C36.0612 12.2086 39.8235 11.0016 42.192 13.4379C42.5117 13.7678 42.5051 14.2941 42.1776 14.6162C42.0161 14.7739 41.807 14.8527 41.5979 14.8527H41.5968Z" fill="white"/>
<path d="M42.5924 18.6294C42.5371 18.6294 42.4818 18.6239 42.4254 18.6128C41.9784 18.5206 41.6897 18.0842 41.7782 17.6355C41.7815 17.6167 41.8767 17.0714 41.7185 16.3896C41.6145 15.9421 41.8922 15.4934 42.338 15.389C42.7838 15.2846 43.2307 15.5634 43.3347 16.0109C43.5781 17.0559 43.4232 17.8743 43.4055 17.9642C43.3247 18.3585 42.9796 18.6305 42.5935 18.6305L42.5924 18.6294Z" fill="white"/>
<path d="M45.5483 18.6294C45.5074 18.6294 45.4675 18.6261 45.4255 18.6205C44.9719 18.5539 44.6589 18.1297 44.7264 17.6755C45.0073 15.7677 44.6965 14.2386 43.8049 13.1292C42.3712 11.3447 39.8512 11.1581 39.8257 11.1559C39.3699 11.1259 39.0226 10.7306 39.0513 10.2719C39.0801 9.81332 39.4717 9.46573 39.9286 9.4935C40.0602 9.50127 43.182 9.7167 45.0859 12.0687C46.2895 13.5568 46.7209 15.5245 46.3691 17.9187C46.3083 18.3329 45.9543 18.6305 45.5494 18.6305L45.5483 18.6294Z" fill="white"/>
<path d="M45.9687 11.157C45.8448 11.157 45.7186 11.1292 45.5992 11.0692C45.5638 11.0515 42.8668 9.74999 40.2505 11.0681C39.8412 11.2747 39.3423 11.1081 39.1365 10.6972C38.9308 10.2864 39.0967 9.78553 39.506 9.57898C42.8845 7.87661 46.2021 9.50902 46.3415 9.57898C46.7508 9.78553 46.9167 10.2864 46.7109 10.6972C46.5649 10.9882 46.2729 11.157 45.9687 11.157Z" fill="white"/>
<path d="M53.1991 45.0134C52.8716 45.0134 52.5619 44.8179 52.4302 44.4948C52.386 44.3893 51.2941 41.8329 48.3626 41.0012C44.4731 39.8974 44.1357 36.5748 44.1224 36.4338C44.0815 35.9752 44.4189 35.5709 44.8757 35.5299C45.3293 35.4899 45.732 35.8241 45.7751 36.2794C45.7873 36.3883 46.0616 38.617 48.8139 39.3977C52.5442 40.456 53.9104 43.7263 53.9668 43.8651C54.1394 44.2916 53.9358 44.7768 53.5121 44.9512C53.4093 44.9934 53.3031 45.0134 53.1991 45.0134Z" fill="white"/>
<path d="M49.075 45.0134C49.0507 45.0134 49.0263 45.0134 49.0009 45.0101C47.7442 44.899 46.5638 44.577 45.493 44.0528C45.0815 43.8507 44.91 43.3521 45.1114 42.939C45.3127 42.5259 45.8083 42.3538 46.2209 42.5559C47.0959 42.9845 48.1082 43.2588 49.1469 43.351C49.6038 43.391 49.9412 43.7952 49.9003 44.2538C49.8626 44.6869 49.4998 45.0134 49.075 45.0134Z" fill="white"/>
<path d="M53.761 48.7823C53.4303 48.7823 53.1183 48.5824 52.99 48.256C52.9778 48.2271 52.3738 46.749 51.0651 45.7962C50.6945 45.5264 50.6116 45.0056 50.8804 44.6336C51.1492 44.2616 51.668 44.1783 52.0386 44.4481C53.7577 45.6996 54.5022 47.5664 54.5332 47.6452C54.7002 48.0727 54.4911 48.5569 54.0641 48.7246C53.9646 48.7635 53.8617 48.7823 53.761 48.7823Z" fill="white"/>
<path d="M52.3716 38.7169C52.3439 38.7169 52.3152 38.7158 52.2875 38.7125C52.0652 38.6903 46.8315 38.0884 45.0605 31.9385C44.9332 31.4966 45.1866 31.0346 45.6268 30.9069C46.0671 30.7792 46.5273 31.0335 46.6545 31.4755C48.1059 36.5148 52.2809 37.0356 52.4579 37.0545C52.9114 37.1045 53.2411 37.5143 53.1935 37.9707C53.1482 38.3982 52.7897 38.7158 52.3716 38.7158V38.7169Z" fill="white"/>
<path d="M47.9223 25.0236C47.9079 25.0236 47.8924 25.0236 47.878 25.0225C47.4201 24.9981 47.0694 24.6061 47.0937 24.1463C47.1004 24.0253 47.1081 23.9054 47.1181 23.7865C47.1557 23.3279 47.5561 22.9881 48.013 23.0247C48.4699 23.0625 48.8095 23.4645 48.7719 23.9231C48.763 24.0253 48.7564 24.1297 48.7509 24.2341C48.7276 24.6782 48.3615 25.0225 47.9234 25.0225L47.9223 25.0236Z" fill="white"/>
<path d="M48.3261 22.4761C48.2663 22.4761 48.2055 22.4694 48.1446 22.4561C47.6977 22.3562 47.4156 21.9109 47.5163 21.4611C47.8094 20.1452 48.0882 19.4678 48.1004 19.4401C48.2774 19.0158 48.763 18.816 49.1856 18.9936C49.6082 19.1713 49.8073 19.6577 49.6314 20.0808C49.6259 20.0941 49.3903 20.6782 49.1347 21.8243C49.0484 22.2118 48.7055 22.4761 48.3261 22.4761Z" fill="white"/>
<path d="M0.830806 51C0.789875 51 0.748944 50.9967 0.706907 50.9911C0.253349 50.9234 -0.0586104 50.4992 0.00887015 50.0439L1.54654 39.722L2.89284 25.1213C3.00678 23.8809 2.82314 22.6128 2.36184 21.4567C1.46136 19.2025 1.44698 16.7139 2.3198 14.4485L3.00678 12.6662C4.20594 9.55571 6.98481 7.26923 10.2593 6.69844L19.6302 5.06492L20.3559 0.696286C20.4312 0.242099 20.8582 -0.0643945 21.3106 0.0122288C21.7631 0.0877415 22.0684 0.516388 21.9921 0.970575L21.1701 5.9211C21.1126 6.26979 20.8405 6.54408 20.4931 6.60516L10.5425 8.33973C7.83883 8.81058 5.54449 10.6995 4.55441 13.2681L3.86743 15.0504C3.14616 16.9204 3.15833 18.9759 3.90173 20.8371C4.46148 22.2374 4.68384 23.7721 4.54556 25.2746L3.19705 39.8985C3.19595 39.9141 3.19373 39.9296 3.19152 39.9452L1.65053 50.2904C1.58858 50.7035 1.23458 51 0.830806 51Z" fill="white"/>
<path d="M54.1692 51C53.7654 51 53.4114 50.7035 53.3495 50.2904L51.8085 39.9452C51.8063 39.9296 51.8041 39.9141 51.803 39.8985L50.4545 25.2746C50.3162 23.7721 50.5385 22.2374 51.0983 20.8371C51.8417 18.9759 51.8539 16.9204 51.1326 15.0504L50.4456 13.2681C49.4555 10.6995 47.1601 8.81169 44.4575 8.33973L34.5069 6.60516C34.1596 6.54408 33.8885 6.2709 33.831 5.9211L33.0091 0.970573C32.9338 0.516386 33.2392 0.0877398 33.6905 0.012227C34.1441 -0.0632857 34.57 0.243207 34.6452 0.696284L35.3709 5.06492L44.7418 6.69844C48.0152 7.26923 50.7941 9.55571 51.9932 12.6662L52.6802 14.4485C53.5541 16.7139 53.5387 19.2025 52.6382 21.4567C52.1758 22.6128 51.9921 23.8809 52.1072 25.1213L53.4535 39.722L54.9911 50.0439C55.0586 50.4992 54.7467 50.9223 54.2931 50.9911C54.2511 50.9978 54.2101 51 54.1692 51Z" fill="white"/>
<path d="M21.1734 35.8741C20.7984 35.8741 20.4588 35.6176 20.3669 35.2345C20.2607 34.787 20.5351 34.3372 20.9809 34.2306L27.3728 32.6959C27.4967 32.6659 27.6272 32.6659 27.7511 32.6937L34.4062 34.2284C34.8531 34.3317 35.1319 34.7781 35.029 35.2267C34.9262 35.6754 34.4815 35.9552 34.0345 35.8519L27.5697 34.3617L21.367 35.8508C21.3017 35.8664 21.2376 35.8741 21.1734 35.8741Z" fill="white"/>
<path d="M27.5664 34.3394C27.1084 34.3394 26.7367 33.9663 26.7367 33.5066V29.6266C26.7367 29.1668 27.1084 28.7937 27.5664 28.7937C28.0244 28.7937 28.3961 29.1668 28.3961 29.6266V33.5066C28.3961 33.9663 28.0244 34.3394 27.5664 34.3394Z" fill="white"/>
<path d="M21.1712 48.226C20.7331 48.226 20.3669 47.8818 20.3437 47.4376C20.3404 47.3698 20.2574 45.7496 20.4178 43.7852C20.6413 41.0623 21.2132 39.0745 22.1203 37.8785C22.398 37.5121 22.9179 37.441 23.283 37.7197C23.6481 37.9985 23.7189 38.5204 23.4412 38.8869C21.992 40.7991 21.9102 45.6441 22.0009 47.3498C22.0252 47.8096 21.6745 48.2016 21.2165 48.226C21.2011 48.226 21.1867 48.2271 21.1712 48.2271V48.226Z" fill="white"/>
<path d="M33.9084 48.226C33.8929 48.226 33.8785 48.226 33.8631 48.2249C33.4062 48.2005 33.0544 47.8085 33.0787 47.3488C33.1683 45.6419 33.0854 40.7947 31.6384 38.8858C31.3607 38.5193 31.4315 37.9974 31.7966 37.7186C32.1617 37.4399 32.6816 37.511 32.9593 37.8774C33.8653 39.0734 34.4383 41.0612 34.6618 43.7841C34.8222 45.7485 34.7392 47.3687 34.7359 47.4365C34.7126 47.8807 34.3465 48.2249 33.9084 48.2249V48.226Z" fill="white"/>
</g>
<defs>
<clipPath id="clip0_6_10">
<rect width="55" height="51" fill="white"/>
</clipPath>
</defs>
</svg>
