<svg width="63" height="51" viewBox="0 0 63 51" fill="none" xmlns="http://www.w3.org/2000/svg">
<g clip-path="url(#clip0_6_134)">
<path d="M28.1196 42.0754C23.8566 42.0754 20.3889 38.7016 20.3889 34.5541V16.5338C20.3889 16.0278 20.8111 15.6171 21.3312 15.6171C21.8514 15.6171 22.2735 16.0278 22.2735 16.5338V34.5541C22.2735 37.6895 24.8956 40.2418 28.1196 40.2418C31.3435 40.2418 33.9656 37.6907 33.9656 34.5541C33.9656 34.0481 34.3878 33.6373 34.908 33.6373C35.4281 33.6373 35.8503 34.0481 35.8503 34.5541C35.8503 38.7004 32.3826 42.0754 28.1196 42.0754Z" fill="white"/>
<path d="M41.6951 42.0754C37.4334 42.0754 33.9644 38.7016 33.9644 34.5541V16.5338C33.9644 16.0278 34.3866 15.6171 34.9067 15.6171C35.4269 15.6171 35.849 16.0278 35.849 16.5338V34.5541C35.849 37.6895 38.4711 40.2418 41.6951 40.2418C44.919 40.2418 47.5412 37.6907 47.5412 34.5541C47.5412 34.0481 47.9633 33.6373 48.4835 33.6373C49.0036 33.6373 49.4258 34.0481 49.4258 34.5541C49.4258 38.7004 45.9581 42.0754 41.6951 42.0754Z" fill="white"/>
<path d="M55.2706 42.0754C51.0088 42.0754 47.5399 38.7017 47.5399 34.5541V16.5339C47.5399 16.0278 47.962 15.6171 48.4822 15.6171C49.0023 15.6171 49.4245 16.0278 49.4245 16.5339V34.5541C49.4245 37.6895 52.0466 40.2419 55.2706 40.2419C58.4945 40.2419 61.1166 37.6908 61.1166 34.5541V7.52128C61.1166 4.38589 58.4945 1.83356 55.2706 1.83356C52.0466 1.83356 49.4245 4.38466 49.4245 7.52128C49.4245 8.02735 49.0023 8.43807 48.4822 8.43807C47.962 8.43807 47.5399 8.02735 47.5399 7.52128C47.5399 4.38589 44.9178 1.83356 41.6938 1.83356C38.4699 1.83356 35.8478 4.38466 35.8478 7.52128C35.8478 8.02735 35.4256 8.43807 34.9055 8.43807C34.3853 8.43807 33.9632 8.02735 33.9632 7.52128C33.9632 4.38589 31.341 1.83356 28.1171 1.83356C24.8932 1.83356 22.271 4.38466 22.271 7.52128C22.271 8.02735 21.8489 8.43807 21.3287 8.43807C20.8086 8.43807 20.3864 8.02735 20.3864 7.52128C20.3864 4.38589 17.7643 1.83356 14.5404 1.83356C11.3164 1.83356 8.6943 4.38466 8.6943 7.52128V19.0116C8.6943 19.5177 8.27215 19.9284 7.752 19.9284C7.23185 19.9284 6.80969 19.5177 6.80969 19.0116V7.52128C6.81346 3.37376 10.2811 0 14.5429 0C17.4678 0 20.0183 1.58787 21.3312 3.92505C22.6442 1.58787 25.1947 0 28.1184 0C31.042 0 33.5938 1.58787 34.9067 3.92505C36.2197 1.58787 38.7702 0 41.6951 0C44.62 0 47.1705 1.58787 48.4834 3.92505C49.7951 1.58787 52.3456 0 55.2706 0C59.5335 0 63.0012 3.37376 63.0012 7.52128V34.5554C63.0012 38.7017 59.5335 42.0766 55.2706 42.0766V42.0754Z" fill="white"/>
<path d="M14.5429 42.0755C10.2799 42.0755 6.81219 38.7017 6.81219 34.5542V27.2835C6.81219 26.7774 7.23435 26.3667 7.7545 26.3667C8.27465 26.3667 8.69681 26.7774 8.69681 27.2835V34.5542C8.69681 37.6896 11.3189 40.2419 14.5429 40.2419C17.7668 40.2419 20.3889 37.6908 20.3889 34.5542C20.3889 34.0481 20.8111 33.6374 21.3312 33.6374C21.8514 33.6374 22.2735 34.0481 22.2735 34.5542C22.2735 38.7005 18.8059 42.0755 14.5429 42.0755Z" fill="white"/>
<path d="M39.1446 51H15.2628C10.8579 51 6.80721 48.4917 4.94145 44.6094C4.93768 44.6008 4.93391 44.5923 4.93014 44.5837L0.873205 35.422C-0.188458 33.2022 -0.286458 30.6168 0.606847 28.3273C1.05915 27.1685 1.46623 25.9021 1.92733 24.2201C1.92859 24.214 1.92984 24.2091 1.93236 24.203L6.84993 7.54326C6.99316 7.05675 7.51583 6.7756 8.01588 6.91495C8.51593 7.05431 8.8049 7.56281 8.66167 8.04932L3.74535 24.7018C3.26792 26.4412 2.84325 27.7614 2.36833 28.9789C1.65343 30.8124 1.73259 32.8819 2.58694 34.6592C2.59071 34.6678 2.59448 34.6764 2.59825 34.6849L6.65519 43.8466C8.21439 47.0798 11.5916 49.1676 15.2628 49.1676H38.1621C37.9121 46.3611 36.5225 43.7708 34.2622 41.9568C33.8602 41.6341 33.8036 41.0572 34.1353 40.666C34.467 40.2761 35.06 40.2198 35.4621 40.5425C38.4008 42.9029 40.0869 46.3806 40.0869 50.0844C40.0869 50.5905 39.6648 51.0012 39.1446 51.0012V51Z" fill="white"/>
<path d="M17.6337 29.177H12.2588C11.7387 29.177 11.3165 28.7663 11.3165 28.2602V19.7696C11.3165 19.2635 11.7387 18.8528 12.2588 18.8528C12.779 18.8528 13.2011 19.2635 13.2011 19.7696V27.3434H17.6337C18.1539 27.3434 18.576 27.7541 18.576 28.2602C18.576 28.7663 18.1539 29.177 17.6337 29.177Z" fill="#EB008B"/>
<path d="M13.2589 20.6878H11.3856C10.8655 20.6878 10.4433 20.2771 10.4433 19.7711C10.4433 19.265 10.8655 18.8543 11.3856 18.8543H13.2589C13.7791 18.8543 14.2012 19.265 14.2012 19.7711C14.2012 20.2771 13.7791 20.6878 13.2589 20.6878Z" fill="#EB008B"/>
<path d="M17.6337 30.0889C17.1136 30.0889 16.6914 29.6782 16.6914 29.1721V27.3495C16.6914 26.8435 17.1136 26.4327 17.6337 26.4327C18.1539 26.4327 18.576 26.8435 18.576 27.3495V29.1721C18.576 29.6782 18.1539 30.0889 17.6337 30.0889Z" fill="#EB008B"/>
<path d="M12.2588 29.177H11.3869C10.8667 29.177 10.4446 28.7663 10.4446 28.2602C10.4446 27.7541 10.8667 27.3434 11.3869 27.3434H12.2588C12.779 27.3434 13.2011 27.7541 13.2011 28.2602C13.2011 28.7663 12.779 29.177 12.2588 29.177Z" fill="#EB008B"/>
<path opacity="0.7" d="M28.18 29.1769H28.0568C26.3331 29.1769 24.9309 27.8127 24.9309 26.1356V21.8939C24.9309 20.2168 26.3331 18.8527 28.0568 18.8527H28.18C29.9038 18.8527 31.3059 20.2168 31.3059 21.8939V26.1356C31.3059 27.8127 29.9038 29.1769 28.18 29.1769ZM28.0568 20.6874C27.3721 20.6874 26.8155 21.229 26.8155 21.8952V26.1368C26.8155 26.803 27.3721 27.3445 28.0568 27.3445H28.18C28.8647 27.3445 29.4213 26.803 29.4213 26.1368V21.8952C29.4213 21.229 28.8647 20.6874 28.18 20.6874H28.0568Z" fill="#EB008B"/>
<path opacity="0.4" d="M45.6641 19.4921H44.8713C44.4843 19.4921 44.1363 19.7219 43.9943 20.0727L41.7102 25.7176L39.514 20.0837C39.3745 19.728 39.024 19.4921 38.6332 19.4921H37.6507C37.1306 19.4921 36.7084 19.9028 36.7084 20.4088C36.7084 20.9149 37.1306 21.3256 37.6507 21.3256H37.9837L40.3508 27.396C39.9839 27.5219 39.72 27.8605 39.72 28.2602C39.72 28.7662 40.1422 29.177 40.6623 29.177H42.8799C43.4001 29.177 43.8222 28.7662 43.8222 28.2602C43.8222 27.8177 43.4993 27.4485 43.0709 27.3617L45.5133 21.3256H45.6641C46.1843 21.3256 46.6064 20.9149 46.6064 20.4088C46.6064 19.9028 46.1843 19.4921 45.6641 19.4921Z" fill="#EB008B"/>
<g opacity="0.1">
<path d="M58.4015 29.177H53.3181C52.7979 29.177 52.3758 28.7662 52.3758 28.2602V20.4088C52.3758 19.9028 52.7979 19.4921 53.3181 19.4921H58.4015C58.9217 19.4921 59.3438 19.9028 59.3438 20.4088C59.3438 20.9149 58.9217 21.3256 58.4015 21.3256H54.2604V27.3434H58.4015C58.9217 27.3434 59.3438 27.7541 59.3438 28.2602C59.3438 28.7662 58.9217 29.177 58.4015 29.177Z" fill="#EB008B"/>
<path d="M56.9365 25.2519H53.3168C52.7967 25.2519 52.3745 24.8412 52.3745 24.3351C52.3745 23.8291 52.7967 23.4183 53.3168 23.4183H56.9365C57.4567 23.4183 57.8788 23.8291 57.8788 24.3351C57.8788 24.8412 57.4567 25.2519 56.9365 25.2519Z" fill="#EB008B"/>
<path d="M53.3168 21.3256H52.4374C51.9172 21.3256 51.4951 20.9149 51.4951 20.4088C51.4951 19.9028 51.9172 19.4921 52.4374 19.4921H53.3168C53.837 19.4921 54.2592 19.9028 54.2592 20.4088C54.2592 20.9149 53.837 21.3256 53.3168 21.3256Z" fill="#EB008B"/>
<path d="M53.3168 29.1769H52.4374C51.9172 29.1769 51.4951 28.7662 51.4951 28.2602C51.4951 27.7541 51.9172 27.3434 52.4374 27.3434H53.3168C53.837 27.3434 54.2592 27.7541 54.2592 28.2602C54.2592 28.7662 53.837 29.1769 53.3168 29.1769Z" fill="#EB008B"/>
</g>
<path d="M21.3313 14.2174C21.2697 14.2174 21.2082 14.2113 21.1466 14.1991C21.0863 14.1869 21.0272 14.1697 20.9707 14.1465C20.9142 14.1233 20.8589 14.0952 20.8074 14.0622C20.7558 14.0292 20.7081 13.9901 20.6641 13.9485C20.6214 13.9057 20.5812 13.8593 20.5473 13.8091C20.5134 13.759 20.4845 13.7065 20.4606 13.6502C20.438 13.5952 20.4191 13.5378 20.4078 13.4791C20.3953 13.4204 20.389 13.3593 20.389 13.3006C20.389 13.242 20.3953 13.1796 20.4078 13.1209C20.4191 13.0623 20.438 13.0048 20.4606 12.9498C20.4845 12.8948 20.5134 12.841 20.5473 12.7909C20.5812 12.7408 20.6214 12.6943 20.6641 12.6516C20.7081 12.61 20.7558 12.5709 20.8074 12.5379C20.8589 12.5049 20.9142 12.4768 20.9707 12.4535C21.0272 12.4303 21.0863 12.4132 21.1466 12.401C21.2685 12.3777 21.3941 12.3777 21.5147 12.401C21.575 12.4132 21.6341 12.4303 21.6919 12.4535C21.7484 12.4768 21.8037 12.5049 21.8539 12.5379C21.9055 12.5709 21.9545 12.61 21.9972 12.6516C22.0412 12.6943 22.0801 12.7408 22.114 12.7909C22.1479 12.841 22.1781 12.8948 22.2007 12.9498C22.2246 13.0048 22.2434 13.0623 22.2547 13.1209C22.2673 13.1796 22.2736 13.2407 22.2736 13.3006C22.2736 13.5414 22.1731 13.7774 21.9972 13.9485C21.8213 14.1184 21.5788 14.2174 21.3313 14.2174Z" fill="white"/>
<path d="M34.9067 14.2175C34.658 14.2175 34.4155 14.1185 34.2408 13.9486C34.1969 13.9058 34.1579 13.8593 34.1227 13.8092C34.0888 13.7591 34.0599 13.7065 34.036 13.6503C34.0134 13.5953 33.9946 13.5378 33.9833 13.4792C33.9707 13.4205 33.9644 13.3594 33.9644 13.3007C33.9644 13.0587 34.0649 12.8228 34.2408 12.6516C34.4582 12.4389 34.7849 12.3411 35.0902 12.401C35.1505 12.4133 35.2095 12.4304 35.2673 12.4536C35.3239 12.4768 35.3791 12.5049 35.4294 12.5379C35.4809 12.5709 35.5299 12.6101 35.5726 12.6516C35.7485 12.8228 35.849 13.0587 35.849 13.3007C35.849 13.3594 35.8427 13.4205 35.8302 13.4792C35.8189 13.5378 35.8 13.5953 35.7774 13.6503C35.7535 13.7065 35.7246 13.7591 35.6907 13.8092C35.6555 13.8593 35.6166 13.9058 35.5726 13.9486C35.5286 13.9913 35.4809 14.0292 35.4294 14.0622C35.3791 14.0953 35.3239 14.1234 35.2673 14.1466C35.2095 14.1698 35.1505 14.1869 35.0902 14.1992C35.0299 14.2114 34.9683 14.2175 34.9067 14.2175Z" fill="white"/>
<path d="M48.4822 14.2163C48.2335 14.2163 47.991 14.1185 47.8163 13.9486C47.7723 13.9058 47.7334 13.8593 47.6982 13.8092C47.6643 13.7591 47.6354 13.7065 47.6128 13.6503C47.5889 13.5953 47.5701 13.5378 47.5588 13.4792C47.5462 13.4205 47.5399 13.3594 47.5399 13.3007C47.5399 13.242 47.5462 13.1797 47.5588 13.121C47.5701 13.0623 47.5889 13.0049 47.6128 12.9499C47.6354 12.8937 47.6643 12.8411 47.6982 12.791C47.7334 12.7409 47.7723 12.6944 47.8163 12.6516C48.0349 12.4389 48.3604 12.3411 48.6669 12.401C48.7272 12.4133 48.7863 12.4304 48.8428 12.4536C48.8993 12.4768 48.9546 12.5049 49.0061 12.5379C49.0577 12.5709 49.1054 12.6101 49.1481 12.6516C49.324 12.8228 49.4245 13.0587 49.4245 13.3007C49.4245 13.3594 49.4182 13.4205 49.4057 13.4792C49.3944 13.5378 49.3755 13.5953 49.3529 13.6503C49.329 13.7065 49.3001 13.7591 49.2662 13.8092C49.231 13.8593 49.1921 13.9058 49.1481 13.9486C49.1054 13.9901 49.0577 14.0292 49.0061 14.0622C48.9546 14.0953 48.8993 14.1234 48.8428 14.1466C48.7863 14.1698 48.7272 14.1869 48.6669 14.1992C48.6054 14.2114 48.5438 14.2163 48.4822 14.2163Z" fill="white"/>
</g>
<defs>
<clipPath id="clip0_6_134">
<rect width="63" height="51" fill="white"/>
</clipPath>
</defs>
</svg>
