<svg width="51" height="51" viewBox="0 0 51 51" fill="none" xmlns="http://www.w3.org/2000/svg">
<g clip-path="url(#clip0_6_74)">
<path d="M23.1356 48.0367C22.8516 48.0367 22.591 47.8791 22.4582 47.6256L18.4131 39.931C18.2292 39.5827 17.9972 39.2623 17.7234 38.981L15.5562 36.7565C13.5475 34.6948 12.5635 31.8634 12.8557 28.9877L13.0284 27.2866C13.0713 26.8621 13.4484 26.554 13.8693 26.5963C14.2903 26.6395 14.5968 27.0197 14.5539 27.4442L14.3812 29.1464C14.135 31.5625 14.9626 33.9416 16.6506 35.6736L18.8177 37.8981C19.1957 38.2855 19.5156 38.7265 19.7679 39.2077L23.5944 46.486C27.4863 46.4149 32.7534 45.7679 36.6647 43.2003C38.4242 42.0453 39.3029 40.8882 39.6513 40.3431L38.1197 37.5921C37.6793 36.8008 37.5363 35.8745 37.7171 34.9843L39.9916 23.8277C40.0764 23.4094 40.482 23.1415 40.8969 23.226C41.3117 23.3115 41.5784 23.7206 41.4936 24.1389L39.2191 35.2955C39.1118 35.8209 39.1967 36.3681 39.4572 36.8358L41.2013 39.9691C41.3209 40.1845 41.3321 40.4441 41.2299 40.6677C41.0961 40.9644 37.7774 47.9337 23.1418 48.0367H23.1367H23.1356Z" fill="white"/>
<path d="M20.475 18.6564C19.8252 18.6564 19.1784 18.4957 18.597 18.1793C16.7783 17.1882 16.0263 14.9265 16.8845 13.0297L21.7869 2.4532C22.4603 0.966409 23.949 0.000976562 25.5766 0.000976562H33.8713C35.4121 0.000976562 36.8211 0.852041 37.5475 2.22343L38.319 3.67931C38.5182 4.05538 38.3772 4.52419 38.0043 4.72511C37.6313 4.92602 37.1664 4.78487 36.9672 4.40776L36.1958 2.95188C35.736 2.08536 34.845 1.54649 33.8713 1.54649H25.5766C24.5467 1.54649 23.6057 2.15646 23.1786 3.10128L18.2762 13.6778C17.7541 14.8307 18.2138 16.2134 19.3255 16.8193C19.9232 17.1449 20.6068 17.2026 21.2505 16.9821C21.8942 16.7606 22.4 16.2938 22.6759 15.6674L27.0909 5.9234C27.2666 5.53496 27.7213 5.36392 28.1065 5.54217C28.4917 5.71939 28.6613 6.17789 28.4846 6.56633L24.0726 16.3021C23.6312 17.3046 22.7821 18.0876 21.744 18.4452C21.3312 18.5874 20.9021 18.6574 20.473 18.6574L20.475 18.6564Z" fill="white"/>
<path d="M12.3929 16.3908C12.0547 16.3908 11.7451 16.1631 11.6531 15.8189L10.9972 13.3626C10.9951 13.3554 10.9931 13.3471 10.991 13.3399C10.8357 12.6784 10.9236 11.983 11.2373 11.3823L14.0941 5.91938C14.7307 4.70255 15.92 3.89167 17.2769 3.74948L21.8288 3.27449C22.2508 3.23019 22.6268 3.53929 22.6697 3.96379C22.7137 4.38829 22.4071 4.76849 21.9862 4.81176L17.4342 5.28675C16.5882 5.37536 15.8454 5.88126 15.449 6.6396L12.5921 12.1025C12.4522 12.3693 12.4123 12.6784 12.4787 12.9731L13.1306 15.4171C13.241 15.8292 12.9988 16.2537 12.5901 16.364C12.5237 16.3825 12.4562 16.3908 12.3909 16.3908H12.3929Z" fill="white"/>
<path d="M12.2539 21.7867C12.164 21.7867 12.0731 21.7702 11.9842 21.7372L9.95702 20.9686C8.37227 20.3679 7.43226 18.7101 7.72141 17.0275L9.07729 9.14537C9.36133 7.49167 10.5966 6.19241 12.2233 5.83488L14.7368 5.28261C15.1516 5.19194 15.5583 5.45571 15.6492 5.873C15.7391 6.29029 15.4776 6.7014 15.0638 6.7931L12.5502 7.34536C11.5356 7.56792 10.7663 8.3788 10.5885 9.41017L9.23259 17.2923C9.06911 18.2443 9.60043 19.182 10.4975 19.523L12.5247 20.2916C12.9211 20.4421 13.1214 20.8872 12.9722 21.287C12.8568 21.5971 12.5645 21.7877 12.255 21.7877L12.2539 21.7867Z" fill="white"/>
<path d="M16.8161 27.0342C15.6298 27.0342 14.5263 26.2676 14.1472 25.0693L12.633 20.2865C12.4051 19.5683 12.4685 18.8028 12.8118 18.133C13.1551 17.4623 13.7355 16.9677 14.4487 16.738L15.3182 16.4577C15.7218 16.3279 16.1529 16.5525 16.2817 16.9585C16.4104 17.3654 16.1877 17.8002 15.7851 17.929L14.9156 18.2093C14.5927 18.3134 14.3301 18.5369 14.1748 18.8409C14.0195 19.1438 13.9909 19.49 14.0941 19.8156L15.6083 24.5985C15.8209 25.2692 16.5361 25.6412 17.2013 25.4269L23.6108 23.3631C24.0143 23.2333 24.4455 23.4579 24.5743 23.8638C24.703 24.2708 24.4803 24.7056 24.0777 24.8354L17.6682 26.8992C17.3862 26.9899 17.1001 27.0332 16.8181 27.0332L16.8161 27.0342Z" fill="#EB008B"/>
<path d="M32.4214 22.1112C32.0964 22.1112 31.7961 21.902 31.6918 21.5734C31.5631 21.1664 31.7858 20.7316 32.1884 20.6017L34.5231 19.8496C34.846 19.7455 35.1086 19.5219 35.2639 19.218C35.4192 18.9151 35.4478 18.5689 35.3446 18.2433L33.8304 13.4604C33.7272 13.1348 33.5055 12.87 33.204 12.7134C32.9036 12.5568 32.5603 12.528 32.2375 12.632L28.742 13.7572C28.3394 13.887 27.9072 13.6624 27.7785 13.2564C27.6498 12.8494 27.8725 12.4146 28.2751 12.2848L31.7705 11.1597C33.2408 10.6857 34.8194 11.5079 35.2894 12.9906L36.8037 17.7734C37.2737 19.2561 36.4583 20.848 34.988 21.322L32.6533 22.0731C32.5757 22.0978 32.497 22.1102 32.4203 22.1102L32.4214 22.1112Z" fill="#EB008B"/>
<path d="M42.033 22.1885C41.5927 22.1885 41.1554 22.0824 40.7528 21.8732C40.0886 21.527 39.5972 20.9418 39.3693 20.2226L35.973 9.49777C35.7452 8.77962 35.8095 8.01408 36.1518 7.34435C36.4951 6.67463 37.0755 6.17903 37.7887 5.94927L49.499 2.19366C49.9026 2.06487 50.3338 2.28948 50.4615 2.69647C50.5892 3.10346 50.3665 3.53723 49.9629 3.66705L38.2536 7.42163C37.5884 7.63594 37.2206 8.35615 37.4331 9.02794L40.8294 19.7528C41.0419 20.4235 41.7561 20.7955 42.4223 20.5812L50.0017 18.1403C50.4043 18.0105 50.8365 18.2351 50.9652 18.6411C51.094 19.048 50.8712 19.4828 50.4687 19.6127L42.8893 22.0536C42.6083 22.1442 42.3212 22.1885 42.0341 22.1885H42.033Z" fill="#EB008B"/>
<path d="M5.1384 28.1377C5.09549 28.1377 5.05155 28.1336 5.00864 28.1264L0.907306 27.4175C0.625301 27.3691 0.393362 27.1661 0.306513 26.891C0.219664 26.6159 0.291187 26.3151 0.493495 26.1111L3.42798 23.1354C3.51483 23.0478 3.62109 22.9819 3.7386 22.9438L13.3033 19.8641C13.7058 19.7343 14.138 19.9589 14.2668 20.3648C14.3955 20.7718 14.1728 21.2066 13.7702 21.3364L4.38435 24.3584L2.62182 26.1451L5.08425 26.5706L14.4701 23.5486C14.8727 23.4188 15.3049 23.6434 15.4336 24.0493C15.5624 24.4563 15.3396 24.8911 14.9371 25.021L5.37239 28.1007C5.29678 28.1254 5.2181 28.1377 5.13943 28.1377H5.1384Z" fill="#EB008B"/>
<path d="M35.317 16.3908C34.9921 16.3908 34.6917 16.1816 34.5875 15.8529C34.4588 15.4459 34.6815 15.0111 35.0841 14.8813L38.0114 13.9385C38.414 13.8087 38.8462 14.0333 38.9749 14.4393C39.1037 14.8463 38.8809 15.2811 38.4783 15.4109L35.551 16.3537C35.4734 16.3784 35.3947 16.3908 35.318 16.3908H35.317Z" fill="#EB008B"/>
<path d="M45.6807 50.9999C45.4314 50.9999 45.1872 50.8773 45.0401 50.6517L39.2416 41.767C39.0086 41.4105 39.1067 40.9314 39.4603 40.6965C39.8138 40.4616 40.2889 40.5605 40.5219 40.917L46.3203 49.8016C46.5533 50.1581 46.4552 50.6373 46.1017 50.8722C45.9719 50.9577 45.8258 50.9999 45.6807 50.9999Z" fill="white"/>
<path d="M22.4644 38.7255C22.1405 38.7255 21.8401 38.5174 21.7348 38.1897C20.3085 33.7211 21.7399 30.7166 23.1929 28.9836C24.2432 27.7297 25.4438 26.959 26.1376 26.5798L24.1738 16.9244C23.9541 15.8436 24.2065 14.7185 24.8655 13.8375C25.5245 12.9566 26.5289 12.4043 27.6201 12.3219C29.446 12.1828 31.1156 13.378 31.5866 15.1636L34.4097 25.8462C34.5191 26.2583 34.2759 26.6818 33.8662 26.7921C33.4574 26.9023 33.0375 26.6571 32.9282 26.2439L30.1051 15.5613C29.8231 14.4949 28.8279 13.7809 27.7346 13.8633C27.0827 13.9127 26.4829 14.2435 26.0885 14.769C25.6941 15.2955 25.5439 15.9673 25.6747 16.6133L27.7571 26.8539C27.8306 27.2176 27.6385 27.5823 27.2983 27.7235C27.0377 27.8337 20.8949 30.5147 23.1929 37.7158C23.3226 38.1217 23.1009 38.5576 22.6983 38.6884C22.6207 38.7142 22.541 38.7255 22.4633 38.7255H22.4644Z" fill="white"/>
<path d="M26.1754 51C25.9128 51 25.6573 50.864 25.5143 50.6198L23.7814 47.6565C23.5668 47.2887 23.6874 46.8147 24.0522 46.5983C24.4169 46.382 24.8869 46.5035 25.1015 46.8714L26.8344 49.8346C27.049 50.2025 26.9284 50.6764 26.5636 50.8928C26.441 50.966 26.3072 51 26.1754 51Z" fill="white"/>
<path d="M9.63516 50.3179C9.61984 50.3179 9.60451 50.3179 9.58918 50.3169C9.1672 50.2911 8.84432 49.9253 8.86987 49.4998C9.13144 45.0374 8.24353 40.6636 6.30015 36.8513C4.76955 33.8489 2.59525 31.2349 0.335126 29.6801C-0.0143147 29.44 -0.104229 28.9588 0.13384 28.6065C0.37191 28.2541 0.84907 28.1634 1.19851 28.4035C3.66299 30.0984 6.01916 32.9205 7.66215 36.1455C9.73121 40.204 10.6774 44.854 10.3984 49.5925C10.3739 50.0026 10.0367 50.3199 9.63414 50.3199L9.63516 50.3179Z" fill="white"/>
</g>
<defs>
<clipPath id="clip0_6_74">
<rect width="51" height="51" fill="white"/>
</clipPath>
</defs>
</svg>
