<svg width="1219" height="670" viewBox="0 0 1219 670" fill="none" xmlns="http://www.w3.org/2000/svg">
<g opacity="0.5" clip-path="url(#clip0_23_49)">
<path d="M917.826 2.53651C924.459 -0.133505 931.109 -1.41511 938.27 2.30956C929.019 9.3584 927.389 9.37175 917.826 2.53651ZM917.661 2.42971L917.381 2.72341C917.53 2.65666 917.678 2.60326 917.826 2.54986C917.776 2.50981 917.727 2.48311 917.661 2.44306V2.42971ZM1098.76 15.8198C1091.94 14.2979 1087.22 13.2433 1079.38 11.4944C1085.36 17.7155 1091.82 19.1573 1098.76 15.8198ZM936.195 14.3513C935.833 13.1498 935.471 11.935 935.109 10.7335C931.735 11.5078 928.36 12.2821 922.369 13.6571C929.513 18.877 933.035 18.3163 936.195 14.3513ZM1128.73 18.2095H1142.48C1137.24 12.1486 1134.08 11.8816 1128.73 18.2095ZM903.538 0.961201H894.814C894.748 1.88236 894.666 2.80351 894.6 3.73802C897.316 4.13852 900.032 4.53902 902.748 4.93952C903.012 3.61787 903.275 2.28286 903.538 0.961201ZM1115.79 13.9375C1111.84 13.31 1109.84 12.5224 1108.04 12.8294C1106.43 13.0964 1105.05 14.5516 1102.79 15.9533C1107.76 20.5458 1111.05 20.7861 1115.79 13.9375ZM983.255 337.089C982.663 342.149 982.07 347.209 981.461 352.268C1002.56 353.67 1023.65 355.339 1044.7 357.328C1081.61 360.826 1118.28 366.139 1154.99 370.918C1165.65 372.307 1167.08 372.814 1166.44 379.436C1173.88 381.505 1177.29 386.057 1175.54 393.747C1171.96 409.54 1168.3 425.307 1164.6 441.086C1170 442.355 1176.05 441.847 1181.98 442.088C1190.24 442.421 1198.46 443.383 1207.94 444.17C1203.92 473.687 1195.82 500.828 1187.56 528.382C1172.83 529.237 1158.34 520.893 1144.5 529.637C1137.59 520.573 1125.79 522.842 1115.74 522.228C1107.22 521.694 1098.12 518.103 1090.49 520.8C1090.02 523.536 1089.56 526.273 1089.06 529.01C1099 530.826 1108.91 532.895 1118.94 534.337C1126.08 535.365 1133.62 534.51 1143.04 534.51C1143.84 537.407 1145.85 541.305 1145.82 545.204C1145.78 550.544 1144.35 555.897 1143.28 561.21C1140.63 574.4 1140.53 574.494 1123.84 575.241C1115.73 575.602 1107.61 575.735 1099.48 575.975C1099.35 576.95 1099.23 577.925 1099.1 578.899C1105.64 579.927 1112.16 580.995 1118.71 581.956C1128.42 583.385 1138.18 584.573 1147.84 586.175C1152.88 587.003 1156.62 589.299 1155.53 594.225C1149.95 619.203 1145.93 644.488 1134.11 668.264C1133.95 668.598 1133.52 668.839 1132.25 670.027C1129.51 669.786 1125.85 669.76 1122.38 669.106C1043.76 654.567 964.343 644.341 884.197 637.346C747.659 625.424 610.792 622.314 473.711 626.732C408.347 628.842 343.131 633.634 277.817 636.892C249.159 638.32 220.453 639.148 191.762 639.882C181.228 640.149 171.22 638.08 162.825 632.246C158.71 629.389 154.397 626.679 158.052 621.699C161.623 616.853 161.541 609.511 172.685 610.165C190.001 611.193 207.432 611.567 224.798 611.286C234.559 611.126 244.32 609.337 253.999 607.869C265.126 606.187 276.121 603.984 287.479 606.841C289.586 607.375 292.927 607.762 294.195 606.841C301.98 601.114 311.182 603.957 319.856 603.316C333.436 602.302 346.966 600.9 360.48 599.418C375.41 597.789 390.24 595.52 405.203 594.265C412.561 593.651 420.264 594.118 427.589 595.146C434.354 596.094 440.51 597.309 445.794 592.436C446.633 591.662 448.707 590.767 449.465 591.088C462.88 596.922 474.879 588.965 487.587 588.204C536.852 585.267 585.97 580.701 635.153 576.736C637.951 576.509 641.457 577.017 643.433 575.829C651.729 570.849 660.848 571.53 669.95 571.824C669.802 571.81 669.654 571.797 669.506 571.784C657.029 570.609 644.552 569.487 632.059 568.366C629.392 568.62 626.726 568.9 624.075 569.22C592.291 573.065 560.489 571.063 529.05 574.974C521.742 575.882 516.376 574.106 512.112 569.033C522.104 568.433 531.931 567.832 543.041 567.151C530.597 561.945 461.826 561.878 418.157 566.377C416.248 568.86 415.046 572.384 412.972 572.771C408.067 573.679 402.487 573.946 397.681 572.905C390.191 571.29 382.899 568.74 375.936 565.923C370.208 563.613 369.879 557.192 375.69 554.869C379.92 553.174 384.479 551.545 389.105 550.53C370.093 549.863 351.098 549.182 332.086 548.434C319.527 547.94 313.536 546.151 310.326 540.277C301.75 541.372 293.075 543.201 284.483 544.109C265.093 546.151 245.67 548.007 226.263 549.916C221.16 550.423 215.86 550.17 210.955 551.398C201.935 553.667 197.49 549.796 196.042 542.747C176.438 542.867 156.883 541.626 137.526 537.968C131.238 536.78 125.147 534.924 118.037 533.135C118.333 529.29 118.547 525.499 118.761 521.761C108.407 522.081 98.0538 522.375 87.7003 522.629C63.5859 523.229 39.4552 523.937 15.3408 524.484C11.2258 524.578 7.11068 524.124 3.22605 523.924C-0.444592 511.094 -0.526894 487.144 4.6581 476.544C8.04892 469.629 7.25882 463.968 4.85562 457.253C-0.29645 442.822 -0.8561 427.91 1.06975 412.824C2.02445 405.428 5.82678 401.463 14.024 401.063C17.6288 400.889 21.2172 400.676 24.822 400.475C22.0896 381.318 19.6863 362.107 16.74 342.99C15.7523 336.595 17.0362 332.964 22.8796 331.669C28.2951 330.468 29.4638 326.236 28.6078 320.909C28.2457 318.613 27.8671 316.317 27.4885 314.007C25.217 306.478 23.4393 295.691 22.3035 283.756C20.5423 274.531 18.5506 265.359 16.921 256.121C16.1968 252.049 16.2791 247.804 15.9663 243.318C18.2872 242.758 19.7028 242.224 21.0855 242.077C21.4476 233.012 22.2706 224.695 23.6204 218.127C37.875 216.511 52.7222 214.829 69.8079 212.894C69.5281 209.556 69.2648 206.232 68.9849 202.921C57.9236 203.842 46.8787 204.763 35.8339 205.685C33.3978 205.885 30.8958 205.538 27.2581 205.391C16.493 175.527 14.6495 144.595 6.17245 113.195C12.7895 111.727 18.4024 109.991 24.1965 109.27C69.3964 103.637 114.498 97.2953 159.879 92.9165C168.981 92.0354 178.084 91.1943 187.186 90.3666C209.358 85.8677 231.81 82.4901 254.558 80.314C255.497 80.2206 256.418 80.1138 257.357 80.0203C259.727 78.0445 263.134 76.8697 267.15 76.349C275.924 75.2143 284.681 73.906 293.438 72.611C285.454 72.4508 277.504 72.5443 269.619 73.6924C232.205 79.1659 194.593 83.6515 157.015 88.3107C142.316 90.1397 127.468 91.1676 112.736 92.8364C103.058 93.9311 96.5559 90.4734 93.2309 83.4913C90.1364 76.9899 88.2929 70.0745 85.33 61.7307C96.3749 59.9685 105.23 58.3799 114.152 57.1516C262.081 36.9129 411.277 29.4903 560.983 29.3969C688.929 29.3168 816.908 29.6372 944.788 32.4807C1020.21 34.1628 1095.45 41.0648 1170.75 45.6973C1174.74 45.9376 1178.67 46.7786 1182.89 47.3927C1187.07 58.3532 1178.89 67.4579 1179.17 78.6186C1143.22 78.1914 1107.99 84.7863 1073.29 74.4133C1066.22 72.304 1058.23 71.7433 1050.63 71.5831C1046.08 71.4896 1041.49 73.5455 1036.98 74.6269C1032.39 73.6924 1027.4 71.8367 1022.38 71.7967C1009.54 71.7032 996.671 73.1317 983.881 72.6244C972.77 72.1838 961.775 69.9143 950.713 68.4992C946.17 67.9252 941.611 67.0307 937.068 67.0708C921.151 67.2043 905.234 67.8184 889.317 67.9652C876 68.0854 862.667 67.805 849.351 67.7516C846.503 67.7516 843.672 67.9519 840.034 70.4483C842.717 71.4229 845.384 73.1717 848.083 73.2251C861.943 73.4654 875.819 73.2251 889.695 73.2785C892.444 73.2785 895.193 73.7858 898.37 74.1062C897.432 75.6148 896.987 76.8163 896.658 76.8029C870.7 75.1876 845.631 81.075 820.085 83.1442C837.598 85.2535 855.063 87.5097 872.511 89.9127C881.975 90.153 891.44 90.3933 900.905 90.647C906.09 90.7805 911.275 90.6603 916.213 90.6603C917.398 92.6895 918.83 93.9711 918.731 95.146C918.682 95.6666 918.649 96.1739 918.599 96.6946C919.011 96.7613 919.422 96.8147 919.834 96.8815C935.356 99.3245 950.812 102.008 966.252 104.811C1048.29 108.429 1130.38 113.529 1212.51 122.233C1210.19 151.55 1202.67 178.944 1198.37 207.287H1186.19C1182.26 214.015 1177.85 218.18 1172.12 220.343C1176.29 225.549 1175.56 227.325 1170.64 238.9C1174.8 239.113 1178.66 239.434 1182.49 239.474C1190.19 239.554 1197.93 239.1 1205.6 239.567C1217.91 240.328 1220.28 241.983 1218.62 252.276C1214.49 277.828 1209.3 303.26 1204.45 328.732C1204.23 329.907 1203.17 330.962 1201.8 333.244C1196.24 332.724 1190.31 332.07 1184.37 331.616C1169.21 330.468 1154.05 329.293 1138.9 328.105C1137.47 333.672 1136.06 339.239 1134.61 344.806C1133.19 350.266 1128.9 352.135 1122.51 351.441C1113.04 350.413 1103.58 349.358 1094.13 348.303C1090.89 352.856 1085.61 353.31 1076.27 350.92C1065.54 348.17 1054.79 345.513 1044.04 342.857C1032.9 341.695 1021.74 340.574 1010.58 339.546C1001.51 338.718 992.44 337.89 983.354 337.089H983.255ZM361.04 612.915C337.897 613.115 314.803 613.689 289.783 617.961C309.783 620.845 350.917 618.042 361.04 612.915ZM448.395 613.022C447.917 611.82 447.753 610.752 447.456 610.726C443.424 610.405 439.078 609.15 433.86 613.583C440.197 613.342 444.197 613.182 448.395 613.022ZM870.585 549.369C866.964 549.008 863.128 549.956 859.425 550.477C858.091 550.664 856.742 550.917 855.392 551.184C874.206 552.052 893.02 552.92 911.834 553.788C898.09 552.292 884.346 550.717 870.568 549.369H870.585ZM801.139 548.795C794.324 547.927 787.51 547.046 780.695 546.191C775.016 545.484 769.321 544.79 763.725 543.775C757.305 542.614 752.383 544.269 747.873 546.939C765.634 547.473 783.378 548.087 801.139 548.795ZM739.692 566.03C739.166 566.003 738.655 565.963 738.129 565.963C735.791 566.003 733.471 566.043 731.133 566.07C730.886 567.151 730.656 568.219 730.409 569.3C732.401 569.581 734.392 569.861 736.367 570.141C737.882 570.088 739.413 570.048 740.927 569.995C743.445 569.914 745.931 569.287 748.4 567.191C745.487 566.804 742.573 566.417 739.676 566.03H739.692ZM713.208 566.136C713.372 566.15 713.521 566.176 713.685 566.19C713.685 566.176 713.685 566.15 713.685 566.136C713.521 566.136 713.372 566.136 713.208 566.136ZM938.994 580.301C939.01 581.235 939.027 582.156 939.043 583.091H954.384C954.384 582.357 954.384 581.636 954.401 580.902C949.265 580.701 944.113 580.501 938.977 580.301H938.994ZM802.423 72.9448C809.599 74.3777 815.317 73.5233 819.574 70.3816C812.743 71.4095 807.575 72.1705 802.423 72.9448ZM670.79 560.636C670.806 559.755 670.823 558.887 670.839 558.006C667.415 557.859 664.008 557.699 660.584 557.552C660.469 558.34 660.354 559.128 660.255 559.915C661.407 560.049 662.56 560.182 663.728 560.329C666.082 560.436 668.436 560.543 670.79 560.636ZM563.584 609.791C561.757 609.311 559.946 608.83 558.119 608.363C557.889 609.057 557.395 610.312 557.477 610.339C559.238 610.886 561.065 611.286 562.876 611.727C563.106 611.086 563.353 610.445 563.584 609.791ZM761.42 612.541C757.321 611.433 753.025 610.806 749.124 611.567C738.738 613.583 729.931 609.057 720.434 607.989C710.739 606.894 700.583 611.794 690.295 608.536C688.155 607.855 685.456 606.921 683.546 607.442C664.107 612.608 644.371 609.417 624.75 609.124C620.306 609.057 615.862 609.124 611.417 609.124C661.44 613.823 711.43 613.756 761.437 612.555L761.42 612.541ZM839.705 615.131H821.994C830.767 619.443 830.784 619.39 839.705 615.131ZM867.49 617.694C863.227 617.094 860.511 616.693 857.779 616.306C860.017 620.872 862.865 621.646 867.49 617.694ZM896.493 602.716C895.045 602.395 893.58 602.061 892.115 601.781C882.7 599.979 872.922 599.605 863.342 598.404C835.113 594.892 806.834 591.582 778.703 587.55C771.576 586.522 764.696 584.212 757.782 582.116C746.26 582.477 734.721 582.917 723.216 583.545C657.029 587.096 591.056 593.411 525.001 598.564C524.194 598.63 523.47 599.285 522.268 599.885C522.943 602.489 523.651 605.225 524.82 609.738H496.162C496.228 610.592 496.294 611.46 496.36 612.314C512.277 614.53 527.997 612.434 545.412 610.539C542.498 607.068 540.523 604.718 537.083 600.606C542.564 600.379 545.692 600.139 548.819 600.139C592.126 600.179 635.449 599.538 678.707 600.727C692.912 601.114 707.019 605.025 721.586 602.716C723.216 602.462 725.125 603.677 726.952 603.917C732.006 604.585 737.125 605.679 742.178 605.559C752.992 605.306 763.774 603.997 774.572 603.85C793.765 603.597 812.99 603.664 832.183 604.024C845.746 604.291 859.293 605.199 872.823 605.973C878.98 606.32 885.103 607.028 891.72 607.615C891.868 607.028 892.395 605.025 893.086 602.395C894.222 602.502 895.358 602.595 896.493 602.702V602.716ZM945.479 607.068C941.331 604.384 939.339 603.103 934.763 600.139C963.536 602.756 988.967 608.122 1015.25 606.347C1012.13 604.638 1008.85 603.156 1005.41 602.809C990.58 601.287 975.601 600.633 960.886 598.604C950.351 597.149 939.208 595.4 930.187 591.141C924.196 588.311 918.78 586.562 912.262 586.001C881.58 583.318 850.832 581.89 820.085 581.489C821.517 582.116 823.327 582.851 825.237 583.211C856.231 589.139 887.275 594.919 918.32 600.713C922.27 601.447 925.974 602.302 926.846 605.412C932.871 605.946 939.043 606.494 945.496 607.068H945.479ZM1033.29 617.054C1021.71 611.58 1008.7 613.262 995.897 613.916C1008.19 615.785 1020.49 617.654 1032.78 619.537C1032.95 618.709 1033.13 617.881 1033.29 617.054ZM1004.87 561.103C989.346 560.489 973.824 559.421 958.335 558.166C958.779 558.474 959.223 558.807 959.668 559.194C962.104 561.384 967.24 561.904 971.305 562.452C1004.95 567.031 1038.83 566.777 1072.73 565.148C1073.49 565.108 1074.2 564.388 1076.27 563.239C1075.19 562.799 1074.25 562.332 1073.34 561.891C1050.53 562.051 1027.68 562.011 1004.88 561.103H1004.87ZM922.616 72.838C918.369 73.0115 914.106 73.1984 909.859 73.372C909.974 74.4133 910.073 75.4679 910.188 76.5093C914.748 77.4037 919.439 78.8188 922.616 72.838Z" fill="#363436"/>
</g>
<defs>
<clipPath id="clip0_23_49">
<rect width="1219" height="670" fill="white"/>
</clipPath>
</defs>
</svg>
