<?xml version="1.0" encoding="UTF-8"?>
<svg id="Layer_1" data-name="Layer 1" xmlns="http://www.w3.org/2000/svg" version="1.1" viewBox="0 0 1404 236">
  <defs>
    <style>
      .cls-1 {
        fill: #000;
        stroke-width: 0px;
      }
    </style>
  </defs>
  <g>
    <path class="cls-1" d="M674.3,14.5c-1.5,0-2.9-.9-3.5-2.4-7.8-19.4-26.3-32-47.2-32s-39.4,12.5-47.2,32c-.8,1.9-3,2.9-4.9,2.1-1.9-.8-2.9-3-2.1-4.9,8.9-22.3,30.2-36.7,54.2-36.7s45.3,14.4,54.2,36.7c.8,1.9-.2,4.2-2.1,4.9-.5.2-.9.3-1.4.3h0Z"/>
    <path class="cls-1" d="M656.4,18.9c-1.4,0-2.8-.8-3.4-2.1-5.5-11.3-16.8-18.4-29.4-18.4s-23.9,7.2-29.4,18.4c-.9,1.9-3.2,2.7-5.1,1.8-1.9-.9-2.7-3.2-1.8-5.1,6.7-13.8,20.9-22.7,36.2-22.7s29.5,8.9,36.2,22.7c.9,1.9.1,4.2-1.8,5.1-.5.3-1.1.4-1.7.4h0Z"/>
    <path class="cls-1" d="M640.9,29.1c-1.6,0-3.1-1-3.6-2.6-1.9-5.9-7.4-9.9-13.7-9.9s-11.8,4-13.7,9.9c-.6,2-2.8,3.1-4.8,2.4-2-.6-3.1-2.8-2.4-4.8,3-9.1,11.4-15.2,20.9-15.2s17.9,6.1,20.9,15.2c.6,2-.4,4.1-2.4,4.8-.4.1-.8.2-1.2.2Z"/>
    <path class="cls-1" d="M783.5,14.5c-1.5,0-2.9-.9-3.5-2.4-7.8-19.4-26.3-32-47.2-32s-39.4,12.5-47.2,32c-.8,1.9-3,2.9-4.9,2.1-1.9-.8-2.9-3-2.1-4.9,8.9-22.3,30.2-36.7,54.2-36.7s45.3,14.4,54.2,36.7c.8,1.9-.2,4.2-2.1,4.9-.5.2-.9.3-1.4.3Z"/>
    <path class="cls-1" d="M765.6,18.9c-1.4,0-2.8-.8-3.4-2.1-5.5-11.3-16.8-18.4-29.4-18.4s-23.9,7.1-29.4,18.4c-.9,1.9-3.2,2.7-5.1,1.8-1.9-.9-2.7-3.2-1.8-5.1,6.7-13.8,20.9-22.7,36.2-22.7s29.5,8.9,36.2,22.7c.9,1.9.1,4.2-1.8,5.1-.5.3-1.1.4-1.7.4h0Z"/>
    <path class="cls-1" d="M750.1,29.1c-1.6,0-3.1-1-3.6-2.6-1.9-5.9-7.4-9.9-13.7-9.9s-11.8,4-13.7,9.9c-.7,2-2.8,3.1-4.8,2.4-2-.6-3.1-2.8-2.4-4.8,3-9.1,11.4-15.2,20.9-15.2s17.9,6.1,20.9,15.2c.6,2-.4,4.1-2.4,4.8-.4.1-.8.2-1.2.2h0Z"/>
    <path class="cls-1" d="M728.9,48.6c-1.5,0-2.9-.9-3.5-2.4-7.8-19.4-26.3-32-47.2-32s-39.4,12.5-47.2,32c-.8,1.9-3,2.9-4.9,2.1-1.9-.8-2.9-3-2.1-4.9,8.9-22.3,30.2-36.7,54.2-36.7s45.3,14.4,54.2,36.7c.8,1.9-.2,4.2-2.1,4.9-.5.2-.9.3-1.4.3h0Z"/>
    <path class="cls-1" d="M711,53.1c-1.4,0-2.8-.8-3.4-2.1-5.5-11.3-16.8-18.4-29.4-18.4s-23.9,7.1-29.4,18.4c-.9,1.9-3.2,2.7-5.1,1.8-1.9-.9-2.7-3.2-1.8-5.1,6.7-13.8,20.9-22.7,36.2-22.7s29.5,8.9,36.2,22.7c.9,1.9.1,4.2-1.8,5.1-.5.3-1.1.4-1.7.4Z"/>
    <path class="cls-1" d="M695.5,63.3c-1.6,0-3.1-1-3.6-2.6-1.9-5.9-7.4-9.9-13.7-9.9s-11.8,4-13.7,9.9c-.6,2-2.8,3.1-4.8,2.4-2-.6-3.1-2.8-2.4-4.8,3-9.1,11.4-15.2,20.9-15.2s17.9,6.1,20.9,15.2c.7,2-.4,4.1-2.4,4.8-.4.1-.8.2-1.2.2Z"/>
    <path class="cls-1" d="M619.7,48.6c-1.5,0-2.9-.9-3.5-2.4-7.8-19.4-26.3-32-47.2-32s-39.4,12.5-47.2,32c-.8,1.9-3,2.9-4.9,2.1-1.9-.8-2.9-3-2.1-4.9,8.9-22.3,30.2-36.7,54.2-36.7s45.3,14.4,54.2,36.7c.8,1.9-.2,4.2-2.1,4.9-.5.2-.9.3-1.4.3h0Z"/>
    <path class="cls-1" d="M601.7,53.1c-1.4,0-2.8-.8-3.4-2.1-5.5-11.3-16.8-18.4-29.4-18.4s-23.9,7.2-29.4,18.4c-.9,1.9-3.2,2.7-5.1,1.8-1.9-.9-2.7-3.2-1.8-5.1,6.7-13.8,20.9-22.7,36.2-22.7s29.5,8.9,36.2,22.7c.9,1.9.1,4.2-1.8,5.1-.5.3-1.1.4-1.7.4Z"/>
    <path class="cls-1" d="M586.3,63.3c-1.6,0-3.1-1-3.6-2.6-1.9-5.9-7.4-9.9-13.7-9.9s-11.8,4-13.7,9.9c-.7,2-2.8,3.1-4.8,2.4-2-.6-3.1-2.8-2.4-4.8,3-9.1,11.4-15.2,20.9-15.2s17.9,6.1,20.9,15.2c.6,2-.4,4.1-2.4,4.8-.4.1-.8.2-1.2.2Z"/>
    <path class="cls-1" d="M455.8,14.5c-1.5,0-2.9-.9-3.5-2.4-7.8-19.4-26.3-32-47.2-32s-39.4,12.5-47.2,32c-.8,1.9-3,2.9-4.9,2.1-1.9-.8-2.9-3-2.1-4.9,8.9-22.3,30.2-36.7,54.2-36.7s45.3,14.4,54.2,36.7c.8,1.9-.2,4.2-2.1,4.9-.5.2-.9.3-1.4.3h0Z"/>
    <path class="cls-1" d="M437.9,18.9c-1.4,0-2.8-.8-3.4-2.1-5.5-11.3-16.8-18.4-29.4-18.4s-23.9,7.1-29.4,18.4c-.9,1.9-3.2,2.7-5.1,1.8-1.9-.9-2.7-3.2-1.8-5.1,6.7-13.8,20.9-22.7,36.2-22.7s29.5,8.9,36.2,22.7c.9,1.9.1,4.2-1.8,5.1-.5.3-1.1.4-1.7.4h0Z"/>
    <path class="cls-1" d="M422.4,29.1c-1.6,0-3.1-1-3.6-2.6-1.9-5.9-7.4-9.9-13.7-9.9s-11.8,4-13.7,9.9c-.6,2-2.8,3.1-4.8,2.4-2-.6-3.1-2.8-2.4-4.8,3-9.1,11.4-15.2,20.9-15.2s17.9,6.1,20.9,15.2c.6,2-.4,4.1-2.4,4.8-.4.1-.8.2-1.2.2Z"/>
    <path class="cls-1" d="M565.1,14.5c-1.5,0-2.9-.9-3.5-2.4-7.8-19.4-26.3-32-47.2-32s-39.4,12.5-47.2,32c-.8,1.9-3,2.9-4.9,2.1-1.9-.8-2.9-3-2.1-4.9,8.9-22.3,30.2-36.7,54.2-36.7s45.3,14.4,54.2,36.7c.8,1.9-.2,4.2-2.1,4.9-.5.2-.9.3-1.4.3h0Z"/>
    <path class="cls-1" d="M547.1,18.9c-1.4,0-2.8-.8-3.4-2.1-5.5-11.3-16.8-18.4-29.4-18.4s-23.9,7.2-29.4,18.4c-.9,1.9-3.2,2.7-5.1,1.8-1.9-.9-2.7-3.2-1.8-5.1,6.7-13.8,20.9-22.7,36.2-22.7s29.5,8.9,36.2,22.7c.9,1.9.1,4.2-1.8,5.1-.5.3-1.1.4-1.7.4h0Z"/>
    <path class="cls-1" d="M531.6,29.1c-1.6,0-3.1-1-3.6-2.6-1.9-5.9-7.4-9.9-13.7-9.9s-11.8,4-13.7,9.9c-.6,2-2.8,3.1-4.8,2.4-2-.6-3.1-2.8-2.4-4.8,3-9.1,11.4-15.2,20.9-15.2s17.9,6.1,20.9,15.2c.6,2-.4,4.1-2.4,4.8-.4.1-.8.2-1.2.2Z"/>
    <path class="cls-1" d="M510.5,48.6c-1.5,0-2.9-.9-3.5-2.4-7.8-19.4-26.3-32-47.2-32s-39.4,12.5-47.2,32c-.8,1.9-3,2.9-4.9,2.1-1.9-.8-2.9-3-2.1-4.9,8.9-22.3,30.2-36.7,54.2-36.7s45.3,14.4,54.2,36.7c.8,1.9-.2,4.2-2.1,4.9-.5.2-.9.3-1.4.3h0Z"/>
    <path class="cls-1" d="M492.5,53.1c-1.4,0-2.8-.8-3.4-2.1-5.5-11.4-16.8-18.4-29.4-18.4s-23.9,7.1-29.4,18.4c-.9,1.9-3.2,2.7-5.1,1.8-1.9-.9-2.7-3.2-1.8-5.1,6.7-13.8,20.9-22.7,36.2-22.7s29.5,8.9,36.2,22.7c.9,1.9.1,4.2-1.8,5.1-.5.3-1.1.4-1.7.4h0Z"/>
    <path class="cls-1" d="M477,63.3c-1.6,0-3.1-1-3.6-2.6-1.9-5.9-7.4-9.9-13.7-9.9s-11.8,4-13.7,9.9c-.6,2-2.8,3.1-4.8,2.4-2-.6-3.1-2.8-2.4-4.8,3-9.1,11.4-15.2,20.9-15.2s17.9,6.1,20.9,15.2c.7,2-.4,4.1-2.4,4.8-.4.1-.8.2-1.2.2Z"/>
    <path class="cls-1" d="M674.3,83c-1.5,0-2.9-.9-3.5-2.4-7.8-19.4-26.3-32-47.2-32s-39.4,12.5-47.2,32c-.8,1.9-3,2.9-4.9,2.1-1.9-.8-2.9-3-2.1-4.9,8.9-22.3,30.2-36.7,54.2-36.7s45.3,14.4,54.2,36.7c.8,1.9-.2,4.2-2.1,4.9-.5.2-.9.3-1.4.3h0Z"/>
    <path class="cls-1" d="M656.4,87.4c-1.4,0-2.8-.8-3.4-2.1-5.5-11.3-16.8-18.4-29.4-18.4s-23.9,7.2-29.4,18.4c-.9,1.9-3.2,2.7-5.1,1.8s-2.7-3.2-1.8-5.1c6.7-13.8,20.9-22.7,36.2-22.7s29.5,8.9,36.2,22.7c.9,1.9.1,4.2-1.8,5.1-.5.3-1.1.4-1.7.4h0Z"/>
    <path class="cls-1" d="M640.9,97.6c-1.6,0-3.1-1-3.6-2.6-1.9-5.9-7.4-9.9-13.7-9.9s-11.8,4-13.7,9.9c-.6,2-2.8,3.1-4.8,2.4-2-.6-3.1-2.8-2.4-4.8,3-9.1,11.4-15.2,20.9-15.2s17.9,6.1,20.9,15.2c.6,2-.4,4.1-2.4,4.8-.4.1-.8.2-1.2.2Z"/>
    <path class="cls-1" d="M728.9,117.2c-1.5,0-2.9-.9-3.5-2.4-7.8-19.4-26.3-32-47.2-32s-39.4,12.5-47.2,32c-.8,1.9-3,2.9-4.9,2.1-1.9-.8-2.9-3-2.1-4.9,8.9-22.3,30.2-36.7,54.2-36.7s45.3,14.4,54.2,36.7c.8,1.9-.2,4.2-2.1,4.9-.5.2-.9.3-1.4.3h0Z"/>
    <path class="cls-1" d="M711,121.6c-1.4,0-2.8-.8-3.4-2.1-5.5-11.4-16.8-18.4-29.4-18.4s-23.9,7.1-29.4,18.4c-.9,1.9-3.2,2.7-5.1,1.8-1.9-.9-2.7-3.2-1.8-5.1,6.7-13.8,20.9-22.7,36.2-22.7s29.5,8.9,36.2,22.7c.9,1.9.1,4.2-1.8,5.1-.5.3-1.1.4-1.7.4h0Z"/>
    <path class="cls-1" d="M695.5,131.8c-1.6,0-3.1-1-3.6-2.6-1.9-5.9-7.4-9.9-13.7-9.9s-11.8,4-13.7,9.9c-.6,2-2.8,3.1-4.8,2.4-2-.6-3.1-2.8-2.4-4.8,3-9.1,11.4-15.2,20.9-15.2s17.9,6.1,20.9,15.2c.7,2-.4,4.1-2.4,4.8-.4.1-.8.2-1.2.2Z"/>
    <path class="cls-1" d="M619.7,117.2c-1.5,0-2.9-.9-3.5-2.4-7.8-19.4-26.3-32-47.2-32s-39.4,12.5-47.2,32c-.8,1.9-3,2.9-4.9,2.1-1.9-.8-2.9-3-2.1-4.9,8.9-22.3,30.2-36.7,54.2-36.7s45.3,14.4,54.2,36.7c.8,1.9-.2,4.2-2.1,4.9-.5.2-.9.3-1.4.3h0Z"/>
    <path class="cls-1" d="M601.7,121.6c-1.4,0-2.8-.8-3.4-2.1-5.5-11.4-16.8-18.4-29.4-18.4s-23.9,7.1-29.4,18.4c-.9,1.9-3.2,2.7-5.1,1.8-1.9-.9-2.7-3.2-1.8-5.1,6.7-13.8,20.9-22.7,36.2-22.7s29.5,8.9,36.2,22.7c.9,1.9.1,4.2-1.8,5.1-.5.3-1.1.4-1.7.4h0Z"/>
    <path class="cls-1" d="M586.3,131.8c-1.6,0-3.1-1-3.6-2.6-1.9-5.9-7.4-9.9-13.7-9.9s-11.8,4-13.7,9.9c-.7,2-2.8,3.1-4.8,2.4-2-.6-3.1-2.8-2.4-4.8,3-9.1,11.4-15.2,20.9-15.2s17.9,6.1,20.9,15.2c.6,2-.4,4.1-2.4,4.8-.4.1-.8.2-1.2.2Z"/>
    <path class="cls-1" d="M674.3,151.5c-1.5,0-2.9-.9-3.5-2.4-7.8-19.4-26.3-32-47.2-32s-39.4,12.5-47.2,32c-.8,1.9-3,2.9-4.9,2.1-1.9-.8-2.9-3-2.1-4.9,8.9-22.3,30.2-36.7,54.2-36.7s45.3,14.4,54.2,36.7c.8,1.9-.2,4.2-2.1,4.9-.5.2-.9.3-1.4.3h0Z"/>
    <path class="cls-1" d="M656.4,155.9c-1.4,0-2.8-.8-3.4-2.1-5.5-11.4-16.8-18.4-29.4-18.4s-23.9,7.1-29.4,18.4c-.9,1.9-3.2,2.7-5.1,1.8-1.9-.9-2.7-3.2-1.8-5.1,6.7-13.8,20.9-22.7,36.2-22.7s29.5,8.9,36.2,22.7c.9,1.9.1,4.2-1.8,5.1-.5.3-1.1.4-1.7.4h0Z"/>
    <path class="cls-1" d="M640.9,166.1c-1.6,0-3.1-1-3.6-2.6-1.9-5.9-7.4-9.9-13.7-9.9s-11.8,4-13.7,9.9c-.6,2-2.8,3.1-4.8,2.4-2-.7-3.1-2.8-2.4-4.8,3-9.1,11.4-15.2,20.9-15.2s17.9,6.1,20.9,15.2c.6,2-.4,4.1-2.4,4.8-.4.1-.8.2-1.2.2Z"/>
    <path class="cls-1" d="M783.5,83c-1.5,0-2.9-.9-3.5-2.4-7.8-19.4-26.3-32-47.2-32s-39.4,12.5-47.2,32c-.8,1.9-3,2.9-4.9,2.1-1.9-.8-2.9-3-2.1-4.9,8.9-22.3,30.2-36.7,54.2-36.7s45.3,14.4,54.2,36.7c.8,1.9-.2,4.2-2.1,4.9-.5.2-.9.3-1.4.3Z"/>
    <path class="cls-1" d="M765.6,87.4c-1.4,0-2.8-.8-3.4-2.1-5.5-11.3-16.8-18.4-29.4-18.4s-23.9,7.1-29.4,18.4c-.9,1.9-3.2,2.7-5.1,1.8-1.9-.9-2.7-3.2-1.8-5.1,6.7-13.8,20.9-22.7,36.2-22.7s29.5,8.9,36.2,22.7c.9,1.9.1,4.2-1.8,5.1-.5.3-1.1.4-1.7.4h0Z"/>
    <path class="cls-1" d="M750.1,97.6c-1.6,0-3.1-1-3.6-2.6-1.9-5.9-7.4-9.9-13.7-9.9s-11.8,4-13.7,9.9c-.7,2-2.8,3.1-4.8,2.4-2-.6-3.1-2.8-2.4-4.8,3-9.1,11.4-15.2,20.9-15.2s17.9,6.1,20.9,15.2c.6,2-.4,4.1-2.4,4.8-.4.1-.8.2-1.2.2h0Z"/>
    <path class="cls-1" d="M783.5,151.5c-1.5,0-2.9-.9-3.5-2.4-7.8-19.4-26.3-32-47.2-32s-39.4,12.5-47.2,32c-.8,1.9-3,2.9-4.9,2.1-1.9-.8-2.9-3-2.1-4.9,8.9-22.3,30.2-36.7,54.2-36.7s45.3,14.4,54.2,36.7c.8,1.9-.2,4.2-2.1,4.9-.5.2-.9.3-1.4.3h0Z"/>
    <path class="cls-1" d="M765.6,155.9c-1.4,0-2.8-.8-3.4-2.1-5.5-11.4-16.8-18.4-29.4-18.4s-23.9,7.1-29.4,18.4c-.9,1.9-3.2,2.7-5.1,1.8-1.9-.9-2.7-3.2-1.8-5.1,6.7-13.8,20.9-22.7,36.2-22.7s29.5,8.9,36.2,22.7c.9,1.9.1,4.2-1.8,5.1-.5.3-1.1.4-1.7.4h0Z"/>
    <path class="cls-1" d="M750.1,166.1c-1.6,0-3.1-1-3.6-2.6-1.9-5.9-7.4-9.9-13.7-9.9s-11.8,4-13.7,9.9c-.7,2-2.8,3.1-4.8,2.4-2-.7-3.1-2.8-2.4-4.8,3-9.1,11.4-15.2,20.9-15.2s17.9,6.1,20.9,15.2c.6,2-.4,4.1-2.4,4.8-.4.1-.8.2-1.2.2h0Z"/>
    <path class="cls-1" d="M728.9,185.7c-1.5,0-2.9-.9-3.5-2.4-7.8-19.4-26.3-32-47.2-32s-39.4,12.5-47.2,32c-.8,1.9-3,2.9-4.9,2.1-1.9-.8-2.9-3-2.1-4.9,8.9-22.3,30.2-36.7,54.2-36.7s45.3,14.4,54.2,36.7c.8,1.9-.2,4.2-2.1,4.9-.5.2-.9.3-1.4.3h0Z"/>
    <path class="cls-1" d="M711,190.1c-1.4,0-2.8-.8-3.4-2.1-5.5-11.4-16.8-18.4-29.4-18.4s-23.9,7.1-29.4,18.4c-.9,1.9-3.2,2.7-5.1,1.8-1.9-.9-2.7-3.2-1.8-5.1,6.7-13.8,20.9-22.7,36.2-22.7s29.5,8.9,36.2,22.7c.9,1.9.1,4.2-1.8,5.1-.5.3-1.1.4-1.7.4h0Z"/>
    <path class="cls-1" d="M695.5,200.3c-1.6,0-3.1-1-3.6-2.6-1.9-5.9-7.4-9.9-13.7-9.9s-11.8,4-13.7,9.9c-.6,2-2.8,3.1-4.8,2.4-2-.6-3.1-2.8-2.4-4.8,3-9.1,11.4-15.2,20.9-15.2s17.9,6.1,20.9,15.2c.6,2-.4,4.1-2.4,4.8-.4.1-.8.2-1.2.2h0Z"/>
    <path class="cls-1" d="M619.7,185.7c-1.5,0-2.9-.9-3.5-2.4-7.8-19.4-26.3-32-47.2-32s-39.4,12.5-47.2,32c-.8,1.9-3,2.9-4.9,2.1-1.9-.8-2.9-3-2.1-4.9,8.9-22.3,30.2-36.7,54.2-36.7s45.3,14.4,54.2,36.7c.8,1.9-.2,4.2-2.1,4.9-.5.2-.9.3-1.4.3h0Z"/>
    <path class="cls-1" d="M601.7,190.1c-1.4,0-2.8-.8-3.4-2.1-5.5-11.4-16.8-18.4-29.4-18.4s-23.9,7.2-29.4,18.4c-.9,1.9-3.2,2.7-5.1,1.8-1.9-.9-2.7-3.2-1.8-5.1,6.7-13.8,20.9-22.7,36.2-22.7s29.5,8.9,36.2,22.7c.9,1.9.1,4.2-1.8,5.1-.5.3-1.1.4-1.7.4h0Z"/>
    <path class="cls-1" d="M586.3,200.3c-1.6,0-3.1-1-3.6-2.6-1.9-5.9-7.4-9.9-13.7-9.9s-11.8,4-13.7,9.9c-.7,2-2.8,3.1-4.8,2.4-2-.6-3.1-2.8-2.4-4.8,3-9.1,11.4-15.2,20.9-15.2s17.9,6.1,20.9,15.2c.6,2-.4,4.1-2.4,4.8-.4.1-.8.2-1.2.2h0Z"/>
    <path class="cls-1" d="M455.8,83c-1.5,0-2.9-.9-3.5-2.4-7.8-19.4-26.3-32-47.2-32s-39.4,12.5-47.2,32c-.8,1.9-3,2.9-4.9,2.1-1.9-.8-2.9-3-2.1-4.9,8.9-22.3,30.2-36.7,54.2-36.7s45.3,14.4,54.2,36.7c.8,1.9-.2,4.2-2.1,4.9-.5.2-.9.3-1.4.3h0Z"/>
    <path class="cls-1" d="M437.9,87.4c-1.4,0-2.8-.8-3.4-2.1-5.5-11.3-16.8-18.4-29.4-18.4s-23.9,7.1-29.4,18.4c-.9,1.9-3.2,2.7-5.1,1.8-1.9-.9-2.7-3.2-1.8-5.1,6.7-13.8,20.9-22.7,36.2-22.7s29.5,8.9,36.2,22.7c.9,1.9.1,4.2-1.8,5.1-.5.3-1.1.4-1.7.4h0Z"/>
    <path class="cls-1" d="M422.4,97.6c-1.6,0-3.1-1-3.6-2.6-1.9-5.9-7.4-9.9-13.7-9.9s-11.8,4-13.7,9.9c-.6,2-2.8,3.1-4.8,2.4-2-.6-3.1-2.8-2.4-4.8,3-9.1,11.4-15.2,20.9-15.2s17.9,6.1,20.9,15.2c.6,2-.4,4.1-2.4,4.8-.4.1-.8.2-1.2.2Z"/>
    <path class="cls-1" d="M510.5,117.2c-1.5,0-2.9-.9-3.5-2.4-7.8-19.4-26.3-32-47.2-32s-39.4,12.5-47.2,32c-.8,1.9-3,2.9-4.9,2.1-1.9-.8-2.9-3-2.1-4.9,8.9-22.3,30.2-36.7,54.2-36.7s45.3,14.4,54.2,36.7c.8,1.9-.2,4.2-2.1,4.9-.5.2-.9.3-1.4.3h0Z"/>
    <path class="cls-1" d="M492.5,121.6c-1.4,0-2.8-.8-3.4-2.1-5.5-11.4-16.8-18.4-29.4-18.4s-23.9,7.1-29.4,18.4c-.9,1.9-3.2,2.7-5.1,1.8-1.9-.9-2.7-3.2-1.8-5.1,6.7-13.8,20.9-22.7,36.2-22.7s29.5,8.9,36.2,22.7c.9,1.9.1,4.2-1.8,5.1-.5.3-1.1.4-1.7.4h0Z"/>
    <path class="cls-1" d="M477,131.8c-1.6,0-3.1-1-3.6-2.6-1.9-5.9-7.4-9.9-13.7-9.9s-11.8,4-13.7,9.9c-.6,2-2.8,3.1-4.8,2.4-2-.6-3.1-2.8-2.4-4.8,3-9.1,11.4-15.2,20.9-15.2s17.9,6.1,20.9,15.2c.7,2-.4,4.1-2.4,4.8-.4.1-.8.2-1.2.2Z"/>
    <path class="cls-1" d="M455.8,151.5c-1.5,0-2.9-.9-3.5-2.4-7.8-19.4-26.3-32-47.2-32s-39.4,12.5-47.2,32c-.8,1.9-3,2.9-4.9,2.1-1.9-.8-2.9-3-2.1-4.9,8.9-22.3,30.2-36.7,54.2-36.7s45.3,14.4,54.2,36.7c.8,1.9-.2,4.2-2.1,4.9-.5.2-.9.3-1.4.3h0Z"/>
    <path class="cls-1" d="M437.9,155.9c-1.4,0-2.8-.8-3.4-2.1-5.5-11.4-16.8-18.4-29.4-18.4s-23.9,7.1-29.4,18.4c-.9,1.9-3.2,2.7-5.1,1.8-1.9-.9-2.7-3.2-1.8-5.1,6.7-13.8,20.9-22.7,36.2-22.7s29.5,8.9,36.2,22.7c.9,1.9.1,4.2-1.8,5.1-.5.3-1.1.4-1.7.4h0Z"/>
    <path class="cls-1" d="M422.4,166.1c-1.6,0-3.1-1-3.6-2.6-1.9-5.9-7.4-9.9-13.7-9.9s-11.8,4-13.7,9.9c-.6,2-2.8,3.1-4.8,2.4-2-.7-3.1-2.8-2.4-4.8,3-9.1,11.4-15.2,20.9-15.2s17.9,6.1,20.9,15.2c.6,2-.4,4.1-2.4,4.8-.4.1-.8.2-1.2.2Z"/>
    <path class="cls-1" d="M565.1,83c-1.5,0-2.9-.9-3.5-2.4-7.8-19.4-26.3-32-47.2-32s-39.4,12.5-47.2,32c-.8,1.9-3,2.9-4.9,2.1-1.9-.8-2.9-3-2.1-4.9,8.9-22.3,30.2-36.7,54.2-36.7s45.3,14.4,54.2,36.7c.8,1.9-.2,4.2-2.1,4.9-.5.2-.9.3-1.4.3h0Z"/>
    <path class="cls-1" d="M547.1,87.4c-1.4,0-2.8-.8-3.4-2.1-5.5-11.3-16.8-18.4-29.4-18.4s-23.9,7.2-29.4,18.4c-.9,1.9-3.2,2.7-5.1,1.8-1.9-.9-2.7-3.2-1.8-5.1,6.7-13.8,20.9-22.7,36.2-22.7s29.5,8.9,36.2,22.7c.9,1.9.1,4.2-1.8,5.1-.5.3-1.1.4-1.7.4h0Z"/>
    <path class="cls-1" d="M531.6,97.6c-1.6,0-3.1-1-3.6-2.6-1.9-5.9-7.4-9.9-13.7-9.9s-11.8,4-13.7,9.9c-.6,2-2.8,3.1-4.8,2.4-2-.6-3.1-2.8-2.4-4.8,3-9.1,11.4-15.2,20.9-15.2s17.9,6.1,20.9,15.2c.6,2-.4,4.1-2.4,4.8-.4.1-.8.2-1.2.2Z"/>
    <path class="cls-1" d="M565.1,151.5c-1.5,0-2.9-.9-3.5-2.4-7.8-19.4-26.3-32-47.2-32s-39.4,12.5-47.2,32c-.8,1.9-3,2.9-4.9,2.1-1.9-.8-2.9-3-2.1-4.9,8.9-22.3,30.2-36.7,54.2-36.7s45.3,14.4,54.2,36.7c.8,1.9-.2,4.2-2.1,4.9-.5.2-.9.3-1.4.3h0Z"/>
    <path class="cls-1" d="M547.1,155.9c-1.4,0-2.8-.8-3.4-2.1-5.5-11.4-16.8-18.4-29.4-18.4s-23.9,7.1-29.4,18.4c-.9,1.9-3.2,2.7-5.1,1.8-1.9-.9-2.7-3.2-1.8-5.1,6.7-13.8,20.9-22.7,36.2-22.7s29.5,8.9,36.2,22.7c.9,1.9.1,4.2-1.8,5.1-.5.3-1.1.4-1.7.4h0Z"/>
    <path class="cls-1" d="M531.6,166.1c-1.6,0-3.1-1-3.6-2.6-1.9-5.9-7.4-9.9-13.7-9.9s-11.8,4-13.7,9.9c-.6,2-2.8,3.1-4.8,2.4-2-.7-3.1-2.8-2.4-4.8,3-9.1,11.4-15.2,20.9-15.2s17.9,6.1,20.9,15.2c.6,2-.4,4.1-2.4,4.8-.4.1-.8.2-1.2.2Z"/>
    <path class="cls-1" d="M510.5,185.7c-1.5,0-2.9-.9-3.5-2.4-7.8-19.4-26.3-32-47.2-32s-39.4,12.5-47.2,32c-.8,1.9-3,2.9-4.9,2.1-1.9-.8-2.9-3-2.1-4.9,8.9-22.3,30.2-36.7,54.2-36.7s45.3,14.4,54.2,36.7c.8,1.9-.2,4.2-2.1,4.9-.5.2-.9.3-1.4.3h0Z"/>
    <path class="cls-1" d="M492.5,190.1c-1.4,0-2.8-.8-3.4-2.1-5.5-11.4-16.8-18.4-29.4-18.4s-23.9,7.1-29.4,18.4c-.9,1.9-3.2,2.7-5.1,1.8-1.9-.9-2.7-3.2-1.8-5.1,6.7-13.8,20.9-22.7,36.2-22.7s29.5,8.9,36.2,22.7c.9,1.9.1,4.2-1.8,5.1-.5.3-1.1.4-1.7.4h0Z"/>
    <path class="cls-1" d="M477,200.3c-1.6,0-3.1-1-3.6-2.6-1.9-5.9-7.4-9.9-13.7-9.9s-11.8,4-13.7,9.9c-.6,2-2.8,3.1-4.8,2.4-2-.6-3.1-2.8-2.4-4.8,3-9.1,11.4-15.2,20.9-15.2s17.9,6.1,20.9,15.2c.6,2-.4,4.1-2.4,4.8-.4.1-.8.2-1.2.2h0Z"/>
    <path class="cls-1" d="M674.3,220.1c-1.5,0-2.9-.9-3.5-2.4-7.8-19.4-26.3-32-47.2-32s-39.4,12.5-47.2,32c-.8,1.9-3,2.9-4.9,2.1-1.9-.8-2.9-3-2.1-4.9,8.9-22.3,30.2-36.7,54.2-36.7s45.3,14.4,54.2,36.7c.8,1.9-.2,4.2-2.1,4.9-.5.2-.9.3-1.4.3h0Z"/>
    <path class="cls-1" d="M656.4,224.5c-1.4,0-2.8-.8-3.4-2.1-5.5-11.4-16.8-18.4-29.4-18.4s-23.9,7.1-29.4,18.4c-.9,1.9-3.2,2.7-5.1,1.8-1.9-.9-2.7-3.2-1.8-5.1,6.7-13.8,20.9-22.7,36.2-22.7s29.5,8.9,36.2,22.7c.9,1.9.1,4.2-1.8,5.1-.5.3-1.1.4-1.7.4h0Z"/>
    <path class="cls-1" d="M640.9,234.7c-1.6,0-3.1-1-3.6-2.6-1.9-5.9-7.4-9.9-13.7-9.9s-11.8,4-13.7,9.9c-.6,2-2.8,3.1-4.8,2.4-2-.6-3.1-2.8-2.4-4.8,3-9.1,11.4-15.2,20.9-15.2s17.9,6.1,20.9,15.2c.6,2-.4,4.1-2.4,4.8-.4.1-.8.2-1.2.2Z"/>
    <path class="cls-1" d="M728.9,254.3c-1.5,0-2.9-.9-3.5-2.4-7.8-19.4-26.3-32-47.2-32s-39.4,12.5-47.2,32c-.8,1.9-3,2.9-4.9,2.1-1.9-.8-2.9-3-2.1-4.9,8.9-22.3,30.2-36.7,54.2-36.7s45.3,14.4,54.2,36.7c.8,1.9-.2,4.2-2.1,4.9-.5.2-.9.3-1.4.3h0Z"/>
    <path class="cls-1" d="M711,258.7c-1.4,0-2.8-.8-3.4-2.1-5.5-11.4-16.8-18.4-29.4-18.4s-23.9,7.1-29.4,18.4c-.9,1.9-3.2,2.7-5.1,1.8-1.9-.9-2.7-3.2-1.8-5.1,6.7-13.8,20.9-22.7,36.2-22.7s29.5,8.9,36.2,22.7c.9,1.9.1,4.2-1.8,5.1-.5.3-1.1.4-1.7.4h0Z"/>
    <path class="cls-1" d="M619.7,254.3c-1.5,0-2.9-.9-3.5-2.4-7.8-19.4-26.3-32-47.2-32s-39.4,12.5-47.2,32c-.8,1.9-3,2.9-4.9,2.1-1.9-.8-2.9-3-2.1-4.9,8.9-22.3,30.2-36.7,54.2-36.7s45.3,14.4,54.2,36.7c.8,1.9-.2,4.2-2.1,4.9-.5.2-.9.3-1.4.3h0Z"/>
    <path class="cls-1" d="M601.7,258.7c-1.4,0-2.8-.8-3.4-2.1-5.5-11.4-16.8-18.4-29.4-18.4s-23.9,7.2-29.4,18.4c-.9,1.9-3.2,2.7-5.1,1.8-1.9-.9-2.7-3.2-1.8-5.1,6.7-13.8,20.9-22.7,36.2-22.7s29.5,8.9,36.2,22.7c.9,1.9.1,4.2-1.8,5.1-.5.3-1.1.4-1.7.4h0Z"/>
    <path class="cls-1" d="M783.5,220.1c-1.5,0-2.9-.9-3.5-2.4-7.8-19.4-26.3-32-47.2-32s-39.4,12.5-47.2,32c-.8,1.9-3,2.9-4.9,2.1-1.9-.8-2.9-3-2.1-4.9,8.9-22.3,30.2-36.7,54.2-36.7s45.3,14.4,54.2,36.7c.8,1.9-.2,4.2-2.1,4.9-.5.2-.9.3-1.4.3h0Z"/>
    <path class="cls-1" d="M765.6,224.5c-1.4,0-2.8-.8-3.4-2.1-5.5-11.4-16.8-18.4-29.4-18.4s-23.9,7.1-29.4,18.4c-.9,1.9-3.2,2.7-5.1,1.8-1.9-.9-2.7-3.2-1.8-5.1,6.7-13.8,20.9-22.7,36.2-22.7s29.5,8.9,36.2,22.7c.9,1.9.1,4.2-1.8,5.1-.5.3-1.1.4-1.7.4h0Z"/>
    <path class="cls-1" d="M750.1,234.7c-1.6,0-3.1-1-3.6-2.6-1.9-5.9-7.4-9.9-13.7-9.9s-11.8,4-13.7,9.9c-.7,2-2.8,3.1-4.8,2.4-2-.6-3.1-2.8-2.4-4.8,3-9.1,11.4-15.2,20.9-15.2s17.9,6.1,20.9,15.2c.6,2-.4,4.1-2.4,4.8-.4.1-.8.2-1.2.2h0Z"/>
    <path class="cls-1" d="M837.8,48.6c-1.5,0-2.9-.9-3.5-2.4-7.8-19.4-26.3-32-47.2-32s-39.4,12.5-47.2,32c-.8,1.9-3,2.9-4.9,2.1-1.9-.8-2.9-3-2.1-4.9,8.9-22.3,30.2-36.7,54.2-36.7s45.3,14.4,54.2,36.7c.8,1.9-.2,4.2-2.1,4.9-.5.2-.9.3-1.4.3h0Z"/>
    <path class="cls-1" d="M819.8,53.1c-1.4,0-2.8-.8-3.4-2.1-5.5-11.3-16.8-18.4-29.4-18.4s-23.9,7.1-29.4,18.4c-.9,1.9-3.2,2.7-5.1,1.8-1.9-.9-2.7-3.2-1.8-5.1,6.7-13.8,20.9-22.7,36.2-22.7s29.5,8.9,36.2,22.7c.9,1.9.1,4.2-1.8,5.1-.5.3-1.1.4-1.7.4h0Z"/>
    <path class="cls-1" d="M804.3,63.3c-1.6,0-3.1-1-3.6-2.6-1.9-5.9-7.4-9.9-13.7-9.9s-11.8,4-13.7,9.9c-.6,2-2.8,3.1-4.8,2.4-2-.6-3.1-2.8-2.4-4.8,3-9.1,11.4-15.2,20.9-15.2s17.9,6.1,20.9,15.2c.6,2-.4,4.1-2.4,4.8-.4.1-.8.2-1.2.2Z"/>
    <path class="cls-1" d="M837.8,117.2c-1.5,0-2.9-.9-3.5-2.4-7.8-19.4-26.3-32-47.2-32s-39.4,12.5-47.2,32c-.8,1.9-3,2.9-4.9,2.1-1.9-.8-2.9-3-2.1-4.9,8.9-22.3,30.2-36.7,54.2-36.7s45.3,14.4,54.2,36.7c.8,1.9-.2,4.2-2.1,4.9-.5.2-.9.3-1.4.3h0Z"/>
    <path class="cls-1" d="M819.8,121.6c-1.4,0-2.8-.8-3.4-2.1-5.5-11.4-16.8-18.4-29.4-18.4s-23.9,7.1-29.4,18.4c-.9,1.9-3.2,2.7-5.1,1.8-1.9-.9-2.7-3.2-1.8-5.1,6.7-13.8,20.9-22.7,36.2-22.7s29.5,8.9,36.2,22.7c.9,1.9.1,4.2-1.8,5.1-.5.3-1.1.4-1.7.4h0Z"/>
    <path class="cls-1" d="M804.3,131.8c-1.6,0-3.1-1-3.6-2.6-1.9-5.9-7.4-9.9-13.7-9.9s-11.8,4-13.7,9.9c-.6,2-2.8,3.1-4.8,2.4-2-.6-3.1-2.8-2.4-4.8,3-9.1,11.4-15.2,20.9-15.2s17.9,6.1,20.9,15.2c.6,2-.4,4.1-2.4,4.8-.4.1-.8.2-1.2.2Z"/>
    <path class="cls-1" d="M837.8,185.7c-1.5,0-2.9-.9-3.5-2.4-7.8-19.4-26.3-32-47.2-32s-39.4,12.5-47.2,32c-.8,1.9-3,2.9-4.9,2.1-1.9-.8-2.9-3-2.1-4.9,8.9-22.3,30.2-36.7,54.2-36.7s45.3,14.4,54.2,36.7c.8,1.9-.2,4.2-2.1,4.9-.5.2-.9.3-1.4.3h0Z"/>
    <path class="cls-1" d="M819.8,190.1c-1.4,0-2.8-.8-3.4-2.1-5.5-11.4-16.8-18.4-29.4-18.4s-23.9,7.1-29.4,18.4c-.9,1.9-3.2,2.7-5.1,1.8-1.9-.9-2.7-3.2-1.8-5.1,6.7-13.8,20.9-22.7,36.2-22.7s29.5,8.9,36.2,22.7c.9,1.9.1,4.2-1.8,5.1-.5.3-1.1.4-1.7.4h0Z"/>
    <path class="cls-1" d="M804.3,200.3c-1.6,0-3.1-1-3.6-2.6-1.9-5.9-7.4-9.9-13.7-9.9s-11.8,4-13.7,9.9c-.6,2-2.8,3.1-4.8,2.4-2-.6-3.1-2.8-2.4-4.8,3-9.1,11.4-15.2,20.9-15.2s17.9,6.1,20.9,15.2c.7,2-.4,4.1-2.4,4.8-.4.1-.8.2-1.2.2h0Z"/>
    <path class="cls-1" d="M837.8,254.3c-1.5,0-2.9-.9-3.5-2.4-7.8-19.4-26.3-32-47.2-32s-39.4,12.5-47.2,32c-.8,1.9-3,2.9-4.9,2.1-1.9-.8-2.9-3-2.1-4.9,8.9-22.3,30.2-36.7,54.2-36.7s45.3,14.4,54.2,36.7c.8,1.9-.2,4.2-2.1,4.9-.5.2-.9.3-1.4.3h0Z"/>
    <path class="cls-1" d="M819.8,258.7c-1.4,0-2.8-.8-3.4-2.1-5.5-11.4-16.8-18.4-29.4-18.4s-23.9,7.1-29.4,18.4c-.9,1.9-3.2,2.7-5.1,1.8-1.9-.9-2.7-3.2-1.8-5.1,6.7-13.8,20.9-22.7,36.2-22.7s29.5,8.9,36.2,22.7c.9,1.9.1,4.2-1.8,5.1-.5.3-1.1.4-1.7.4h0Z"/>
    <path class="cls-1" d="M455.8,220.1c-1.5,0-2.9-.9-3.5-2.4-7.8-19.4-26.3-32-47.2-32s-39.4,12.5-47.2,32c-.8,1.9-3,2.9-4.9,2.1-1.9-.8-2.9-3-2.1-4.9,8.9-22.3,30.2-36.7,54.2-36.7s45.3,14.4,54.2,36.7c.8,1.9-.2,4.2-2.1,4.9-.5.2-.9.3-1.4.3h0Z"/>
    <path class="cls-1" d="M437.9,224.5c-1.4,0-2.8-.8-3.4-2.1-5.5-11.4-16.8-18.4-29.4-18.4s-23.9,7.1-29.4,18.4c-.9,1.9-3.2,2.7-5.1,1.8-1.9-.9-2.7-3.2-1.8-5.1,6.7-13.8,20.9-22.7,36.2-22.7s29.5,8.9,36.2,22.7c.9,1.9.1,4.2-1.8,5.1-.5.3-1.1.4-1.7.4h0Z"/>
    <path class="cls-1" d="M422.4,234.7c-1.6,0-3.1-1-3.6-2.6-1.9-5.9-7.4-9.9-13.7-9.9s-11.8,4-13.7,9.9c-.6,2-2.8,3.1-4.8,2.4-2-.6-3.1-2.8-2.4-4.8,3-9.1,11.4-15.2,20.9-15.2s17.9,6.1,20.9,15.2c.6,2-.4,4.1-2.4,4.8-.4.1-.8.2-1.2.2Z"/>
    <path class="cls-1" d="M510.5,254.3c-1.5,0-2.9-.9-3.5-2.4-7.8-19.4-26.3-32-47.2-32s-39.4,12.5-47.2,32c-.8,1.9-3,2.9-4.9,2.1-1.9-.8-2.9-3-2.1-4.9,8.9-22.3,30.2-36.7,54.2-36.7s45.3,14.4,54.2,36.7c.8,1.9-.2,4.2-2.1,4.9-.5.2-.9.3-1.4.3h0Z"/>
    <path class="cls-1" d="M492.5,258.7c-1.4,0-2.8-.8-3.4-2.1-5.5-11.4-16.8-18.4-29.4-18.4s-23.9,7.1-29.4,18.4c-.9,1.9-3.2,2.7-5.1,1.8-1.9-.9-2.7-3.2-1.8-5.1,6.7-13.8,20.9-22.7,36.2-22.7s29.5,8.9,36.2,22.7c.9,1.9.1,4.2-1.8,5.1-.5.3-1.1.4-1.7.4h0Z"/>
    <path class="cls-1" d="M565.1,220.1c-1.5,0-2.9-.9-3.5-2.4-7.8-19.4-26.3-32-47.2-32s-39.4,12.5-47.2,32c-.8,1.9-3,2.9-4.9,2.1-1.9-.8-2.9-3-2.1-4.9,8.9-22.3,30.2-36.7,54.2-36.7s45.3,14.4,54.2,36.7c.8,1.9-.2,4.2-2.1,4.9-.5.2-.9.3-1.4.3h0Z"/>
    <path class="cls-1" d="M547.1,224.5c-1.4,0-2.8-.8-3.4-2.1-5.5-11.4-16.8-18.4-29.4-18.4s-23.9,7.1-29.4,18.4c-.9,1.9-3.2,2.7-5.1,1.8-1.9-.9-2.7-3.2-1.8-5.1,6.7-13.8,20.9-22.7,36.2-22.7s29.5,8.9,36.2,22.7c.9,1.9.1,4.2-1.8,5.1-.5.3-1.1.4-1.7.4h0Z"/>
    <path class="cls-1" d="M531.6,234.7c-1.6,0-3.1-1-3.6-2.6-1.9-5.9-7.4-9.9-13.7-9.9s-11.8,4-13.7,9.9c-.6,2-2.8,3.1-4.8,2.4-2-.6-3.1-2.8-2.4-4.8,3-9.1,11.4-15.2,20.9-15.2s17.9,6.1,20.9,15.2c.6,2-.4,4.1-2.4,4.8-.4.1-.8.2-1.2.2Z"/>
  </g>
  <g>
    <path class="cls-1" d="M1110.3,14.5c-1.5,0-2.9-.9-3.5-2.4-7.8-19.4-26.3-32-47.2-32s-39.4,12.5-47.2,32c-.8,1.9-3,2.9-4.9,2.1-2-.8-2.9-3-2.1-4.9,8.9-22.3,30.2-36.7,54.2-36.7s45.3,14.4,54.2,36.7c.8,1.9-.2,4.2-2.1,4.9-.5.2-.9.3-1.4.3h0Z"/>
    <path class="cls-1" d="M1092.4,18.9c-1.4,0-2.8-.8-3.4-2.1-5.5-11.3-16.8-18.4-29.4-18.4s-23.9,7.2-29.4,18.4c-.9,1.9-3.2,2.7-5.1,1.8-1.9-.9-2.7-3.2-1.8-5.1,6.7-13.8,20.9-22.7,36.2-22.7s29.5,8.9,36.2,22.7c.9,1.9.1,4.2-1.8,5.1-.5.3-1.1.4-1.7.4h0Z"/>
    <path class="cls-1" d="M1076.9,29.1c-1.6,0-3.1-1-3.6-2.6-1.9-5.9-7.5-9.9-13.7-9.9s-11.8,4-13.7,9.9c-.7,2-2.8,3.1-4.8,2.4-2-.6-3.1-2.8-2.4-4.8,3-9.1,11.4-15.2,20.9-15.2s18,6.1,20.9,15.2c.7,2-.4,4.1-2.4,4.8-.4.1-.8.2-1.2.2Z"/>
    <path class="cls-1" d="M1219.5,14.5c-1.5,0-2.9-.9-3.5-2.4-7.8-19.4-26.3-32-47.2-32s-39.4,12.5-47.2,32c-.8,1.9-3,2.9-4.9,2.1-2-.8-2.9-3-2.1-4.9,8.9-22.3,30.2-36.7,54.2-36.7s45.3,14.4,54.2,36.7c.8,1.9-.2,4.2-2.1,4.9-.5.2-.9.3-1.4.3Z"/>
    <path class="cls-1" d="M1201.6,18.9c-1.4,0-2.8-.8-3.4-2.1-5.5-11.3-16.8-18.4-29.4-18.4s-23.9,7.1-29.4,18.4c-.9,1.9-3.2,2.7-5.1,1.8-1.9-.9-2.7-3.2-1.8-5.1,6.7-13.8,20.9-22.7,36.2-22.7s29.5,8.9,36.2,22.7c.9,1.9.1,4.2-1.8,5.1-.5.3-1.1.4-1.7.4h0Z"/>
    <path class="cls-1" d="M1186.1,29.1c-1.6,0-3.1-1-3.6-2.6-1.9-5.9-7.4-9.9-13.7-9.9s-11.8,4-13.7,9.9c-.7,2-2.8,3.1-4.8,2.4-2-.6-3.1-2.8-2.4-4.8,3-9.1,11.4-15.2,20.9-15.2s17.9,6.1,20.9,15.2c.6,2-.4,4.1-2.4,4.8-.4.1-.8.2-1.2.2h0Z"/>
    <path class="cls-1" d="M1164.9,48.6c-1.5,0-2.9-.9-3.5-2.4-7.8-19.4-26.3-32-47.2-32s-39.4,12.5-47.2,32c-.8,1.9-3,2.9-4.9,2.1-2-.8-2.9-3-2.1-4.9,8.9-22.3,30.2-36.7,54.2-36.7s45.3,14.4,54.2,36.7c.8,1.9-.2,4.2-2.1,4.9-.5.2-1,.3-1.4.3h0Z"/>
    <path class="cls-1" d="M1147,53.1c-1.4,0-2.8-.8-3.4-2.1-5.5-11.3-16.8-18.4-29.4-18.4s-23.9,7.1-29.4,18.4c-.9,1.9-3.2,2.7-5.1,1.8-1.9-.9-2.7-3.2-1.8-5.1,6.7-13.8,20.9-22.7,36.2-22.7s29.5,8.9,36.2,22.7c.9,1.9.1,4.2-1.8,5.1-.5.3-1.1.4-1.7.4Z"/>
    <path class="cls-1" d="M1131.5,63.3c-1.6,0-3.1-1-3.6-2.6-1.9-5.9-7.5-9.9-13.7-9.9s-11.8,4-13.7,9.9c-.7,2-2.8,3.1-4.8,2.4-2-.6-3.1-2.8-2.4-4.8,3-9.1,11.4-15.2,20.9-15.2s17.9,6.1,20.9,15.2c.7,2-.4,4.1-2.4,4.8-.4.1-.8.2-1.2.2Z"/>
    <path class="cls-1" d="M1055.7,48.6c-1.5,0-2.9-.9-3.5-2.4-7.8-19.4-26.3-32-47.2-32s-39.4,12.5-47.2,32c-.8,1.9-3,2.9-4.9,2.1-1.9-.8-2.9-3-2.1-4.9,8.9-22.3,30.2-36.7,54.2-36.7s45.3,14.4,54.2,36.7c.8,1.9-.2,4.2-2.1,4.9-.5.2-.9.3-1.4.3h0Z"/>
    <path class="cls-1" d="M1037.7,53.1c-1.4,0-2.8-.8-3.4-2.1-5.5-11.3-16.7-18.4-29.4-18.4s-23.9,7.2-29.4,18.4c-.9,1.9-3.2,2.7-5.1,1.8-1.9-.9-2.7-3.2-1.8-5.1,6.7-13.8,20.9-22.7,36.2-22.7s29.5,8.9,36.2,22.7c.9,1.9.1,4.2-1.8,5.1-.5.3-1.1.4-1.7.4Z"/>
    <path class="cls-1" d="M1022.3,63.3c-1.6,0-3.1-1-3.6-2.6-1.9-5.9-7.5-9.9-13.7-9.9s-11.8,4-13.7,9.9c-.7,2-2.8,3.1-4.8,2.4-2-.6-3.1-2.8-2.4-4.8,3-9.1,11.4-15.2,20.9-15.2s17.9,6.1,20.9,15.2c.7,2-.4,4.1-2.4,4.8-.4.1-.8.2-1.2.2Z"/>
    <path class="cls-1" d="M891.8,14.5c-1.5,0-2.9-.9-3.5-2.4-7.8-19.4-26.3-32-47.2-32s-39.4,12.5-47.2,32c-.8,1.9-3,2.9-4.9,2.1-1.9-.8-2.9-3-2.1-4.9,8.9-22.3,30.2-36.7,54.2-36.7s45.3,14.4,54.2,36.7c.8,1.9-.2,4.2-2.1,4.9-.5.2-.9.3-1.4.3h0Z"/>
    <path class="cls-1" d="M873.9,18.9c-1.4,0-2.8-.8-3.4-2.1-5.5-11.3-16.8-18.4-29.4-18.4s-23.9,7.1-29.4,18.4c-.9,1.9-3.2,2.7-5.1,1.8-1.9-.9-2.7-3.2-1.8-5.1,6.7-13.8,20.9-22.7,36.2-22.7s29.5,8.9,36.2,22.7c.9,1.9.1,4.2-1.8,5.1-.5.3-1.1.4-1.7.4h0Z"/>
    <path class="cls-1" d="M858.4,29.1c-1.6,0-3.1-1-3.6-2.6-1.9-5.9-7.4-9.9-13.7-9.9s-11.8,4-13.7,9.9c-.7,2-2.8,3.1-4.8,2.4-2-.6-3.1-2.8-2.4-4.8,3-9.1,11.4-15.2,20.9-15.2s17.9,6.1,20.9,15.2c.6,2-.4,4.1-2.4,4.8-.4.1-.8.2-1.2.2Z"/>
    <path class="cls-1" d="M1001.1,14.5c-1.5,0-2.9-.9-3.5-2.4-7.8-19.4-26.3-32-47.2-32s-39.4,12.5-47.2,32c-.8,1.9-3,2.9-4.9,2.1-1.9-.8-2.9-3-2.1-4.9,8.9-22.3,30.2-36.7,54.2-36.7s45.3,14.4,54.2,36.7c.8,1.9-.2,4.2-2.1,4.9-.5.2-.9.3-1.4.3h0Z"/>
    <path class="cls-1" d="M983.1,18.9c-1.4,0-2.8-.8-3.4-2.1-5.5-11.3-16.8-18.4-29.4-18.4s-23.9,7.2-29.4,18.4c-.9,1.9-3.2,2.7-5.1,1.8-1.9-.9-2.7-3.2-1.8-5.1,6.7-13.8,20.9-22.7,36.2-22.7s29.5,8.9,36.2,22.7c.9,1.9.1,4.2-1.8,5.1-.5.3-1.1.4-1.7.4h0Z"/>
    <path class="cls-1" d="M967.6,29.1c-1.6,0-3.1-1-3.6-2.6-1.9-5.9-7.4-9.9-13.7-9.9s-11.8,4-13.7,9.9c-.6,2-2.8,3.1-4.8,2.4-2-.6-3.1-2.8-2.4-4.8,3-9.1,11.4-15.2,20.9-15.2s17.9,6.1,20.9,15.2c.6,2-.4,4.1-2.4,4.8-.4.1-.8.2-1.2.2Z"/>
    <path class="cls-1" d="M946.5,48.6c-1.5,0-2.9-.9-3.5-2.4-7.8-19.4-26.3-32-47.2-32s-39.4,12.5-47.2,32c-.8,1.9-3,2.9-4.9,2.1-1.9-.8-2.9-3-2.1-4.9,8.9-22.3,30.2-36.7,54.2-36.7s45.3,14.4,54.2,36.7c.8,1.9-.2,4.2-2.1,4.9-.5.2-.9.3-1.4.3h0Z"/>
    <path class="cls-1" d="M928.5,53.1c-1.4,0-2.8-.8-3.4-2.1-5.5-11.4-16.8-18.4-29.4-18.4s-23.9,7.1-29.4,18.4c-.9,1.9-3.2,2.7-5.1,1.8-1.9-.9-2.7-3.2-1.8-5.1,6.7-13.8,20.9-22.7,36.2-22.7s29.5,8.9,36.2,22.7c.9,1.9.1,4.2-1.8,5.1-.5.3-1.1.4-1.7.4h0Z"/>
    <path class="cls-1" d="M913,63.3c-1.6,0-3.1-1-3.6-2.6-1.9-5.9-7.4-9.9-13.7-9.9s-11.8,4-13.7,9.9c-.6,2-2.8,3.1-4.8,2.4-2-.6-3.1-2.8-2.4-4.8,3-9.1,11.4-15.2,20.9-15.2s17.9,6.1,20.9,15.2c.7,2-.4,4.1-2.4,4.8-.4.1-.8.2-1.2.2Z"/>
    <path class="cls-1" d="M1110.3,83c-1.5,0-2.9-.9-3.5-2.4-7.8-19.4-26.3-32-47.2-32s-39.4,12.5-47.2,32c-.8,1.9-3,2.9-4.9,2.1-2-.8-2.9-3-2.1-4.9,8.9-22.3,30.2-36.7,54.2-36.7s45.3,14.4,54.2,36.7c.8,1.9-.2,4.2-2.1,4.9-.5.2-.9.3-1.4.3h0Z"/>
    <path class="cls-1" d="M1092.4,87.4c-1.4,0-2.8-.8-3.4-2.1-5.5-11.3-16.8-18.4-29.4-18.4s-23.9,7.2-29.4,18.4c-.9,1.9-3.2,2.7-5.1,1.8s-2.7-3.2-1.8-5.1c6.7-13.8,20.9-22.7,36.2-22.7s29.5,8.9,36.2,22.7c.9,1.9.1,4.2-1.8,5.1-.5.3-1.1.4-1.7.4h0Z"/>
    <path class="cls-1" d="M1076.9,97.6c-1.6,0-3.1-1-3.6-2.6-1.9-5.9-7.5-9.9-13.7-9.9s-11.8,4-13.7,9.9c-.7,2-2.8,3.1-4.8,2.4-2-.6-3.1-2.8-2.4-4.8,3-9.1,11.4-15.2,20.9-15.2s18,6.1,20.9,15.2c.7,2-.4,4.1-2.4,4.8-.4.1-.8.2-1.2.2Z"/>
    <path class="cls-1" d="M1164.9,117.2c-1.5,0-2.9-.9-3.5-2.4-7.8-19.4-26.3-32-47.2-32s-39.4,12.5-47.2,32c-.8,1.9-3,2.9-4.9,2.1-2-.8-2.9-3-2.1-4.9,8.9-22.3,30.2-36.7,54.2-36.7s45.3,14.4,54.2,36.7c.8,1.9-.2,4.2-2.1,4.9-.5.2-1,.3-1.4.3h0Z"/>
    <path class="cls-1" d="M1147,121.6c-1.4,0-2.8-.8-3.4-2.1-5.5-11.4-16.8-18.4-29.4-18.4s-23.9,7.1-29.4,18.4c-.9,1.9-3.2,2.7-5.1,1.8-1.9-.9-2.7-3.2-1.8-5.1,6.7-13.8,20.9-22.7,36.2-22.7s29.5,8.9,36.2,22.7c.9,1.9.1,4.2-1.8,5.1-.5.3-1.1.4-1.7.4h0Z"/>
    <path class="cls-1" d="M1131.5,131.8c-1.6,0-3.1-1-3.6-2.6-1.9-5.9-7.5-9.9-13.7-9.9s-11.8,4-13.7,9.9c-.7,2-2.8,3.1-4.8,2.4-2-.6-3.1-2.8-2.4-4.8,3-9.1,11.4-15.2,20.9-15.2s17.9,6.1,20.9,15.2c.7,2-.4,4.1-2.4,4.8-.4.1-.8.2-1.2.2Z"/>
    <path class="cls-1" d="M1055.7,117.2c-1.5,0-2.9-.9-3.5-2.4-7.8-19.4-26.3-32-47.2-32s-39.4,12.5-47.2,32c-.8,1.9-3,2.9-4.9,2.1-1.9-.8-2.9-3-2.1-4.9,8.9-22.3,30.2-36.7,54.2-36.7s45.3,14.4,54.2,36.7c.8,1.9-.2,4.2-2.1,4.9-.5.2-.9.3-1.4.3h0Z"/>
    <path class="cls-1" d="M1037.7,121.6c-1.4,0-2.8-.8-3.4-2.1-5.5-11.4-16.7-18.4-29.4-18.4s-23.9,7.1-29.4,18.4c-.9,1.9-3.2,2.7-5.1,1.8-1.9-.9-2.7-3.2-1.8-5.1,6.7-13.8,20.9-22.7,36.2-22.7s29.5,8.9,36.2,22.7c.9,1.9.1,4.2-1.8,5.1-.5.3-1.1.4-1.7.4h0Z"/>
    <path class="cls-1" d="M1022.3,131.8c-1.6,0-3.1-1-3.6-2.6-1.9-5.9-7.5-9.9-13.7-9.9s-11.8,4-13.7,9.9c-.7,2-2.8,3.1-4.8,2.4-2-.6-3.1-2.8-2.4-4.8,3-9.1,11.4-15.2,20.9-15.2s17.9,6.1,20.9,15.2c.7,2-.4,4.1-2.4,4.8-.4.1-.8.2-1.2.2Z"/>
    <path class="cls-1" d="M1110.3,151.5c-1.5,0-2.9-.9-3.5-2.4-7.8-19.4-26.3-32-47.2-32s-39.4,12.5-47.2,32c-.8,1.9-3,2.9-4.9,2.1-2-.8-2.9-3-2.1-4.9,8.9-22.3,30.2-36.7,54.2-36.7s45.3,14.4,54.2,36.7c.8,1.9-.2,4.2-2.1,4.9-.5.2-.9.3-1.4.3h0Z"/>
    <path class="cls-1" d="M1092.4,155.9c-1.4,0-2.8-.8-3.4-2.1-5.5-11.4-16.8-18.4-29.4-18.4s-23.9,7.1-29.4,18.4c-.9,1.9-3.2,2.7-5.1,1.8-1.9-.9-2.7-3.2-1.8-5.1,6.7-13.8,20.9-22.7,36.2-22.7s29.5,8.9,36.2,22.7c.9,1.9.1,4.2-1.8,5.1-.5.3-1.1.4-1.7.4h0Z"/>
    <path class="cls-1" d="M1076.9,166.1c-1.6,0-3.1-1-3.6-2.6-1.9-5.9-7.5-9.9-13.7-9.9s-11.8,4-13.7,9.9c-.7,2-2.8,3.1-4.8,2.4-2-.7-3.1-2.8-2.4-4.8,3-9.1,11.4-15.2,20.9-15.2s18,6.1,20.9,15.2c.7,2-.4,4.1-2.4,4.8-.4.1-.8.2-1.2.2Z"/>
    <path class="cls-1" d="M1219.5,83c-1.5,0-2.9-.9-3.5-2.4-7.8-19.4-26.3-32-47.2-32s-39.4,12.5-47.2,32c-.8,1.9-3,2.9-4.9,2.1-2-.8-2.9-3-2.1-4.9,8.9-22.3,30.2-36.7,54.2-36.7s45.3,14.4,54.2,36.7c.8,1.9-.2,4.2-2.1,4.9-.5.2-.9.3-1.4.3Z"/>
    <path class="cls-1" d="M1201.6,87.4c-1.4,0-2.8-.8-3.4-2.1-5.5-11.3-16.8-18.4-29.4-18.4s-23.9,7.1-29.4,18.4c-.9,1.9-3.2,2.7-5.1,1.8-1.9-.9-2.7-3.2-1.8-5.1,6.7-13.8,20.9-22.7,36.2-22.7s29.5,8.9,36.2,22.7c.9,1.9.1,4.2-1.8,5.1-.5.3-1.1.4-1.7.4h0Z"/>
    <path class="cls-1" d="M1186.1,97.6c-1.6,0-3.1-1-3.6-2.6-1.9-5.9-7.4-9.9-13.7-9.9s-11.8,4-13.7,9.9c-.7,2-2.8,3.1-4.8,2.4-2-.6-3.1-2.8-2.4-4.8,3-9.1,11.4-15.2,20.9-15.2s17.9,6.1,20.9,15.2c.6,2-.4,4.1-2.4,4.8-.4.1-.8.2-1.2.2h0Z"/>
    <path class="cls-1" d="M1219.5,151.5c-1.5,0-2.9-.9-3.5-2.4-7.8-19.4-26.3-32-47.2-32s-39.4,12.5-47.2,32c-.8,1.9-3,2.9-4.9,2.1-2-.8-2.9-3-2.1-4.9,8.9-22.3,30.2-36.7,54.2-36.7s45.3,14.4,54.2,36.7c.8,1.9-.2,4.2-2.1,4.9-.5.2-.9.3-1.4.3h0Z"/>
    <path class="cls-1" d="M1201.6,155.9c-1.4,0-2.8-.8-3.4-2.1-5.5-11.4-16.8-18.4-29.4-18.4s-23.9,7.1-29.4,18.4c-.9,1.9-3.2,2.7-5.1,1.8-1.9-.9-2.7-3.2-1.8-5.1,6.7-13.8,20.9-22.7,36.2-22.7s29.5,8.9,36.2,22.7c.9,1.9.1,4.2-1.8,5.1-.5.3-1.1.4-1.7.4h0Z"/>
    <path class="cls-1" d="M1186.1,166.1c-1.6,0-3.1-1-3.6-2.6-1.9-5.9-7.4-9.9-13.7-9.9s-11.8,4-13.7,9.9c-.7,2-2.8,3.1-4.8,2.4-2-.7-3.1-2.8-2.4-4.8,3-9.1,11.4-15.2,20.9-15.2s17.9,6.1,20.9,15.2c.6,2-.4,4.1-2.4,4.8-.4.1-.8.2-1.2.2h0Z"/>
    <path class="cls-1" d="M1164.9,185.7c-1.5,0-2.9-.9-3.5-2.4-7.8-19.4-26.3-32-47.2-32s-39.4,12.5-47.2,32c-.8,1.9-3,2.9-4.9,2.1-2-.8-2.9-3-2.1-4.9,8.9-22.3,30.2-36.7,54.2-36.7s45.3,14.4,54.2,36.7c.8,1.9-.2,4.2-2.1,4.9-.5.2-1,.3-1.4.3h0Z"/>
    <path class="cls-1" d="M1147,190.1c-1.4,0-2.8-.8-3.4-2.1-5.5-11.4-16.8-18.4-29.4-18.4s-23.9,7.1-29.4,18.4c-.9,1.9-3.2,2.7-5.1,1.8-1.9-.9-2.7-3.2-1.8-5.1,6.7-13.8,20.9-22.7,36.2-22.7s29.5,8.9,36.2,22.7c.9,1.9.1,4.2-1.8,5.1-.5.3-1.1.4-1.7.4h0Z"/>
    <path class="cls-1" d="M1131.5,200.3c-1.6,0-3.1-1-3.6-2.6-1.9-5.9-7.5-9.9-13.7-9.9s-11.8,4-13.7,9.9c-.7,2-2.8,3.1-4.8,2.4-2-.6-3.1-2.8-2.4-4.8,3-9.1,11.4-15.2,20.9-15.2s17.9,6.1,20.9,15.2c.7,2-.4,4.1-2.4,4.8-.4.1-.8.2-1.2.2h0Z"/>
    <path class="cls-1" d="M1055.7,185.7c-1.5,0-2.9-.9-3.5-2.4-7.8-19.4-26.3-32-47.2-32s-39.4,12.5-47.2,32c-.8,1.9-3,2.9-4.9,2.1-1.9-.8-2.9-3-2.1-4.9,8.9-22.3,30.2-36.7,54.2-36.7s45.3,14.4,54.2,36.7c.8,1.9-.2,4.2-2.1,4.9-.5.2-.9.3-1.4.3h0Z"/>
    <path class="cls-1" d="M1037.7,190.1c-1.4,0-2.8-.8-3.4-2.1-5.5-11.4-16.7-18.4-29.4-18.4s-23.9,7.2-29.4,18.4c-.9,1.9-3.2,2.7-5.1,1.8-1.9-.9-2.7-3.2-1.8-5.1,6.7-13.8,20.9-22.7,36.2-22.7s29.5,8.9,36.2,22.7c.9,1.9.1,4.2-1.8,5.1-.5.3-1.1.4-1.7.4h0Z"/>
    <path class="cls-1" d="M1022.3,200.3c-1.6,0-3.1-1-3.6-2.6-1.9-5.9-7.5-9.9-13.7-9.9s-11.8,4-13.7,9.9c-.7,2-2.8,3.1-4.8,2.4-2-.6-3.1-2.8-2.4-4.8,3-9.1,11.4-15.2,20.9-15.2s17.9,6.1,20.9,15.2c.7,2-.4,4.1-2.4,4.8-.4.1-.8.2-1.2.2h0Z"/>
    <path class="cls-1" d="M891.8,83c-1.5,0-2.9-.9-3.5-2.4-7.8-19.4-26.3-32-47.2-32s-39.4,12.5-47.2,32c-.8,1.9-3,2.9-4.9,2.1-1.9-.8-2.9-3-2.1-4.9,8.9-22.3,30.2-36.7,54.2-36.7s45.3,14.4,54.2,36.7c.8,1.9-.2,4.2-2.1,4.9-.5.2-.9.3-1.4.3h0Z"/>
    <path class="cls-1" d="M873.9,87.4c-1.4,0-2.8-.8-3.4-2.1-5.5-11.3-16.8-18.4-29.4-18.4s-23.9,7.1-29.4,18.4c-.9,1.9-3.2,2.7-5.1,1.8-1.9-.9-2.7-3.2-1.8-5.1,6.7-13.8,20.9-22.7,36.2-22.7s29.5,8.9,36.2,22.7c.9,1.9.1,4.2-1.8,5.1-.5.3-1.1.4-1.7.4h0Z"/>
    <path class="cls-1" d="M858.4,97.6c-1.6,0-3.1-1-3.6-2.6-1.9-5.9-7.4-9.9-13.7-9.9s-11.8,4-13.7,9.9c-.7,2-2.8,3.1-4.8,2.4-2-.6-3.1-2.8-2.4-4.8,3-9.1,11.4-15.2,20.9-15.2s17.9,6.1,20.9,15.2c.6,2-.4,4.1-2.4,4.8-.4.1-.8.2-1.2.2Z"/>
    <path class="cls-1" d="M946.5,117.2c-1.5,0-2.9-.9-3.5-2.4-7.8-19.4-26.3-32-47.2-32s-39.4,12.5-47.2,32c-.8,1.9-3,2.9-4.9,2.1-1.9-.8-2.9-3-2.1-4.9,8.9-22.3,30.2-36.7,54.2-36.7s45.3,14.4,54.2,36.7c.8,1.9-.2,4.2-2.1,4.9-.5.2-.9.3-1.4.3h0Z"/>
    <path class="cls-1" d="M928.5,121.6c-1.4,0-2.8-.8-3.4-2.1-5.5-11.4-16.8-18.4-29.4-18.4s-23.9,7.1-29.4,18.4c-.9,1.9-3.2,2.7-5.1,1.8-1.9-.9-2.7-3.2-1.8-5.1,6.7-13.8,20.9-22.7,36.2-22.7s29.5,8.9,36.2,22.7c.9,1.9.1,4.2-1.8,5.1-.5.3-1.1.4-1.7.4h0Z"/>
    <path class="cls-1" d="M913,131.8c-1.6,0-3.1-1-3.6-2.6-1.9-5.9-7.4-9.9-13.7-9.9s-11.8,4-13.7,9.9c-.6,2-2.8,3.1-4.8,2.4-2-.6-3.1-2.8-2.4-4.8,3-9.1,11.4-15.2,20.9-15.2s17.9,6.1,20.9,15.2c.7,2-.4,4.1-2.4,4.8-.4.1-.8.2-1.2.2Z"/>
    <path class="cls-1" d="M891.8,151.5c-1.5,0-2.9-.9-3.5-2.4-7.8-19.4-26.3-32-47.2-32s-39.4,12.5-47.2,32c-.8,1.9-3,2.9-4.9,2.1-1.9-.8-2.9-3-2.1-4.9,8.9-22.3,30.2-36.7,54.2-36.7s45.3,14.4,54.2,36.7c.8,1.9-.2,4.2-2.1,4.9-.5.2-.9.3-1.4.3h0Z"/>
    <path class="cls-1" d="M873.9,155.9c-1.4,0-2.8-.8-3.4-2.1-5.5-11.4-16.8-18.4-29.4-18.4s-23.9,7.1-29.4,18.4c-.9,1.9-3.2,2.7-5.1,1.8-1.9-.9-2.7-3.2-1.8-5.1,6.7-13.8,20.9-22.7,36.2-22.7s29.5,8.9,36.2,22.7c.9,1.9.1,4.2-1.8,5.1-.5.3-1.1.4-1.7.4h0Z"/>
    <path class="cls-1" d="M858.4,166.1c-1.6,0-3.1-1-3.6-2.6-1.9-5.9-7.4-9.9-13.7-9.9s-11.8,4-13.7,9.9c-.7,2-2.8,3.1-4.8,2.4-2-.7-3.1-2.8-2.4-4.8,3-9.1,11.4-15.2,20.9-15.2s17.9,6.1,20.9,15.2c.6,2-.4,4.1-2.4,4.8-.4.1-.8.2-1.2.2Z"/>
    <path class="cls-1" d="M1001.1,83c-1.5,0-2.9-.9-3.5-2.4-7.8-19.4-26.3-32-47.2-32s-39.4,12.5-47.2,32c-.8,1.9-3,2.9-4.9,2.1-1.9-.8-2.9-3-2.1-4.9,8.9-22.3,30.2-36.7,54.2-36.7s45.3,14.4,54.2,36.7c.8,1.9-.2,4.2-2.1,4.9-.5.2-.9.3-1.4.3h0Z"/>
    <path class="cls-1" d="M983.1,87.4c-1.4,0-2.8-.8-3.4-2.1-5.5-11.3-16.8-18.4-29.4-18.4s-23.9,7.2-29.4,18.4c-.9,1.9-3.2,2.7-5.1,1.8-1.9-.9-2.7-3.2-1.8-5.1,6.7-13.8,20.9-22.7,36.2-22.7s29.5,8.9,36.2,22.7c.9,1.9.1,4.2-1.8,5.1-.5.3-1.1.4-1.7.4h0Z"/>
    <path class="cls-1" d="M967.6,97.6c-1.6,0-3.1-1-3.6-2.6-1.9-5.9-7.4-9.9-13.7-9.9s-11.8,4-13.7,9.9c-.6,2-2.8,3.1-4.8,2.4-2-.6-3.1-2.8-2.4-4.8,3-9.1,11.4-15.2,20.9-15.2s17.9,6.1,20.9,15.2c.6,2-.4,4.1-2.4,4.8-.4.1-.8.2-1.2.2Z"/>
    <path class="cls-1" d="M1001.1,151.5c-1.5,0-2.9-.9-3.5-2.4-7.8-19.4-26.3-32-47.2-32s-39.4,12.5-47.2,32c-.8,1.9-3,2.9-4.9,2.1-1.9-.8-2.9-3-2.1-4.9,8.9-22.3,30.2-36.7,54.2-36.7s45.3,14.4,54.2,36.7c.8,1.9-.2,4.2-2.1,4.9-.5.2-.9.3-1.4.3h0Z"/>
    <path class="cls-1" d="M983.1,155.9c-1.4,0-2.8-.8-3.4-2.1-5.5-11.4-16.8-18.4-29.4-18.4s-23.9,7.1-29.4,18.4c-.9,1.9-3.2,2.7-5.1,1.8-1.9-.9-2.7-3.2-1.8-5.1,6.7-13.8,20.9-22.7,36.2-22.7s29.5,8.9,36.2,22.7c.9,1.9.1,4.2-1.8,5.1-.5.3-1.1.4-1.7.4h0Z"/>
    <path class="cls-1" d="M967.6,166.1c-1.6,0-3.1-1-3.6-2.6-1.9-5.9-7.4-9.9-13.7-9.9s-11.8,4-13.7,9.9c-.6,2-2.8,3.1-4.8,2.4-2-.7-3.1-2.8-2.4-4.8,3-9.1,11.4-15.2,20.9-15.2s17.9,6.1,20.9,15.2c.6,2-.4,4.1-2.4,4.8-.4.1-.8.2-1.2.2Z"/>
    <path class="cls-1" d="M946.5,185.7c-1.5,0-2.9-.9-3.5-2.4-7.8-19.4-26.3-32-47.2-32s-39.4,12.5-47.2,32c-.8,1.9-3,2.9-4.9,2.1-1.9-.8-2.9-3-2.1-4.9,8.9-22.3,30.2-36.7,54.2-36.7s45.3,14.4,54.2,36.7c.8,1.9-.2,4.2-2.1,4.9-.5.2-.9.3-1.4.3h0Z"/>
    <path class="cls-1" d="M928.5,190.1c-1.4,0-2.8-.8-3.4-2.1-5.5-11.4-16.8-18.4-29.4-18.4s-23.9,7.1-29.4,18.4c-.9,1.9-3.2,2.7-5.1,1.8-1.9-.9-2.7-3.2-1.8-5.1,6.7-13.8,20.9-22.7,36.2-22.7s29.5,8.9,36.2,22.7c.9,1.9.1,4.2-1.8,5.1-.5.3-1.1.4-1.7.4h0Z"/>
    <path class="cls-1" d="M913,200.3c-1.6,0-3.1-1-3.6-2.6-1.9-5.9-7.4-9.9-13.7-9.9s-11.8,4-13.7,9.9c-.6,2-2.8,3.1-4.8,2.4-2-.6-3.1-2.8-2.4-4.8,3-9.1,11.4-15.2,20.9-15.2s17.9,6.1,20.9,15.2c.6,2-.4,4.1-2.4,4.8-.4.1-.8.2-1.2.2h0Z"/>
    <path class="cls-1" d="M1110.3,220.1c-1.5,0-2.9-.9-3.5-2.4-7.8-19.4-26.3-32-47.2-32s-39.4,12.5-47.2,32c-.8,1.9-3,2.9-4.9,2.1-2-.8-2.9-3-2.1-4.9,8.9-22.3,30.2-36.7,54.2-36.7s45.3,14.4,54.2,36.7c.8,1.9-.2,4.2-2.1,4.9-.5.2-.9.3-1.4.3h0Z"/>
    <path class="cls-1" d="M1092.4,224.5c-1.4,0-2.8-.8-3.4-2.1-5.5-11.4-16.8-18.4-29.4-18.4s-23.9,7.1-29.4,18.4c-.9,1.9-3.2,2.7-5.1,1.8-1.9-.9-2.7-3.2-1.8-5.1,6.7-13.8,20.9-22.7,36.2-22.7s29.5,8.9,36.2,22.7c.9,1.9.1,4.2-1.8,5.1-.5.3-1.1.4-1.7.4h0Z"/>
    <path class="cls-1" d="M1076.9,234.7c-1.6,0-3.1-1-3.6-2.6-1.9-5.9-7.5-9.9-13.7-9.9s-11.8,4-13.7,9.9c-.7,2-2.8,3.1-4.8,2.4-2-.6-3.1-2.8-2.4-4.8,3-9.1,11.4-15.2,20.9-15.2s18,6.1,20.9,15.2c.7,2-.4,4.1-2.4,4.8-.4.1-.8.2-1.2.2Z"/>
    <path class="cls-1" d="M1164.9,254.3c-1.5,0-2.9-.9-3.5-2.4-7.8-19.4-26.3-32-47.2-32s-39.4,12.5-47.2,32c-.8,1.9-3,2.9-4.9,2.1-2-.8-2.9-3-2.1-4.9,8.9-22.3,30.2-36.7,54.2-36.7s45.3,14.4,54.2,36.7c.8,1.9-.2,4.2-2.1,4.9-.5.2-1,.3-1.4.3h0Z"/>
    <path class="cls-1" d="M1147,258.7c-1.4,0-2.8-.8-3.4-2.1-5.5-11.4-16.8-18.4-29.4-18.4s-23.9,7.1-29.4,18.4c-.9,1.9-3.2,2.7-5.1,1.8-1.9-.9-2.7-3.2-1.8-5.1,6.7-13.8,20.9-22.7,36.2-22.7s29.5,8.9,36.2,22.7c.9,1.9.1,4.2-1.8,5.1-.5.3-1.1.4-1.7.4h0Z"/>
    <path class="cls-1" d="M1055.7,254.3c-1.5,0-2.9-.9-3.5-2.4-7.8-19.4-26.3-32-47.2-32s-39.4,12.5-47.2,32c-.8,1.9-3,2.9-4.9,2.1-1.9-.8-2.9-3-2.1-4.9,8.9-22.3,30.2-36.7,54.2-36.7s45.3,14.4,54.2,36.7c.8,1.9-.2,4.2-2.1,4.9-.5.2-.9.3-1.4.3h0Z"/>
    <path class="cls-1" d="M1037.7,258.7c-1.4,0-2.8-.8-3.4-2.1-5.5-11.4-16.7-18.4-29.4-18.4s-23.9,7.2-29.4,18.4c-.9,1.9-3.2,2.7-5.1,1.8-1.9-.9-2.7-3.2-1.8-5.1,6.7-13.8,20.9-22.7,36.2-22.7s29.5,8.9,36.2,22.7c.9,1.9.1,4.2-1.8,5.1-.5.3-1.1.4-1.7.4h0Z"/>
    <path class="cls-1" d="M1219.5,220.1c-1.5,0-2.9-.9-3.5-2.4-7.8-19.4-26.3-32-47.2-32s-39.4,12.5-47.2,32c-.8,1.9-3,2.9-4.9,2.1-2-.8-2.9-3-2.1-4.9,8.9-22.3,30.2-36.7,54.2-36.7s45.3,14.4,54.2,36.7c.8,1.9-.2,4.2-2.1,4.9-.5.2-.9.3-1.4.3h0Z"/>
    <path class="cls-1" d="M1201.6,224.5c-1.4,0-2.8-.8-3.4-2.1-5.5-11.4-16.8-18.4-29.4-18.4s-23.9,7.1-29.4,18.4c-.9,1.9-3.2,2.7-5.1,1.8-1.9-.9-2.7-3.2-1.8-5.1,6.7-13.8,20.9-22.7,36.2-22.7s29.5,8.9,36.2,22.7c.9,1.9.1,4.2-1.8,5.1-.5.3-1.1.4-1.7.4h0Z"/>
    <path class="cls-1" d="M1186.1,234.7c-1.6,0-3.1-1-3.6-2.6-1.9-5.9-7.4-9.9-13.7-9.9s-11.8,4-13.7,9.9c-.7,2-2.8,3.1-4.8,2.4-2-.6-3.1-2.8-2.4-4.8,3-9.1,11.4-15.2,20.9-15.2s17.9,6.1,20.9,15.2c.6,2-.4,4.1-2.4,4.8-.4.1-.8.2-1.2.2h0Z"/>
    <path class="cls-1" d="M1273.8,48.6c-1.5,0-2.9-.9-3.5-2.4-7.8-19.4-26.3-32-47.2-32s-39.4,12.5-47.2,32c-.8,1.9-3,2.9-4.9,2.1-2-.8-2.9-3-2.1-4.9,8.9-22.3,30.2-36.7,54.2-36.7s45.3,14.4,54.2,36.7c.8,1.9-.2,4.2-2.1,4.9-.5.2-.9.3-1.4.3h0Z"/>
    <path class="cls-1" d="M1255.8,53.1c-1.4,0-2.8-.8-3.4-2.1-5.5-11.3-16.8-18.4-29.4-18.4s-23.9,7.1-29.4,18.4c-.9,1.9-3.2,2.7-5.1,1.8-1.9-.9-2.7-3.2-1.8-5.1,6.7-13.8,20.9-22.7,36.2-22.7s29.5,8.9,36.2,22.7c.9,1.9.1,4.2-1.8,5.1-.5.3-1.1.4-1.7.4h0Z"/>
    <path class="cls-1" d="M1240.3,63.3c-1.6,0-3.1-1-3.6-2.6-1.9-5.9-7.4-9.9-13.7-9.9s-11.8,4-13.7,9.9c-.7,2-2.8,3.1-4.8,2.4-2-.6-3.1-2.8-2.4-4.8,3-9.1,11.4-15.2,20.9-15.2s17.9,6.1,20.9,15.2c.7,2-.4,4.1-2.4,4.8-.4.1-.8.2-1.2.2Z"/>
    <path class="cls-1" d="M1273.8,117.2c-1.5,0-2.9-.9-3.5-2.4-7.8-19.4-26.3-32-47.2-32s-39.4,12.5-47.2,32c-.8,1.9-3,2.9-4.9,2.1-2-.8-2.9-3-2.1-4.9,8.9-22.3,30.2-36.7,54.2-36.7s45.3,14.4,54.2,36.7c.8,1.9-.2,4.2-2.1,4.9-.5.2-.9.3-1.4.3h0Z"/>
    <path class="cls-1" d="M1255.8,121.6c-1.4,0-2.8-.8-3.4-2.1-5.5-11.4-16.8-18.4-29.4-18.4s-23.9,7.1-29.4,18.4c-.9,1.9-3.2,2.7-5.1,1.8-1.9-.9-2.7-3.2-1.8-5.1,6.7-13.8,20.9-22.7,36.2-22.7s29.5,8.9,36.2,22.7c.9,1.9.1,4.2-1.8,5.1-.5.3-1.1.4-1.7.4h0Z"/>
    <path class="cls-1" d="M1240.3,131.8c-1.6,0-3.1-1-3.6-2.6-1.9-5.9-7.4-9.9-13.7-9.9s-11.8,4-13.7,9.9c-.7,2-2.8,3.1-4.8,2.4-2-.6-3.1-2.8-2.4-4.8,3-9.1,11.4-15.2,20.9-15.2s17.9,6.1,20.9,15.2c.7,2-.4,4.1-2.4,4.8-.4.1-.8.2-1.2.2Z"/>
    <path class="cls-1" d="M1273.8,185.7c-1.5,0-2.9-.9-3.5-2.4-7.8-19.4-26.3-32-47.2-32s-39.4,12.5-47.2,32c-.8,1.9-3,2.9-4.9,2.1-2-.8-2.9-3-2.1-4.9,8.9-22.3,30.2-36.7,54.2-36.7s45.3,14.4,54.2,36.7c.8,1.9-.2,4.2-2.1,4.9-.5.2-.9.3-1.4.3h0Z"/>
    <path class="cls-1" d="M1255.8,190.1c-1.4,0-2.8-.8-3.4-2.1-5.5-11.4-16.8-18.4-29.4-18.4s-23.9,7.1-29.4,18.4c-.9,1.9-3.2,2.7-5.1,1.8-1.9-.9-2.7-3.2-1.8-5.1,6.7-13.8,20.9-22.7,36.2-22.7s29.5,8.9,36.2,22.7c.9,1.9.1,4.2-1.8,5.1-.5.3-1.1.4-1.7.4h0Z"/>
    <path class="cls-1" d="M1240.3,200.3c-1.6,0-3.1-1-3.6-2.6-1.9-5.9-7.4-9.9-13.7-9.9s-11.8,4-13.7,9.9c-.7,2-2.8,3.1-4.8,2.4-2-.6-3.1-2.8-2.4-4.8,3-9.1,11.4-15.2,20.9-15.2s17.9,6.1,20.9,15.2c.7,2-.4,4.1-2.4,4.8-.4.1-.8.2-1.2.2h0Z"/>
    <path class="cls-1" d="M1273.8,254.3c-1.5,0-2.9-.9-3.5-2.4-7.8-19.4-26.3-32-47.2-32s-39.4,12.5-47.2,32c-.8,1.9-3,2.9-4.9,2.1-2-.8-2.9-3-2.1-4.9,8.9-22.3,30.2-36.7,54.2-36.7s45.3,14.4,54.2,36.7c.8,1.9-.2,4.2-2.1,4.9-.5.2-.9.3-1.4.3h0Z"/>
    <path class="cls-1" d="M1255.8,258.7c-1.4,0-2.8-.8-3.4-2.1-5.5-11.4-16.8-18.4-29.4-18.4s-23.9,7.1-29.4,18.4c-.9,1.9-3.2,2.7-5.1,1.8-1.9-.9-2.7-3.2-1.8-5.1,6.7-13.8,20.9-22.7,36.2-22.7s29.5,8.9,36.2,22.7c.9,1.9.1,4.2-1.8,5.1-.5.3-1.1.4-1.7.4h0Z"/>
    <path class="cls-1" d="M891.8,220.1c-1.5,0-2.9-.9-3.5-2.4-7.8-19.4-26.3-32-47.2-32s-39.4,12.5-47.2,32c-.8,1.9-3,2.9-4.9,2.1-1.9-.8-2.9-3-2.1-4.9,8.9-22.3,30.2-36.7,54.2-36.7s45.3,14.4,54.2,36.7c.8,1.9-.2,4.2-2.1,4.9-.5.2-.9.3-1.4.3h0Z"/>
    <path class="cls-1" d="M873.9,224.5c-1.4,0-2.8-.8-3.4-2.1-5.5-11.4-16.8-18.4-29.4-18.4s-23.9,7.1-29.4,18.4c-.9,1.9-3.2,2.7-5.1,1.8-1.9-.9-2.7-3.2-1.8-5.1,6.7-13.8,20.9-22.7,36.2-22.7s29.5,8.9,36.2,22.7c.9,1.9.1,4.2-1.8,5.1-.5.3-1.1.4-1.7.4h0Z"/>
    <path class="cls-1" d="M858.4,234.7c-1.6,0-3.1-1-3.6-2.6-1.9-5.9-7.4-9.9-13.7-9.9s-11.8,4-13.7,9.9c-.7,2-2.8,3.1-4.8,2.4-2-.6-3.1-2.8-2.4-4.8,3-9.1,11.4-15.2,20.9-15.2s17.9,6.1,20.9,15.2c.6,2-.4,4.1-2.4,4.8-.4.1-.8.2-1.2.2Z"/>
    <path class="cls-1" d="M946.5,254.3c-1.5,0-2.9-.9-3.5-2.4-7.8-19.4-26.3-32-47.2-32s-39.4,12.5-47.2,32c-.8,1.9-3,2.9-4.9,2.1-1.9-.8-2.9-3-2.1-4.9,8.9-22.3,30.2-36.7,54.2-36.7s45.3,14.4,54.2,36.7c.8,1.9-.2,4.2-2.1,4.9-.5.2-.9.3-1.4.3h0Z"/>
    <path class="cls-1" d="M928.5,258.7c-1.4,0-2.8-.8-3.4-2.1-5.5-11.4-16.8-18.4-29.4-18.4s-23.9,7.1-29.4,18.4c-.9,1.9-3.2,2.7-5.1,1.8-1.9-.9-2.7-3.2-1.8-5.1,6.7-13.8,20.9-22.7,36.2-22.7s29.5,8.9,36.2,22.7c.9,1.9.1,4.2-1.8,5.1-.5.3-1.1.4-1.7.4h0Z"/>
    <path class="cls-1" d="M1001.1,220.1c-1.5,0-2.9-.9-3.5-2.4-7.8-19.4-26.3-32-47.2-32s-39.4,12.5-47.2,32c-.8,1.9-3,2.9-4.9,2.1-1.9-.8-2.9-3-2.1-4.9,8.9-22.3,30.2-36.7,54.2-36.7s45.3,14.4,54.2,36.7c.8,1.9-.2,4.2-2.1,4.9-.5.2-.9.3-1.4.3h0Z"/>
    <path class="cls-1" d="M983.1,224.5c-1.4,0-2.8-.8-3.4-2.1-5.5-11.4-16.8-18.4-29.4-18.4s-23.9,7.1-29.4,18.4c-.9,1.9-3.2,2.7-5.1,1.8-1.9-.9-2.7-3.2-1.8-5.1,6.7-13.8,20.9-22.7,36.2-22.7s29.5,8.9,36.2,22.7c.9,1.9.1,4.2-1.8,5.1-.5.3-1.1.4-1.7.4h0Z"/>
    <path class="cls-1" d="M967.6,234.7c-1.6,0-3.1-1-3.6-2.6-1.9-5.9-7.4-9.9-13.7-9.9s-11.8,4-13.7,9.9c-.6,2-2.8,3.1-4.8,2.4-2-.6-3.1-2.8-2.4-4.8,3-9.1,11.4-15.2,20.9-15.2s17.9,6.1,20.9,15.2c.6,2-.4,4.1-2.4,4.8-.4.1-.8.2-1.2.2Z"/>
  </g>
  <g>
    <path class="cls-1" d="M1491.7,48.6c-1.5,0-2.9-.9-3.5-2.4-7.8-19.4-26.3-32-47.2-32s-39.4,12.5-47.2,32c-.8,1.9-3,2.9-4.9,2.1-1.9-.8-2.9-3-2.1-4.9,8.9-22.3,30.2-36.7,54.2-36.7s45.3,14.4,54.2,36.7c.8,1.9-.2,4.2-2.1,4.9-.5.2-.9.3-1.4.3h0Z"/>
    <path class="cls-1" d="M1473.7,53.1c-1.4,0-2.8-.8-3.4-2.1-5.5-11.3-16.8-18.4-29.4-18.4s-23.9,7.2-29.4,18.4c-.9,1.9-3.2,2.7-5.1,1.8-1.9-.9-2.7-3.2-1.8-5.1,6.7-13.8,20.9-22.7,36.2-22.7s29.5,8.9,36.2,22.7c.9,1.9.1,4.2-1.8,5.1-.5.3-1.1.4-1.7.4Z"/>
    <path class="cls-1" d="M1327.8,14.5c-1.5,0-2.9-.9-3.5-2.4-7.8-19.4-26.3-32-47.2-32s-39.4,12.5-47.2,32c-.8,1.9-3,2.9-4.9,2.1-1.9-.8-2.9-3-2.1-4.9,8.9-22.3,30.2-36.7,54.2-36.7s45.3,14.4,54.2,36.7c.8,1.9-.2,4.2-2.1,4.9-.5.2-.9.3-1.4.3h0Z"/>
    <path class="cls-1" d="M1309.9,18.9c-1.4,0-2.8-.8-3.4-2.1-5.5-11.3-16.8-18.4-29.4-18.4s-23.9,7.1-29.4,18.4c-.9,1.9-3.2,2.7-5.1,1.8-1.9-.9-2.7-3.2-1.8-5.1,6.7-13.8,20.9-22.7,36.2-22.7s29.5,8.9,36.2,22.7c.9,1.9.1,4.2-1.8,5.1-.5.3-1.1.4-1.7.4h0Z"/>
    <path class="cls-1" d="M1294.4,29.1c-1.6,0-3.1-1-3.6-2.6-1.9-5.9-7.4-9.9-13.7-9.9s-11.8,4-13.7,9.9c-.7,2-2.8,3.1-4.8,2.4-2-.6-3.1-2.8-2.4-4.8,3-9.1,11.4-15.2,20.9-15.2s17.9,6.1,20.9,15.2c.7,2-.4,4.1-2.4,4.8-.4.1-.8.2-1.2.2Z"/>
    <path class="cls-1" d="M1437.1,14.5c-1.5,0-2.9-.9-3.5-2.4-7.8-19.4-26.3-32-47.2-32s-39.4,12.5-47.2,32c-.8,1.9-3,2.9-4.9,2.1-1.9-.8-2.9-3-2.1-4.9,8.9-22.3,30.2-36.7,54.2-36.7s45.3,14.4,54.2,36.7c.8,1.9-.2,4.2-2.1,4.9-.5.2-.9.3-1.4.3h0Z"/>
    <path class="cls-1" d="M1419.1,18.9c-1.4,0-2.8-.8-3.4-2.1-5.5-11.3-16.8-18.4-29.4-18.4s-23.9,7.2-29.4,18.4c-.9,1.9-3.2,2.7-5.1,1.8-1.9-.9-2.7-3.2-1.8-5.1,6.7-13.8,20.9-22.7,36.2-22.7s29.5,8.9,36.2,22.7c.9,1.9.1,4.2-1.8,5.1-.5.3-1.1.4-1.7.4h0Z"/>
    <path class="cls-1" d="M1403.7,29.1c-1.6,0-3.1-1-3.6-2.6-1.9-5.9-7.5-9.9-13.7-9.9s-11.8,4-13.7,9.9c-.7,2-2.8,3.1-4.8,2.4-2-.6-3.1-2.8-2.4-4.8,3-9.1,11.4-15.2,20.9-15.2s17.9,6.1,20.9,15.2c.7,2-.4,4.1-2.4,4.8-.4.1-.8.2-1.2.2Z"/>
    <path class="cls-1" d="M1382.4,48.6c-1.5,0-2.9-.9-3.5-2.4-7.8-19.4-26.3-32-47.2-32s-39.4,12.5-47.2,32c-.8,1.9-3,2.9-4.9,2.1-1.9-.8-2.9-3-2.1-4.9,8.9-22.3,30.2-36.7,54.2-36.7s45.3,14.4,54.2,36.7c.8,1.9-.2,4.2-2.1,4.9-.4.2-.9.3-1.4.3h0Z"/>
    <path class="cls-1" d="M1364.5,53.1c-1.4,0-2.8-.8-3.4-2.1-5.5-11.4-16.8-18.4-29.4-18.4s-23.8,7.1-29.4,18.4c-.9,1.9-3.2,2.7-5.1,1.8-1.9-.9-2.7-3.2-1.8-5.1,6.7-13.8,20.9-22.7,36.2-22.7s29.5,8.9,36.2,22.7c.9,1.9.1,4.2-1.8,5.1-.5.3-1.1.4-1.7.4h0Z"/>
    <path class="cls-1" d="M1349,63.3c-1.6,0-3.1-1-3.6-2.6-1.9-5.9-7.5-9.9-13.7-9.9s-11.8,4-13.7,9.9c-.7,2-2.8,3.1-4.8,2.4-2-.6-3.1-2.8-2.4-4.8,3-9.1,11.4-15.2,20.9-15.2s18,6.1,20.9,15.2c.7,2-.4,4.1-2.4,4.8-.4.1-.8.2-1.2.2Z"/>
    <path class="cls-1" d="M1491.7,117.2c-1.5,0-2.9-.9-3.5-2.4-7.8-19.4-26.3-32-47.2-32s-39.4,12.5-47.2,32c-.8,1.9-3,2.9-4.9,2.1-1.9-.8-2.9-3-2.1-4.9,8.9-22.3,30.2-36.7,54.2-36.7s45.3,14.4,54.2,36.7c.8,1.9-.2,4.2-2.1,4.9-.5.2-.9.3-1.4.3h0Z"/>
    <path class="cls-1" d="M1473.7,121.6c-1.4,0-2.8-.8-3.4-2.1-5.5-11.4-16.8-18.4-29.4-18.4s-23.9,7.1-29.4,18.4c-.9,1.9-3.2,2.7-5.1,1.8-1.9-.9-2.7-3.2-1.8-5.1,6.7-13.8,20.9-22.7,36.2-22.7s29.5,8.9,36.2,22.7c.9,1.9.1,4.2-1.8,5.1-.5.3-1.1.4-1.7.4h0Z"/>
    <path class="cls-1" d="M1491.7,185.7c-1.5,0-2.9-.9-3.5-2.4-7.8-19.4-26.3-32-47.2-32s-39.4,12.5-47.2,32c-.8,1.9-3,2.9-4.9,2.1-1.9-.8-2.9-3-2.1-4.9,8.9-22.3,30.2-36.7,54.2-36.7s45.3,14.4,54.2,36.7c.8,1.9-.2,4.2-2.1,4.9-.5.2-.9.3-1.4.3h0Z"/>
    <path class="cls-1" d="M1473.7,190.1c-1.4,0-2.8-.8-3.4-2.1-5.5-11.4-16.8-18.4-29.4-18.4s-23.9,7.2-29.4,18.4c-.9,1.9-3.2,2.7-5.1,1.8-1.9-.9-2.7-3.2-1.8-5.1,6.7-13.8,20.9-22.7,36.2-22.7s29.5,8.9,36.2,22.7c.9,1.9.1,4.2-1.8,5.1-.5.3-1.1.4-1.7.4h0Z"/>
    <path class="cls-1" d="M1327.8,83c-1.5,0-2.9-.9-3.5-2.4-7.8-19.4-26.3-32-47.2-32s-39.4,12.5-47.2,32c-.8,1.9-3,2.9-4.9,2.1-1.9-.8-2.9-3-2.1-4.9,8.9-22.3,30.2-36.7,54.2-36.7s45.3,14.4,54.2,36.7c.8,1.9-.2,4.2-2.1,4.9-.5.2-.9.3-1.4.3h0Z"/>
    <path class="cls-1" d="M1309.9,87.4c-1.4,0-2.8-.8-3.4-2.1-5.5-11.3-16.8-18.4-29.4-18.4s-23.9,7.1-29.4,18.4c-.9,1.9-3.2,2.7-5.1,1.8-1.9-.9-2.7-3.2-1.8-5.1,6.7-13.8,20.9-22.7,36.2-22.7s29.5,8.9,36.2,22.7c.9,1.9.1,4.2-1.8,5.1-.5.3-1.1.4-1.7.4h0Z"/>
    <path class="cls-1" d="M1294.4,97.6c-1.6,0-3.1-1-3.6-2.6-1.9-5.9-7.4-9.9-13.7-9.9s-11.8,4-13.7,9.9c-.7,2-2.8,3.1-4.8,2.4-2-.6-3.1-2.8-2.4-4.8,3-9.1,11.4-15.2,20.9-15.2s17.9,6.1,20.9,15.2c.7,2-.4,4.1-2.4,4.8-.4.1-.8.2-1.2.2Z"/>
    <path class="cls-1" d="M1382.4,117.2c-1.5,0-2.9-.9-3.5-2.4-7.8-19.4-26.3-32-47.2-32s-39.4,12.5-47.2,32c-.8,1.9-3,2.9-4.9,2.1-1.9-.8-2.9-3-2.1-4.9,8.9-22.3,30.2-36.7,54.2-36.7s45.3,14.4,54.2,36.7c.8,1.9-.2,4.2-2.1,4.9-.4.2-.9.3-1.4.3h0Z"/>
    <path class="cls-1" d="M1364.5,121.6c-1.4,0-2.8-.8-3.4-2.1-5.5-11.4-16.8-18.4-29.4-18.4s-23.8,7.1-29.4,18.4c-.9,1.9-3.2,2.7-5.1,1.8-1.9-.9-2.7-3.2-1.8-5.1,6.7-13.8,20.9-22.7,36.2-22.7s29.5,8.9,36.2,22.7c.9,1.9.1,4.2-1.8,5.1-.5.3-1.1.4-1.7.4h0Z"/>
    <path class="cls-1" d="M1349,131.8c-1.6,0-3.1-1-3.6-2.6-1.9-5.9-7.5-9.9-13.7-9.9s-11.8,4-13.7,9.9c-.7,2-2.8,3.1-4.8,2.4-2-.6-3.1-2.8-2.4-4.8,3-9.1,11.4-15.2,20.9-15.2s18,6.1,20.9,15.2c.7,2-.4,4.1-2.4,4.8-.4.1-.8.2-1.2.2Z"/>
    <path class="cls-1" d="M1327.8,151.5c-1.5,0-2.9-.9-3.5-2.4-7.8-19.4-26.3-32-47.2-32s-39.4,12.5-47.2,32c-.8,1.9-3,2.9-4.9,2.1-1.9-.8-2.9-3-2.1-4.9,8.9-22.3,30.2-36.7,54.2-36.7s45.3,14.4,54.2,36.7c.8,1.9-.2,4.2-2.1,4.9-.5.2-.9.3-1.4.3h0Z"/>
    <path class="cls-1" d="M1309.9,155.9c-1.4,0-2.8-.8-3.4-2.1-5.5-11.4-16.8-18.4-29.4-18.4s-23.9,7.1-29.4,18.4c-.9,1.9-3.2,2.7-5.1,1.8-1.9-.9-2.7-3.2-1.8-5.1,6.7-13.8,20.9-22.7,36.2-22.7s29.5,8.9,36.2,22.7c.9,1.9.1,4.2-1.8,5.1-.5.3-1.1.4-1.7.4h0Z"/>
    <path class="cls-1" d="M1294.4,166.1c-1.6,0-3.1-1-3.6-2.6-1.9-5.9-7.4-9.9-13.7-9.9s-11.8,4-13.7,9.9c-.7,2-2.8,3.1-4.8,2.4-2-.7-3.1-2.8-2.4-4.8,3-9.1,11.4-15.2,20.9-15.2s17.9,6.1,20.9,15.2c.7,2-.4,4.1-2.4,4.8-.4.1-.8.2-1.2.2Z"/>
    <path class="cls-1" d="M1437.1,83c-1.5,0-2.9-.9-3.5-2.4-7.8-19.4-26.3-32-47.2-32s-39.4,12.5-47.2,32c-.8,1.9-3,2.9-4.9,2.1-1.9-.8-2.9-3-2.1-4.9,8.9-22.3,30.2-36.7,54.2-36.7s45.3,14.4,54.2,36.7c.8,1.9-.2,4.2-2.1,4.9-.5.2-.9.3-1.4.3h0Z"/>
    <path class="cls-1" d="M1419.1,87.4c-1.4,0-2.8-.8-3.4-2.1-5.5-11.3-16.8-18.4-29.4-18.4s-23.9,7.2-29.4,18.4c-.9,1.9-3.2,2.7-5.1,1.8s-2.7-3.2-1.8-5.1c6.7-13.8,20.9-22.7,36.2-22.7s29.5,8.9,36.2,22.7c.9,1.9.1,4.2-1.8,5.1-.5.3-1.1.4-1.7.4h0Z"/>
    <path class="cls-1" d="M1403.7,97.6c-1.6,0-3.1-1-3.6-2.6-1.9-5.9-7.5-9.9-13.7-9.9s-11.8,4-13.7,9.9c-.7,2-2.8,3.1-4.8,2.4-2-.6-3.1-2.8-2.4-4.8,3-9.1,11.4-15.2,20.9-15.2s17.9,6.1,20.9,15.2c.7,2-.4,4.1-2.4,4.8-.4.1-.8.2-1.2.2Z"/>
    <path class="cls-1" d="M1437.1,151.5c-1.5,0-2.9-.9-3.5-2.4-7.8-19.4-26.3-32-47.2-32s-39.4,12.5-47.2,32c-.8,1.9-3,2.9-4.9,2.1-1.9-.8-2.9-3-2.1-4.9,8.9-22.3,30.2-36.7,54.2-36.7s45.3,14.4,54.2,36.7c.8,1.9-.2,4.2-2.1,4.9-.5.2-.9.3-1.4.3h0Z"/>
    <path class="cls-1" d="M1419.1,155.9c-1.4,0-2.8-.8-3.4-2.1-5.5-11.4-16.8-18.4-29.4-18.4s-23.9,7.1-29.4,18.4c-.9,1.9-3.2,2.7-5.1,1.8-1.9-.9-2.7-3.2-1.8-5.1,6.7-13.8,20.9-22.7,36.2-22.7s29.5,8.9,36.2,22.7c.9,1.9.1,4.2-1.8,5.1-.5.3-1.1.4-1.7.4h0Z"/>
    <path class="cls-1" d="M1403.7,166.1c-1.6,0-3.1-1-3.6-2.6-1.9-5.9-7.5-9.9-13.7-9.9s-11.8,4-13.7,9.9c-.7,2-2.8,3.1-4.8,2.4-2-.7-3.1-2.8-2.4-4.8,3-9.1,11.4-15.2,20.9-15.2s17.9,6.1,20.9,15.2c.7,2-.4,4.1-2.4,4.8-.4.1-.8.2-1.2.2Z"/>
    <path class="cls-1" d="M1382.4,185.7c-1.5,0-2.9-.9-3.5-2.4-7.8-19.4-26.3-32-47.2-32s-39.4,12.5-47.2,32c-.8,1.9-3,2.9-4.9,2.1-1.9-.8-2.9-3-2.1-4.9,8.9-22.3,30.2-36.7,54.2-36.7s45.3,14.4,54.2,36.7c.8,1.9-.2,4.2-2.1,4.9-.4.2-.9.3-1.4.3h0Z"/>
    <path class="cls-1" d="M1364.5,190.1c-1.4,0-2.8-.8-3.4-2.1-5.5-11.4-16.8-18.4-29.4-18.4s-23.8,7.1-29.4,18.4c-.9,1.9-3.2,2.7-5.1,1.8-1.9-.9-2.7-3.2-1.8-5.1,6.7-13.8,20.9-22.7,36.2-22.7s29.5,8.9,36.2,22.7c.9,1.9.1,4.2-1.8,5.1-.5.3-1.1.4-1.7.4h0Z"/>
    <path class="cls-1" d="M1349,200.3c-1.6,0-3.1-1-3.6-2.6-1.9-5.9-7.5-9.9-13.7-9.9s-11.8,4-13.7,9.9c-.7,2-2.8,3.1-4.8,2.4-2-.6-3.1-2.8-2.4-4.8,3-9.1,11.4-15.2,20.9-15.2s17.9,6.1,20.9,15.2c.7,2-.4,4.1-2.4,4.8-.4.1-.8.2-1.2.2h0Z"/>
    <path class="cls-1" d="M1491.7,254.3c-1.5,0-2.9-.9-3.5-2.4-7.8-19.4-26.3-32-47.2-32s-39.4,12.5-47.2,32c-.8,1.9-3,2.9-4.9,2.1-1.9-.8-2.9-3-2.1-4.9,8.9-22.3,30.2-36.7,54.2-36.7s45.3,14.4,54.2,36.7c.8,1.9-.2,4.2-2.1,4.9-.5.2-.9.3-1.4.3h0Z"/>
    <path class="cls-1" d="M1473.7,258.7c-1.4,0-2.8-.8-3.4-2.1-5.5-11.4-16.8-18.4-29.4-18.4s-23.9,7.2-29.4,18.4c-.9,1.9-3.2,2.7-5.1,1.8-1.9-.9-2.7-3.2-1.8-5.1,6.7-13.8,20.9-22.7,36.2-22.7s29.5,8.9,36.2,22.7c.9,1.9.1,4.2-1.8,5.1-.5.3-1.1.4-1.7.4h0Z"/>
    <path class="cls-1" d="M1327.8,220.1c-1.5,0-2.9-.9-3.5-2.4-7.8-19.4-26.3-32-47.2-32s-39.4,12.5-47.2,32c-.8,1.9-3,2.9-4.9,2.1-1.9-.8-2.9-3-2.1-4.9,8.9-22.3,30.2-36.7,54.2-36.7s45.3,14.4,54.2,36.7c.8,1.9-.2,4.2-2.1,4.9-.5.2-.9.3-1.4.3h0Z"/>
    <path class="cls-1" d="M1309.9,224.5c-1.4,0-2.8-.8-3.4-2.1-5.5-11.4-16.8-18.4-29.4-18.4s-23.9,7.1-29.4,18.4c-.9,1.9-3.2,2.7-5.1,1.8-1.9-.9-2.7-3.2-1.8-5.1,6.7-13.8,20.9-22.7,36.2-22.7s29.5,8.9,36.2,22.7c.9,1.9.1,4.2-1.8,5.1-.5.3-1.1.4-1.7.4h0Z"/>
    <path class="cls-1" d="M1294.4,234.7c-1.6,0-3.1-1-3.6-2.6-1.9-5.9-7.4-9.9-13.7-9.9s-11.8,4-13.7,9.9c-.7,2-2.8,3.1-4.8,2.4-2-.6-3.1-2.8-2.4-4.8,3-9.1,11.4-15.2,20.9-15.2s17.9,6.1,20.9,15.2c.7,2-.4,4.1-2.4,4.8-.4.1-.8.2-1.2.2Z"/>
    <path class="cls-1" d="M1382.4,254.3c-1.5,0-2.9-.9-3.5-2.4-7.8-19.4-26.3-32-47.2-32s-39.4,12.5-47.2,32c-.8,1.9-3,2.9-4.9,2.1-1.9-.8-2.9-3-2.1-4.9,8.9-22.3,30.2-36.7,54.2-36.7s45.3,14.4,54.2,36.7c.8,1.9-.2,4.2-2.1,4.9-.4.2-.9.3-1.4.3h0Z"/>
    <path class="cls-1" d="M1364.5,258.7c-1.4,0-2.8-.8-3.4-2.1-5.5-11.4-16.8-18.4-29.4-18.4s-23.8,7.1-29.4,18.4c-.9,1.9-3.2,2.7-5.1,1.8-1.9-.9-2.7-3.2-1.8-5.1,6.7-13.8,20.9-22.7,36.2-22.7s29.5,8.9,36.2,22.7c.9,1.9.1,4.2-1.8,5.1-.5.3-1.1.4-1.7.4h0Z"/>
    <path class="cls-1" d="M1437.1,220.1c-1.5,0-2.9-.9-3.5-2.4-7.8-19.4-26.3-32-47.2-32s-39.4,12.5-47.2,32c-.8,1.9-3,2.9-4.9,2.1-1.9-.8-2.9-3-2.1-4.9,8.9-22.3,30.2-36.7,54.2-36.7s45.3,14.4,54.2,36.7c.8,1.9-.2,4.2-2.1,4.9-.5.2-.9.3-1.4.3h0Z"/>
    <path class="cls-1" d="M1419.1,224.5c-1.4,0-2.8-.8-3.4-2.1-5.5-11.4-16.8-18.4-29.4-18.4s-23.9,7.1-29.4,18.4c-.9,1.9-3.2,2.7-5.1,1.8-1.9-.9-2.7-3.2-1.8-5.1,6.7-13.8,20.9-22.7,36.2-22.7s29.5,8.9,36.2,22.7c.9,1.9.1,4.2-1.8,5.1-.5.3-1.1.4-1.7.4h0Z"/>
    <path class="cls-1" d="M1403.7,234.7c-1.6,0-3.1-1-3.6-2.6-1.9-5.9-7.5-9.9-13.7-9.9s-11.8,4-13.7,9.9c-.7,2-2.8,3.1-4.8,2.4-2-.6-3.1-2.8-2.4-4.8,3-9.1,11.4-15.2,20.9-15.2s17.9,6.1,20.9,15.2c.7,2-.4,4.1-2.4,4.8-.4.1-.8.2-1.2.2Z"/>
  </g>
  <g>
    <path class="cls-1" d="M237.3,14.5c-1.5,0-2.9-.9-3.5-2.4-7.8-19.4-26.3-32-47.2-32s-39.4,12.5-47.2,32c-.8,1.9-3,2.9-4.9,2.1-1.9-.8-2.9-3-2.1-4.9,8.9-22.3,30.2-36.7,54.2-36.7s45.3,14.4,54.2,36.7c.8,1.9-.2,4.2-2.1,4.9-.5.2-.9.3-1.4.3h0Z"/>
    <path class="cls-1" d="M219.4,18.9c-1.4,0-2.8-.8-3.4-2.1-5.5-11.3-16.8-18.4-29.4-18.4s-23.9,7.2-29.4,18.4c-.9,1.9-3.2,2.7-5.1,1.8-1.9-.9-2.7-3.2-1.8-5.1,6.7-13.8,20.9-22.7,36.2-22.7S216.1-.4,222.8,13.4c.9,1.9.1,4.2-1.8,5.1-.5.3-1.1.4-1.7.4h0Z"/>
    <path class="cls-1" d="M203.9,29.1c-1.6,0-3.1-1-3.6-2.6-1.9-5.9-7.4-9.9-13.7-9.9s-11.8,4-13.7,9.9c-.6,2-2.8,3.1-4.8,2.4-2-.6-3.1-2.8-2.4-4.8,3-9.1,11.4-15.2,20.9-15.2s17.9,6.1,20.9,15.2c.6,2-.4,4.1-2.4,4.8-.4.1-.8.2-1.2.2Z"/>
    <path class="cls-1" d="M346.5,14.5c-1.5,0-2.9-.9-3.5-2.4-7.8-19.4-26.3-32-47.2-32s-39.4,12.5-47.2,32c-.8,1.9-3,2.9-4.9,2.1-1.9-.8-2.9-3-2.1-4.9,8.9-22.3,30.2-36.7,54.2-36.7s45.3,14.4,54.2,36.7c.8,1.9-.2,4.2-2.1,4.9-.5.2-.9.3-1.4.3Z"/>
    <path class="cls-1" d="M328.6,18.9c-1.4,0-2.8-.8-3.4-2.1-5.5-11.3-16.8-18.4-29.4-18.4s-23.9,7.1-29.4,18.4c-.9,1.9-3.2,2.7-5.1,1.8-1.9-.9-2.7-3.2-1.8-5.1,6.7-13.8,20.9-22.7,36.2-22.7s29.5,8.9,36.2,22.7c.9,1.9.1,4.2-1.8,5.1-.5.3-1.1.4-1.7.4h0Z"/>
    <path class="cls-1" d="M313.1,29.1c-1.6,0-3.1-1-3.6-2.6-1.9-5.9-7.4-9.9-13.7-9.9s-11.8,4-13.7,9.9c-.6,2-2.8,3.1-4.8,2.4-2-.6-3.1-2.8-2.4-4.8,3-9.1,11.4-15.2,20.9-15.2s17.9,6.1,20.9,15.2c.6,2-.4,4.1-2.4,4.8-.4.1-.8.2-1.2.2h0Z"/>
    <path class="cls-1" d="M291.9,48.6c-1.5,0-2.9-.9-3.5-2.4-7.8-19.4-26.3-32-47.2-32s-39.4,12.5-47.2,32c-.8,1.9-3,2.9-4.9,2.1-1.9-.8-2.9-3-2.1-4.9,8.9-22.3,30.2-36.7,54.2-36.7s45.3,14.4,54.2,36.7c.8,1.9-.2,4.2-2.1,4.9-.5.2-.9.3-1.4.3h0Z"/>
    <path class="cls-1" d="M274,53.1c-1.4,0-2.8-.8-3.4-2.1-5.5-11.3-16.8-18.4-29.4-18.4s-23.9,7.1-29.4,18.4c-.9,1.9-3.2,2.7-5.1,1.8-1.9-.9-2.7-3.2-1.8-5.1,6.7-13.8,20.9-22.7,36.2-22.7s29.5,8.9,36.2,22.7c.9,1.9.1,4.2-1.8,5.1-.5.3-1.1.4-1.7.4Z"/>
    <path class="cls-1" d="M258.5,63.3c-1.6,0-3.1-1-3.6-2.6-1.9-5.9-7.4-9.9-13.7-9.9s-11.8,4-13.7,9.9c-.6,2-2.8,3.1-4.8,2.4-2-.6-3.1-2.8-2.4-4.8,3-9.1,11.4-15.2,20.9-15.2s17.9,6.1,20.9,15.2c.6,2-.4,4.1-2.4,4.8-.4.1-.8.2-1.2.2Z"/>
    <path class="cls-1" d="M182.7,48.6c-1.5,0-2.9-.9-3.5-2.4-7.8-19.4-26.3-32-47.2-32s-39.4,12.5-47.2,32c-.8,1.9-3,2.9-4.9,2.1-1.9-.8-2.9-3-2.1-4.9,8.9-22.3,30.2-36.7,54.2-36.7s45.3,14.4,54.2,36.7c.8,1.9-.2,4.2-2.1,4.9-.5.2-.9.3-1.4.3h0Z"/>
    <path class="cls-1" d="M164.7,53.1c-1.4,0-2.8-.8-3.4-2.1-5.5-11.3-16.8-18.4-29.4-18.4s-23.9,7.2-29.4,18.4c-.9,1.9-3.2,2.7-5.1,1.8-1.9-.9-2.7-3.2-1.8-5.1,6.7-13.8,20.9-22.7,36.2-22.7s29.5,8.9,36.2,22.7c.9,1.9.1,4.2-1.8,5.1-.5.3-1.1.4-1.7.4Z"/>
    <path class="cls-1" d="M149.3,63.3c-1.6,0-3.1-1-3.6-2.6-1.9-5.9-7.4-9.9-13.7-9.9s-11.8,4-13.7,9.9c-.7,2-2.8,3.1-4.8,2.4-2-.6-3.1-2.8-2.4-4.8,3-9.1,11.4-15.2,20.9-15.2s17.9,6.1,20.9,15.2c.7,2-.4,4.1-2.4,4.8-.4.1-.8.2-1.2.2Z"/>
    <path class="cls-1" d="M18.8,14.5c-1.5,0-2.9-.9-3.5-2.4C7.6-7.3-11-19.9-31.9-19.9s-39.4,12.5-47.2,32c-.8,1.9-3,2.9-4.9,2.1-1.9-.8-2.9-3-2.1-4.9,8.9-22.3,30.2-36.7,54.2-36.7S13.4-13,22.4,9.3c.8,1.9-.2,4.2-2.1,4.9-.5.2-.9.3-1.4.3h0Z"/>
    <path class="cls-1" d="M.9,18.9c-1.4,0-2.8-.8-3.4-2.1C-8,5.4-19.3-1.7-31.9-1.7s-23.9,7.1-29.4,18.4c-.9,1.9-3.2,2.7-5.1,1.8-1.9-.9-2.7-3.2-1.8-5.1C-61.4-.4-47.2-9.3-31.9-9.3S-2.4-.4,4.3,13.4c.9,1.9.1,4.2-1.8,5.1-.5.3-1.1.4-1.7.4h0Z"/>
    <path class="cls-1" d="M128.1,14.5c-1.5,0-2.9-.9-3.5-2.4-7.8-19.4-26.3-32-47.2-32S37.9-7.3,30.1,12.1c-.8,1.9-3,2.9-4.9,2.1-1.9-.8-2.9-3-2.1-4.9,8.9-22.3,30.2-36.7,54.2-36.7s45.3,14.4,54.2,36.7c.8,1.9-.2,4.2-2.1,4.9-.5.2-.9.3-1.4.3h0Z"/>
    <path class="cls-1" d="M110.1,18.9c-1.4,0-2.8-.8-3.4-2.1C101.2,5.4,89.9-1.7,77.3-1.7s-23.9,7.2-29.4,18.4c-.9,1.9-3.2,2.7-5.1,1.8-1.9-.9-2.7-3.2-1.8-5.1C47.8-.4,62-9.3,77.3-9.3S106.8-.4,113.5,13.4c.9,1.9.1,4.2-1.8,5.1-.5.3-1.1.4-1.7.4h0Z"/>
    <path class="cls-1" d="M94.6,29.1c-1.6,0-3.1-1-3.6-2.6-1.9-5.9-7.4-9.9-13.7-9.9s-11.8,4-13.7,9.9c-.6,2-2.8,3.1-4.8,2.4-2-.6-3.1-2.8-2.4-4.8,3-9.1,11.4-15.2,20.9-15.2s17.9,6.1,20.9,15.2c.6,2-.4,4.1-2.4,4.8-.4.1-.8.2-1.2.2Z"/>
    <path class="cls-1" d="M73.5,48.6c-1.5,0-2.9-.9-3.5-2.4-7.8-19.4-26.3-32-47.2-32s-39.4,12.5-47.2,32c-.8,1.9-3,2.9-4.9,2.1-1.9-.8-2.9-3-2.1-4.9C-22.6,21.2-1.3,6.7,22.7,6.7s45.3,14.4,54.2,36.7c.8,1.9-.2,4.2-2.1,4.9-.5.2-.9.3-1.4.3h0Z"/>
    <path class="cls-1" d="M55.5,53.1c-1.4,0-2.8-.8-3.4-2.1-5.5-11.4-16.8-18.4-29.4-18.4S-1.1,39.6-6.6,50.9c-.9,1.9-3.2,2.7-5.1,1.8-1.9-.9-2.7-3.2-1.8-5.1C-6.8,33.8,7.4,24.9,22.7,24.9s29.5,8.9,36.2,22.7c.9,1.9.1,4.2-1.8,5.1-.5.3-1.1.4-1.7.4h0Z"/>
    <path class="cls-1" d="M40,63.3c-1.6,0-3.1-1-3.6-2.6-1.9-5.9-7.4-9.9-13.7-9.9s-11.8,4-13.7,9.9c-.6,2-2.8,3.1-4.8,2.4-2-.6-3.1-2.8-2.4-4.8,3-9.1,11.4-15.2,20.9-15.2s17.9,6.1,20.9,15.2c.6,2-.4,4.1-2.4,4.8-.4.1-.8.2-1.2.2Z"/>
    <path class="cls-1" d="M237.3,83c-1.5,0-2.9-.9-3.5-2.4-7.8-19.4-26.3-32-47.2-32s-39.4,12.5-47.2,32c-.8,1.9-3,2.9-4.9,2.1-1.9-.8-2.9-3-2.1-4.9,8.9-22.3,30.2-36.7,54.2-36.7s45.3,14.4,54.2,36.7c.8,1.9-.2,4.2-2.1,4.9-.5.2-.9.3-1.4.3h0Z"/>
    <path class="cls-1" d="M219.4,87.4c-1.4,0-2.8-.8-3.4-2.1-5.5-11.3-16.8-18.4-29.4-18.4s-23.9,7.2-29.4,18.4c-.9,1.9-3.2,2.7-5.1,1.8s-2.7-3.2-1.8-5.1c6.7-13.8,20.9-22.7,36.2-22.7s29.5,8.9,36.2,22.7c.9,1.9.1,4.2-1.8,5.1-.5.3-1.1.4-1.7.4h0Z"/>
    <path class="cls-1" d="M203.9,97.6c-1.6,0-3.1-1-3.6-2.6-1.9-5.9-7.4-9.9-13.7-9.9s-11.8,4-13.7,9.9c-.6,2-2.8,3.1-4.8,2.4-2-.6-3.1-2.8-2.4-4.8,3-9.1,11.4-15.2,20.9-15.2s17.9,6.1,20.9,15.2c.6,2-.4,4.1-2.4,4.8-.4.1-.8.2-1.2.2Z"/>
    <path class="cls-1" d="M291.9,117.2c-1.5,0-2.9-.9-3.5-2.4-7.8-19.4-26.3-32-47.2-32s-39.4,12.5-47.2,32c-.8,1.9-3,2.9-4.9,2.1-1.9-.8-2.9-3-2.1-4.9,8.9-22.3,30.2-36.7,54.2-36.7s45.3,14.4,54.2,36.7c.8,1.9-.2,4.2-2.1,4.9-.5.2-.9.3-1.4.3h0Z"/>
    <path class="cls-1" d="M274,121.6c-1.4,0-2.8-.8-3.4-2.1-5.5-11.4-16.8-18.4-29.4-18.4s-23.9,7.1-29.4,18.4c-.9,1.9-3.2,2.7-5.1,1.8-1.9-.9-2.7-3.2-1.8-5.1,6.7-13.8,20.9-22.7,36.2-22.7s29.5,8.9,36.2,22.7c.9,1.9.1,4.2-1.8,5.1-.5.3-1.1.4-1.7.4h0Z"/>
    <path class="cls-1" d="M258.5,131.8c-1.6,0-3.1-1-3.6-2.6-1.9-5.9-7.4-9.9-13.7-9.9s-11.8,4-13.7,9.9c-.6,2-2.8,3.1-4.8,2.4-2-.6-3.1-2.8-2.4-4.8,3-9.1,11.4-15.2,20.9-15.2s17.9,6.1,20.9,15.2c.6,2-.4,4.1-2.4,4.8-.4.1-.8.2-1.2.2Z"/>
    <path class="cls-1" d="M182.7,117.2c-1.5,0-2.9-.9-3.5-2.4-7.8-19.4-26.3-32-47.2-32s-39.4,12.5-47.2,32c-.8,1.9-3,2.9-4.9,2.1-1.9-.8-2.9-3-2.1-4.9,8.9-22.3,30.2-36.7,54.2-36.7s45.3,14.4,54.2,36.7c.8,1.9-.2,4.2-2.1,4.9-.5.2-.9.3-1.4.3h0Z"/>
    <path class="cls-1" d="M164.7,121.6c-1.4,0-2.8-.8-3.4-2.1-5.5-11.4-16.8-18.4-29.4-18.4s-23.9,7.1-29.4,18.4c-.9,1.9-3.2,2.7-5.1,1.8-1.9-.9-2.7-3.2-1.8-5.1,6.7-13.8,20.9-22.7,36.2-22.7s29.5,8.9,36.2,22.7c.9,1.9.1,4.2-1.8,5.1-.5.3-1.1.4-1.7.4h0Z"/>
    <path class="cls-1" d="M149.3,131.8c-1.6,0-3.1-1-3.6-2.6-1.9-5.9-7.4-9.9-13.7-9.9s-11.8,4-13.7,9.9c-.7,2-2.8,3.1-4.8,2.4-2-.6-3.1-2.8-2.4-4.8,3-9.1,11.4-15.2,20.9-15.2s17.9,6.1,20.9,15.2c.7,2-.4,4.1-2.4,4.8-.4.1-.8.2-1.2.2Z"/>
    <path class="cls-1" d="M237.3,151.5c-1.5,0-2.9-.9-3.5-2.4-7.8-19.4-26.3-32-47.2-32s-39.4,12.5-47.2,32c-.8,1.9-3,2.9-4.9,2.1-1.9-.8-2.9-3-2.1-4.9,8.9-22.3,30.2-36.7,54.2-36.7s45.3,14.4,54.2,36.7c.8,1.9-.2,4.2-2.1,4.9-.5.2-.9.3-1.4.3h0Z"/>
    <path class="cls-1" d="M219.4,155.9c-1.4,0-2.8-.8-3.4-2.1-5.5-11.4-16.8-18.4-29.4-18.4s-23.9,7.1-29.4,18.4c-.9,1.9-3.2,2.7-5.1,1.8-1.9-.9-2.7-3.2-1.8-5.1,6.7-13.8,20.9-22.7,36.2-22.7s29.5,8.9,36.2,22.7c.9,1.9.1,4.2-1.8,5.1-.5.3-1.1.4-1.7.4h0Z"/>
    <path class="cls-1" d="M203.9,166.1c-1.6,0-3.1-1-3.6-2.6-1.9-5.9-7.4-9.9-13.7-9.9s-11.8,4-13.7,9.9c-.6,2-2.8,3.1-4.8,2.4-2-.7-3.1-2.8-2.4-4.8,3-9.1,11.4-15.2,20.9-15.2s17.9,6.1,20.9,15.2c.6,2-.4,4.1-2.4,4.8-.4.1-.8.2-1.2.2Z"/>
    <path class="cls-1" d="M346.5,83c-1.5,0-2.9-.9-3.5-2.4-7.8-19.4-26.3-32-47.2-32s-39.4,12.5-47.2,32c-.8,1.9-3,2.9-4.9,2.1-1.9-.8-2.9-3-2.1-4.9,8.9-22.3,30.2-36.7,54.2-36.7s45.3,14.4,54.2,36.7c.8,1.9-.2,4.2-2.1,4.9-.5.2-.9.3-1.4.3Z"/>
    <path class="cls-1" d="M328.6,87.4c-1.4,0-2.8-.8-3.4-2.1-5.5-11.3-16.8-18.4-29.4-18.4s-23.9,7.1-29.4,18.4c-.9,1.9-3.2,2.7-5.1,1.8-1.9-.9-2.7-3.2-1.8-5.1,6.7-13.8,20.9-22.7,36.2-22.7s29.5,8.9,36.2,22.7c.9,1.9.1,4.2-1.8,5.1-.5.3-1.1.4-1.7.4h0Z"/>
    <path class="cls-1" d="M313.1,97.6c-1.6,0-3.1-1-3.6-2.6-1.9-5.9-7.4-9.9-13.7-9.9s-11.8,4-13.7,9.9c-.6,2-2.8,3.1-4.8,2.4-2-.6-3.1-2.8-2.4-4.8,3-9.1,11.4-15.2,20.9-15.2s17.9,6.1,20.9,15.2c.6,2-.4,4.1-2.4,4.8-.4.1-.8.2-1.2.2h0Z"/>
    <path class="cls-1" d="M346.5,151.5c-1.5,0-2.9-.9-3.5-2.4-7.8-19.4-26.3-32-47.2-32s-39.4,12.5-47.2,32c-.8,1.9-3,2.9-4.9,2.1-1.9-.8-2.9-3-2.1-4.9,8.9-22.3,30.2-36.7,54.2-36.7s45.3,14.4,54.2,36.7c.8,1.9-.2,4.2-2.1,4.9-.5.2-.9.3-1.4.3h0Z"/>
    <path class="cls-1" d="M328.6,155.9c-1.4,0-2.8-.8-3.4-2.1-5.5-11.4-16.8-18.4-29.4-18.4s-23.9,7.1-29.4,18.4c-.9,1.9-3.2,2.7-5.1,1.8-1.9-.9-2.7-3.2-1.8-5.1,6.7-13.8,20.9-22.7,36.2-22.7s29.5,8.9,36.2,22.7c.9,1.9.1,4.2-1.8,5.1-.5.3-1.1.4-1.7.4h0Z"/>
    <path class="cls-1" d="M313.1,166.1c-1.6,0-3.1-1-3.6-2.6-1.9-5.9-7.4-9.9-13.7-9.9s-11.8,4-13.7,9.9c-.6,2-2.8,3.1-4.8,2.4-2-.7-3.1-2.8-2.4-4.8,3-9.1,11.4-15.2,20.9-15.2s17.9,6.1,20.9,15.2c.6,2-.4,4.1-2.4,4.8-.4.1-.8.2-1.2.2h0Z"/>
    <path class="cls-1" d="M291.9,185.7c-1.5,0-2.9-.9-3.5-2.4-7.8-19.4-26.3-32-47.2-32s-39.4,12.5-47.2,32c-.8,1.9-3,2.9-4.9,2.1-1.9-.8-2.9-3-2.1-4.9,8.9-22.3,30.2-36.7,54.2-36.7s45.3,14.4,54.2,36.7c.8,1.9-.2,4.2-2.1,4.9-.5.2-.9.3-1.4.3h0Z"/>
    <path class="cls-1" d="M274,190.1c-1.4,0-2.8-.8-3.4-2.1-5.5-11.4-16.8-18.4-29.4-18.4s-23.9,7.1-29.4,18.4c-.9,1.9-3.2,2.7-5.1,1.8-1.9-.9-2.7-3.2-1.8-5.1,6.7-13.8,20.9-22.7,36.2-22.7s29.5,8.9,36.2,22.7c.9,1.9.1,4.2-1.8,5.1-.5.3-1.1.4-1.7.4h0Z"/>
    <path class="cls-1" d="M258.5,200.3c-1.6,0-3.1-1-3.6-2.6-1.9-5.9-7.4-9.9-13.7-9.9s-11.8,4-13.7,9.9c-.6,2-2.8,3.1-4.8,2.4-2-.6-3.1-2.8-2.4-4.8,3-9.1,11.4-15.2,20.9-15.2s17.9,6.1,20.9,15.2c.6,2-.4,4.1-2.4,4.8-.4.1-.8.2-1.2.2h0Z"/>
    <path class="cls-1" d="M182.7,185.7c-1.5,0-2.9-.9-3.5-2.4-7.8-19.4-26.3-32-47.2-32s-39.4,12.5-47.2,32c-.8,1.9-3,2.9-4.9,2.1-1.9-.8-2.9-3-2.1-4.9,8.9-22.3,30.2-36.7,54.2-36.7s45.3,14.4,54.2,36.7c.8,1.9-.2,4.2-2.1,4.9-.5.2-.9.3-1.4.3h0Z"/>
    <path class="cls-1" d="M164.7,190.1c-1.4,0-2.8-.8-3.4-2.1-5.5-11.4-16.8-18.4-29.4-18.4s-23.9,7.2-29.4,18.4c-.9,1.9-3.2,2.7-5.1,1.8-1.9-.9-2.7-3.2-1.8-5.1,6.7-13.8,20.9-22.7,36.2-22.7s29.5,8.9,36.2,22.7c.9,1.9.1,4.2-1.8,5.1-.5.3-1.1.4-1.7.4h0Z"/>
    <path class="cls-1" d="M149.3,200.3c-1.6,0-3.1-1-3.6-2.6-1.9-5.9-7.4-9.9-13.7-9.9s-11.8,4-13.7,9.9c-.7,2-2.8,3.1-4.8,2.4-2-.6-3.1-2.8-2.4-4.8,3-9.1,11.4-15.2,20.9-15.2s17.9,6.1,20.9,15.2c.6,2-.4,4.1-2.4,4.8-.4.1-.8.2-1.2.2h0Z"/>
    <path class="cls-1" d="M18.8,83c-1.5,0-2.9-.9-3.5-2.4-7.8-19.4-26.3-32-47.2-32s-39.4,12.5-47.2,32c-.8,1.9-3,2.9-4.9,2.1-1.9-.8-2.9-3-2.1-4.9,8.9-22.3,30.2-36.7,54.2-36.7s45.3,14.4,54.2,36.7c.8,1.9-.2,4.2-2.1,4.9-.5.2-.9.3-1.4.3h0Z"/>
    <path class="cls-1" d="M.9,87.4c-1.4,0-2.8-.8-3.4-2.1-5.5-11.3-16.8-18.4-29.4-18.4s-23.9,7.1-29.4,18.4c-.9,1.9-3.2,2.7-5.1,1.8-1.9-.9-2.7-3.2-1.8-5.1,6.7-13.8,20.9-22.7,36.2-22.7S-2.4,68.2,4.3,82c.9,1.9.1,4.2-1.8,5.1-.5.3-1.1.4-1.7.4h0Z"/>
    <path class="cls-1" d="M73.5,117.2c-1.5,0-2.9-.9-3.5-2.4-7.8-19.4-26.3-32-47.2-32s-39.4,12.5-47.2,32c-.8,1.9-3,2.9-4.9,2.1-1.9-.8-2.9-3-2.1-4.9,8.9-22.3,30.2-36.7,54.2-36.7s45.3,14.4,54.2,36.7c.8,1.9-.2,4.2-2.1,4.9-.5.2-.9.3-1.4.3h0Z"/>
    <path class="cls-1" d="M55.5,121.6c-1.4,0-2.8-.8-3.4-2.1-5.5-11.4-16.8-18.4-29.4-18.4s-23.9,7.1-29.4,18.4c-.9,1.9-3.2,2.7-5.1,1.8-1.9-.9-2.7-3.2-1.8-5.1,6.7-13.8,20.9-22.7,36.2-22.7s29.5,8.9,36.2,22.7c.9,1.9.1,4.2-1.8,5.1-.5.3-1.1.4-1.7.4h0Z"/>
    <path class="cls-1" d="M40,131.8c-1.6,0-3.1-1-3.6-2.6-1.9-5.9-7.4-9.9-13.7-9.9s-11.8,4-13.7,9.9c-.6,2-2.8,3.1-4.8,2.4-2-.6-3.1-2.8-2.4-4.8,3-9.1,11.4-15.2,20.9-15.2s17.9,6.1,20.9,15.2c.6,2-.4,4.1-2.4,4.8-.4.1-.8.2-1.2.2Z"/>
    <path class="cls-1" d="M18.8,151.5c-1.5,0-2.9-.9-3.5-2.4-7.8-19.4-26.3-32-47.2-32s-39.4,12.5-47.2,32c-.8,1.9-3,2.9-4.9,2.1-1.9-.8-2.9-3-2.1-4.9,8.9-22.3,30.2-36.7,54.2-36.7s45.3,14.4,54.2,36.7c.8,1.9-.2,4.2-2.1,4.9-.5.2-.9.3-1.4.3h0Z"/>
    <path class="cls-1" d="M.9,155.9c-1.4,0-2.8-.8-3.4-2.1-5.5-11.4-16.8-18.4-29.4-18.4s-23.9,7.1-29.4,18.4c-.9,1.9-3.2,2.7-5.1,1.8-1.9-.9-2.7-3.2-1.8-5.1,6.7-13.8,20.9-22.7,36.2-22.7s29.5,8.9,36.2,22.7c.9,1.9.1,4.2-1.8,5.1-.5.3-1.1.4-1.7.4h0Z"/>
    <path class="cls-1" d="M128.1,83c-1.5,0-2.9-.9-3.5-2.4-7.8-19.4-26.3-32-47.2-32s-39.4,12.5-47.2,32c-.8,1.9-3,2.9-4.9,2.1-1.9-.8-2.9-3-2.1-4.9,8.9-22.3,30.2-36.7,54.2-36.7s45.3,14.4,54.2,36.7c.8,1.9-.2,4.2-2.1,4.9-.5.2-.9.3-1.4.3h0Z"/>
    <path class="cls-1" d="M110.1,87.4c-1.4,0-2.8-.8-3.4-2.1-5.5-11.3-16.8-18.4-29.4-18.4s-23.9,7.2-29.4,18.4c-.9,1.9-3.2,2.7-5.1,1.8-1.9-.9-2.7-3.2-1.8-5.1,6.7-13.8,20.9-22.7,36.2-22.7s29.5,8.9,36.2,22.7c.9,1.9.1,4.2-1.8,5.1-.5.3-1.1.4-1.7.4h0Z"/>
    <path class="cls-1" d="M94.6,97.6c-1.6,0-3.1-1-3.6-2.6-1.9-5.9-7.4-9.9-13.7-9.9s-11.8,4-13.7,9.9c-.6,2-2.8,3.1-4.8,2.4-2-.6-3.1-2.8-2.4-4.8,3-9.1,11.4-15.2,20.9-15.2s17.9,6.1,20.9,15.2c.6,2-.4,4.1-2.4,4.8-.4.1-.8.2-1.2.2Z"/>
    <path class="cls-1" d="M128.1,151.5c-1.5,0-2.9-.9-3.5-2.4-7.8-19.4-26.3-32-47.2-32s-39.4,12.5-47.2,32c-.8,1.9-3,2.9-4.9,2.1-1.9-.8-2.9-3-2.1-4.9,8.9-22.3,30.2-36.7,54.2-36.7s45.3,14.4,54.2,36.7c.8,1.9-.2,4.2-2.1,4.9-.5.2-.9.3-1.4.3h0Z"/>
    <path class="cls-1" d="M110.1,155.9c-1.4,0-2.8-.8-3.4-2.1-5.5-11.4-16.8-18.4-29.4-18.4s-23.9,7.1-29.4,18.4c-.9,1.9-3.2,2.7-5.1,1.8-1.9-.9-2.7-3.2-1.8-5.1,6.7-13.8,20.9-22.7,36.2-22.7s29.5,8.9,36.2,22.7c.9,1.9.1,4.2-1.8,5.1-.5.3-1.1.4-1.7.4h0Z"/>
    <path class="cls-1" d="M94.6,166.1c-1.6,0-3.1-1-3.6-2.6-1.9-5.9-7.4-9.9-13.7-9.9s-11.8,4-13.7,9.9c-.6,2-2.8,3.1-4.8,2.4-2-.7-3.1-2.8-2.4-4.8,3-9.1,11.4-15.2,20.9-15.2s17.9,6.1,20.9,15.2c.6,2-.4,4.1-2.4,4.8-.4.1-.8.2-1.2.2Z"/>
    <path class="cls-1" d="M73.5,185.7c-1.5,0-2.9-.9-3.5-2.4-7.8-19.4-26.3-32-47.2-32s-39.4,12.5-47.2,32c-.8,1.9-3,2.9-4.9,2.1-1.9-.8-2.9-3-2.1-4.9,8.9-22.3,30.2-36.7,54.2-36.7s45.3,14.4,54.2,36.7c.8,1.9-.2,4.2-2.1,4.9-.5.2-.9.3-1.4.3h0Z"/>
    <path class="cls-1" d="M55.5,190.1c-1.4,0-2.8-.8-3.4-2.1-5.5-11.4-16.8-18.4-29.4-18.4s-23.9,7.1-29.4,18.4c-.9,1.9-3.2,2.7-5.1,1.8-1.9-.9-2.7-3.2-1.8-5.1,6.7-13.8,20.9-22.7,36.2-22.7s29.5,8.9,36.2,22.7c.9,1.9.1,4.2-1.8,5.1-.5.3-1.1.4-1.7.4h0Z"/>
    <path class="cls-1" d="M40,200.3c-1.6,0-3.1-1-3.6-2.6-1.9-5.9-7.4-9.9-13.7-9.9s-11.8,4-13.7,9.9c-.6,2-2.8,3.1-4.8,2.4-2-.6-3.1-2.8-2.4-4.8,3-9.1,11.4-15.2,20.9-15.2s17.9,6.1,20.9,15.2c.6,2-.4,4.1-2.4,4.8-.4.1-.8.2-1.2.2h0Z"/>
    <path class="cls-1" d="M237.3,220.1c-1.5,0-2.9-.9-3.5-2.4-7.8-19.4-26.3-32-47.2-32s-39.4,12.5-47.2,32c-.8,1.9-3,2.9-4.9,2.1-1.9-.8-2.9-3-2.1-4.9,8.9-22.3,30.2-36.7,54.2-36.7s45.3,14.4,54.2,36.7c.8,1.9-.2,4.2-2.1,4.9-.5.2-.9.3-1.4.3h0Z"/>
    <path class="cls-1" d="M219.4,224.5c-1.4,0-2.8-.8-3.4-2.1-5.5-11.4-16.8-18.4-29.4-18.4s-23.9,7.1-29.4,18.4c-.9,1.9-3.2,2.7-5.1,1.8-1.9-.9-2.7-3.2-1.8-5.1,6.7-13.8,20.9-22.7,36.2-22.7s29.5,8.9,36.2,22.7c.9,1.9.1,4.2-1.8,5.1-.5.3-1.1.4-1.7.4h0Z"/>
    <path class="cls-1" d="M203.9,234.7c-1.6,0-3.1-1-3.6-2.6-1.9-5.9-7.4-9.9-13.7-9.9s-11.8,4-13.7,9.9c-.6,2-2.8,3.1-4.8,2.4-2-.6-3.1-2.8-2.4-4.8,3-9.1,11.4-15.2,20.9-15.2s17.9,6.1,20.9,15.2c.6,2-.4,4.1-2.4,4.8-.4.1-.8.2-1.2.2Z"/>
    <path class="cls-1" d="M291.9,254.3c-1.5,0-2.9-.9-3.5-2.4-7.8-19.4-26.3-32-47.2-32s-39.4,12.5-47.2,32c-.8,1.9-3,2.9-4.9,2.1-1.9-.8-2.9-3-2.1-4.9,8.9-22.3,30.2-36.7,54.2-36.7s45.3,14.4,54.2,36.7c.8,1.9-.2,4.2-2.1,4.9-.5.2-.9.3-1.4.3h0Z"/>
    <path class="cls-1" d="M274,258.7c-1.4,0-2.8-.8-3.4-2.1-5.5-11.4-16.8-18.4-29.4-18.4s-23.9,7.1-29.4,18.4c-.9,1.9-3.2,2.7-5.1,1.8-1.9-.9-2.7-3.2-1.8-5.1,6.7-13.8,20.9-22.7,36.2-22.7s29.5,8.9,36.2,22.7c.9,1.9.1,4.2-1.8,5.1-.5.3-1.1.4-1.7.4h0Z"/>
    <path class="cls-1" d="M182.7,254.3c-1.5,0-2.9-.9-3.5-2.4-7.8-19.4-26.3-32-47.2-32s-39.4,12.5-47.2,32c-.8,1.9-3,2.9-4.9,2.1-1.9-.8-2.9-3-2.1-4.9,8.9-22.3,30.2-36.7,54.2-36.7s45.3,14.4,54.2,36.7c.8,1.9-.2,4.2-2.1,4.9-.5.2-.9.3-1.4.3h0Z"/>
    <path class="cls-1" d="M164.7,258.7c-1.4,0-2.8-.8-3.4-2.1-5.5-11.4-16.8-18.4-29.4-18.4s-23.9,7.2-29.4,18.4c-.9,1.9-3.2,2.7-5.1,1.8-1.9-.9-2.7-3.2-1.8-5.1,6.7-13.8,20.9-22.7,36.2-22.7s29.5,8.9,36.2,22.7c.9,1.9.1,4.2-1.8,5.1-.5.3-1.1.4-1.7.4h0Z"/>
    <path class="cls-1" d="M346.5,220.1c-1.5,0-2.9-.9-3.5-2.4-7.8-19.4-26.3-32-47.2-32s-39.4,12.5-47.2,32c-.8,1.9-3,2.9-4.9,2.1-1.9-.8-2.9-3-2.1-4.9,8.9-22.3,30.2-36.7,54.2-36.7s45.3,14.4,54.2,36.7c.8,1.9-.2,4.2-2.1,4.9-.5.2-.9.3-1.4.3h0Z"/>
    <path class="cls-1" d="M328.6,224.5c-1.4,0-2.8-.8-3.4-2.1-5.5-11.4-16.8-18.4-29.4-18.4s-23.9,7.1-29.4,18.4c-.9,1.9-3.2,2.7-5.1,1.8-1.9-.9-2.7-3.2-1.8-5.1,6.7-13.8,20.9-22.7,36.2-22.7s29.5,8.9,36.2,22.7c.9,1.9.1,4.2-1.8,5.1-.5.3-1.1.4-1.7.4h0Z"/>
    <path class="cls-1" d="M313.1,234.7c-1.6,0-3.1-1-3.6-2.6-1.9-5.9-7.4-9.9-13.7-9.9s-11.8,4-13.7,9.9c-.6,2-2.8,3.1-4.8,2.4-2-.6-3.1-2.8-2.4-4.8,3-9.1,11.4-15.2,20.9-15.2s17.9,6.1,20.9,15.2c.6,2-.4,4.1-2.4,4.8-.4.1-.8.2-1.2.2h0Z"/>
    <path class="cls-1" d="M400.8,48.6c-1.5,0-2.9-.9-3.5-2.4-7.8-19.4-26.3-32-47.2-32s-39.4,12.5-47.2,32c-.8,1.9-3,2.9-4.9,2.1-1.9-.8-2.9-3-2.1-4.9,8.9-22.3,30.2-36.7,54.2-36.7s45.3,14.4,54.2,36.7c.8,1.9-.2,4.2-2.1,4.9-.5.2-.9.3-1.4.3h0Z"/>
    <path class="cls-1" d="M382.8,53.1c-1.4,0-2.8-.8-3.4-2.1-5.5-11.3-16.8-18.4-29.4-18.4s-23.9,7.1-29.4,18.4c-.9,1.9-3.2,2.7-5.1,1.8-1.9-.9-2.7-3.2-1.8-5.1,6.7-13.8,20.9-22.7,36.2-22.7s29.5,8.9,36.2,22.7c.9,1.9.1,4.2-1.8,5.1-.5.3-1.1.4-1.7.4h0Z"/>
    <path class="cls-1" d="M367.3,63.3c-1.6,0-3.1-1-3.6-2.6-1.9-5.9-7.4-9.9-13.7-9.9s-11.8,4-13.7,9.9c-.6,2-2.8,3.1-4.8,2.4-2-.6-3.1-2.8-2.4-4.8,3-9.1,11.4-15.2,20.9-15.2s17.9,6.1,20.9,15.2c.6,2-.4,4.1-2.4,4.8-.4.1-.8.2-1.2.2Z"/>
    <path class="cls-1" d="M400.8,117.2c-1.5,0-2.9-.9-3.5-2.4-7.8-19.4-26.3-32-47.2-32s-39.4,12.5-47.2,32c-.8,1.9-3,2.9-4.9,2.1-1.9-.8-2.9-3-2.1-4.9,8.9-22.3,30.2-36.7,54.2-36.7s45.3,14.4,54.2,36.7c.8,1.9-.2,4.2-2.1,4.9-.5.2-.9.3-1.4.3h0Z"/>
    <path class="cls-1" d="M382.8,121.6c-1.4,0-2.8-.8-3.4-2.1-5.5-11.4-16.8-18.4-29.4-18.4s-23.9,7.1-29.4,18.4c-.9,1.9-3.2,2.7-5.1,1.8-1.9-.9-2.7-3.2-1.8-5.1,6.7-13.8,20.9-22.7,36.2-22.7s29.5,8.9,36.2,22.7c.9,1.9.1,4.2-1.8,5.1-.5.3-1.1.4-1.7.4h0Z"/>
    <path class="cls-1" d="M367.3,131.8c-1.6,0-3.1-1-3.6-2.6-1.9-5.9-7.4-9.9-13.7-9.9s-11.8,4-13.7,9.9c-.6,2-2.8,3.1-4.8,2.4-2-.6-3.1-2.8-2.4-4.8,3-9.1,11.4-15.2,20.9-15.2s17.9,6.1,20.9,15.2c.6,2-.4,4.1-2.4,4.8-.4.1-.8.2-1.2.2Z"/>
    <path class="cls-1" d="M400.8,185.7c-1.5,0-2.9-.9-3.5-2.4-7.8-19.4-26.3-32-47.2-32s-39.4,12.5-47.2,32c-.8,1.9-3,2.9-4.9,2.1-1.9-.8-2.9-3-2.1-4.9,8.9-22.3,30.2-36.7,54.2-36.7s45.3,14.4,54.2,36.7c.8,1.9-.2,4.2-2.1,4.9-.5.2-.9.3-1.4.3h0Z"/>
    <path class="cls-1" d="M382.8,190.1c-1.4,0-2.8-.8-3.4-2.1-5.5-11.4-16.8-18.4-29.4-18.4s-23.9,7.1-29.4,18.4c-.9,1.9-3.2,2.7-5.1,1.8-1.9-.9-2.7-3.2-1.8-5.1,6.7-13.8,20.9-22.7,36.2-22.7s29.5,8.9,36.2,22.7c.9,1.9.1,4.2-1.8,5.1-.5.3-1.1.4-1.7.4h0Z"/>
    <path class="cls-1" d="M367.3,200.3c-1.6,0-3.1-1-3.6-2.6-1.9-5.9-7.4-9.9-13.7-9.9s-11.8,4-13.7,9.9c-.6,2-2.8,3.1-4.8,2.4-2-.6-3.1-2.8-2.4-4.8,3-9.1,11.4-15.2,20.9-15.2s17.9,6.1,20.9,15.2c.6,2-.4,4.1-2.4,4.8-.4.1-.8.2-1.2.2h0Z"/>
    <path class="cls-1" d="M400.8,254.3c-1.5,0-2.9-.9-3.5-2.4-7.8-19.4-26.3-32-47.2-32s-39.4,12.5-47.2,32c-.8,1.9-3,2.9-4.9,2.1-1.9-.8-2.9-3-2.1-4.9,8.9-22.3,30.2-36.7,54.2-36.7s45.3,14.4,54.2,36.7c.8,1.9-.2,4.2-2.1,4.9-.5.2-.9.3-1.4.3h0Z"/>
    <path class="cls-1" d="M382.8,258.7c-1.4,0-2.8-.8-3.4-2.1-5.5-11.4-16.8-18.4-29.4-18.4s-23.9,7.1-29.4,18.4c-.9,1.9-3.2,2.7-5.1,1.8-1.9-.9-2.7-3.2-1.8-5.1,6.7-13.8,20.9-22.7,36.2-22.7s29.5,8.9,36.2,22.7c.9,1.9.1,4.2-1.8,5.1-.5.3-1.1.4-1.7.4h0Z"/>
    <path class="cls-1" d="M18.8,220.1c-1.5,0-2.9-.9-3.5-2.4-7.8-19.4-26.3-32-47.2-32s-39.4,12.5-47.2,32c-.8,1.9-3,2.9-4.9,2.1-1.9-.8-2.9-3-2.1-4.9,8.9-22.3,30.2-36.7,54.2-36.7s45.3,14.4,54.2,36.7c.8,1.9-.2,4.2-2.1,4.9-.5.2-.9.3-1.4.3h0Z"/>
    <path class="cls-1" d="M.9,224.5c-1.4,0-2.8-.8-3.4-2.1-5.5-11.4-16.8-18.4-29.4-18.4s-23.9,7.1-29.4,18.4c-.9,1.9-3.2,2.7-5.1,1.8-1.9-.9-2.7-3.2-1.8-5.1,6.7-13.8,20.9-22.7,36.2-22.7s29.5,8.9,36.2,22.7c.9,1.9.1,4.2-1.8,5.1-.5.3-1.1.4-1.7.4h0Z"/>
    <path class="cls-1" d="M73.5,254.3c-1.5,0-2.9-.9-3.5-2.4-7.8-19.4-26.3-32-47.2-32s-39.4,12.5-47.2,32c-.8,1.9-3,2.9-4.9,2.1-1.9-.8-2.9-3-2.1-4.9,8.9-22.3,30.2-36.7,54.2-36.7s45.3,14.4,54.2,36.7c.8,1.9-.2,4.2-2.1,4.9-.5.2-.9.3-1.4.3h0Z"/>
    <path class="cls-1" d="M55.5,258.7c-1.4,0-2.8-.8-3.4-2.1-5.5-11.4-16.8-18.4-29.4-18.4s-23.9,7.1-29.4,18.4c-.9,1.9-3.2,2.7-5.1,1.8-1.9-.9-2.7-3.2-1.8-5.1,6.7-13.8,20.9-22.7,36.2-22.7s29.5,8.9,36.2,22.7c.9,1.9.1,4.2-1.8,5.1-.5.3-1.1.4-1.7.4h0Z"/>
    <path class="cls-1" d="M128.1,220.1c-1.5,0-2.9-.9-3.5-2.4-7.8-19.4-26.3-32-47.2-32s-39.4,12.5-47.2,32c-.8,1.9-3,2.9-4.9,2.1-1.9-.8-2.9-3-2.1-4.9,8.9-22.3,30.2-36.7,54.2-36.7s45.3,14.4,54.2,36.7c.8,1.9-.2,4.2-2.1,4.9-.5.2-.9.3-1.4.3h0Z"/>
    <path class="cls-1" d="M110.1,224.5c-1.4,0-2.8-.8-3.4-2.1-5.5-11.4-16.8-18.4-29.4-18.4s-23.9,7.1-29.4,18.4c-.9,1.9-3.2,2.7-5.1,1.8-1.9-.9-2.7-3.2-1.8-5.1,6.7-13.8,20.9-22.7,36.2-22.7s29.5,8.9,36.2,22.7c.9,1.9.1,4.2-1.8,5.1-.5.3-1.1.4-1.7.4h0Z"/>
    <path class="cls-1" d="M94.6,234.7c-1.6,0-3.1-1-3.6-2.6-1.9-5.9-7.4-9.9-13.7-9.9s-11.8,4-13.7,9.9c-.6,2-2.8,3.1-4.8,2.4-2-.6-3.1-2.8-2.4-4.8,3-9.1,11.4-15.2,20.9-15.2s17.9,6.1,20.9,15.2c.6,2-.4,4.1-2.4,4.8-.4.1-.8.2-1.2.2Z"/>
  </g>
</svg>