<?xml version="1.0" encoding="UTF-8"?>
<svg id="Layer_1" data-name="Layer 1" xmlns="http://www.w3.org/2000/svg" version="1.1" viewBox="0 0 2000 150">
  <defs>
    <style>
      .cls-1 {
        fill: #171717;
        stroke-width: 0px;
      }
    </style>
  </defs>
  <path class="cls-1" d="M2001.7,69.4v.3c-7,2-24,7.2-35.6,2.9-24.6-15.9-8.4-11.8-28.1-4.3-25.7-7.6-30,10.7-53.4.4-25.9.9,23.5-7.7-26.3-4.4-50,12.8-49.2-31.6-70.1,9.4-62.3,28.3-43.3,11.4-89.8,4.1-11.2-22.3-15.6-5.3-38.1-.9-22-6.3-21.8-7.4-44.8.9-13.4-8.2-29.4,10.8-36.8,2.5-16.7,1.7-26.8-8.3-38.2-14.5-13.8-40.6-23.8-14.5-39.6-17.9-17.4-4.4-34-3.8-51.9-4.2-16.9-9.1-33.8,3.3-50.9-.3-16.9,2.1-33.9-.1-50.8.1-16.7.5-32.3,19.3-49,4.4-22.6-16.9-45.2-3.8-67.7,0-26.3-15.7-48.4-20.3-72.9,7.3-13.7,2.6-27,10.6-40.7,14.7-10.8,4.9-19.9,5.1-30.6,3.6-15.7-11.2-28.7,34.4-44.9,16.3-29.6,6.3-59.9,29.2-88.6-5.5-15.4-13-31,12.7-46.7-7.5-13.8-6.2-27.8,21.1-41.7.3-15.5,36-29.9-21.4-45.6-4.3-11.6-5.3-19.9-7.5-30.1-6-26.5-6.5-56.1-12.8-84.8-29-18,13.7-33.9-13.5-53.7-14.9-19.6-2.6-45.6-16.2-63.8,4.2-12.4,24.3-23.3,40.8-36.7,12.6-6.5.4-7.9,2.6-14.3,4.2-5.6,10.3-10.8-21.8-16.4.6-16.6-11-27.9,13.4-42.1,28.6-12.1-2.6-21.8,18.5-35.8,12.1-31.2-3.5-56.1,16.2-86.2,18.9-3.7,30.6-9.2,8.3-22.9-.9,2.6-18.4-11.5-12-12.2-9.8-.7-9.4-11.9,1.7-16.1,4.5-11.4-6.5-1.6,15-21.2-.2-2.6-12.7-19.8-12.4-40.6-.8-8.9,0-7.1-15.4-20.5-12.4-9.2-3.4-2.9,8.9-27-16.5-6-5.6-8.3-9.6-8.9-12.2-2.8,1.5-5.8,2.8-8.9,3.6-.2-.8-26.7-12.1-13.8-4.3-11.9,1.3,8.9-15.2-9-6.2-22.7-17.5-14.4-1.7-26.8-4.1.8-34-19.9-10.6-47.9-5.2-7.1,2.6-16-19.8-43.1,0-10.4,6.4-23.5,7.9-36.6,7v-.2h-.9v103.5h2004.1v-80.3h-.9Z"/>
</svg>