<?xml version="1.0" encoding="UTF-8"?>
<svg id="Layer_1" data-name="Layer 1" xmlns="http://www.w3.org/2000/svg" version="1.1" viewBox="0 0 2000 150">
  <defs>
    <style>
      .cls-1 {
        fill: #262626;
        stroke-width: 0px;
      }
    </style>
  </defs>
  <path class="cls-1" d="M-6.2-.5v50.7h1c13.1.9,26.3-.7,36.7-7,27.2-19.8,36.1,2.6,43.3,0,28.2-5.3,48.9-28.8,48.1,5.2,12.5,2.4,4.1-13.4,26.9,4.1,18-8.9-2.9,7.5,9.1,6.2-12.9-7.8,13.7,3.5,13.9,4.3,3.1-.8,6.1-2.1,8.9-3.6.6,2.6,3,6.5,8.9,12.2,24.2,25.4,17.9,13,27.1,16.5,13.4-3,11.7,12.5,20.6,12.4,20.9-11.6,38.2-11.9,40.8.8,19.6,15.2,9.8-6.3,21.3.2,4.3-2.8,15.5-13.8,16.2-4.5.7-2.2,14.9-8.5,12.2,9.8,13.8,9.1,19.3,31.5,23,.9,30.3-2.5,55.2-22.3,86.6-18.9,14,6.4,23.8-14.7,36-12.1,14.3-15.2,25.5-39.6,42.2-28.6,5.7-22.4,10.9,9.7,16.5-.6,6.4-1.6,7.8-3.8,14.4-4.2,13.5,28.2,24.4,11.7,36.9-12.6,3.7-4.3,8.3-7.3,13.6-9.1h27.3c8.1,1.7,16,4,23.1,5,19.9,1.3,35.9,28.6,53.9,14.8,28.8,16.2,58.6,22.5,85.2,29,10.2-1.5,18.6.7,30.2,6,15.8-17.1,30.2,40.3,45.8,4.3,13.9,20.7,28-6.5,41.9-.3,15.8,20.1,31.4-5.5,46.9,7.5,28.8,34.7,59.2,11.8,88.9,5.5,16.3,18.2,29.3-27.4,45.1-16.3,10.7,1.5,19.9,1.4,30.8-3.6,13.8-4.1,27.1-12,40.9-14.7,24.6-27.6,46.8-23,73.2-7.3,22.7-3.7,45.3-16.8,68,.1,16.7,14.9,32.4-4,49.2-4.4,17-.2,34,2,51,0,17,3.6,34.1-8.9,51.1.3,17.9.4,34.6-.2,52.1,4.2,15.7,3.4,25.9-22.7,39.7,17.9,11.5,6.2,21.6,16.2,38.3,14.5,7.4,8.3,23.5-10.7,37-2.5,23.1-8.4,22.8-7.2,45-.9,22.6-4.3,27-21.4,38.3.9,46.8,7.3,27.7,24.3,90.2-4,21-41,20.2,3.4,70.4-9.4,50.1-3.3.4,5.2,26.4,4.3,23.5,10.4,27.7-8,53.6-.4,19.8-7.4,3.5-11.6,28.2,4.4,11.3,4.2,27.6-.6,35-2.7v-.3h1.6V-.5H-6.2Z"/>
</svg>