<?xml version="1.0" encoding="UTF-8"?>
<svg id="Layer_1" data-name="Layer 1" xmlns="http://www.w3.org/2000/svg" version="1.1" xmlns:xlink="http://www.w3.org/1999/xlink" viewBox="0 0 367 366">
  <defs>
    <style>
      .cls-1 {
        fill: #000;
      }

      .cls-1, .cls-2, .cls-3 {
        stroke-width: 0px;
      }

      .cls-2 {
        fill: none;
      }

      .cls-4 {
        clip-path: url(#clippath);
      }

      .cls-5 {
        mask: url(#mask);
      }

      .cls-3 {
        fill: #363436;
      }
    </style>
    <clipPath id="clippath">
      <rect class="cls-2" x="-90" y="-34" width="545.6" height="433.4"/>
    </clipPath>
    <mask id="mask" x="-90" y="-34" width="545.6" height="433.4" maskUnits="userSpaceOnUse">
      <g id="mask0_1_42" data-name="mask0 1 42">
        <g class="cls-4">
          <g>
            <path class="cls-3" d="M288.3,7.9c-1.5,0-2.9-.9-3.5-2.4-7.8-19.4-26.3-32-47.2-32s-39.4,12.5-47.2,32c-.8,1.9-3,2.9-4.9,2.1-1.9-.8-2.9-3-2.1-4.9,8.9-22.3,30.2-36.7,54.2-36.7s45.3,14.4,54.2,36.7c.8,1.9-.2,4.2-2.1,4.9-.5.2-.9.3-1.4.3h0Z"/>
            <path class="cls-3" d="M270.4,12.3c-1.4,0-2.8-.8-3.4-2.1-5.5-11.3-16.8-18.4-29.4-18.4s-23.9,7.2-29.4,18.4c-.9,1.9-3.2,2.7-5.1,1.8-1.9-.9-2.7-3.2-1.8-5.1,6.7-13.8,20.9-22.7,36.2-22.7s29.5,8.9,36.2,22.7c.9,1.9.1,4.2-1.8,5.1-.5.3-1.1.4-1.7.4h0Z"/>
            <path class="cls-3" d="M254.9,22.5c-1.6,0-3.1-1-3.6-2.6-1.9-5.9-7.4-9.9-13.7-9.9s-11.8,4-13.7,9.9c-.6,2-2.8,3.1-4.8,2.4-2-.6-3.1-2.8-2.4-4.8,3-9.1,11.4-15.2,20.9-15.2s17.9,6.1,20.9,15.2c.6,2-.4,4.1-2.4,4.8-.4.1-.8.2-1.2.2Z"/>
            <path class="cls-3" d="M342.9,42.1c-1.5,0-2.9-.9-3.5-2.4-7.8-19.4-26.3-32-47.2-32s-39.4,12.5-47.2,32c-.8,1.9-3,2.9-4.9,2.1-1.9-.8-2.9-3-2.1-4.9C246.9,14.6,268.1.2,292.2.2s45.3,14.4,54.2,36.7c.8,1.9-.2,4.2-2.1,4.9-.5.2-.9.3-1.4.3h0Z"/>
            <path class="cls-3" d="M325,46.5c-1.4,0-2.8-.8-3.4-2.1-5.4-11.2-16.9-18.4-29.4-18.4s-23.9,7.1-29.4,18.4c-.9,1.9-3.2,2.7-5.1,1.8-1.9-.9-2.7-3.2-1.8-5.1,6.7-13.8,20.9-22.7,36.2-22.7s29.5,8.9,36.2,22.7c.9,1.9.1,4.2-1.8,5.1-.5.3-1.1.4-1.7.4h0Z"/>
            <path class="cls-3" d="M309.5,56.7c-1.6,0-3.1-1-3.6-2.6-1.9-5.9-7.4-9.9-13.7-9.9s-11.8,4-13.7,9.9c-.6,2-2.8,3.1-4.8,2.4-2-.6-3.1-2.8-2.4-4.8,3-9.1,11.4-15.2,20.9-15.2s17.9,6.1,20.9,15.2c.6,2-.4,4.1-2.4,4.8-.4.1-.8.2-1.2.2Z"/>
            <path class="cls-3" d="M233.7,42.1c-1.5,0-2.9-.9-3.5-2.4-7.8-19.4-26.3-32-47.2-32s-39.4,12.5-47.2,32c-.8,1.9-3,2.9-4.9,2.1-1.9-.8-2.9-3-2.1-4.9C137.7,14.6,158.9.2,183,.2s45.3,14.4,54.2,36.7c.8,1.9-.2,4.2-2.1,4.9-.5.2-.9.3-1.4.3h0Z"/>
            <path class="cls-3" d="M215.7,46.5c-1.4,0-2.8-.8-3.4-2.1-5.4-11.2-16.9-18.4-29.4-18.4s-23.9,7.2-29.4,18.4c-.9,1.9-3.2,2.7-5.1,1.8s-2.7-3.2-1.8-5.1c6.7-13.8,20.9-22.7,36.2-22.7s29.5,8.9,36.2,22.7c.9,1.9.1,4.2-1.8,5.1-.5.3-1.1.4-1.7.4h0Z"/>
            <path class="cls-3" d="M200.3,56.7c-1.6,0-3.1-1-3.6-2.6-1.9-5.9-7.4-9.9-13.7-9.9s-11.8,4-13.7,9.9c-.6,2-2.8,3.1-4.8,2.4-2-.6-3.1-2.8-2.4-4.8,3-9.1,11.4-15.2,20.9-15.2s17.9,6.1,20.9,15.2c.6,2-.4,4.1-2.4,4.8-.4.1-.8.2-1.2.2Z"/>
            <path class="cls-3" d="M288.3,76.5c-1.5,0-2.9-.9-3.5-2.4-7.8-19.4-26.3-32-47.2-32s-39.4,12.5-47.2,32c-.8,1.9-3,2.9-4.9,2.1-1.9-.8-2.9-3-2.1-4.9,8.9-22.3,30.2-36.7,54.2-36.7s45.3,14.4,54.2,36.7c.8,1.9-.2,4.2-2.1,4.9-.5.2-.9.3-1.4.3h0Z"/>
            <path class="cls-3" d="M270.4,80.9c-1.4,0-2.8-.8-3.4-2.1-5.5-11.3-16.8-18.4-29.4-18.4s-23.9,7.2-29.4,18.4c-.9,1.9-3.2,2.7-5.1,1.8-1.9-.9-2.7-3.2-1.8-5.1,6.7-13.8,20.9-22.7,36.2-22.7s29.5,8.9,36.2,22.7c.9,1.9.1,4.2-1.8,5.1-.5.3-1.1.4-1.7.4h0Z"/>
            <path class="cls-3" d="M254.9,91.1c-1.6,0-3.1-1-3.6-2.6-1.9-5.9-7.4-9.9-13.7-9.9s-11.8,4-13.7,9.9c-.6,2-2.8,3.1-4.8,2.4-2-.6-3.1-2.8-2.4-4.8,3-9.1,11.4-15.2,20.9-15.2s17.9,6.1,20.9,15.2c.6,2-.4,4.1-2.4,4.8-.4.1-.8.2-1.2.2Z"/>
            <path class="cls-3" d="M397.5,7.9c-1.5,0-2.9-.9-3.5-2.4-7.8-19.4-26.3-32-47.2-32s-39.4,12.5-47.2,32c-.8,1.9-3,2.9-4.9,2.1-1.9-.8-2.9-3-2.1-4.9,8.9-22.3,30.2-36.7,54.2-36.7s45.3,14.4,54.2,36.7c.8,1.9-.2,4.2-2.1,4.9-.5.2-.9.3-1.4.3Z"/>
            <path class="cls-3" d="M379.6,12.3c-1.4,0-2.8-.8-3.4-2.1-5.5-11.3-16.8-18.4-29.4-18.4s-23.9,7.1-29.4,18.4c-.9,1.9-3.2,2.7-5.1,1.8-1.9-.9-2.7-3.2-1.8-5.1,6.7-13.8,20.9-22.7,36.2-22.7s29.5,8.9,36.2,22.7c.9,1.9.1,4.2-1.8,5.1-.5.3-1.1.4-1.7.4h0Z"/>
            <path class="cls-3" d="M364.1,22.5c-1.6,0-3.1-1-3.6-2.6-1.9-5.9-7.4-9.9-13.7-9.9s-11.8,4-13.7,9.9c-.6,2-2.8,3.1-4.8,2.4-2-.6-3.1-2.8-2.4-4.8,3-9.1,11.4-15.2,20.9-15.2s17.9,6.1,20.9,15.2c.6,2-.4,4.1-2.4,4.8-.4.1-.8.2-1.2.2h0Z"/>
            <path class="cls-3" d="M397.5,76.5c-1.5,0-2.9-.9-3.5-2.4-7.8-19.4-26.3-32-47.2-32s-39.4,12.5-47.2,32c-.8,1.9-3,2.9-4.9,2.1-1.9-.8-2.9-3-2.1-4.9,8.9-22.3,30.2-36.7,54.2-36.7s45.3,14.4,54.2,36.7c.8,1.9-.2,4.2-2.1,4.9-.5.2-.9.3-1.4.3Z"/>
            <path class="cls-3" d="M379.6,80.9c-1.4,0-2.8-.8-3.4-2.1-5.5-11.3-16.8-18.4-29.4-18.4s-23.9,7.1-29.4,18.4c-.9,1.9-3.2,2.7-5.1,1.8-1.9-.9-2.7-3.2-1.8-5.1,6.7-13.8,20.9-22.7,36.2-22.7s29.5,8.9,36.2,22.7c.9,1.9.1,4.2-1.8,5.1-.5.3-1.1.4-1.7.4h0Z"/>
            <path class="cls-3" d="M364.1,91.1c-1.6,0-3.1-1-3.6-2.6-1.9-5.9-7.4-9.9-13.7-9.9s-11.8,4-13.7,9.9c-.6,2-2.8,3.1-4.8,2.4-2-.6-3.1-2.8-2.4-4.8,3-9.1,11.4-15.2,20.9-15.2s17.9,6.1,20.9,15.2c.6,2-.4,4.1-2.4,4.8-.4.1-.8.2-1.2.2h0Z"/>
            <path class="cls-3" d="M342.9,110.6c-1.5,0-2.9-.9-3.5-2.4-7.8-19.4-26.3-32-47.2-32s-39.4,12.5-47.2,32c-.8,1.9-3,2.9-4.9,2.1-1.9-.8-2.9-3-2.1-4.9,8.9-22.3,30.2-36.7,54.2-36.7s45.3,14.4,54.2,36.7c.8,1.9-.2,4.2-2.1,4.9-.5.2-.9.3-1.4.3h0Z"/>
            <path class="cls-3" d="M325,115.1c-1.4,0-2.8-.8-3.4-2.1-5.5-11.3-16.8-18.4-29.4-18.4s-23.9,7.1-29.4,18.4c-.9,1.9-3.2,2.7-5.1,1.8-1.9-.9-2.7-3.2-1.8-5.1,6.7-13.8,20.9-22.7,36.2-22.7s29.5,8.9,36.2,22.7c.9,1.9.1,4.2-1.8,5.1-.5.3-1.1.4-1.7.4Z"/>
            <path class="cls-3" d="M309.5,125.3c-1.6,0-3.1-1-3.6-2.6-1.9-5.9-7.4-9.9-13.7-9.9s-11.8,4-13.7,9.9c-.6,2-2.8,3.1-4.8,2.4-2-.7-3.1-2.8-2.4-4.8,3-9.1,11.4-15.2,20.9-15.2s17.9,6.1,20.9,15.2c.6,2-.4,4.1-2.4,4.8-.4.1-.8.2-1.2.2Z"/>
            <path class="cls-3" d="M233.7,110.6c-1.5,0-2.9-.9-3.5-2.4-7.8-19.4-26.3-32-47.2-32s-39.4,12.5-47.2,32c-.8,1.9-3,2.9-4.9,2.1-1.9-.8-2.9-3-2.1-4.9,8.9-22.3,30.2-36.7,54.2-36.7s45.3,14.4,54.2,36.7c.8,1.9-.2,4.2-2.1,4.9-.5.2-.9.3-1.4.3h0Z"/>
            <path class="cls-3" d="M215.7,115.1c-1.4,0-2.8-.8-3.4-2.1-5.5-11.3-16.8-18.4-29.4-18.4s-23.9,7.2-29.4,18.4c-.9,1.9-3.2,2.7-5.1,1.8-1.9-.9-2.7-3.2-1.8-5.1,6.7-13.8,20.9-22.7,36.2-22.7s29.5,8.9,36.2,22.7c.9,1.9.1,4.2-1.8,5.1-.5.3-1.1.4-1.7.4Z"/>
            <path class="cls-3" d="M200.3,125.3c-1.6,0-3.1-1-3.6-2.6-1.9-5.9-7.4-9.9-13.7-9.9s-11.8,4-13.7,9.9c-.6,2-2.8,3.1-4.8,2.4-2-.7-3.1-2.8-2.4-4.8,3-9.1,11.4-15.2,20.9-15.2s17.9,6.1,20.9,15.2c.6,2-.4,4.1-2.4,4.8-.4.1-.8.2-1.2.2Z"/>
            <path class="cls-3" d="M69.8,7.9c-1.5,0-2.9-.9-3.5-2.4-7.8-19.4-26.3-32-47.2-32S-20.3-13.9-28.1,5.5c-.8,1.9-3,2.9-4.9,2.1-1.9-.8-2.9-3-2.1-4.9C-26.2-19.6-4.9-34,19.1-34S64.4-19.6,73.4,2.7c.8,1.9-.2,4.2-2.1,4.9-.5.2-.9.3-1.4.3h0Z"/>
            <path class="cls-3" d="M51.9,12.3c-1.4,0-2.8-.8-3.4-2.1C43-1.2,31.7-8.2,19.1-8.2S-4.7-1.2-10.2,10.2c-.9,1.9-3.2,2.7-5.1,1.8-1.9-.9-2.7-3.2-1.8-5.1C-10.4-6.9,3.8-15.8,19.1-15.8S48.6-6.9,55.3,6.9c.9,1.9.1,4.2-1.8,5.1-.5.3-1.1.4-1.7.4h0Z"/>
            <path class="cls-3" d="M36.4,22.5c-1.6,0-3.1-1-3.6-2.6-1.9-5.9-7.4-9.9-13.7-9.9s-11.8,4-13.7,9.9c-.6,2-2.8,3.1-4.8,2.4-2-.6-3.1-2.8-2.4-4.8C1.2,8.5,9.6,2.4,19.1,2.4s17.9,6.1,20.9,15.2c.6,2-.4,4.1-2.4,4.8-.4.1-.8.2-1.2.2Z"/>
            <path class="cls-3" d="M124.5,42.1c-1.5,0-2.9-.9-3.5-2.4-7.8-19.4-26.3-32-47.2-32s-39.4,12.5-47.2,32c-.8,1.9-3,2.9-4.9,2.1-1.9-.8-2.9-3-2.1-4.9C28.4,14.6,49.7.2,73.7.2s45.3,14.4,54.2,36.7c.8,1.9-.2,4.2-2.1,4.9-.5.2-.9.3-1.4.3h0Z"/>
            <path class="cls-3" d="M106.5,46.5c-1.4,0-2.8-.8-3.4-2.1-5.5-11.3-16.8-18.4-29.4-18.4s-23.9,7.1-29.4,18.4c-.9,1.9-3.2,2.7-5.1,1.8-1.9-.9-2.7-3.2-1.8-5.1,6.7-13.8,20.9-22.7,36.2-22.7s29.5,8.9,36.2,22.7c.9,1.9.1,4.2-1.8,5.1-.5.3-1.1.4-1.7.4h0Z"/>
            <path class="cls-3" d="M91,56.7c-1.6,0-3.1-1-3.6-2.6-1.9-5.9-7.4-9.9-13.7-9.9s-11.8,4-13.7,9.9c-.6,2-2.8,3.1-4.8,2.4-2-.6-3.1-2.8-2.4-4.8,3-9.1,11.4-15.2,20.9-15.2s17.9,6.1,20.9,15.2c.6,2-.4,4.1-2.4,4.8-.4.1-.8.2-1.2.2h0Z"/>
            <path class="cls-3" d="M15.2,42.1c-1.5,0-2.9-.9-3.5-2.4C3.9,20.3-14.6,7.8-35.5,7.8s-39.4,12.5-47.2,32c-.8,1.9-3,2.9-4.9,2.1-1.9-.8-2.9-3-2.1-4.9C-80.8,14.6-59.5.2-35.5.2S9.8,14.6,18.8,36.9c.8,1.9-.2,4.2-2.1,4.9-.5.2-.9.3-1.4.3Z"/>
            <path class="cls-3" d="M-2.7,46.5c-1.4,0-2.8-.8-3.4-2.1-5.4-11.2-16.9-18.4-29.4-18.4s-23.9,7.1-29.4,18.4c-.9,1.9-3.2,2.7-5.1,1.8-1.9-.9-2.7-3.2-1.8-5.1,6.7-13.8,20.9-22.7,36.2-22.7S-6,27.3.7,41.1c.9,1.9.1,4.2-1.8,5.1-.5.3-1.1.4-1.7.4h0Z"/>
            <path class="cls-3" d="M-18.2,56.7c-1.6,0-3.1-1-3.6-2.6-1.9-5.9-7.4-9.9-13.7-9.9s-11.8,4-13.7,9.9c-.6,2-2.8,3.1-4.8,2.4-2-.6-3.1-2.8-2.4-4.8,3-9.1,11.4-15.2,20.9-15.2s17.9,6.1,20.9,15.2c.6,2-.4,4.1-2.4,4.8-.4.1-.8.2-1.2.2Z"/>
            <path class="cls-3" d="M69.8,76.5c-1.5,0-2.9-.9-3.5-2.4-7.8-19.4-26.3-32-47.2-32s-39.4,12.5-47.2,32c-.8,1.9-3,2.9-4.9,2.1-1.9-.8-2.9-3-2.1-4.9C-26.2,49-4.9,34.5,19.1,34.5s45.3,14.4,54.2,36.7c.8,1.9-.2,4.2-2.1,4.9-.5.2-.9.3-1.4.3h0Z"/>
            <path class="cls-3" d="M51.9,80.9c-1.4,0-2.8-.8-3.4-2.1-5.5-11.3-16.8-18.4-29.4-18.4s-23.9,7.1-29.4,18.4c-.9,1.9-3.2,2.7-5.1,1.8-1.9-.9-2.7-3.2-1.8-5.1,6.7-13.8,20.9-22.7,36.2-22.7s29.5,8.9,36.2,22.7c.9,1.9.1,4.2-1.8,5.1-.5.3-1.1.4-1.7.4h0Z"/>
            <path class="cls-3" d="M36.4,91.1c-1.6,0-3.1-1-3.6-2.6-1.9-5.9-7.4-9.9-13.7-9.9s-11.8,4-13.7,9.9c-.6,2-2.8,3.1-4.8,2.4-2-.6-3.1-2.8-2.4-4.8,3-9.1,11.4-15.2,20.9-15.2s17.9,6.1,20.9,15.2c.6,2-.4,4.1-2.4,4.8-.4.1-.8.2-1.2.2Z"/>
            <path class="cls-3" d="M179.1,7.9c-1.5,0-2.9-.9-3.5-2.4-7.8-19.4-26.3-32-47.2-32s-39.4,12.5-47.2,32c-.8,1.9-3,2.9-4.9,2.1s-2.9-3-2.1-4.9c8.9-22.3,30.2-36.7,54.2-36.7s45.3,14.4,54.2,36.7c.8,1.9-.2,4.2-2.1,4.9-.5.2-.9.3-1.4.3h0Z"/>
            <path class="cls-3" d="M161.1,12.3c-1.4,0-2.8-.8-3.4-2.1-5.5-11.3-16.8-18.4-29.4-18.4s-23.9,7.2-29.4,18.4c-.9,1.9-3.2,2.7-5.1,1.8-1.9-.9-2.7-3.2-1.8-5.1,6.7-13.8,20.9-22.7,36.2-22.7s29.5,8.9,36.2,22.7c.9,1.9.1,4.2-1.8,5.1-.5.3-1.1.4-1.7.4h0Z"/>
            <path class="cls-3" d="M145.6,22.5c-1.6,0-3.1-1-3.6-2.6-1.9-5.9-7.4-9.9-13.7-9.9s-11.8,4-13.7,9.9c-.7,2-2.8,3.1-4.8,2.4-2-.6-3.1-2.8-2.4-4.8,3-9.1,11.4-15.2,20.9-15.2s17.9,6.1,20.9,15.2c.6,2-.4,4.1-2.4,4.8-.4.1-.8.2-1.2.2Z"/>
            <path class="cls-3" d="M179.1,76.5c-1.5,0-2.9-.9-3.5-2.4-7.8-19.4-26.3-32-47.2-32s-39.4,12.5-47.2,32c-.8,1.9-3,2.9-4.9,2.1-1.9-.8-2.9-3-2.1-4.9,8.9-22.3,30.2-36.7,54.2-36.7s45.3,14.4,54.2,36.7c.8,1.9-.2,4.2-2.1,4.9-.5.2-.9.3-1.4.3h0Z"/>
            <path class="cls-3" d="M161.1,80.9c-1.4,0-2.8-.8-3.4-2.1-5.5-11.3-16.8-18.4-29.4-18.4s-23.9,7.2-29.4,18.4c-.9,1.9-3.2,2.7-5.1,1.8-1.9-.9-2.7-3.2-1.8-5.1,6.7-13.8,20.9-22.7,36.2-22.7s29.5,8.9,36.2,22.7c.9,1.9.1,4.2-1.8,5.1-.5.3-1.1.4-1.7.4h0Z"/>
            <path class="cls-3" d="M145.6,91.1c-1.6,0-3.1-1-3.6-2.6-1.9-5.9-7.4-9.9-13.7-9.9s-11.8,4-13.7,9.9c-.7,2-2.8,3.1-4.8,2.4-2-.6-3.1-2.8-2.4-4.8,3-9.1,11.4-15.2,20.9-15.2s17.9,6.1,20.9,15.2c.6,2-.4,4.1-2.4,4.8-.4.1-.8.2-1.2.2Z"/>
            <path class="cls-3" d="M124.5,110.6c-1.5,0-2.9-.9-3.5-2.4-7.8-19.4-26.3-32-47.2-32s-39.4,12.5-47.2,32c-.8,1.9-3,2.9-4.9,2.1-1.9-.8-2.9-3-2.1-4.9,8.9-22.3,30.2-36.7,54.2-36.7s45.3,14.4,54.2,36.7c.8,1.9-.2,4.2-2.1,4.9-.5.2-.9.3-1.4.3h0Z"/>
            <path class="cls-3" d="M106.5,115.1c-1.4,0-2.8-.8-3.4-2.1-5.5-11.4-16.8-18.4-29.4-18.4s-23.9,7.1-29.4,18.4c-.9,1.9-3.2,2.7-5.1,1.8-1.9-.9-2.7-3.2-1.8-5.1,6.7-13.8,20.9-22.7,36.2-22.7s29.5,8.9,36.2,22.7c.9,1.9.1,4.2-1.8,5.1-.5.3-1.1.4-1.7.4h0Z"/>
            <path class="cls-3" d="M91,125.3c-1.6,0-3.1-1-3.6-2.6-1.9-5.9-7.4-9.9-13.7-9.9s-11.8,4-13.7,9.9c-.6,2-2.8,3.1-4.8,2.4-2-.7-3.1-2.8-2.4-4.8,3-9.1,11.4-15.2,20.9-15.2s17.9,6.1,20.9,15.2c.6,2-.4,4.1-2.4,4.8-.4.1-.8.2-1.2.2Z"/>
            <path class="cls-3" d="M15.2,110.6c-1.5,0-2.9-.9-3.5-2.4-7.8-19.4-26.3-32-47.2-32s-39.4,12.5-47.2,32c-.8,1.9-3,2.9-4.9,2.1-1.9-.8-2.9-3-2.1-4.9,8.9-22.3,30.2-36.7,54.2-36.7s45.3,14.4,54.2,36.7c.8,1.9-.2,4.2-2.1,4.9-.5.2-.9.3-1.4.3h0Z"/>
            <path class="cls-3" d="M-2.7,115.1c-1.4,0-2.8-.8-3.4-2.1-5.5-11.3-16.8-18.4-29.4-18.4s-23.9,7.1-29.4,18.4c-.9,1.9-3.2,2.7-5.1,1.8-1.9-.9-2.7-3.2-1.8-5.1,6.7-13.8,20.9-22.7,36.2-22.7S-6,95.9.7,109.6c.9,1.9.1,4.2-1.8,5.1-.5.3-1.1.4-1.7.4h0Z"/>
            <path class="cls-3" d="M-18.2,125.3c-1.6,0-3.1-1-3.6-2.6-1.9-5.9-7.4-9.9-13.7-9.9s-11.8,4-13.7,9.9c-.6,2-2.8,3.1-4.8,2.4-2-.7-3.1-2.8-2.4-4.8,3-9.1,11.4-15.2,20.9-15.2s17.9,6.1,20.9,15.2c.6,2-.4,4.1-2.4,4.8-.4.1-.8.2-1.2.2Z"/>
            <path class="cls-3" d="M288.3,145c-1.5,0-2.9-.9-3.5-2.4-7.8-19.4-26.3-32-47.2-32s-39.4,12.5-47.2,32c-.8,1.9-3,2.9-4.9,2.1-1.9-.8-2.9-3-2.1-4.9,8.9-22.3,30.2-36.7,54.2-36.7s45.3,14.4,54.2,36.7c.8,1.9-.2,4.2-2.1,4.9-.5.2-.9.3-1.4.3h0Z"/>
            <path class="cls-3" d="M270.4,149.4c-1.4,0-2.8-.8-3.4-2.1-5.5-11.3-16.8-18.4-29.4-18.4s-23.9,7.2-29.4,18.4c-.9,1.9-3.2,2.7-5.1,1.8-1.9-.9-2.7-3.2-1.8-5.1,6.7-13.8,20.9-22.7,36.2-22.7s29.5,8.9,36.2,22.7c.9,1.9.1,4.2-1.8,5.1-.5.3-1.1.4-1.7.4h0Z"/>
            <path class="cls-3" d="M254.9,159.6c-1.6,0-3.1-1-3.6-2.6-1.9-5.9-7.4-9.9-13.7-9.9s-11.8,4-13.7,9.9c-.6,2-2.8,3.1-4.8,2.4-2-.6-3.1-2.8-2.4-4.8,3-9.1,11.4-15.2,20.9-15.2s17.9,6.1,20.9,15.2c.6,2-.4,4.1-2.4,4.8-.4.1-.8.2-1.2.2Z"/>
            <path class="cls-3" d="M342.9,179.2c-1.5,0-2.9-.9-3.5-2.4-7.8-19.4-26.3-32-47.2-32s-39.4,12.5-47.2,32c-.8,1.9-3,2.9-4.9,2.1-1.9-.8-2.9-3-2.1-4.9,8.9-22.3,30.2-36.7,54.2-36.7s45.3,14.4,54.2,36.7c.8,1.9-.2,4.2-2.1,4.9-.5.2-.9.3-1.4.3h0Z"/>
            <path class="cls-3" d="M325,183.6c-1.4,0-2.8-.8-3.4-2.1-5.5-11.4-16.8-18.4-29.4-18.4s-23.9,7.1-29.4,18.4c-.9,1.9-3.2,2.7-5.1,1.8-1.9-.9-2.7-3.2-1.8-5.1,6.7-13.8,20.9-22.7,36.2-22.7s29.5,8.9,36.2,22.7c.9,1.9.1,4.2-1.8,5.1-.5.3-1.1.4-1.7.4h0Z"/>
            <path class="cls-3" d="M309.5,193.8c-1.6,0-3.1-1-3.6-2.6-1.9-5.9-7.4-9.9-13.7-9.9s-11.8,4-13.7,9.9c-.6,2-2.8,3.1-4.8,2.4-2-.6-3.1-2.8-2.4-4.8,3-9.1,11.4-15.2,20.9-15.2s17.9,6.1,20.9,15.2c.6,2-.4,4.1-2.4,4.8-.4.1-.8.2-1.2.2Z"/>
            <path class="cls-3" d="M233.7,179.2c-1.5,0-2.9-.9-3.5-2.4-7.8-19.4-26.3-32-47.2-32s-39.4,12.5-47.2,32c-.8,1.9-3,2.9-4.9,2.1-1.9-.8-2.9-3-2.1-4.9,8.9-22.3,30.2-36.7,54.2-36.7s45.3,14.4,54.2,36.7c.8,1.9-.2,4.2-2.1,4.9-.5.2-.9.3-1.4.3h0Z"/>
            <path class="cls-3" d="M215.7,183.6c-1.4,0-2.8-.8-3.4-2.1-5.5-11.4-16.8-18.4-29.4-18.4s-23.9,7.1-29.4,18.4c-.9,1.9-3.2,2.7-5.1,1.8-1.9-.9-2.7-3.2-1.8-5.1,6.7-13.8,20.9-22.7,36.2-22.7s29.5,8.9,36.2,22.7c.9,1.9.1,4.2-1.8,5.1-.5.3-1.1.4-1.7.4h0Z"/>
            <path class="cls-3" d="M200.3,193.8c-1.6,0-3.1-1-3.6-2.6-1.9-5.9-7.4-9.9-13.7-9.9s-11.8,4-13.7,9.9c-.6,2-2.8,3.1-4.8,2.4-2-.6-3.1-2.8-2.4-4.8,3-9.1,11.4-15.2,20.9-15.2s17.9,6.1,20.9,15.2c.6,2-.4,4.1-2.4,4.8-.4.1-.8.2-1.2.2Z"/>
            <path class="cls-3" d="M288.3,213.5c-1.5,0-2.9-.9-3.5-2.4-7.8-19.4-26.3-32-47.2-32s-39.4,12.5-47.2,32c-.8,1.9-3,2.9-4.9,2.1-1.9-.8-2.9-3-2.1-4.9,8.9-22.3,30.2-36.7,54.2-36.7s45.3,14.4,54.2,36.7c.8,1.9-.2,4.2-2.1,4.9-.5.2-.9.3-1.4.3h0Z"/>
            <path class="cls-3" d="M270.4,217.9c-1.4,0-2.8-.8-3.4-2.1-5.5-11.4-16.8-18.4-29.4-18.4s-23.9,7.1-29.4,18.4c-.9,1.9-3.2,2.7-5.1,1.8-1.9-.9-2.7-3.2-1.8-5.1,6.7-13.8,20.9-22.7,36.2-22.7s29.5,8.9,36.2,22.7c.9,1.9.1,4.2-1.8,5.1-.5.3-1.1.4-1.7.4h0Z"/>
            <path class="cls-3" d="M254.9,228.1c-1.6,0-3.1-1-3.6-2.6-1.9-5.9-7.4-9.9-13.7-9.9s-11.8,4-13.7,9.9c-.6,2-2.8,3.1-4.8,2.4-2-.6-3.1-2.8-2.4-4.8,3-9.1,11.4-15.2,20.9-15.2s17.9,6.1,20.9,15.2c.6,2-.4,4.1-2.4,4.8-.4.1-.8.2-1.2.2Z"/>
            <path class="cls-3" d="M397.5,145c-1.5,0-2.9-.9-3.5-2.4-7.8-19.4-26.3-32-47.2-32s-39.4,12.5-47.2,32c-.8,1.9-3,2.9-4.9,2.1-1.9-.8-2.9-3-2.1-4.9,8.9-22.3,30.2-36.7,54.2-36.7s45.3,14.4,54.2,36.7c.8,1.9-.2,4.2-2.1,4.9-.5.2-.9.3-1.4.3Z"/>
            <path class="cls-3" d="M379.6,149.4c-1.4,0-2.8-.8-3.4-2.1-5.5-11.3-16.8-18.4-29.4-18.4s-23.9,7.1-29.4,18.4c-.9,1.9-3.2,2.7-5.1,1.8-1.9-.9-2.7-3.2-1.8-5.1,6.7-13.8,20.9-22.7,36.2-22.7s29.5,8.9,36.2,22.7c.9,1.9.1,4.2-1.8,5.1-.5.3-1.1.4-1.7.4h0Z"/>
            <path class="cls-3" d="M364.1,159.6c-1.6,0-3.1-1-3.6-2.6-1.9-5.9-7.4-9.9-13.7-9.9s-11.8,4-13.7,9.9c-.6,2-2.8,3.1-4.8,2.4-2-.6-3.1-2.8-2.4-4.8,3-9.1,11.4-15.2,20.9-15.2s17.9,6.1,20.9,15.2c.6,2-.4,4.1-2.4,4.8-.4.1-.8.2-1.2.2h0Z"/>
            <path class="cls-3" d="M397.5,213.5c-1.5,0-2.9-.9-3.5-2.4-7.8-19.4-26.3-32-47.2-32s-39.4,12.5-47.2,32c-.8,1.9-3,2.9-4.9,2.1-1.9-.8-2.9-3-2.1-4.9,8.9-22.3,30.2-36.7,54.2-36.7s45.3,14.4,54.2,36.7c.8,1.9-.2,4.2-2.1,4.9-.5.2-.9.3-1.4.3h0Z"/>
            <path class="cls-3" d="M379.6,217.9c-1.4,0-2.8-.8-3.4-2.1-5.5-11.4-16.8-18.4-29.4-18.4s-23.9,7.1-29.4,18.4c-.9,1.9-3.2,2.7-5.1,1.8-1.9-.9-2.7-3.2-1.8-5.1,6.7-13.8,20.9-22.7,36.2-22.7s29.5,8.9,36.2,22.7c.9,1.9.1,4.2-1.8,5.1-.5.3-1.1.4-1.7.4h0Z"/>
            <path class="cls-3" d="M364.1,228.1c-1.6,0-3.1-1-3.6-2.6-1.9-5.9-7.4-9.9-13.7-9.9s-11.8,4-13.7,9.9c-.6,2-2.8,3.1-4.8,2.4-2-.6-3.1-2.8-2.4-4.8,3-9.1,11.4-15.2,20.9-15.2s17.9,6.1,20.9,15.2c.6,2-.4,4.1-2.4,4.8-.4.1-.8.2-1.2.2h0Z"/>
            <path class="cls-3" d="M342.9,247.7c-1.5,0-2.9-.9-3.5-2.4-7.8-19.4-26.3-32-47.2-32s-39.4,12.5-47.2,32c-.8,1.9-3,2.9-4.9,2.1-1.9-.8-2.9-3-2.1-4.9,8.9-22.3,30.2-36.7,54.2-36.7s45.3,14.4,54.2,36.7c.8,1.9-.2,4.2-2.1,4.9-.5.2-.9.3-1.4.3h0Z"/>
            <path class="cls-3" d="M325,252.1c-1.4,0-2.8-.8-3.4-2.1-5.5-11.4-16.8-18.4-29.4-18.4s-23.9,7.1-29.4,18.4c-.9,1.9-3.2,2.7-5.1,1.8-1.9-.9-2.7-3.2-1.8-5.1,6.7-13.8,20.9-22.7,36.2-22.7s29.5,8.9,36.2,22.7c.9,1.9.1,4.2-1.8,5.1-.5.3-1.1.4-1.7.4h0Z"/>
            <path class="cls-3" d="M309.5,262.3c-1.6,0-3.1-1-3.6-2.6-1.9-5.9-7.4-9.9-13.7-9.9s-11.8,4-13.7,9.9c-.6,2-2.8,3.1-4.8,2.4-2-.6-3.1-2.8-2.4-4.8,3-9.1,11.4-15.2,20.9-15.2s17.9,6.1,20.9,15.2c.6,2-.4,4.1-2.4,4.8-.4.1-.8.2-1.2.2h0Z"/>
            <path class="cls-3" d="M233.7,247.7c-1.5,0-2.9-.9-3.5-2.4-7.8-19.4-26.3-32-47.2-32s-39.4,12.5-47.2,32c-.8,1.9-3,2.9-4.9,2.1-1.9-.8-2.9-3-2.1-4.9,8.9-22.3,30.2-36.7,54.2-36.7s45.3,14.4,54.2,36.7c.8,1.9-.2,4.2-2.1,4.9-.5.2-.9.3-1.4.3h0Z"/>
            <path class="cls-3" d="M215.7,252.1c-1.4,0-2.8-.8-3.4-2.1-5.5-11.4-16.8-18.4-29.4-18.4s-23.9,7.2-29.4,18.4c-.9,1.9-3.2,2.7-5.1,1.8-1.9-.9-2.7-3.2-1.8-5.1,6.7-13.8,20.9-22.7,36.2-22.7s29.5,8.9,36.2,22.7c.9,1.9.1,4.2-1.8,5.1-.5.3-1.1.4-1.7.4h0Z"/>
            <path class="cls-3" d="M200.3,262.3c-1.6,0-3.1-1-3.6-2.6-1.9-5.9-7.4-9.9-13.7-9.9s-11.8,4-13.7,9.9c-.6,2-2.8,3.1-4.8,2.4-2-.6-3.1-2.8-2.4-4.8,3-9.1,11.4-15.2,20.9-15.2s17.9,6.1,20.9,15.2c.6,2-.4,4.1-2.4,4.8-.4.1-.8.2-1.2.2h0Z"/>
            <path class="cls-3" d="M69.8,145c-1.5,0-2.9-.9-3.5-2.4-7.8-19.4-26.3-32-47.2-32s-39.4,12.5-47.2,32c-.8,1.9-3,2.9-4.9,2.1-1.9-.8-2.9-3-2.1-4.9,8.9-22.3,30.2-36.7,54.2-36.7s45.3,14.4,54.2,36.7c.8,1.9-.2,4.2-2.1,4.9-.5.2-.9.3-1.4.3h0Z"/>
            <path class="cls-3" d="M51.9,149.4c-1.4,0-2.8-.8-3.4-2.1-5.5-11.3-16.8-18.4-29.4-18.4s-23.9,7.1-29.4,18.4c-.9,1.9-3.2,2.7-5.1,1.8-1.9-.9-2.7-3.2-1.8-5.1,6.7-13.8,20.9-22.7,36.2-22.7s29.5,8.9,36.2,22.7c.9,1.9.1,4.2-1.8,5.1-.5.3-1.1.4-1.7.4h0Z"/>
            <path class="cls-3" d="M36.4,159.6c-1.6,0-3.1-1-3.6-2.6-1.9-5.9-7.4-9.9-13.7-9.9s-11.8,4-13.7,9.9c-.6,2-2.8,3.1-4.8,2.4-2-.6-3.1-2.8-2.4-4.8,3-9.1,11.4-15.2,20.9-15.2s17.9,6.1,20.9,15.2c.6,2-.4,4.1-2.4,4.8-.4.1-.8.2-1.2.2Z"/>
            <path class="cls-3" d="M124.5,179.2c-1.5,0-2.9-.9-3.5-2.4-7.8-19.4-26.3-32-47.2-32s-39.4,12.5-47.2,32c-.8,1.9-3,2.9-4.9,2.1-1.9-.8-2.9-3-2.1-4.9,8.9-22.3,30.2-36.7,54.2-36.7s45.3,14.4,54.2,36.7c.8,1.9-.2,4.2-2.1,4.9-.5.2-.9.3-1.4.3h0Z"/>
            <path class="cls-3" d="M106.5,183.6c-1.4,0-2.8-.8-3.4-2.1-5.5-11.4-16.8-18.4-29.4-18.4s-23.9,7.1-29.4,18.4c-.9,1.9-3.2,2.7-5.1,1.8-1.9-.9-2.7-3.2-1.8-5.1,6.7-13.8,20.9-22.7,36.2-22.7s29.5,8.9,36.2,22.7c.9,1.9.1,4.2-1.8,5.1-.5.3-1.1.4-1.7.4h0Z"/>
            <path class="cls-3" d="M91,193.8c-1.6,0-3.1-1-3.6-2.6-1.9-5.9-7.4-9.9-13.7-9.9s-11.8,4-13.7,9.9c-.6,2-2.8,3.1-4.8,2.4-2-.6-3.1-2.8-2.4-4.8,3-9.1,11.4-15.2,20.9-15.2s17.9,6.1,20.9,15.2c.6,2-.4,4.1-2.4,4.8-.4.1-.8.2-1.2.2Z"/>
            <path class="cls-3" d="M15.2,179.2c-1.5,0-2.9-.9-3.5-2.4-7.8-19.4-26.3-32-47.2-32s-39.4,12.5-47.2,32c-.8,1.9-3,2.9-4.9,2.1-1.9-.8-2.9-3-2.1-4.9,8.9-22.3,30.2-36.7,54.2-36.7s45.3,14.4,54.2,36.7c.8,1.9-.2,4.2-2.1,4.9-.5.2-.9.3-1.4.3h0Z"/>
            <path class="cls-3" d="M-2.7,183.6c-1.4,0-2.8-.8-3.4-2.1-5.5-11.4-16.8-18.4-29.4-18.4s-23.9,7.1-29.4,18.4c-.9,1.9-3.2,2.7-5.1,1.8-1.9-.9-2.7-3.2-1.8-5.1,6.7-13.8,20.9-22.7,36.2-22.7S-6,164.4.7,178.2c.9,1.9.1,4.2-1.8,5.1-.5.3-1.1.4-1.7.4h0Z"/>
            <path class="cls-3" d="M-18.2,193.8c-1.6,0-3.1-1-3.6-2.6-1.9-5.9-7.4-9.9-13.7-9.9s-11.8,4-13.7,9.9c-.6,2-2.8,3.1-4.8,2.4-2-.6-3.1-2.8-2.4-4.8,3-9.1,11.4-15.2,20.9-15.2s17.9,6.1,20.9,15.2c.6,2-.4,4.1-2.4,4.8-.4.1-.8.2-1.2.2Z"/>
            <path class="cls-3" d="M69.8,213.5c-1.5,0-2.9-.9-3.5-2.4-7.8-19.4-26.3-32-47.2-32s-39.4,12.5-47.2,32c-.8,1.9-3,2.9-4.9,2.1-1.9-.8-2.9-3-2.1-4.9,8.9-22.3,30.2-36.7,54.2-36.7s45.3,14.4,54.2,36.7c.8,1.9-.2,4.2-2.1,4.9-.5.2-.9.3-1.4.3h0Z"/>
            <path class="cls-3" d="M51.9,217.9c-1.4,0-2.8-.8-3.4-2.1-5.5-11.4-16.8-18.4-29.4-18.4s-23.9,7.1-29.4,18.4c-.9,1.9-3.2,2.7-5.1,1.8-1.9-.9-2.7-3.2-1.8-5.1,6.7-13.8,20.9-22.7,36.2-22.7s29.5,8.9,36.2,22.7c.9,1.9.1,4.2-1.8,5.1-.5.3-1.1.4-1.7.4h0Z"/>
            <path class="cls-3" d="M36.4,228.1c-1.6,0-3.1-1-3.6-2.6-1.9-5.9-7.4-9.9-13.7-9.9s-11.8,4-13.7,9.9c-.6,2-2.8,3.1-4.8,2.4-2-.6-3.1-2.8-2.4-4.8,3-9.1,11.4-15.2,20.9-15.2s17.9,6.1,20.9,15.2c.6,2-.4,4.1-2.4,4.8-.4.1-.8.2-1.2.2Z"/>
            <path class="cls-3" d="M179.1,145c-1.5,0-2.9-.9-3.5-2.4-7.8-19.4-26.3-32-47.2-32s-39.4,12.5-47.2,32c-.8,1.9-3,2.9-4.9,2.1s-2.9-3-2.1-4.9c8.9-22.3,30.2-36.7,54.2-36.7s45.3,14.4,54.2,36.7c.8,1.9-.2,4.2-2.1,4.9-.5.2-.9.3-1.4.3h0Z"/>
            <path class="cls-3" d="M161.1,149.4c-1.4,0-2.8-.8-3.4-2.1-5.5-11.3-16.8-18.4-29.4-18.4s-23.9,7.2-29.4,18.4c-.9,1.9-3.2,2.7-5.1,1.8-1.9-.9-2.7-3.2-1.8-5.1,6.7-13.8,20.9-22.7,36.2-22.7s29.5,8.9,36.2,22.7c.9,1.9.1,4.2-1.8,5.1-.5.3-1.1.4-1.7.4h0Z"/>
            <path class="cls-3" d="M145.6,159.6c-1.6,0-3.1-1-3.6-2.6-1.9-5.9-7.4-9.9-13.7-9.9s-11.8,4-13.7,9.9c-.7,2-2.8,3.1-4.8,2.4-2-.6-3.1-2.8-2.4-4.8,3-9.1,11.4-15.2,20.9-15.2s17.9,6.1,20.9,15.2c.6,2-.4,4.1-2.4,4.8-.4.1-.8.2-1.2.2Z"/>
            <path class="cls-3" d="M179.1,213.5c-1.5,0-2.9-.9-3.5-2.4-7.8-19.4-26.3-32-47.2-32s-39.4,12.5-47.2,32c-.8,1.9-3,2.9-4.9,2.1-1.9-.8-2.9-3-2.1-4.9,8.9-22.3,30.2-36.7,54.2-36.7s45.3,14.4,54.2,36.7c.8,1.9-.2,4.2-2.1,4.9-.5.2-.9.3-1.4.3h0Z"/>
            <path class="cls-3" d="M161.1,217.9c-1.4,0-2.8-.8-3.4-2.1-5.5-11.4-16.8-18.4-29.4-18.4s-23.9,7.1-29.4,18.4c-.9,1.9-3.2,2.7-5.1,1.8-1.9-.9-2.7-3.2-1.8-5.1,6.7-13.8,20.9-22.7,36.2-22.7s29.5,8.9,36.2,22.7c.9,1.9.1,4.2-1.8,5.1-.5.3-1.1.4-1.7.4h0Z"/>
            <path class="cls-3" d="M145.6,228.1c-1.6,0-3.1-1-3.6-2.6-1.9-5.9-7.4-9.9-13.7-9.9s-11.8,4-13.7,9.9c-.7,2-2.8,3.1-4.8,2.4-2-.6-3.1-2.8-2.4-4.8,3-9.1,11.4-15.2,20.9-15.2s17.9,6.1,20.9,15.2c.6,2-.4,4.1-2.4,4.8-.4.1-.8.2-1.2.2Z"/>
            <path class="cls-3" d="M124.5,247.7c-1.5,0-2.9-.9-3.5-2.4-7.8-19.4-26.3-32-47.2-32s-39.4,12.5-47.2,32c-.8,1.9-3,2.9-4.9,2.1-1.9-.8-2.9-3-2.1-4.9,8.9-22.3,30.2-36.7,54.2-36.7s45.3,14.4,54.2,36.7c.8,1.9-.2,4.2-2.1,4.9-.5.2-.9.3-1.4.3h0Z"/>
            <path class="cls-3" d="M106.5,252.1c-1.4,0-2.8-.8-3.4-2.1-5.5-11.4-16.8-18.4-29.4-18.4s-23.9,7.1-29.4,18.4c-.9,1.9-3.2,2.7-5.1,1.8-1.9-.9-2.7-3.2-1.8-5.1,6.7-13.8,20.9-22.7,36.2-22.7s29.5,8.9,36.2,22.7c.9,1.9.1,4.2-1.8,5.1-.5.3-1.1.4-1.7.4h0Z"/>
            <path class="cls-3" d="M91,262.3c-1.6,0-3.1-1-3.6-2.6-1.9-5.9-7.4-9.9-13.7-9.9s-11.8,4-13.7,9.9c-.6,2-2.8,3.1-4.8,2.4-2-.6-3.1-2.8-2.4-4.8,3-9.1,11.4-15.2,20.9-15.2s17.9,6.1,20.9,15.2c.6,2-.4,4.1-2.4,4.8-.4.1-.8.2-1.2.2h0Z"/>
            <path class="cls-3" d="M15.2,247.7c-1.5,0-2.9-.9-3.5-2.4-7.8-19.4-26.3-32-47.2-32s-39.4,12.5-47.2,32c-.8,1.9-3,2.9-4.9,2.1-1.9-.8-2.9-3-2.1-4.9,8.9-22.3,30.2-36.7,54.2-36.7s45.3,14.4,54.2,36.7c.8,1.9-.2,4.2-2.1,4.9-.5.2-.9.3-1.4.3h0Z"/>
            <path class="cls-3" d="M-2.7,252.1c-1.4,0-2.8-.8-3.4-2.1-5.5-11.4-16.8-18.4-29.4-18.4s-23.9,7.1-29.4,18.4c-.9,1.9-3.2,2.7-5.1,1.8-1.9-.9-2.7-3.2-1.8-5.1,6.7-13.8,20.9-22.7,36.2-22.7S-6,232.9.7,246.7c.9,1.9.1,4.2-1.8,5.1-.5.3-1.1.4-1.7.4h0Z"/>
            <path class="cls-3" d="M-18.2,262.3c-1.6,0-3.1-1-3.6-2.6-1.9-5.9-7.4-9.9-13.7-9.9s-11.8,4-13.7,9.9c-.6,2-2.8,3.1-4.8,2.4-2-.6-3.1-2.8-2.4-4.8,3-9.1,11.4-15.2,20.9-15.2s17.9,6.1,20.9,15.2c.6,2-.4,4.1-2.4,4.8-.4.1-.8.2-1.2.2h0Z"/>
            <path class="cls-3" d="M288.3,282.1c-1.5,0-2.9-.9-3.5-2.4-7.8-19.4-26.3-32-47.2-32s-39.4,12.5-47.2,32c-.8,1.9-3,2.9-4.9,2.1-1.9-.8-2.9-3-2.1-4.9,8.9-22.3,30.2-36.7,54.2-36.7s45.3,14.4,54.2,36.7c.8,1.9-.2,4.2-2.1,4.9-.5.2-.9.3-1.4.3h0Z"/>
            <path class="cls-3" d="M270.4,286.5c-1.4,0-2.8-.8-3.4-2.1-5.5-11.4-16.8-18.4-29.4-18.4s-23.9,7.1-29.4,18.4c-.9,1.9-3.2,2.7-5.1,1.8-1.9-.9-2.7-3.2-1.8-5.1,6.7-13.8,20.9-22.7,36.2-22.7s29.5,8.9,36.2,22.7c.9,1.9.1,4.2-1.8,5.1-.5.3-1.1.4-1.7.4h0Z"/>
            <path class="cls-3" d="M254.9,296.7c-1.6,0-3.1-1-3.6-2.6-1.9-5.9-7.4-9.9-13.7-9.9s-11.8,4-13.7,9.9c-.6,2-2.8,3.1-4.8,2.4-2-.6-3.1-2.8-2.4-4.8,3-9.1,11.4-15.2,20.9-15.2s17.9,6.1,20.9,15.2c.6,2-.4,4.1-2.4,4.8-.4.1-.8.2-1.2.2Z"/>
            <path class="cls-3" d="M342.9,316.3c-1.5,0-2.9-.9-3.5-2.4-7.8-19.4-26.3-32-47.2-32s-39.4,12.5-47.2,32c-.8,1.9-3,2.9-4.9,2.1-1.9-.8-2.9-3-2.1-4.9,8.9-22.3,30.2-36.7,54.2-36.7s45.3,14.4,54.2,36.7c.8,1.9-.2,4.2-2.1,4.9-.5.2-.9.3-1.4.3h0Z"/>
            <path class="cls-3" d="M325,320.7c-1.4,0-2.8-.8-3.4-2.1-5.5-11.4-16.8-18.4-29.4-18.4s-23.9,7.1-29.4,18.4c-.9,1.9-3.2,2.7-5.1,1.8-1.9-.9-2.7-3.2-1.8-5.1,6.7-13.8,20.9-22.7,36.2-22.7s29.5,8.9,36.2,22.7c.9,1.9.1,4.2-1.8,5.1-.5.3-1.1.4-1.7.4h0Z"/>
            <path class="cls-3" d="M309.5,330.9c-1.6,0-3.1-1-3.6-2.6-1.9-5.9-7.4-9.9-13.7-9.9s-11.8,4-13.7,9.9c-.6,2-2.8,3.1-4.8,2.4-2-.6-3.1-2.8-2.4-4.8,3-9.1,11.4-15.2,20.9-15.2s17.9,6.1,20.9,15.2c.6,2-.4,4.1-2.4,4.8-.4.1-.8.2-1.2.2h0Z"/>
            <path class="cls-3" d="M233.7,316.3c-1.5,0-2.9-.9-3.5-2.4-7.8-19.4-26.3-32-47.2-32s-39.4,12.5-47.2,32c-.8,1.9-3,2.9-4.9,2.1-1.9-.8-2.9-3-2.1-4.9,8.9-22.3,30.2-36.7,54.2-36.7s45.3,14.4,54.2,36.7c.8,1.9-.2,4.2-2.1,4.9-.5.2-.9.3-1.4.3h0Z"/>
            <path class="cls-3" d="M215.7,320.7c-1.4,0-2.8-.8-3.4-2.1-5.5-11.4-16.8-18.4-29.4-18.4s-23.9,7.2-29.4,18.4c-.9,1.9-3.2,2.7-5.1,1.8-1.9-.9-2.7-3.2-1.8-5.1,6.7-13.8,20.9-22.7,36.2-22.7s29.5,8.9,36.2,22.7c.9,1.9.1,4.2-1.8,5.1-.5.3-1.1.4-1.7.4h0Z"/>
            <path class="cls-3" d="M200.3,330.9c-1.6,0-3.1-1-3.6-2.6-1.9-5.9-7.4-9.9-13.7-9.9s-11.8,4-13.7,9.9c-.6,2-2.8,3.1-4.8,2.4-2-.6-3.1-2.8-2.4-4.8,3-9.1,11.4-15.2,20.9-15.2s17.9,6.1,20.9,15.2c.6,2-.4,4.1-2.4,4.8-.4.1-.8.2-1.2.2h0Z"/>
            <path class="cls-3" d="M270.4,355c-1.4,0-2.8-.8-3.4-2.1-5.5-11.4-16.8-18.4-29.4-18.4s-23.9,7.2-29.4,18.4c-.9,1.9-3.2,2.7-5.1,1.8-1.9-.9-2.7-3.2-1.8-5.1,6.7-13.8,20.9-22.7,36.2-22.7s29.5,8.9,36.2,22.7c.9,1.9.1,4.2-1.8,5.1-.5.3-1.1.4-1.7.4h0Z"/>
            <path class="cls-3" d="M254.9,365.2c-1.6,0-3.1-1-3.6-2.6-1.9-5.9-7.4-9.9-13.7-9.9s-11.8,4-13.7,9.9c-.6,2-2.8,3.1-4.8,2.4-2-.6-3.1-2.8-2.4-4.8,3-9.1,11.4-15.2,20.9-15.2s17.9,6.1,20.9,15.2c.6,2-.4,4.1-2.4,4.8-.4.1-.8.2-1.2.2h0Z"/>
            <path class="cls-3" d="M397.5,282.1c-1.5,0-2.9-.9-3.5-2.4-7.8-19.4-26.3-32-47.2-32s-39.4,12.5-47.2,32c-.8,1.9-3,2.9-4.9,2.1-1.9-.8-2.9-3-2.1-4.9,8.9-22.3,30.2-36.7,54.2-36.7s45.3,14.4,54.2,36.7c.8,1.9-.2,4.2-2.1,4.9-.5.2-.9.3-1.4.3h0Z"/>
            <path class="cls-3" d="M379.6,286.5c-1.4,0-2.8-.8-3.4-2.1-5.5-11.4-16.8-18.4-29.4-18.4s-23.9,7.1-29.4,18.4c-.9,1.9-3.2,2.7-5.1,1.8-1.9-.9-2.7-3.2-1.8-5.1,6.7-13.8,20.9-22.7,36.2-22.7s29.5,8.9,36.2,22.7c.9,1.9.1,4.2-1.8,5.1-.5.3-1.1.4-1.7.4h0Z"/>
            <path class="cls-3" d="M364.1,296.7c-1.6,0-3.1-1-3.6-2.6-1.9-5.9-7.4-9.9-13.7-9.9s-11.8,4-13.7,9.9c-.6,2-2.8,3.1-4.8,2.4-2-.6-3.1-2.8-2.4-4.8,3-9.1,11.4-15.2,20.9-15.2s17.9,6.1,20.9,15.2c.6,2-.4,4.1-2.4,4.8-.4.1-.8.2-1.2.2h0Z"/>
            <path class="cls-3" d="M397.5,350.6c-1.5,0-2.9-.9-3.5-2.4-7.8-19.4-26.3-32-47.2-32s-39.4,12.5-47.2,32c-.8,1.9-3,2.9-4.9,2.1-1.9-.8-2.9-3-2.1-4.9,8.9-22.3,30.2-36.7,54.2-36.7s45.3,14.4,54.2,36.7c.8,1.9-.2,4.2-2.1,4.9-.5.2-.9.3-1.4.3h0Z"/>
            <path class="cls-3" d="M379.6,355c-1.4,0-2.8-.8-3.4-2.1-5.5-11.4-16.8-18.4-29.4-18.4s-23.9,7.1-29.4,18.4c-.9,1.9-3.2,2.7-5.1,1.8-1.9-.9-2.7-3.2-1.8-5.1,6.7-13.8,20.9-22.7,36.2-22.7s29.5,8.9,36.2,22.7c.9,1.9.1,4.2-1.8,5.1-.5.3-1.1.4-1.7.4h0Z"/>
            <path class="cls-3" d="M364.1,365.2c-1.6,0-3.1-1-3.6-2.6-1.9-5.9-7.4-9.9-13.7-9.9s-11.8,4-13.7,9.9c-.6,2-2.8,3.1-4.8,2.4-2-.6-3.1-2.8-2.4-4.8,3-9.1,11.4-15.2,20.9-15.2s17.9,6.1,20.9,15.2c.6,2-.4,4.1-2.4,4.8-.4.1-.8.2-1.2.2h0Z"/>
            <path class="cls-3" d="M342.9,384.8c-1.5,0-2.9-.9-3.5-2.4-7.8-19.4-26.3-32-47.2-32s-39.4,12.5-47.2,32c-.8,1.9-3,2.9-4.9,2.1-1.9-.8-2.9-3-2.1-4.9,8.9-22.3,30.2-36.7,54.2-36.7s45.3,14.4,54.2,36.7c.8,1.9-.2,4.2-2.1,4.9-.5.2-.9.3-1.4.3h0Z"/>
            <path class="cls-3" d="M325,389.2c-1.4,0-2.8-.8-3.4-2.1-5.5-11.4-16.8-18.4-29.4-18.4s-23.9,7.1-29.4,18.4c-.9,1.9-3.2,2.7-5.1,1.8-1.9-.9-2.7-3.2-1.8-5.1,6.7-13.8,20.9-22.7,36.2-22.7s29.5,8.9,36.2,22.7c.9,1.9.1,4.2-1.8,5.1-.5.3-1.1.4-1.7.4h0Z"/>
            <path class="cls-3" d="M309.5,399.4c-1.6,0-3.1-1-3.6-2.6-1.9-5.9-7.4-9.9-13.7-9.9s-11.8,4-13.7,9.9c-.6,2-2.8,3.1-4.8,2.4-2-.6-3.1-2.8-2.4-4.8,3-9.1,11.4-15.2,20.9-15.2s17.9,6.1,20.9,15.2c.6,2-.4,4.1-2.4,4.8-.4.1-.8.2-1.2.2Z"/>
            <path class="cls-3" d="M451.8,42.1c-1.5,0-2.9-.9-3.5-2.4-7.8-19.4-26.3-32-47.2-32s-39.4,12.5-47.2,32c-.8,1.9-3,2.9-4.9,2.1-1.9-.8-2.9-3-2.1-4.9C355.7,14.6,377,.2,401,.2s45.3,14.4,54.2,36.7c.8,1.9-.2,4.2-2.1,4.9-.5.2-.9.3-1.4.3h0Z"/>
            <path class="cls-3" d="M433.8,46.5c-1.4,0-2.8-.8-3.4-2.1-5.4-11.2-16.9-18.4-29.4-18.4s-23.9,7.1-29.4,18.4c-.9,1.9-3.2,2.7-5.1,1.8-1.9-.9-2.7-3.2-1.8-5.1,6.7-13.8,20.9-22.7,36.2-22.7s29.5,8.9,36.2,22.7c.9,1.9.1,4.2-1.8,5.1-.5.3-1.1.4-1.7.4h0Z"/>
            <path class="cls-3" d="M418.3,56.7c-1.6,0-3.1-1-3.6-2.6-1.9-5.9-7.4-9.9-13.7-9.9s-11.8,4-13.7,9.9c-.6,2-2.8,3.1-4.8,2.4-2-.6-3.1-2.8-2.4-4.8,3-9.1,11.4-15.2,20.9-15.2s17.9,6.1,20.9,15.2c.6,2-.4,4.1-2.4,4.8-.4.1-.8.2-1.2.2Z"/>
            <path class="cls-3" d="M451.8,110.6c-1.5,0-2.9-.9-3.5-2.4-7.8-19.4-26.3-32-47.2-32s-39.4,12.5-47.2,32c-.8,1.9-3,2.9-4.9,2.1-1.9-.8-2.9-3-2.1-4.9,8.9-22.3,30.2-36.7,54.2-36.7s45.3,14.4,54.2,36.7c.8,1.9-.2,4.2-2.1,4.9-.5.2-.9.3-1.4.3h0Z"/>
            <path class="cls-3" d="M433.8,115.1c-1.4,0-2.8-.8-3.4-2.1-5.5-11.3-16.8-18.4-29.4-18.4s-23.9,7.1-29.4,18.4c-.9,1.9-3.2,2.7-5.1,1.8-1.9-.9-2.7-3.2-1.8-5.1,6.7-13.8,20.9-22.7,36.2-22.7s29.5,8.9,36.2,22.7c.9,1.9.1,4.2-1.8,5.1-.5.3-1.1.4-1.7.4h0Z"/>
            <path class="cls-3" d="M418.3,125.3c-1.6,0-3.1-1-3.6-2.6-1.9-5.9-7.4-9.9-13.7-9.9s-11.8,4-13.7,9.9c-.6,2-2.8,3.1-4.8,2.4-2-.7-3.1-2.8-2.4-4.8,3-9.1,11.4-15.2,20.9-15.2s17.9,6.1,20.9,15.2c.6,2-.4,4.1-2.4,4.8-.4.1-.8.2-1.2.2Z"/>
            <path class="cls-3" d="M451.8,179.2c-1.5,0-2.9-.9-3.5-2.4-7.8-19.4-26.3-32-47.2-32s-39.4,12.5-47.2,32c-.8,1.9-3,2.9-4.9,2.1-1.9-.8-2.9-3-2.1-4.9,8.9-22.3,30.2-36.7,54.2-36.7s45.3,14.4,54.2,36.7c.8,1.9-.2,4.2-2.1,4.9-.5.2-.9.3-1.4.3h0Z"/>
            <path class="cls-3" d="M433.8,183.6c-1.4,0-2.8-.8-3.4-2.1-5.5-11.4-16.8-18.4-29.4-18.4s-23.9,7.1-29.4,18.4c-.9,1.9-3.2,2.7-5.1,1.8-1.9-.9-2.7-3.2-1.8-5.1,6.7-13.8,20.9-22.7,36.2-22.7s29.5,8.9,36.2,22.7c.9,1.9.1,4.2-1.8,5.1-.5.3-1.1.4-1.7.4h0Z"/>
            <path class="cls-3" d="M418.3,193.8c-1.6,0-3.1-1-3.6-2.6-1.9-5.9-7.4-9.9-13.7-9.9s-11.8,4-13.7,9.9c-.6,2-2.8,3.1-4.8,2.4-2-.6-3.1-2.8-2.4-4.8,3-9.1,11.4-15.2,20.9-15.2s17.9,6.1,20.9,15.2c.6,2-.4,4.1-2.4,4.8-.4.1-.8.2-1.2.2Z"/>
            <path class="cls-3" d="M451.8,247.7c-1.5,0-2.9-.9-3.5-2.4-7.8-19.4-26.3-32-47.2-32s-39.4,12.5-47.2,32c-.8,1.9-3,2.9-4.9,2.1-1.9-.8-2.9-3-2.1-4.9,8.9-22.3,30.2-36.7,54.2-36.7s45.3,14.4,54.2,36.7c.8,1.9-.2,4.2-2.1,4.9-.5.2-.9.3-1.4.3h0Z"/>
            <path class="cls-3" d="M433.8,252.1c-1.4,0-2.8-.8-3.4-2.1-5.5-11.4-16.8-18.4-29.4-18.4s-23.9,7.1-29.4,18.4c-.9,1.9-3.2,2.7-5.1,1.8-1.9-.9-2.7-3.2-1.8-5.1,6.7-13.8,20.9-22.7,36.2-22.7s29.5,8.9,36.2,22.7c.9,1.9.1,4.2-1.8,5.1-.5.3-1.1.4-1.7.4h0Z"/>
            <path class="cls-3" d="M418.3,262.3c-1.6,0-3.1-1-3.6-2.6-1.9-5.9-7.4-9.9-13.7-9.9s-11.8,4-13.7,9.9c-.6,2-2.8,3.1-4.8,2.4-2-.6-3.1-2.8-2.4-4.8,3-9.1,11.4-15.2,20.9-15.2s17.9,6.1,20.9,15.2c.7,2-.4,4.1-2.4,4.8-.4.1-.8.2-1.2.2h0Z"/>
            <path class="cls-3" d="M451.8,316.3c-1.5,0-2.9-.9-3.5-2.4-7.8-19.4-26.3-32-47.2-32s-39.4,12.5-47.2,32c-.8,1.9-3,2.9-4.9,2.1-1.9-.8-2.9-3-2.1-4.9,8.9-22.3,30.2-36.7,54.2-36.7s45.3,14.4,54.2,36.7c.8,1.9-.2,4.2-2.1,4.9-.5.2-.9.3-1.4.3h0Z"/>
            <path class="cls-3" d="M433.8,320.7c-1.4,0-2.8-.8-3.4-2.1-5.5-11.4-16.8-18.4-29.4-18.4s-23.9,7.1-29.4,18.4c-.9,1.9-3.2,2.7-5.1,1.8-1.9-.9-2.7-3.2-1.8-5.1,6.7-13.8,20.9-22.7,36.2-22.7s29.5,8.9,36.2,22.7c.9,1.9.1,4.2-1.8,5.1-.5.3-1.1.4-1.7.4h0Z"/>
            <path class="cls-3" d="M418.3,330.9c-1.6,0-3.1-1-3.6-2.6-1.9-5.9-7.4-9.9-13.7-9.9s-11.8,4-13.7,9.9c-.6,2-2.8,3.1-4.8,2.4-2-.6-3.1-2.8-2.4-4.8,3-9.1,11.4-15.2,20.9-15.2s17.9,6.1,20.9,15.2c.7,2-.4,4.1-2.4,4.8-.4.1-.8.2-1.2.2h0Z"/>
            <path class="cls-3" d="M451.8,384.8c-1.5,0-2.9-.9-3.5-2.4-7.8-19.4-26.3-32-47.2-32s-39.4,12.5-47.2,32c-.8,1.9-3,2.9-4.9,2.1-1.9-.8-2.9-3-2.1-4.9,8.9-22.3,30.2-36.7,54.2-36.7s45.3,14.4,54.2,36.7c.8,1.9-.2,4.2-2.1,4.9-.5.2-.9.3-1.4.3h0Z"/>
            <path class="cls-3" d="M433.8,389.2c-1.4,0-2.8-.8-3.4-2.1-5.5-11.4-16.8-18.4-29.4-18.4s-23.9,7.1-29.4,18.4c-.9,1.9-3.2,2.7-5.1,1.8-1.9-.9-2.7-3.2-1.8-5.1,6.7-13.8,20.9-22.7,36.2-22.7s29.5,8.9,36.2,22.7c.9,1.9.1,4.2-1.8,5.1-.5.3-1.1.4-1.7.4h0Z"/>
            <path class="cls-3" d="M418.3,399.4c-1.6,0-3.1-1-3.6-2.6-1.9-5.9-7.4-9.9-13.7-9.9s-11.8,4-13.7,9.9c-.6,2-2.8,3.1-4.8,2.4-2-.6-3.1-2.8-2.4-4.8,3-9.1,11.4-15.2,20.9-15.2s17.9,6.1,20.9,15.2c.6,2-.4,4.1-2.4,4.8-.4.1-.8.2-1.2.2Z"/>
            <path class="cls-3" d="M233.7,384.8c-1.5,0-2.9-.9-3.5-2.4-7.8-19.4-26.3-32-47.2-32s-39.4,12.5-47.2,32c-.8,1.9-3,2.9-4.9,2.1-1.9-.8-2.9-3-2.1-4.9,8.9-22.3,30.2-36.7,54.2-36.7s45.3,14.4,54.2,36.7c.8,1.9-.2,4.2-2.1,4.9-.5.2-.9.3-1.4.3h0Z"/>
            <path class="cls-3" d="M215.7,389.2c-1.4,0-2.8-.8-3.4-2.1-5.5-11.4-16.8-18.4-29.4-18.4s-23.9,7.2-29.4,18.4c-.9,1.9-3.2,2.7-5.1,1.8-1.9-.9-2.7-3.2-1.8-5.1,6.7-13.8,20.9-22.7,36.2-22.7s29.5,8.9,36.2,22.7c.9,1.9.1,4.2-1.8,5.1-.5.3-1.1.4-1.7.4h0Z"/>
            <path class="cls-3" d="M200.3,399.4c-1.6,0-3.1-1-3.6-2.6-1.9-5.9-7.4-9.9-13.7-9.9s-11.8,4-13.7,9.9c-.6,2-2.8,3.1-4.8,2.4-2-.6-3.1-2.8-2.4-4.8,3-9.1,11.4-15.2,20.9-15.2s17.9,6.1,20.9,15.2c.6,2-.4,4.1-2.4,4.8-.4.1-.8.2-1.2.2Z"/>
            <path class="cls-3" d="M69.8,282.1c-1.5,0-2.9-.9-3.5-2.4-7.8-19.4-26.3-32-47.2-32s-39.4,12.5-47.2,32c-.8,1.9-3,2.9-4.9,2.1-1.9-.8-2.9-3-2.1-4.9,8.9-22.3,30.2-36.7,54.2-36.7s45.3,14.4,54.2,36.7c.8,1.9-.2,4.2-2.1,4.9-.5.2-.9.3-1.4.3h0Z"/>
            <path class="cls-3" d="M51.9,286.5c-1.4,0-2.8-.8-3.4-2.1-5.5-11.4-16.8-18.4-29.4-18.4s-23.9,7.1-29.4,18.4c-.9,1.9-3.2,2.7-5.1,1.8-1.9-.9-2.7-3.2-1.8-5.1,6.7-13.8,20.9-22.7,36.2-22.7s29.5,8.9,36.2,22.7c.9,1.9.1,4.2-1.8,5.1-.5.3-1.1.4-1.7.4h0Z"/>
            <path class="cls-3" d="M36.4,296.7c-1.6,0-3.1-1-3.6-2.6-1.9-5.9-7.4-9.9-13.7-9.9s-11.8,4-13.7,9.9c-.6,2-2.8,3.1-4.8,2.4-2-.6-3.1-2.8-2.4-4.8,3-9.1,11.4-15.2,20.9-15.2s17.9,6.1,20.9,15.2c.6,2-.4,4.1-2.4,4.8-.4.1-.8.2-1.2.2Z"/>
            <path class="cls-3" d="M124.5,316.3c-1.5,0-2.9-.9-3.5-2.4-7.8-19.4-26.3-32-47.2-32s-39.4,12.5-47.2,32c-.8,1.9-3,2.9-4.9,2.1-1.9-.8-2.9-3-2.1-4.9,8.9-22.3,30.2-36.7,54.2-36.7s45.3,14.4,54.2,36.7c.8,1.9-.2,4.2-2.1,4.9-.5.2-.9.3-1.4.3h0Z"/>
            <path class="cls-3" d="M106.5,320.7c-1.4,0-2.8-.8-3.4-2.1-5.5-11.4-16.8-18.4-29.4-18.4s-23.9,7.1-29.4,18.4c-.9,1.9-3.2,2.7-5.1,1.8-1.9-.9-2.7-3.2-1.8-5.1,6.7-13.8,20.9-22.7,36.2-22.7s29.5,8.9,36.2,22.7c.9,1.9.1,4.2-1.8,5.1-.5.3-1.1.4-1.7.4h0Z"/>
            <path class="cls-3" d="M91,330.9c-1.6,0-3.1-1-3.6-2.6-1.9-5.9-7.4-9.9-13.7-9.9s-11.8,4-13.7,9.9c-.6,2-2.8,3.1-4.8,2.4-2-.6-3.1-2.8-2.4-4.8,3-9.1,11.4-15.2,20.9-15.2s17.9,6.1,20.9,15.2c.6,2-.4,4.1-2.4,4.8-.4.1-.8.2-1.2.2h0Z"/>
            <path class="cls-3" d="M15.2,316.3c-1.5,0-2.9-.9-3.5-2.4-7.8-19.4-26.3-32-47.2-32s-39.4,12.5-47.2,32c-.8,1.9-3,2.9-4.9,2.1-1.9-.8-2.9-3-2.1-4.9,8.9-22.3,30.2-36.7,54.2-36.7s45.3,14.4,54.2,36.7c.8,1.9-.2,4.2-2.1,4.9-.5.2-.9.3-1.4.3h0Z"/>
            <path class="cls-3" d="M-2.7,320.7c-1.4,0-2.8-.8-3.4-2.1-5.5-11.4-16.8-18.4-29.4-18.4s-23.9,7.1-29.4,18.4c-.9,1.9-3.2,2.7-5.1,1.8-1.9-.9-2.7-3.2-1.8-5.1,6.7-13.8,20.9-22.7,36.2-22.7s29.5,8.9,36.2,22.7c.9,1.9.1,4.2-1.8,5.1-.5.3-1.1.4-1.7.4h0Z"/>
            <path class="cls-3" d="M-18.2,330.9c-1.6,0-3.1-1-3.6-2.6-1.9-5.9-7.4-9.9-13.7-9.9s-11.8,4-13.7,9.9c-.6,2-2.8,3.1-4.8,2.4-2-.6-3.1-2.8-2.4-4.8,3-9.1,11.4-15.2,20.9-15.2s17.9,6.1,20.9,15.2c.6,2-.4,4.1-2.4,4.8-.4.1-.8.2-1.2.2h0Z"/>
            <path class="cls-3" d="M69.8,350.6c-1.5,0-2.9-.9-3.5-2.4-7.8-19.4-26.3-32-47.2-32s-39.4,12.5-47.2,32c-.8,1.9-3,2.9-4.9,2.1-1.9-.8-2.9-3-2.1-4.9,8.9-22.3,30.2-36.7,54.2-36.7s45.3,14.4,54.2,36.7c.8,1.9-.2,4.2-2.1,4.9-.5.2-.9.3-1.4.3h0Z"/>
            <path class="cls-3" d="M51.9,355c-1.4,0-2.8-.8-3.4-2.1-5.5-11.4-16.8-18.4-29.4-18.4s-23.9,7.1-29.4,18.4c-.9,1.9-3.2,2.7-5.1,1.8-1.9-.9-2.7-3.2-1.8-5.1,6.7-13.8,20.9-22.7,36.2-22.7s29.5,8.9,36.2,22.7c.9,1.9.1,4.2-1.8,5.1-.5.3-1.1.4-1.7.4h0Z"/>
            <path class="cls-3" d="M36.4,365.2c-1.6,0-3.1-1-3.6-2.6-1.9-5.9-7.4-9.9-13.7-9.9s-11.8,4-13.7,9.9c-.6,2-2.8,3.1-4.8,2.4-2-.6-3.1-2.8-2.4-4.8,3-9.1,11.4-15.2,20.9-15.2s17.9,6.1,20.9,15.2c.6,2-.4,4.1-2.4,4.8-.4.1-.8.2-1.2.2h0Z"/>
            <path class="cls-3" d="M179.1,282.1c-1.5,0-2.9-.9-3.5-2.4-7.8-19.4-26.3-32-47.2-32s-39.4,12.5-47.2,32c-.8,1.9-3,2.9-4.9,2.1-1.9-.8-2.9-3-2.1-4.9,8.9-22.3,30.2-36.7,54.2-36.7s45.3,14.4,54.2,36.7c.8,1.9-.2,4.2-2.1,4.9-.5.2-.9.3-1.4.3h0Z"/>
            <path class="cls-3" d="M161.1,286.5c-1.4,0-2.8-.8-3.4-2.1-5.5-11.4-16.8-18.4-29.4-18.4s-23.9,7.1-29.4,18.4c-.9,1.9-3.2,2.7-5.1,1.8-1.9-.9-2.7-3.2-1.8-5.1,6.7-13.8,20.9-22.7,36.2-22.7s29.5,8.9,36.2,22.7c.9,1.9.1,4.2-1.8,5.1-.5.3-1.1.4-1.7.4h0Z"/>
            <path class="cls-3" d="M145.6,296.7c-1.6,0-3.1-1-3.6-2.6-1.9-5.9-7.4-9.9-13.7-9.9s-11.8,4-13.7,9.9c-.7,2-2.8,3.1-4.8,2.4-2-.6-3.1-2.8-2.4-4.8,3-9.1,11.4-15.2,20.9-15.2s17.9,6.1,20.9,15.2c.6,2-.4,4.1-2.4,4.8-.4.1-.8.2-1.2.2Z"/>
            <path class="cls-3" d="M179.1,350.6c-1.5,0-2.9-.9-3.5-2.4-7.8-19.4-26.3-32-47.2-32s-39.4,12.5-47.2,32c-.8,1.9-3,2.9-4.9,2.1-1.9-.8-2.9-3-2.1-4.9,8.9-22.3,30.2-36.7,54.2-36.7s45.3,14.4,54.2,36.7c.8,1.9-.2,4.2-2.1,4.9-.5.2-.9.3-1.4.3h0Z"/>
            <path class="cls-3" d="M288.7,350.6c-1.5,0-2.9-.9-3.5-2.4-7.8-19.4-26.3-32-47.2-32s-39.4,12.5-47.2,32c-.8,1.9-3,2.9-4.9,2.1-1.9-.8-2.9-3-2.1-4.9,8.9-22.3,30.2-36.7,54.2-36.7s45.3,14.4,54.2,36.7c.8,1.9-.2,4.2-2.1,4.9-.5.2-.9.3-1.4.3h0Z"/>
            <path class="cls-3" d="M161.1,355c-1.4,0-2.8-.8-3.4-2.1-5.5-11.4-16.8-18.4-29.4-18.4s-23.9,7.2-29.4,18.4c-.9,1.9-3.2,2.7-5.1,1.8-1.9-.9-2.7-3.2-1.8-5.1,6.7-13.8,20.9-22.7,36.2-22.7s29.5,8.9,36.2,22.7c.9,1.9.1,4.2-1.8,5.1-.5.3-1.1.4-1.7.4h0Z"/>
            <path class="cls-3" d="M145.6,365.2c-1.6,0-3.1-1-3.6-2.6-1.9-5.9-7.4-9.9-13.7-9.9s-11.8,4-13.7,9.9c-.7,2-2.8,3.1-4.8,2.4-2-.6-3.1-2.8-2.4-4.8,3-9.1,11.4-15.2,20.9-15.2s17.9,6.1,20.9,15.2c.6,2-.4,4.1-2.4,4.8-.4.1-.8.2-1.2.2h0Z"/>
            <path class="cls-3" d="M124.5,384.8c-1.5,0-2.9-.9-3.5-2.4-7.8-19.4-26.3-32-47.2-32s-39.4,12.5-47.2,32c-.8,1.9-3,2.9-4.9,2.1-1.9-.8-2.9-3-2.1-4.9,8.9-22.3,30.2-36.7,54.2-36.7s45.3,14.4,54.2,36.7c.8,1.9-.2,4.2-2.1,4.9-.5.2-.9.3-1.4.3h0Z"/>
            <path class="cls-3" d="M106.5,389.2c-1.4,0-2.8-.8-3.4-2.1-5.5-11.4-16.8-18.4-29.4-18.4s-23.9,7.1-29.4,18.4c-.9,1.9-3.2,2.7-5.1,1.8-1.9-.9-2.7-3.2-1.8-5.1,6.7-13.8,20.9-22.7,36.2-22.7s29.5,8.9,36.2,22.7c.9,1.9.1,4.2-1.8,5.1-.5.3-1.1.4-1.7.4h0Z"/>
            <path class="cls-3" d="M91,399.4c-1.6,0-3.1-1-3.6-2.6-1.9-5.9-7.4-9.9-13.7-9.9s-11.8,4-13.7,9.9c-.6,2-2.8,3.1-4.8,2.4-2-.6-3.1-2.8-2.4-4.8,3-9.1,11.4-15.2,20.9-15.2s17.9,6.1,20.9,15.2c.6,2-.4,4.1-2.4,4.8-.4.1-.8.2-1.2.2Z"/>
            <path class="cls-3" d="M15.2,384.8c-1.5,0-2.9-.9-3.5-2.4-7.8-19.4-26.3-32-47.2-32s-39.4,12.5-47.2,32c-.8,1.9-3,2.9-4.9,2.1-1.9-.8-2.9-3-2.1-4.9,8.9-22.3,30.2-36.7,54.2-36.7s45.3,14.4,54.2,36.7c.8,1.9-.2,4.2-2.1,4.9-.5.2-.9.3-1.4.3h0Z"/>
            <path class="cls-3" d="M-2.7,389.2c-1.4,0-2.8-.8-3.4-2.1-5.5-11.4-16.8-18.4-29.4-18.4s-23.9,7.1-29.4,18.4c-.9,1.9-3.2,2.7-5.1,1.8-1.9-.9-2.7-3.2-1.8-5.1,6.7-13.8,20.9-22.7,36.2-22.7s29.5,8.9,36.2,22.7c.9,1.9.1,4.2-1.8,5.1-.5.3-1.1.4-1.7.4h0Z"/>
            <path class="cls-3" d="M-18.2,399.4c-1.6,0-3.1-1-3.6-2.6-1.9-5.9-7.4-9.9-13.7-9.9s-11.8,4-13.7,9.9c-.6,2-2.8,3.1-4.8,2.4-2-.6-3.1-2.8-2.4-4.8,3-9.1,11.4-15.2,20.9-15.2s17.9,6.1,20.9,15.2c.6,2-.4,4.1-2.4,4.8-.4.1-.8.2-1.2.2Z"/>
          </g>
        </g>
      </g>
    </mask>
  </defs>
  <g class="cls-5">
    <path class="cls-1" d="M365.9,182.2c0,100.8-81.7,182.6-182.6,182.6S.7,283,.7,182.2,82.5-.4,183.3-.4s182.6,81.7,182.6,182.6Z"/>
  </g>
</svg>