<svg width="69" height="39" viewBox="0 0 69 39" fill="none" xmlns="http://www.w3.org/2000/svg">
<path d="M51.0888 0H7.49448C3.89127 0 0.959839 2.83538 0.959839 6.32054V27.7451C0.959839 31.2303 3.89127 34.0657 7.49448 34.0657H8.17157C8.70528 34.0657 9.13809 33.6471 9.13809 33.1308C9.13809 32.6146 8.70528 32.196 8.17157 32.196H7.49448C4.95603 32.196 2.89023 30.1979 2.89023 27.7426V21.7636H38.7232C40.5872 21.7636 42.3397 22.5649 43.5293 23.9595L45.2685 26.0141C45.4596 26.2401 45.7358 26.3557 46.0173 26.3557C46.2323 26.3557 46.4501 26.2864 46.628 26.1451C47.0422 25.8189 47.1033 25.2308 46.7634 24.8301L45.0215 22.7729C43.4602 20.9443 41.1661 19.8965 38.7232 19.8965H2.89288V6.32054C2.89288 3.86526 4.95869 1.86714 7.49713 1.86714H49.8462V11.9733C49.8462 16.1673 52.7617 19.8888 56.9384 21.0162L66.1097 23.4998V27.7426C66.1097 30.1979 64.0439 32.196 61.5055 32.196H60.8443C60.3106 32.196 59.8778 32.6146 59.8778 33.1308C59.8778 33.6471 60.3106 34.0657 60.8443 34.0657H61.5055C65.1087 34.0657 68.0401 31.2303 68.0401 27.7451V16.3933C68.0401 7.35299 60.4354 0 51.0888 0ZM57.4562 19.2184C54.1105 18.3144 51.7765 15.3352 51.7765 11.9759V1.90053C59.7371 2.25238 66.1071 8.60888 66.1071 16.3933V21.5582L57.4562 19.2159V19.2184Z" fill="#363436"/>
<path d="M51.7792 26.4021C48.4442 26.4021 45.7305 29.0269 45.7305 32.2526C45.7305 35.4784 48.4442 38.1032 51.7792 38.1032C55.1142 38.1032 57.8279 35.4784 57.8279 32.2526C57.8279 29.0269 55.1142 26.4021 51.7792 26.4021ZM51.7792 36.2335C49.5089 36.2335 47.6609 34.446 47.6609 32.2501C47.6609 30.0542 49.5089 28.2667 51.7792 28.2667C54.0495 28.2667 55.8975 30.0542 55.8975 32.2501C55.8975 34.446 54.0495 36.2335 51.7792 36.2335Z" fill="#363436"/>
<path d="M17.2261 26.4021C13.8911 26.4021 11.1774 29.0269 11.1774 32.2526C11.1774 35.4784 13.8911 38.1032 17.2261 38.1032C20.5611 38.1032 23.2748 35.4784 23.2748 32.2526C23.2748 29.0269 20.5611 26.4021 17.2261 26.4021ZM17.2261 36.2335C14.9558 36.2335 13.1078 34.446 13.1078 32.2501C13.1078 30.0542 14.9558 28.2667 17.2261 28.2667C19.4964 28.2667 21.3444 30.0542 21.3444 32.2501C21.3444 34.446 19.4964 36.2335 17.2261 36.2335Z" fill="#363436"/>
<path d="M9.89486 6.53101C8.3017 6.53101 7.00592 7.78176 7.00592 9.32273V12.4432C7.00592 13.9842 8.3017 15.2375 9.89486 15.2375H15.0302C16.6233 15.2375 17.9191 13.9842 17.9191 12.4432V9.32273C17.9191 7.78176 16.6233 6.53101 15.0302 6.53101H9.89486ZM15.9887 9.32273V12.4432C15.9887 12.9543 15.5612 13.3703 15.0328 13.3703H9.89752C9.36912 13.3703 8.94162 12.9543 8.94162 12.4432V9.32273C8.94162 8.81421 9.36912 8.39815 9.89752 8.39815H15.0328C15.5612 8.39815 15.9887 8.81421 15.9887 9.32273Z" fill="#EB008B"/>
<path d="M23.7713 6.53101C22.1782 6.53101 20.8824 7.78176 20.8824 9.32273V12.4432C20.8824 13.9842 22.1782 15.2375 23.7713 15.2375H28.9066C30.4998 15.2375 31.7956 13.9842 31.7956 12.4432V9.32273C31.7956 7.78176 30.4998 6.53101 28.9066 6.53101H23.7713ZM29.8652 9.32273V12.4432C29.8652 12.9543 29.4377 13.3703 28.9093 13.3703H23.774C23.2456 13.3703 22.8181 12.9543 22.8181 12.4432V9.32273C22.8181 8.81421 23.2456 8.39815 23.774 8.39815H28.9093C29.4377 8.39815 29.8652 8.81421 29.8652 9.32273Z" fill="#EB008B"/>
<path d="M37.6478 6.53101C36.0546 6.53101 34.7589 7.78176 34.7589 9.32273V12.4432C34.7589 13.9842 36.0546 15.2375 37.6478 15.2375H42.7831C44.3763 15.2375 45.672 13.9842 45.672 12.4432V9.32273C45.672 7.78176 44.3763 6.53101 42.7831 6.53101H37.6478ZM43.7417 9.32273V12.4432C43.7417 12.9543 43.3142 13.3703 42.7858 13.3703H37.6504C37.122 13.3703 36.6945 12.9543 36.6945 12.4432V9.32273C36.6945 8.81421 37.122 8.39815 37.6504 8.39815H42.7858C43.3142 8.39815 43.7417 8.81421 43.7417 9.32273Z" fill="#EB008B"/>
</svg>
