<svg width="48" height="40" viewBox="0 0 48 40" fill="none" xmlns="http://www.w3.org/2000/svg">
<g clip-path="url(#clip0_42_495)">
<path d="M47.5195 19.41C47.1251 17.2467 46.1848 15.7795 45.2366 14.7885C46.6575 14.6203 47.7599 13.4377 47.7599 11.999V10.6974C47.7599 9.14478 46.4773 7.85871 44.8944 7.85871H41.5117L40.6758 5.1158C39.7459 2.05719 36.951 0.00258766 33.7276 0.00258766H14.2701C11.0468 0.00258766 8.2518 2.05719 7.32189 5.1158L6.48602 7.8613H3.10596C1.52302 7.8613 0.240481 9.14737 0.240481 10.7V12.0016C0.240481 13.4403 1.34279 14.6203 2.76116 14.791C1.81297 15.7821 0.87261 17.2493 0.478183 19.4126C-0.0364017 22.228 -0.044238 25.4186 0.0393493 27.5948C0.0968155 29.1241 0.906567 30.4464 2.10813 31.2253V36.1263C2.10813 38.2585 3.85041 40 6.00278 40H9.01192C11.1669 40 12.9222 38.2585 12.9222 36.1263V31.9653H35.0755V36.1263C35.0755 38.2585 36.8334 40 38.9858 40H41.9949C44.1473 40 45.8896 38.2585 45.8896 36.1263V31.2227C47.0912 30.4438 47.8957 29.1241 47.9558 27.5922C48.0393 25.416 48.0315 22.2254 47.5169 19.4074L47.5195 19.41ZM44.897 9.73994C45.4351 9.73994 45.8635 10.1798 45.8635 10.6974V11.999C45.8635 12.5165 45.4351 12.9409 44.897 12.9409H43.0633L42.089 9.73994H44.897ZM31.2618 0H16.7359H31.2618ZM9.13992 5.65662C9.8269 3.40018 11.8905 1.88123 14.2701 1.88123H33.7303C36.1099 1.88123 38.1708 3.40018 38.8604 5.65662L41.0807 12.946H6.91963L9.13992 5.65403V5.65662ZM2.13948 11.999V10.6974C2.13948 10.1798 2.56786 9.73994 3.10596 9.73994H5.91136L4.93704 12.9409H3.10596C2.56786 12.9409 2.13948 12.5165 2.13948 11.999ZM11.0232 36.1263C11.0232 37.2234 10.1195 38.1188 9.01192 38.1188H6.00278C4.89525 38.1188 4.00713 37.2234 4.00713 36.1263V31.9058C4.21349 31.9343 4.41723 31.9653 4.63143 31.9653H11.0232V36.1263ZM43.9932 36.1263C43.9932 37.2234 43.0894 38.1188 41.9976 38.1188H38.9884C37.8809 38.1188 36.9771 37.2234 36.9771 36.1263V31.9653H43.3663C43.5805 31.9653 43.7842 31.9343 43.9906 31.9058V36.1263H43.9932ZM46.0594 27.5249C46.0045 28.9611 44.8212 30.0867 43.3663 30.0867H4.63143C3.17648 30.0867 1.9932 28.9611 1.93835 27.5249C1.85737 25.4393 1.86521 22.3962 2.34845 19.7438C2.98319 16.2738 5.29229 15.0679 5.83299 14.8299H42.1673C42.7263 15.0783 45.0198 16.2919 45.6519 19.7438C46.1351 22.3962 46.143 25.4393 46.062 27.5249H46.0594Z" fill="#363436"/>
<path d="M28.4876 23.408H19.5124C18.9874 23.408 18.5616 23.8297 18.5616 24.3499C18.5616 24.87 18.9874 25.2918 19.5124 25.2918H28.4876C29.0126 25.2918 29.4384 24.87 29.4384 24.3499C29.4384 23.8297 29.0126 23.408 28.4876 23.408Z" fill="#363436"/>
<path d="M28.4876 19.6248H19.5124C18.9874 19.6248 18.5616 20.0465 18.5616 20.5667C18.5616 21.0868 18.9874 21.5086 19.5124 21.5086H28.4876C29.0126 21.5086 29.4384 21.0868 29.4384 20.5667C29.4384 20.0465 29.0126 19.6248 28.4876 19.6248Z" fill="#363436"/>
<path d="M13.0501 18.8408H8.01916C6.60601 18.8408 5.45407 19.9794 5.45407 21.3819V23.5348C5.45407 24.9348 6.6034 26.0759 8.01916 26.0759H13.0501C14.4632 26.0759 15.6152 24.9373 15.6152 23.5348V21.3819C15.6152 19.982 14.4658 18.8408 13.0501 18.8408ZM13.7135 23.5348C13.7135 23.8971 13.4158 24.1947 13.0501 24.1947H8.01916C7.65346 24.1947 7.35568 23.8997 7.35568 23.5348V21.3819C7.35568 21.0196 7.65346 20.722 8.01916 20.722H13.0501C13.4158 20.722 13.7135 21.017 13.7135 21.3819V23.5348Z" fill="#EB008B"/>
<path d="M39.9809 18.8408H34.9499C33.5368 18.8408 32.3849 19.9794 32.3849 21.3819V23.5348C32.3849 24.9348 33.5342 26.0759 34.9499 26.0759H39.9809C41.394 26.0759 42.5459 24.9373 42.5459 23.5348V21.3819C42.5459 19.982 41.3966 18.8408 39.9809 18.8408ZM40.6443 23.5348C40.6443 23.8971 40.3465 24.1947 39.9809 24.1947H34.9499C34.5842 24.1947 34.2865 23.8997 34.2865 23.5348V21.3819C34.2865 21.0196 34.5842 20.722 34.9499 20.722H39.9809C40.3465 20.722 40.6443 21.017 40.6443 21.3819V23.5348Z" fill="#EB008B"/>
</g>
<defs>
<clipPath id="clip0_42_495">
<rect width="48" height="40" fill="white"/>
</clipPath>
</defs>
</svg>
