<svg width="52" height="42" viewBox="0 0 52 42" fill="none" xmlns="http://www.w3.org/2000/svg">
<path d="M39 11H12L17.4713 5H33.5287L39 11Z" stroke="#363436" stroke-width="1.5" stroke-linecap="round" stroke-linejoin="round"/>
<path d="M19 5V1H22V5" stroke="#363436" stroke-width="1.5" stroke-linecap="round" stroke-linejoin="round"/>
<path d="M36 11V20" stroke="#363436" stroke-width="1.5" stroke-linecap="round" stroke-linejoin="round"/>
<path d="M15 20V11" stroke="#363436" stroke-width="1.5" stroke-linecap="round" stroke-linejoin="round"/>
<path d="M34 27L25.5 18L17 27" stroke="#363436" stroke-width="1.5" stroke-linecap="round" stroke-linejoin="round"/>
<path d="M27.4486 20H36.6274L44 27H8L15.374 20" stroke="#363436" stroke-width="1.5" stroke-linecap="round" stroke-linejoin="round"/>
<path d="M18 20H24" stroke="#363436" stroke-width="1.5" stroke-linecap="round" stroke-linejoin="round"/>
<path d="M19.7317 14.2263V16.0358" stroke="#EB008B" stroke-width="1.5" stroke-linecap="round" stroke-linejoin="round"/>
<path d="M23.6803 14.2263V16.0358" stroke="#EB008B" stroke-width="1.5" stroke-linecap="round" stroke-linejoin="round"/>
<path d="M27.6289 14.2263V16.0358" stroke="#EB008B" stroke-width="1.5" stroke-linecap="round" stroke-linejoin="round"/>
<path d="M31.5775 14.2263V16.0358" stroke="#EB008B" stroke-width="1.5" stroke-linecap="round" stroke-linejoin="round"/>
<path d="M19 35H32" stroke="#363436" stroke-width="1.5" stroke-linecap="round" stroke-linejoin="round"/>
<path d="M26 35V30" stroke="#363436" stroke-width="1.5" stroke-linecap="round" stroke-linejoin="round"/>
<path d="M16 31H1V41H16V31Z" stroke="#363436" stroke-width="1.5" stroke-linecap="round" stroke-linejoin="round"/>
<path d="M1 34H16" stroke="#363436" stroke-width="1.5" stroke-linecap="round" stroke-linejoin="round"/>
<path d="M11 29V27" stroke="#363436" stroke-width="1.5" stroke-linecap="round" stroke-linejoin="round"/>
<path d="M19 27V39H18" stroke="#363436" stroke-width="1.5" stroke-linecap="round" stroke-linejoin="round"/>
<path d="M35 41H51V31H35V41Z" stroke="#363436" stroke-width="1.5" stroke-linecap="round" stroke-linejoin="round"/>
<path d="M51 34H35" stroke="#363436" stroke-width="1.5" stroke-linecap="round" stroke-linejoin="round"/>
<path d="M40 29V27" stroke="#363436" stroke-width="1.5" stroke-linecap="round" stroke-linejoin="round"/>
<path d="M32 27V39H33" stroke="#363436" stroke-width="1.5" stroke-linecap="round" stroke-linejoin="round"/>
</svg>
