<svg width="58" height="51" viewBox="0 0 58 51" fill="none" xmlns="http://www.w3.org/2000/svg">
<g clip-path="url(#clip0_42_170)">
<path d="M16.8098 49.2382C23.0947 49.2382 28.1896 44.0997 28.1896 37.7611C28.1896 31.4224 23.0947 26.2839 16.8098 26.2839C10.5249 26.2839 5.42999 31.4224 5.42999 37.7611C5.42999 44.0997 10.5249 49.2382 16.8098 49.2382Z" stroke="#363436" stroke-width="1.5" stroke-linecap="round" stroke-linejoin="round"/>
<path d="M16.8098 26.2839V49.2399" stroke="#363436" stroke-width="1.5" stroke-linecap="round" stroke-linejoin="round"/>
<path d="M8.76196 29.646L24.8559 45.8776" stroke="#363436" stroke-width="1.5" stroke-linecap="round" stroke-linejoin="round"/>
<path d="M5.42999 37.761H28.1896" stroke="#363436" stroke-width="1.5" stroke-linecap="round" stroke-linejoin="round"/>
<path d="M30.2245 37.4395H57.233" stroke="#363436" stroke-width="1.5" stroke-linecap="round" stroke-linejoin="round"/>
<path d="M8.76196 45.8776L24.8559 29.646" stroke="#363436" stroke-width="1.5" stroke-linecap="round" stroke-linejoin="round"/>
<path d="M48.3143 16.553C44.5972 16.553 41.5856 19.592 41.5856 23.3392C41.5856 23.4045 41.589 23.4681 41.5907 23.5317L53.7903 19.3978C52.57 17.6771 50.5726 16.553 48.3143 16.553Z" stroke="#363436" stroke-width="1.5" stroke-linecap="round" stroke-linejoin="round"/>
<path d="M51.8269 35.5179L54.1721 33.1527C54.1721 33.1527 51.3752 29.732 49.3965 27.054C47.4178 24.3759 43.6734 24.7266 42.3832 27.2499C41.0913 29.7733 38.1514 35.5179 38.1514 35.5179" stroke="#363436" stroke-width="1.5" stroke-linecap="round" stroke-linejoin="round"/>
<path d="M45.4987 29.3333C45.4987 29.3333 45.4118 33.3228 47.6871 35.5179" stroke="#363436" stroke-width="1.5" stroke-linecap="round" stroke-linejoin="round"/>
<path d="M45.8055 25.1958C45.2124 24.6337 44.8426 23.8361 44.8426 22.9491C44.8426 22.7669 44.8579 22.5865 44.8886 22.4128" stroke="#363436" stroke-width="1.5" stroke-linecap="round" stroke-linejoin="round"/>
<path d="M49.9726 20.6904C50.5743 21.2525 50.9509 22.057 50.9509 22.9508C50.9509 24.503 49.8124 25.787 48.3314 26.0001" stroke="#363436" stroke-width="1.5" stroke-linecap="round" stroke-linejoin="round"/>
<path d="M48.8051 39.3613C48.8051 39.3613 49.2551 41.4137 49.1034 41.95C48.9517 42.4863 46.16 47.1102 46.16 47.1102C46.16 47.1102 47.3939 48.334 47.3939 49.3241C47.3939 50.3142 45.0249 50.0753 43.4075 49.3241C41.7901 48.573 42.598 47.8098 43.4075 46.469C44.2171 45.1283 45.3232 42.0394 45.3232 42.0394L44.8085 39.3596" stroke="#363436" stroke-width="1.5" stroke-linecap="round" stroke-linejoin="round"/>
<path d="M42.3593 39.3613L36.5016 46.1201C36.5016 46.1201 37.1254 47.6069 37.2958 48.4062C37.4662 49.2055 36.7862 50.8075 35.5386 50.0065C34.2911 49.2055 32.4214 48.1776 32.0243 47.3199C31.6272 46.4621 33.4406 45.2039 34.1786 44.4613C34.9165 43.7188 37.9366 39.3596 37.9366 39.3596" stroke="#363436" stroke-width="1.5" stroke-linecap="round" stroke-linejoin="round"/>
<path d="M16.1008 18.2583C17.8469 18.2583 19.2623 16.8307 19.2623 15.0697C19.2623 13.3087 17.8469 11.8811 16.1008 11.8811C14.3547 11.8811 12.9393 13.3087 12.9393 15.0697C12.9393 16.8307 14.3547 18.2583 16.1008 18.2583Z" stroke="#EB008B" stroke-width="1.5" stroke-linecap="round" stroke-linejoin="round"/>
<path d="M14.2226 17.6343C14.2226 17.6343 13.0262 21.2784 13.3023 24.5391" stroke="#EB008B" stroke-width="1.5" stroke-linecap="round" stroke-linejoin="round"/>
<path d="M17.9789 17.6343C17.9789 17.6343 19.835 22.3596 20.5917 23.3445C21.3484 24.3294 23.0698 24.3999 24.8559 24.8846C26.6437 25.3694 28.0873 25.5086 28.9821 28.0062C29.8769 30.5037 31.4585 35.5161 31.4585 35.5161" stroke="#EB008B" stroke-width="1.5" stroke-linecap="round" stroke-linejoin="round"/>
<path d="M26.7921 1.23414C26.7921 1.23414 14.33 -1.50236 0.766968 6.36336L9.8374 25.8558" stroke="#363436" stroke-width="1.5" stroke-linecap="round" stroke-linejoin="round"/>
<path d="M6.79517 3.48071L11.448 18.2582" stroke="#363436" stroke-width="1.5" stroke-linecap="round" stroke-linejoin="round"/>
<path d="M13.2614 1.59521L14.2226 9.86832" stroke="#363436" stroke-width="1.5" stroke-linecap="round" stroke-linejoin="round"/>
</g>
<defs>
<clipPath id="clip0_42_170">
<rect width="58" height="51" fill="white"/>
</clipPath>
</defs>
</svg>
