<?xml version="1.0" encoding="UTF-8"?>
<svg id="Layer_2" data-name="Layer 2" xmlns="http://www.w3.org/2000/svg" viewBox="0 0 686.87 768.52">
  <defs>
    <style>
      .cls-1 {
        fill: #fff;
      }

      .cls-2 {
        isolation: isolate;
      }
    </style>
  </defs>
  <g id="Layer_2-2" data-name="Layer 2">
    <g id="Layer_1-2" data-name="Layer 1-2">
      <g>
        <g>
          <g>
            <path class="cls-1" d="M285.43,251.4c25.7-5.8,50.9-5.7,76-.1,3.8-4.2,5.9-8.9,6.9-14,3.1-16.5,6.1-32.9,9-49.4,2.1-12.2,3.7-24.5,6-36.6.8-4,2.7-7.9,4.6-11.6,2.3-4.8,6.6-6.8,11.8-6.9,6.2-.2,11.7,1.8,16.6,5.8,11.9,9.6,22,20.9,30.4,33.6,20,30.7,31.9,64.2,35,100.8,1.1,12.7,3.5,25.4,2.2,38.2-1,9.3-1,19-3.9,27.8-2.3,7-.5,12.2,1.8,18.1,8.3,21.2,9.2,42.6,1.6,64.4-5,14.5-6.9,29.4-4.9,44.8,2.6,19.8-4.6,37.1-16.2,52.4-6.1,8.1-13.8,15-21.2,21.9-7.6,7-15.8,13.5-23.8,20-7,5.7-12.4,12.4-14.9,21.2-1.2,4.2-2.7,8.4-4.5,12.4-6.3,14-15.7,25.4-30.4,30.4-7.8,2.6-15,6.2-22.4,9.3-14.4,6.1-28.7,6.1-42.9-.2-3.6-1.6-7.1-3.6-10.6-5.4-1-.5-2.1-1.2-3.2-1.4-20.6-3.8-32.4-17.4-40-35.7-1.3-3.1-2.6-6.3-3.5-9.6-2.4-8.7-7.9-15-14.5-20.8-12.4-10.7-24.8-21.3-36.9-32.3-7.4-6.8-13.1-15-17.3-24.2-5.9-13-9.5-26.2-7.1-40.6,2.3-14.4-.3-28.4-4.9-41.8-7.6-22-6.9-43.5,1.6-65,2.4-6,2.2-10.5,1.2-18-2.8-16.8-5-33.5-2.8-50.6,2.2-16.8,3.1-33.8,7.6-50.3,8.6-32.1,22.6-61.4,45.3-86,4.6-5,9.8-9.4,15-13.8,2.2-1.9,5.1-3.2,7.9-4.1,10.5-3.4,17.9-.5,21.7,9.8,2.8,7.4,4.3,15.4,5.7,23.2,3.1,18.7,5.5,37.5,8.8,56.2,1.4,8,4.3,15.7,6.7,23.5,0,1.2,1.3,2.6,2.5,4.6h0ZM277.83,253.3c-2.1-6.1-4.7-11.7-6-17.7-2.9-13.3-5.2-26.6-7.5-40-2.2-13-3.7-26.1-5.9-39.1-.7-4.3-2.2-8.5-4-12.5-2.3-5.1-5.4-6.6-10.7-5.1-3.4.9-6.7,2.6-9.4,4.8-14.5,11.7-25.7,26.2-34.9,42.2-23.1,40.4-30.9,84.3-29.2,130.2.3,8.7,2,17.5,3.5,26.1.8,4.9.4,9.5-1.4,14-.8,2-1.5,4.1-2.2,6.2-6.5,19-6.7,37.8-.1,56.9,5.1,14.6,7.4,29.8,5.1,45.4-1,6.9-1.1,13.9.9,20.8,4.4,15.5,11.5,29.4,23.7,40.2,11.3,10.1,22.9,19.9,34.3,29.9,3.9,3.5,7.7,7.2,12,11.3.1-1.4.1-2.2.2-2.9.7-10.2,4.2-19.4,10.1-27.8,3.4-4.8,7.9-8.4,13.5-10.5,9.4-3.6,22,1.1,24.1,11.9.3,1.6.5,4.8-1.5,4.8s-3.3-5-5-7.2c-5.2-7.1-11.1-8.4-18.7-4s-11.8,11.3-15.2,20.1c3.5-1.6,5.9-3.1,8.4-3.9,10.7-3.5,18.5,2.5,18.1,13.7-.2,5.2-4.7,7.8-9.2,5.3-1.5-.8-2.7-2.3-4.2-3.3-3.5-2.5-7.1-2.2-9.6.9-3.5,4.4-5.5,9.7-5,15,1,10.2,5,19.4,12.3,26.7,5.1,5.1,11.5,8,18.7,8.6,11.8,1,22-2.8,30.4-11.3,1.9-1.9,3.1-4.3,4.2-5.8-7.1-7.2-13.4-13.6-20.5-20.8-1.3,2.3-2.5,4.3-3.6,6.2-4.9-2.9-6.3-6.2-6.1-10.3.4-8.2,8.1-13.9,16.6-11.9,3,.7,6,2.2,8.7,3.8,7.2,4.1,14.4,4.1,21.6,0,2.4-1.4,4.9-2.7,7.6-3.5,6.3-2,12.6.3,15.8,5.4,3.7,5.8,2.1,12.6-3.9,15.7-1.4-1.5-2.8-3.1-4.4-4.9-6.7,6.8-13.2,13.3-20,20.2,1.7,4.8,5.9,7.9,10.2,10.8,15.7,10.8,38.3,8.7,48.5-9.4,2.8-5,4.6-10.6,6.3-16,2.1-6.4-.5-12.2-3.7-17.6-2.4-4.1-6.4-4.6-10.3-1.8-1.5,1-2.6,2.5-4.2,3.3-3.8,2.2-8.5.4-8.9-3.6-1.1-9.7,3.8-18.7,16.1-15.8,1.9.5,3.7,1.3,5.6,2.1,1.1.5,2.2,1,4.5,2.1-3.6-8.8-7.6-15.5-14.8-19.8-7.8-4.6-13.9-3.4-19.2,4-1.8,2.5-2.2,7.1-5.4,7.1s-.1-7.5.7-8.8c1.6-2.7,3.7-5,6.3-6.7,5.3-3.4,11.9-3.3,17.5-.7,8.9,4,14.5,11.3,17.8,20.1,2.4,6.4,3.9,13.1,5.6,19.3,5.4-4.8,11.2-9.9,17-15,9.7-8.6,19.5-17.1,29.1-25.8,12.4-11.3,19.6-25.6,23.3-41.7,1-4.4.9-9.1.8-13.6-.1-6.4-1.4-12.8-1.1-19.1.4-11.2,2.9-22.1,6.3-32.8,1.8-5.5,3.2-11.1,4-16.8,2.1-15-.7-29.5-6.2-43.4-2.2-5.6-2.7-11-1.6-16.9,3.2-17.9,5.6-35.9,2.9-54.2-.4-3-.8-5.9-1-8.9-2.4-30.9-10.6-60-25.5-87.3-9.7-17.7-21.4-33.7-37.2-46.4-2.6-2.1-5.7-3.8-8.8-4.8-5.9-1.8-9.1-.4-11.6,5.4-2,4.5-3.5,9.4-4.3,14.2-3,18.1-5.5,36.3-8.5,54.4-2.2,13.4-3.6,27-10.5,39.1-.1.2.1.7.2,1.1,3,1.9,6.2,3.7,9,5.9,1,.8,1.8,2.9,1.5,4-.7,2-2.6,1.2-4.1.5-.9-.4-1.8-.9-2.6-1.4-5.6-3.7-11.9-5.5-18.4-6.6-10.8-1.8-21.7-2.4-32.7-2.4-10.3-.1-20.3,1.1-30.3,2.6-6.2.9-12,2.9-17.3,6.2-1.5.9-3.2,1.8-4.9,2.2-1.8.4-3.1-1.5-2.2-3.1.6-1.2,1.7-2.2,2.8-3,2.5-1.8,5.2-3.3,7.7-4.8h0ZM293.43,572c6.7-1.9,10.2,1.4,13.5,5.5,2.9,3.5,5.9,7,9.3,10.1,6,5.3,8.6,5.3,14.5.2,3-2.6,5.8-5.5,8.2-8.6,3.7-4.6,7.2-9.2,14.3-7.5-2.4-5.2-5-6.8-9.3-5.5-2.5.7-4.7,2.1-7,3.3-9,4.8-17.9,4.8-26.8,0-1.9-1-3.8-2.2-5.9-2.9-4.9-2-7.6-.7-10.8,5.4h0ZM302.73,626.8c10.7,7.3,32.9,7,41.1-.2-6.7-3.2-13.6-6.6-20.2-9.8-6.8,3.3-13.7,6.6-20.9,10ZM365.53,618.1c-4.3,0-8.4,0-12.7-.9-4-.8-7.8-2.3-11.3-4.3-5.7-3.3-10.6-7.9-14.7-13-1.2,4.2-1.5,8.7,2.3,12.6,7.8,5.9,17.3,8.5,27,7.8,1.7-.1,3.3-.3,5-.6,1-.2,2.1-.2,3.1-.6.6-.2,1-.5,1.3-1h0ZM320.33,599.9c-5.4,5.6-11.2,11.6-17.7,14.5-3.2,1.5-6.8,2.2-10.3,2.5s-7.1,0-10.6.5c.3.8.5,1.3,1.3,1.7.7.3,1.5.6,2.4.7,9.8,1.1,19.4,1,28.3-4.4,7-4.4,9.8-6.6,6.6-15.5h0ZM257.03,557.2c7.5-1.8,12.3,1.1,16.8,5.2,1.2-5.4,0-9.1-3.2-10.7-3.5-1.6-8.7.2-13.6,5.5h0ZM389.33,556.5c-4-4.6-9.3-6.4-12.8-4.8-3.2,1.5-4.4,5-3.5,10.1,6.5-3.4,12-5.1,16.3-5.3Z"/>
            <path class="cls-1" d="M185.83,300.2c.1-1.4.2-2.9.3-4.3.6-7.6,1.1-15.2,2.1-22.9,2.1-15.5,5.6-30.7,10.7-45.5,4.2-12.1,9.4-23.8,15.6-35,3-5.3,6.9-10.2,11.1-14.7,5.7-6,12.4-4.3,15.3,3.6,1.3,3.5,1.8,7.4,2.2,11.1,2.6,20,6.9,39.6,12.2,59.1,2.4,8.8.7,15.5-5.8,22.2-9,9.2-17.1,19.5-25.5,29.3-4.9,5.8-9.7,11.7-14.6,17.4-2.2,2.6-4.7,5.3-7.7,7-2.1,1.2-4.6,1.9-7,1.2-3.7-1-5.9-4.9-7.1-8.5-2-6.4-2.2-13.2-1.8-20h0ZM231.13,180.3c-3.8,3.7-7.1,7.5-10,12.1-2.9,4.7-5.7,9.5-8,14.5-.4.8-.7,1.5-1,2.3-9.4,21.9-16,44.7-18.6,68.5-.8,7.4-1.6,14.8-1.8,22.2-.2,7-.4,14.4,2.4,20.9,1.3,3,3.1,3.3,5.7,1.3,1.6-1.2,3-2.7,4.3-4.2,4.9-5.7,9.8-11.6,14.7-17.3,9-10.4,17.9-20.9,27.2-31,4.1-4.5,5.6-9,4-14.7-3-11-5.7-22.1-8-33.3-2.3-11.1-4.6-22.4-5.9-33.6-.9-6.7-3-9.4-5-7.7h0Z"/>
            <path class="cls-1" d="M461.53,315.4c-.4,2.9-1.4,5.9-2.8,8.4-3.2,5.8-8.9,6.9-14.1,2.8-2.6-2.1-5-4.6-7.2-7.1-6-7.1-11.8-14.5-17.9-21.6-7.5-8.8-15.2-17.4-23-25.9-5.1-5.6-6.1-11.6-4.4-18.8,3.6-14.7,7-29.5,10.1-44.3,1.6-7.6,2.4-15.4,3.8-23,.5-2.5,1.2-5.1,2.6-7.2,3.3-5.1,8.3-6,12.6-1.7,4.3,4.3,8.6,9.1,11.5,14.4,17.4,30.7,26.4,63.9,28.8,99,.2,3,.6,19.7,0,25h0ZM416.13,180.2c-3.7,1.6-3.8,4.6-4.3,7.3-1.3,7.5-2.2,15-3.8,22.4-3.2,14.8-6.6,29.6-10.2,44.3-1.3,5.5-.9,10,3,14.4,10.2,11.4,20.2,23.1,30.2,34.7,5,5.7,9.8,11.5,15,17,4.2,4.5,7,3.9,8.6-2.2,1.1-4,1.9-8.3,1.6-12.4-1.2-14.9-2.1-29.9-4.8-44.5-4.4-23.4-11.2-46.1-23.4-66.9-3-5.5-6.9-10.4-11.9-14.1h0Z"/>
            <g>
              <g>
                <path class="cls-1" d="M179.73,384.1c5.7,4.9,10.5,9,15.3,13.1,9.1,7.9,19.7,12.8,31,16.3,13.4,4.1,26.4,9.1,37.7,17.7,17.4,13.3,28.5,30.4,31.6,52.3,1.2,9,.1,17.9-2.9,26.5-.7,1.9-2,3.5-3.1,5.3-.4-.1-.8-.2-1.2-.3-.3-1.2-.6-2.4-.8-3.7-.7-6.3-2.8-11.9-6.8-16.9-3.8-4.8-8.6-7-14.4-7.3-3.6-.2-7.2-.1-10.7.4-9.6,1.3-19.1.9-28.3-2.7-1.2-.5-2.7-.5-4.1-.5-21.5.6-36.7-13.7-35.6-34.3.5-10.5.3-20.7-2.9-30.7-1.5-4.5-3.4-9-4.9-13.5-1.9-5.4-2.2-10.9-1.3-16.5.1-1.3.7-2.7,1.4-5.2h0ZM196.83,431.8c.1.6,0,1.4.3,2,3.4,8.3,6.4,16.8,10.4,24.8,8.4,16.8,25.8,26.3,45.7,23.4,4.3-.6,8.8-.9,13.1-.7,7.4.4,14.1,2.6,18.8,9,.5.7,1.4,1.2,2.1,1.5,1.2-8.7-4.8-20.1-9.9-26.8-11.1-14.6-25.9-23.3-43.9-26.8-11.9-2.3-23.8-4.6-35.7-6.8-.3-.1-.5.1-.9.4h0ZM275.63,453s.1,0,.1-.1c.1-.1.2-.2.3-.2l.1-.1v-.1c-.7-1.8-2-2.9-3.3-4.2s-2.7-2.8-4.1-4.1c-2.7-2.8-5.5-5.5-8.5-7.9-10.5-8.7-23.1-13.3-35.9-17.2-7.9-2.4-15.6-5.5-22.6-9.7-3.5-2.1-6.9-4.5-10-7.1s-5.5-5.8-9.1-7.4c.7.2,1.5,5.5,1.8,6.5.7,2.4,1.3,4.9,2,7.3,2.7,10.2,9,16.7,19.5,18.8,6.8,1.4,13.7,2.6,20.6,3.5,7.1,1,14.1,2.5,20.8,5,6.7,2.4,13,5.6,18.8,9.8,1.6,1.1,3.1,2.3,4.7,3.6s3,2.7,4.7,3.8q0-.3.1-.2h0ZM193.83,445.4c-3.4,16.9,5,29.9,22.2,33.1-12-8.9-16.5-21.3-22.2-33.1Z"/>
                <path class="cls-1" d="M301.83,437.9c-.1,0-3.5-8.8-3.9-9.6-1.4-3.1-3-6.2-4.9-9.1-3.7-5.9-8.5-11.2-14.1-15.2-1.1,1.6-2.3,3.2-3.3,4.8-3.8,5.8-8.8,7.1-14.9,3.9-5.3-2.7-9.1-7.5-10.2-13.4-.4-2.1-.5-4.3-.3-6.5.1-1.1.3-2.2.5-3.2.1-.6.9-2.2.6-2.8-.3-.6-1.3-.9-1.8-1.2-.8-.5-1.6-1.1-2.2-1.8-4.3-4.1-8.9-8-12.6-12.6-5.7-7-7.6-15.2-5.3-24.2.6-2.2.9-4.4,1.2-6.6.2-1.1.4-2.1.5-3.2.1-1.2.1-2.4.6-3.5.4-1,1.1-1.8,1.9-2.4.3-.2.6-.5.9-.6.6-.2,1.2,0,1.7.4.8.6,1.6,1.6,2,2.5.9,1.6,1.3,3.4,2,5.1.7,1.5,1.4,2.9,2.3,4.2,1.6,2.6,3.7,4.9,6,7,4,3.6,8.9,6,14.1,7.6,7.7,2.4,13.9,6.8,19.1,12.8,13.6,15.8,21.7,39.4,22.5,55,0,3.9-1.9,12.4-2.4,12.6h0ZM296.03,415.6c-2.4-17.7-10.1-32.5-22.2-45-3.6-3.8-8.1-6.4-13.2-7.8-8.8-2.4-15.8-7.5-21.6-14.4-.9-1-1.4-2.3-2.5-4.1-3.5,8.9-2.4,15.6,1.7,22.1,4.9,7.6,11.5,13.2,19.6,17.1,1.4.7,3.1,1.1,4.3,2.1,1.1.9,1.6,2.4,2.4,3.6-1.1.7-2.1,1.6-3.3,2-1.2.3-2.6.1-3.9.1h-.2c-.1,0-.1.1-.1.2-2.4,4.6-.4,8.8,2.6,12.5,4.8,6,7.8,5.8,12.2-.5,3.2-4.7,7.7-6,12.3-2.8,3,2.1,5.5,5.1,7.9,8,1.5,1.9,2.6,4.5,4,6.9h0Z"/>
                <path class="cls-1" d="M207.43,493.7c2.1,1.5,3.4,2.5,4.8,3.4,5.6,3.5,11.4,5.5,18.1,3.5,4.8-1.4,9.6-2.5,14.5-3.2,7.6-1,14.3,3.2,16.7,9.8,2.1,5.8.2,10.6-5.6,12.4-3.5,1-7.6,1.7-11,.8-11.6-3.1-22.5-8-31.4-16.4-2.9-2.7-5-5.6-6.1-10.3h0ZM222.73,506.1c7.7,5.4,15.6,8.6,23.9,10.9,2.9.8,7.9.1,10-2.2,1.3-1.4,1.8-3.4,1.4-5.3s-1.4-3.6-2.8-4.9c-3.7-3.6-8.6-4-13.4-3-3.4.7-6.7,1.5-10.1,2.3-1.2.4-7.9,2.9-9,2.2h0Z"/>
                <path class="cls-1" d="M311.43,369.7c-.1-1.7-.1-3.4-.2-5.1-.3-4-1.1-8.1-2-12-.1-.3-.2-.7-.2-1-1-3.9-2.3-7.8-3.7-11.6-.3-.9-.6-1.7-1-2.6-2.6-6.6-6.6-12.7-10.6-18.6-2.9-4.2-4.8-4.4-9.7-2.5-3.7,1.4-7.2,1.1-10.1-1.4-5.9-4.9-10-11.1-10.7-18.8-.6-6.3-.1-12.7.1-19.1,0-.9,1.1-2.3,2-2.5s2.5.3,3,1.1c1.3,2,2.2,4.2,3.2,6.4,1.2,2.4,2.5,4.7,4.1,6.9.8,1,1.7,2.3,3,2.8,1.4.5,3.3-.7,4.5-1.4,5.3-3.2,10-2,14.1,2,2.4,2.3,4.6,5,6.2,8,3.7,6.9,6.8,14.2,9,21.7,2.2,7.4,3.6,15,4.1,22.7.2,3.9.3,7.8.1,11.7-.2,3.9-.5,8-1.3,11.8-.5,2.7-1.3,5.4-2.4,7.9-1-2-1.3-4.2-1.5-6.4h0ZM294.63,298.2c-3.4-4.4-5.1-4.5-10.2-2.1-5.6,2.7-7.7,2.3-12.3-2-.8-.8-1.7-1.5-2.7-2.4-1,6.6,3.3,16.5,8.2,18.9,1.2.6,3.2.5,4.5,0,7.1-3,12.4-.2,16.7,5.3,2.5,3.3,4.8,6.8,7.2,10.2-2.1-10.1-5-19.7-11.4-27.9h0Z"/>
                <circle class="cls-1" cx="216.03" cy="379" r="4.8"/>
                <path class="cls-1" d="M323.63,437.2c-7,0-12.6,5.6-12.6,12.6s5.6,12.6,12.6,12.6,12.6-5.6,12.6-12.6-5.7-12.6-12.6-12.6ZM323.63,456.8c-3.9,0-7-3.1-7-7s3.1-7,7-7,7,3.1,7,7-3.1,7-7,7Z"/>
              </g>
              <g>
                <path class="cls-1" d="M469.03,389.5c.9,5.6.5,11.2-1.3,16.5-1.6,4.5-3.4,8.9-4.9,13.5-3.2,10-3.5,20.3-2.9,30.7,1,20.5-14.1,34.9-35.6,34.3-1.4,0-2.8,0-4,.5-9.2,3.6-18.6,3.9-28.3,2.7-3.5-.5-7.2-.6-10.7-.4-5.8.3-10.6,2.4-14.4,7.3-4,5.1-6.1,10.6-6.8,16.9-.1,1.2-.5,2.4-.8,3.7-.4.1-.8.2-1.2.3-1-1.8-2.4-3.4-3.1-5.3-3-8.6-4.2-17.5-2.9-26.5,3-21.9,14.2-39,31.6-52.3,11.3-8.7,24.3-13.6,37.7-17.7,11.3-3.5,22-8.4,31-16.3,4.8-4.1,9.6-8.2,15.3-13.1.5,2.2,1.1,3.7,1.3,5.2h0ZM449.63,431.3c-11.9,2.3-23.8,4.5-35.7,6.8-17.9,3.5-32.7,12.2-43.9,26.8-5.1,6.6-11.1,18-9.9,26.8.7-.3,1.6-.9,2.1-1.5,4.7-6.3,11.4-8.6,18.8-9,4.4-.2,8.8,0,13.1.7,19.9,3,37.3-6.6,45.7-23.4,4-8,7-16.5,10.4-24.8.3-.6.2-1.4.3-2-.6-.2-.8-.4-.9-.4h0ZM371.73,452.9c1.7-1.1,3.2-2.5,4.7-3.8s3.1-2.5,4.7-3.6c5.8-4.1,12.1-7.4,18.8-9.8,6.7-2.4,13.7-4,20.8-5,6.9-.9,13.8-2.2,20.6-3.5,10.5-2.1,16.8-8.6,19.5-18.8.6-2.4,1.3-4.9,2-7.3.3-1,1.1-6.2,1.8-6.5-3.7,1.6-6.1,4.8-9.1,7.4-3.1,2.6-6.5,5-10,7.1-7.1,4.2-14.8,7.3-22.6,9.7-12.9,3.9-25.4,8.5-35.9,17.2-3,2.5-5.7,5.2-8.5,7.9-1.4,1.4-2.7,2.8-4.1,4.1s-2.6,2.5-3.3,4.2v.1s0,.1.1.1c.1.1.2.2.3.2l.1.1c0,.3.1.2.1.2h0ZM431.13,478.6c17.2-3.3,25.6-16.2,22.2-33.1-5.7,11.7-10.2,24.1-22.2,33.1Z"/>
                <path class="cls-1" d="M343.33,425.2c.8-15.6,8.9-39.2,22.5-55,5.2-6,11.4-10.4,19.1-12.8,5.1-1.6,10-4.1,14.1-7.6,2.3-2,4.3-4.4,6-7,.9-1.4,1.6-2.8,2.3-4.2.8-1.7,1.2-3.5,2-5.1.5-.9,1.2-1.9,2-2.5.5-.3,1.1-.5,1.7-.4.3.1.6.3.9.6.8.7,1.5,1.5,1.9,2.4.5,1.1.5,2.3.6,3.5.1,1.1.3,2.1.5,3.2.3,2.2.7,4.5,1.2,6.6,2.3,9,.4,17.2-5.3,24.2-3.7,4.6-8.3,8.5-12.6,12.6-.7.7-1.5,1.2-2.2,1.8-.5.4-1.5.6-1.8,1.2s.4,2.1.6,2.8c.2,1.1.4,2.1.5,3.2.2,2.2.1,4.4-.3,6.5-1.1,5.9-5,10.6-10.2,13.4-6.1,3.2-11.1,1.9-14.9-3.9-1.1-1.6-2.2-3.2-3.3-4.8-5.7,4.1-10.4,9.4-14.1,15.2-1.9,2.9-3.5,6-4.9,9.1-.4.8-3.8,9.6-3.9,9.6-.9,0-2.8-8.5-2.4-12.6h0ZM355.33,408.5c2.4-2.9,4.8-5.9,7.9-8,4.7-3.2,9.1-1.9,12.3,2.8,4.3,6.3,7.4,6.5,12.2.5,3-3.7,5-7.9,2.6-12.5,0-.1-.1-.1-.1-.2h-.2c-1.3.1-2.6.3-3.9-.1-1.2-.3-2.2-1.3-3.3-2,.8-1.2,1.3-2.7,2.4-3.6,1.2-1,2.8-1.4,4.3-2.1,8.1-3.9,14.7-9.5,19.6-17.1,4.1-6.4,5.2-13.2,1.7-22.1-1.1,1.9-1.7,3.1-2.5,4.1-5.8,6.9-12.8,12-21.5,14.4-5.1,1.4-9.6,4-13.2,7.8-12,12.5-19.8,27.3-22.2,45,1.1-2.2,2.2-4.8,3.9-6.9h0Z"/>
                <path class="cls-1" d="M433.73,503.9c-8.9,8.4-19.8,13.4-31.4,16.4-3.4.9-7.6.2-11-.8-5.8-1.8-7.7-6.6-5.6-12.4,2.3-6.5,9.1-10.8,16.7-9.8,4.9.6,9.8,1.8,14.5,3.2,6.7,2,12.5,0,18.1-3.5,1.4-.9,2.7-1.9,4.8-3.4-1.1,4.8-3.3,7.7-6.1,10.3h0ZM415.33,504c-3.4-.8-6.7-1.6-10.1-2.3-4.8-1-9.7-.6-13.4,3-1.4,1.3-2.4,3-2.8,4.9s.1,3.9,1.4,5.3c2.2,2.2,7.1,3,10,2.2,8.2-2.3,16.1-5.5,23.9-10.9-.9.7-7.7-1.9-9-2.2h0Z"/>
                <path class="cls-1" d="M334.43,376c-1-2.5-1.9-5.2-2.4-7.9-.8-3.9-1.1-7.9-1.3-11.8-.2-3.9-.2-7.8.1-11.7.5-7.7,1.9-15.3,4.1-22.7,2.3-7.5,5.3-14.8,9-21.7,1.6-2.9,3.8-5.6,6.2-8,4.1-4,8.9-5.2,14.1-2,1.1.7,3,1.9,4.5,1.4,1.2-.4,2.2-1.8,3-2.8,1.6-2.1,2.9-4.5,4.1-6.9,1.1-2.1,1.9-4.4,3.2-6.4.5-.8,2.2-1.3,3-1.1s2,1.6,2,2.5c.2,6.4.7,12.8.1,19.1-.7,7.6-4.9,13.9-10.7,18.8-3,2.5-6.4,2.8-10.1,1.4-4.9-1.9-6.9-1.7-9.7,2.5-4,5.9-8.1,12-10.6,18.6-.3.9-.7,1.7-1,2.6-1.4,3.8-2.7,7.7-3.7,11.6-.1.3-.2.7-.2,1-1,3.9-1.8,8-2,12-.1,1.7-.1,3.4-.2,5.1-.3,2.2-.6,4.4-1.5,6.4h0ZM341.13,326c2.4-3.4,4.6-6.9,7.2-10.2,4.3-5.5,9.6-8.3,16.7-5.3,1.3.5,3.3.6,4.5,0,4.9-2.4,9.2-12.3,8.2-18.9-1,.9-1.9,1.7-2.7,2.4-4.6,4.3-6.7,4.6-12.3,2-5.1-2.4-6.8-2.2-10.2,2.1-6.3,8.3-9.3,17.9-11.4,27.9h0Z"/>
                <circle class="cls-1" cx="431.13" cy="379" r="4.8"/>
              </g>
            </g>
          </g>
          <g>
            <path class="cls-1" d="M79.83,80.7l-26.8,17c-1.7,1.1-4,.5-5.1-1.2-1-1.7-.5-3.9,1.1-5l59.8-38.1c1.7-1,3.9-.5,5,1.1,1.1,1.8.6,4.1-1,5.1l-26.8,17.2,50.8,79.8c1.1,1.6.5,3.9-1.1,5-1.7,1.1-3.9.5-5-1.1l-50.9-79.8h0Z"/>
            <path class="cls-1" d="M156.73,35.3c-.6-1.9.4-4,2.3-4.6l.3-.1,51.3-16.9c2-.7,4,.4,4.6,2.3.7,2-.2,4.1-2.3,4.7l-48,15.8,13.1,39.7,42-13.8c1.9-.6,4,.4,4.6,2.4.6,1.9-.4,4-2.3,4.6l-42,13.8,13,39.5,48-15.8c2-.7,4,.4,4.6,2.4.6,1.9-.3,3.9-2.3,4.6l-51.2,17-.4.1-.3.1c-1.8.4-3.7-.5-4.3-2.4l-30.7-93.4h0Z"/>
            <path class="cls-1" d="M271.33,17.4l4,86.4c.1,2-1.5,3.7-3.5,3.8-2,.1-3.7-1.5-3.8-3.4l-4.4-96.8c-.5-1.5-.1-3,1.2-4.1,1.6-1.1,4-.9,5.2.7l68,85.7-3.9-85.9c-.1-2,1.5-3.7,3.5-3.8,2.1-.1,3.8,1.5,3.9,3.5l4.4,97.2c.1,2-1.5,3.7-3.6,3.8-1.2.1-2.1-.4-2.9-1.2-.2-.1-.5-.3-.6-.6l-67.5-85.3h0Z"/>
            <path class="cls-1" d="M401.83,8.6c.5-2.1,2.5-3.2,4.4-2.8,2,.5,3.2,2.5,2.7,4.6l-15.1,59.2,77.6-46.1c1.8-.9,4.1-.4,5,1.3,1.1,1.7.5,4-1.3,5.1l-49.2,29.2,27.1,61.1c.8,1.9,0,3.9-1.9,5-.9.4-1.6.4-2.5.1-1-.3-1.8-.8-2.3-2l-26.8-60.4-28.2,16.8-6.5,25.6c-.5,1.9-2.5,3.1-4.5,2.6-1.9-.5-3.1-2.5-2.6-4.4l24.1-94.9h0Z"/>
            <path class="cls-1" d="M562.03,63.1c24.2,14.6,30.8,46.5,15.7,72-15.4,25.2-46.8,34.4-70.9,19.8-24.4-14.7-31.2-46.8-16-72.2,15.2-25.3,46.8-34.3,71.2-19.6h0ZM510.53,148.5c19.9,12,47.2,4.7,60.7-17.4,13.3-22.4,6.8-49.6-13.1-61.6-20.5-12.4-47.6-5.4-61.1,16.9-13.3,22.2-7.1,49.7,13.5,62.1h0Z"/>
          </g>
          <g>
            <path class="cls-1" d="M134.03,583.3l-21.3-23.6c-1.3-1.5-1.2-3.8.4-5.2,1.5-1.3,3.8-1.2,5.1.3l47.5,52.6c1.3,1.5,1.2,3.8-.3,5.1-1.6,1.4-3.9,1.3-5.2-.2l-21.3-23.6-70.2,63.4c-1.5,1.3-3.8,1.2-5.1-.3-1.3-1.5-1.2-3.8.3-5.1l70.1-63.4h0Z"/>
            <path class="cls-1" d="M179.23,708.1l-41.2-24.9-20.9,16.5c-1.3,1-2.9,1-4.2.3-.3-.2-.7-.6-1.1-.8-1.2-1.6-.9-4.1.7-5.2l82.1-64.8c1.2-.8,3-.8,4.3-.1,1.4.9,2.2,2.4,1.9,3.8l-19.4,102.6c-.3,1.9-2.2,3.4-4.2,3.1-.5-.3-.9-.3-1.2-.6-1.2-.7-2-2.3-1.7-3.9l4.9-26h0ZM144.23,678.2l36.5,22.1,11.2-59.5-47.7,37.4h0Z"/>
            <path class="cls-1" d="M256.33,661.5l-30.8-8c-1.9-.5-3.1-2.5-2.6-4.6.5-1.9,2.5-3.1,4.4-2.6l68.6,17.9c1.9.5,3.1,2.5,2.6,4.4-.5,2-2.6,3.2-4.5,2.7l-30.8-8-23.8,91.5c-.5,1.9-2.5,3.1-4.4,2.6s-3.1-2.5-2.6-4.4l23.9-91.5h0Z"/>
            <path class="cls-1" d="M342.33,670.9l-31.7,2.7c-2,.2-3.8-1.3-3.9-3.5-.2-2,1.4-3.8,3.3-3.9l70.7-6c2-.2,3.8,1.3,3.9,3.3.2,2.1-1.3,3.9-3.3,4.1l-31.7,2.7,8,94.3c.2,2-1.4,3.8-3.3,3.9-2,.2-3.8-1.3-3.9-3.3l-8.1-94.3h0Z"/>
            <path class="cls-1" d="M431.53,638.8c25.4-12.3,55.8-.4,68.9,26.1,12.8,26.7,3.3,57.9-22.1,70.2-25.7,12.4-56.2.6-69.2-25.9-12.9-26.6-3.3-58,22.4-70.4h0ZM475.03,728.5c20.9-10.1,29.7-37,18.5-60.3-11.5-23.4-37.9-32.8-58.8-22.6-21.6,10.5-30.5,36.9-19.2,60.4,11.4,23.2,37.9,33,59.5,22.5h0Z"/>
            <path class="cls-1" d="M516.53,572.5c17.7-22,50.3-24.2,73.4-5.7,22.9,18.7,27.7,51,10,73-17.9,22.2-50.6,24.5-73.7,6.1-23-18.8-27.7-51.2-9.7-73.4h0ZM594.13,635.1c14.6-18.1,11-46.1-8.9-62.5-20.4-16.3-48.2-13.5-62.8,4.6-15.1,18.7-11.9,46.5,8.5,62.8,20,16.2,48.1,13.8,63.2-4.9Z"/>
          </g>
        </g>
        <g>
          <g class="cls-2">
            <path class="cls-1" d="M.03,404.3l5.4-30.5c.3-1.6,1.8-2.8,3.4-2.8h17c1.6,0,2.6,1.3,2.4,2.8-.3,1.6-1.8,2.9-3.4,2.9h-14l-1.7,9.5h12.1c1.6,0,2.6,1.2,2.3,2.8-.3,1.6-1.8,2.8-3.4,2.8h-12.1l-1.7,9.5h14c1.6,0,2.6,1.3,2.4,2.9-.3,1.6-1.8,2.8-3.4,2.8H2.43c-1.6.2-2.6-1.1-2.4-2.7Z"/>
          </g>
          <g class="cls-2">
            <path class="cls-1" d="M29.63,398.4c1.1-1.1,2.7-1.2,3.7-.4,1.9,1.8,5.3,3.9,9,3.9,2.5,0,4.9-.8,6.6-1.9,1.7-1.1,2.6-2.4,2.8-3.6.1-.7.1-1.1-.2-1.6s-.6-1-1.3-1.5c-1.3-1-3.6-1.9-6.5-2.4h-.2c-2.3-.5-4.3-1.1-6.1-2s-3.2-2.1-4-3.9c-.5-1.2-.7-2.6-.4-4.1.6-3.1,2.7-5.7,5.4-7.3,2.6-1.7,5.8-2.7,9.2-2.7,4.9,0,8,2.4,10.2,4,1.1.8,1.1,2.4.1,3.6-1,1.2-2.6,1.6-3.7.7-2.3-1.7-4.5-3.2-7.6-3.2-2.3-.1-4.5.7-6,1.7s-2.3,2.1-2.5,3.2c-.1.6-.1,1,.2,1.4.2.4.5.8,1.1,1.3,1.2.9,3.3,1.7,5.9,2.2h.1c2.5.5,4.7,1.1,6.6,2.1,1.8,1,3.4,2.3,4.2,4.1.6,1.3.7,2.8.4,4.3-.6,3.2-2.8,6-5.6,7.8s-6.3,2.8-9.8,2.8c-5.5-.1-9.6-2.7-12.1-5.1-.7-.7-.6-2.3.5-3.4Z"/>
          </g>
          <g class="cls-2">
            <path class="cls-1" d="M65.13,370.8h22c1.6,0,2.6,1.2,2.4,2.8s-1.8,2.8-3.4,2.8h-8.2l-4.9,27.6c-.3,1.6-1.8,2.9-3.4,2.9s-2.6-1.3-2.3-2.9l4.9-27.6h-8.2c-1.6,0-2.6-1.2-2.3-2.8.3-1.5,1.8-2.8,3.4-2.8Z"/>
          </g>
          <g class="cls-2">
            <path class="cls-1" d="M584.53,395c-.3,1.5-1.8,2.7-3.4,2.7h-18.5c-.8,0-1.5-.3-1.9-.9-.9-1.1-.5-2.9.9-3.9l17.8-13.2c1.7-1.3,2.7-3,3.1-4.7.3-1.5,0-3.1-.9-4.3-1.1-1.4-2.7-2.1-4.6-2.1-1.6,0-3.3.5-4.8,1.6l-1.9,1.4c-1.4,1-3.2.9-4-.2s-.4-2.8.9-3.8l1.9-1.4c2.7-2,6-3.1,8.9-3.1,3.4,0,6.5,1.3,8.5,3.9,1.8,2.3,2.3,5.1,1.8,7.9-.6,3.2-2.6,6.5-5.7,8.8l-11.4,8.4h11c1.5.1,2.5,1.3,2.3,2.9Z"/>
          </g>
          <g class="cls-2">
            <path class="cls-1" d="M617.23,368.5c1.7,3.2,2.1,7.3,1.3,11.8s-2.9,8.6-5.7,11.8c-2.7,3.2-6.6,5.5-10.6,5.5s-7-2.3-8.6-5.5c-1.7-3.2-2.1-7.3-1.3-11.8s2.9-8.6,5.7-11.8,6.6-5.5,10.6-5.5,7,2.4,8.6,5.5ZM612.83,380.3c.6-3.5.2-6.7-.9-8.8-1.1-2.1-2.6-3.1-4.3-3-1.6,0-3.5.9-5.4,3s-3.5,5.3-4.1,8.8c-.7,3.5-.2,6.7.9,8.7,1.1,2.1,2.6,3.1,4.3,3.1,1.6,0,3.5-.9,5.4-3.1,1.8-2,3.4-5.2,4.1-8.7Z"/>
          </g>
          <g class="cls-2">
            <path class="cls-1" d="M651.33,395c-.3,1.5-1.8,2.7-3.4,2.7h-18.5c-.8,0-1.5-.3-1.9-.9-.9-1.1-.5-2.9.9-3.9l17.8-13.2c1.7-1.3,2.7-3,3.1-4.7.3-1.5,0-3.1-.9-4.3-1.1-1.4-2.7-2.1-4.6-2.1-1.6,0-3.3.5-4.8,1.6l-1.9,1.4c-1.4,1-3.2.9-4-.2s-.4-2.8.9-3.8l1.9-1.4c2.7-2,6-3.1,8.9-3.1,3.4,0,6.5,1.3,8.5,3.9,1.8,2.3,2.3,5.1,1.8,7.9-.6,3.2-2.6,6.5-5.7,8.8l-11.4,8.4h11c1.5.1,2.6,1.3,2.3,2.9Z"/>
            <path class="cls-1" d="M681.03,376.6c2.1,2.4,2.7,5.5,2.2,8.6-.6,3.1-2.4,6.3-5.4,8.7-3,2.4-6.5,3.6-9.8,3.6s-6.4-1.2-8.4-3.6c-.9-1.1-.6-2.9.8-3.9s3.2-1.1,4.1,0c1.1,1.3,2.7,1.9,4.6,1.9,1.8,0,3.7-.6,5.3-1.9s2.6-3,2.9-4.7c.3-1.7-.1-3.4-1.1-4.7-1.1-1.3-2.8-1.9-4.6-2-.9,0-1.6-.3-2-.9h-.1c-.9-1.1-.6-2.8.7-3.9l6.2-5.1h-8.3c-1.7,0-2.7-1.2-2.4-2.8.3-1.5,1.8-2.8,3.5-2.8h15.2c1.6,0,2.7,1.2,2.4,2.8-.1.5-.3.9-.6,1.3-.2.2-.4.5-.7.7l-7.7,6.4c1.2.5,2.3,1.3,3.2,2.3Z"/>
          </g>
        </g>
      </g>
      <g class="cls-2">
        <path class="cls-1" d="M319.33,180.7h-12.9c2.3,7.3,7,12.3,14.7,14.2-.5.5-1.2,1.5-1.6,2.2-7.4-2.1-12-6.8-14.6-13.8-1.4,5.3-5.2,10.4-15,13.8-.2-.6-.9-1.6-1.4-2,10.4-3.7,13.6-9,14.5-14.3h-12.8v-2.4h13c.1-.7.1-1.5.1-2.2v-6.5h-14.2v-2.4h31.3v2.4h-14.6v6.5c0,.7,0,1.4-.1,2.2h13.7v2.3h-.1Z"/>
        <path class="cls-1" d="M325.53,164.7c1.5,1.4,2.8,2.8,3.8,4.3,1.2-1.5,2.2-3.1,3.1-4.5l2.5,1.3c-.1.2-.4.3-.7.2-.9,1.6-2.2,3.3-3.7,5,2,4,2.3,8.2,2.3,12.6,0,5.3-.4,10.2-1.8,12.1-.7.9-1.8,1.3-4.6,1.3h-1.3c0-.8-.2-1.7-.7-2.3.8,0,1.5.1,2.2.1,1.9,0,2.3-.2,2.7-.7.9-1.2,1.2-5.8,1.2-10.5v-2c-1.7,2.5-3.8,5-5.8,6.5-.4-.6-1-1.4-1.6-1.8,2.6-1.7,5.5-5.1,7.1-8.2-.2-1.8-.7-3.5-1.4-5.3-1.3,1.3-2.6,2.5-3.9,3.5-.4-.5-1.1-1.1-1.6-1.5,1.5-1.2,3.1-2.6,4.5-4.1-.9-1.6-2.2-3.2-3.9-4.7l1.6-1.3ZM338.13,167.7c5.2-.8,10.7-2.1,13.9-3.4l2.3,1.8c-.1.1-.2.1-.4.1h-.3c-.7.2-1.5.5-2.4.7.5,11.8,1.7,23,5.3,28.3-.6.4-1.4,1.2-1.8,1.8-3.7-6-4.8-17.1-5.4-29.6-3.2.8-7.1,1.5-10.7,2.1v9.2c0,5.4-.6,12.9-4.5,18.3-.3-.5-1.1-1.2-1.7-1.5,3.7-5,4-11.6,4-16.9v-11.6l1.7.7ZM348.63,191.1c-.6-1.7-1.2-3.4-1.8-4.9l1.7-.5c1.3,3,2.7,7,3.2,9.6l-1.8.5c-.2-.8-.4-1.8-.7-2.9-4.1.5-8.2.9-10.9,1.2-.1.3-.3.5-.5.5l-.8-2.6c1.6-.1,3.7-.2,5.9-.4v-22.1l2.7.2c0,.2-.2.4-.7.5v21.3l3.7-.4Z"/>
      </g>
    </g>
  </g>
</svg>